<svg xmlns="http://www.w3.org/2000/svg" viewBox="0 0 530 481" class="design-iconfont"><g fill="none" fill-rule="evenodd"><path d="M407.926973,0.577064476 L407.926973,350.810698 L0.5,308.698958 L0.5,59.1802699 L407.926973,0.577064476 Z" transform="translate(114.861786 18.190561)" fill="#FFF" stroke="#979797"/><path d="M418.405452,0.633851586 C421.615172,0.186961577 424.525822,0.880945288 426.631454,2.3842 C428.697748,3.85937008 429.978194,6.11597929 429.978194,8.8068337 C429.978194,11.5409231 428.66727,14.1902548 426.569776,16.2717679 C424.445078,18.3802782 421.509567,19.90941 418.267552,20.3607964 L418.267552,20.3607964 L12.0727427,76.9153811 C8.86302229,77.3622711 5.95237292,76.6682874 3.84674017,75.1650327 C1.78044601,73.6898626 0.5,71.4332534 0.5,68.742399 C0.5,66.0083096 1.81092448,63.3589779 3.90841826,61.2774648 C6.03311653,59.1689545 8.96862726,57.6398227 12.2106427,57.1884363 L12.2106427,57.1884363 Z" stroke="#000" fill="#C6C6C6" transform="translate(99.521806)"/><g opacity=".10946584" fill="#1DA2B4" stroke="#1DA2B4"><path d="M63.6574385,0.62064053 L6.63771909,60.4872795 L6.63771909,60.4872795 C3.3933197,63.3225203 3.06163114,68.2510425 5.89687197,71.4954419 C6.10543832,71.7341068 6.32835529,71.9598398 6.56438336,72.1713855 L6.63771909,72.2371144 L6.63771909,72.2371144 L63.6568767,132.453448 C64.0345949,132.852345 64.5597633,133.078313 65.1091179,133.078313 L97.7188516,133.078313 L97.7188516,133.078313 L48.1190077,79.3942179 L96.7645737,79.3942179 L74.1359251,53.4896791 L48.1190077,53.4896791 L94.6033026,3.35988389 C95.3543457,2.54994069 95.3065977,1.28451124 94.4966545,0.533468104 C94.1268369,0.190544017 93.6411138,-1.07816476e-14 93.1367707,0 L65.1056675,0 C64.5583372,6.31779188e-15 64.0349211,0.224310699 63.6574385,0.62064053 Z" transform="translate(193.552707 108.185967)"/><path d="M163.69814,53.2775269 L106.67842,113.144166 L106.67842,113.144166 L106.506086,113.347684 C103.668868,116.698304 103.742469,121.629548 106.67842,124.894001 L106.67842,124.894001 L106.67842,124.894001 L163.697578,185.110334 C164.075296,185.509232 164.600465,185.735199 165.149819,185.735199 L197.759553,185.735199 L197.759553,185.735199 L148.159709,132.051104 L196.805275,132.051104 L174.176626,106.146566 L148.159709,106.146566 L194.644004,56.0167703 C195.395047,55.2068271 195.347299,53.9413976 194.537356,53.1903545 C194.167538,52.8474304 193.681815,52.6568864 193.177472,52.6568864 L165.146369,52.6568864 C164.599038,52.6568864 164.075622,52.8811971 163.69814,53.2775269 Z" transform="rotate(180 246.4330535 173.2890265)"/></g><path stroke="#FFF" stroke-linecap="square" d="M115.299909 65.5817585L147.698243 61.4298245" transform="translate(1)"/><path stroke="#979797" d="M291.809073 240.685576L480.611568 246.842339" transform="translate(1)"/><path stroke="#979797" d="M291.809073 255.688953L480.611568 262.783427" transform="translate(1)"/><path stroke="#979797" d="M291.809073 269.754619L480.611568 279.662227" transform="translate(1)"/><path stroke="#979797" d="M291.809073 282.882574L480.611568 296.541026" transform="translate(1)"/><path stroke="#979797" d="M291.809073 298.823663L480.611568 313.419826" transform="translate(1)"/><path stroke="#979797" d="M291.809073 311.951618L480.611568 329.360914" transform="translate(1)"/><path stroke="#979797" d="M308.034288 226.804691L308.034288 328.619473" transform="translate(1)"/><g stroke="#000"><path d="M46.5205863,0.540400031 C58.9506221,0.011115511 70.2042755,4.71681944 78.350189,12.7539634 C86.501366,20.7963005 91.5398812,32.1723836 91.5398812,44.9733317 C91.5398812,57.7857616 86.4936059,69.5998188 78.3357701,78.343465 C70.1826349,87.0820731 58.9200948,92.7548014 46.4780437,93.2845975 C34.0480079,93.813882 22.7943545,89.1081781 14.6484409,81.0710341 C6.49726403,73.028697 1.45874876,61.6526139 1.45874876,48.8516659 C1.45874876,36.039236 6.50502407,24.2251788 14.6628599,15.4815325 C22.8159951,6.74292446 34.0785352,1.07019617 46.5205863,0.540400031 Z" fill="#1DA2B4" transform="translate(369.888957 69.890049)"/><path d="M45.4597212,0.524456097 C45.4990408,7.24498863 45.5155826,11.9480125 45.5191679,15.832815 L45.5191679,15.832815 L45.5192299,19.068054 C45.518187,20.2247719 45.516049,21.3308222 45.5131683,22.4290805 L45.5131683,22.4290805 L45.5100521,23.5266585 C45.5061197,24.8204928 45.5013185,26.1235506 45.4962244,27.5061324 C45.4806572,31.7311974 45.4623544,36.6987825 45.4577383,44.4145114 L45.4577383,44.4145114 L45.4570438,45.8753265 L45.4568212,46.6302257 L45.4566535,48.0708441 C40.0928759,58.6317561 37.3843779,63.9829564 34.9785209,68.7411621 L34.7123294,69.2676458 C34.5355393,69.6173209 34.3599316,69.9646804 34.1845503,70.3116008 L34.1845503,70.3116008 L33.8858868,70.9023899 L33.5866119,71.4943884 C31.5239468,75.5745272 29.3433525,79.8867592 25.5074917,87.4459618 C22.6142651,86.191634 13.5869504,80.6683449 7.21123204,70.7711862 C3.37508193,64.8162514 0.5,57.2734851 0.5,48.1127617 C0.5,35.4868322 5.59187199,23.8452126 13.8219519,15.2290067 C21.9382627,6.73190742 33.1077706,1.17603372 45.4597212,0.524456097 Z" fill="#F1783F" transform="translate(369.888957 69.890049)"/></g><path stroke="#979797" d="M323.767829 226.927041L323.767829 330.07526" transform="translate(1)"/><path stroke="#979797" d="M339.50137 227.049392L339.50137 331.7456" transform="translate(1)"/><path stroke="#979797" d="M355.234912 227.171743L355.234912 333.133095" transform="translate(1)"/><path stroke="#979797" d="M371.460126 227.186378L370.47678 334.898292" transform="translate(1)"/><path stroke="#979797" d="M386.701994 228.354155L386.701994 336.190929" transform="translate(1)"/><path stroke="#979797" d="M402.435535 228.476506L402.435535 338.188702" transform="translate(1)"/><path stroke="#979797" d="M418.169077 228.598856L418.169077 340.186475" transform="translate(1)"/><path stroke="#979797" d="M433.902618 228.721207L433.902618 341.246537" transform="translate(1)"/><path stroke="#979797" d="M449.636159 228.843557L449.636159 343.244309" transform="translate(1)"/><path stroke="#979797" d="M465.3697 229.903619L465.3697 344.304371" transform="translate(1)"/><path fill="#00A4B7" opacity=".15254815" d="M208.910327 81.0473355L280.781573 73.2435578 280.781573 202.890283 208.910327 204.9095z" transform="translate(1)"/><path fill="#00A4B7" opacity=".15254815" d="M355.234912 227.171743L418.169077 228.843557 418.169077 338.960164 355.234912 333.010744z" transform="translate(1)"/><path fill="#1DA2B4" opacity=".30050872" d="M281.328533 72.1397728L353.276848 64.7934587 353.276848 201.349802 281.328533 203.87413z" transform="translate(1)"/><path fill="#1DA2B4" opacity=".30050872" d="M418.169077 228.843557L480.611568 229.963539 480.047567 345.055188 418.169077 338.960164z" transform="translate(1)"/><path stroke="#000" d="M291.809073 225.97813L480.611568 229.963539 480.611568 345.626656 291.809073 326.954995z" transform="translate(1)"/><path stroke="#000" d="M-3.02553324e-12 23.5714549L216.67722 0 216.67722 136.400162 -3.02553324e-12 142.652292z" transform="translate(136.913007 65.10306)"/><path stroke="#979797" d="M0 40.2107132L216.67722 19.1479587" transform="translate(136.913007 65.10306)"/><path stroke="#979797" d="M0 57.4438761L216.67722 37.3385194" transform="translate(136.913007 65.10306)"/><path stroke="#979797" d="M0 74.6770389L216.67722 57.4438761" transform="translate(136.913007 65.10306)"/><path stroke="#979797" d="M0 89.9954058L216.67722 77.5492327" transform="translate(136.913007 65.10306)"/><path stroke="#979797" d="M0 109.143365L216.67722 97.6545893" transform="translate(136.913007 65.10306)"/><path stroke="#979797" d="M0 125.419129L216.67722 116.802548" transform="translate(136.913007 65.10306)"/><path stroke="#979797" d="M18.6956009 21.0627546L18.6956009 142.652292" transform="translate(136.913007 65.10306)"/><path stroke="#979797" d="M36.9118274 20.1053566L36.9118274 141.694894" transform="translate(136.913007 65.10306)"/><path stroke="#979797" d="M54.1693051 17.2331628L54.1693051 141.694894" transform="translate(136.913007 65.10306)"/><path stroke="#979797" d="M72.3855316 16.2757649L72.3855316 140.737496" transform="translate(136.913007 65.10306)"/><path stroke="#979797" d="M91.0811325 13.4035711L90.1223837 140.737496" transform="translate(136.913007 65.10306)"/><path stroke="#979797" d="M108.817985 10.5313773L108.817985 138.8227" transform="translate(136.913007 65.10306)"/><path stroke="#979797" d="M127.034211 8.61658141L127.034211 138.8227" transform="translate(136.913007 65.10306)"/><path stroke="#979797" d="M145.250438 7.65918347L145.250438 138.8227" transform="translate(136.913007 65.10306)"/><path stroke="#979797" d="M163.466664 4.78698967L163.466664 136.907905" transform="translate(136.913007 65.10306)"/><path stroke="#979797" d="M181.682891 2.8721938L181.682891 136.907905" transform="translate(136.913007 65.10306)"/><path stroke="#979797" d="M199.899117 0.95739793L199.899117 135.950507" transform="translate(136.913007 65.10306)"/><path fill="#1DA2B4" opacity=".05" d="M137.049373 88.8682837L208.024316 81.169236 208.057863 204.99588 137.049373 207.056506z" transform="translate(1)"/><path fill="#1DA2B4" opacity=".05" d="M291.809073 225.97813L355.234912 227.677802 355.234912 333.010744 291.809073 326.954995z" transform="translate(1)"/><path stroke="#1DA2B4" d="M137.049373 163.755684L154.847211 162.294474 172.835642 143.323147 179.982739 135.45878 190.726815 135.45878 208.910327 106.567222 226.00096 130.004102 244.846102 139.253987 263.4764 112.789163 299.720375 116.581444 310.271131 89.1627716 335.610252 75.9181698" transform="translate(1)"/><path d="M489.985057,91.1117757 C491.067082,91.0688644 492.047647,91.466235 492.757092,92.1465449 C493.466118,92.8264531 493.902923,93.7876908 493.902923,94.8676043 L493.902923,94.8676043 L493.902923,95.975461 C493.902923,97.0663458 493.458639,98.0706637 492.743032,98.813642 C492.027048,99.5570118 491.038378,100.039927 489.94543,100.083272 L489.94543,100.083272 L477.741812,100.567247 C476.659787,100.610158 475.679223,100.212788 474.969778,99.5324777 C474.260752,98.8525695 473.823946,97.8913319 473.823946,96.8114183 L473.823946,96.8114183 L473.823946,95.7035616 C473.823946,94.6126768 474.26823,93.608359 474.983837,92.8653806 C475.699821,92.1220108 476.688492,91.6390955 477.781439,91.595751 L477.781439,91.595751 Z" stroke="#000" fill="#1DA2B4" transform="translate(1)"/><path d="M2.15510862,0.501733774 L21.7658788,1.43885694 C22.2316251,1.46111316 22.6495344,1.69449989 22.9535725,2.04336385 C23.2727876,2.40964223 23.4687191,2.90439365 23.4687191,3.43965771 L23.4687191,3.43965771 L23.4687191,13.024082 C23.4687191,13.547226 23.2808079,14.0144949 22.9681382,14.3433804 C22.6727006,14.6541401 22.2652142,14.8382136 21.8136104,14.8166332 L21.8136104,14.8166332 L2.2028403,13.87951 C1.737094,13.8572538 1.31918471,13.6238671 1.01514652,13.2750031 C0.695931506,12.9087247 0.5,12.4139733 0.5,11.8787092 L0.5,11.8787092 L0.5,2.29428495 C0.5,1.77114093 0.687911129,1.30387208 1.00058083,0.974986578 C1.29601848,0.664226831 1.70350491,0.480153373 2.15510862,0.501733774 L2.15510862,0.501733774 Z" stroke="#000" fill="#FFF" transform="translate(339.208996 246.051269)"/><g stroke="#F1783F"><path stroke-linecap="square" d="M3.40710559 0.55848213L3.40710559 6.14330341" transform="translate(351.67273 250.838259)"/><path d="M0 4.177192L3.40710559 6.52842516 6.71124134 4.177192" transform="translate(351.67273 250.838259)"/></g><text font-family="PingFangSC-Semibold, PingFang SC" font-size="8" font-weight="500" fill="#000" transform="translate(339.208996 246.051269)">
      <tspan x="5.2699901" y="10.8721938">$</tspan>
    </text><path d="M2.15510862,0.501733774 L21.7658788,1.43885694 C22.2316251,1.46111316 22.6495344,1.69449989 22.9535725,2.04336385 C23.2727876,2.40964223 23.4687191,2.90439365 23.4687191,3.43965771 L23.4687191,3.43965771 L23.4687191,13.024082 C23.4687191,13.547226 23.2808079,14.0144949 22.9681382,14.3433804 C22.6727006,14.6541401 22.2652142,14.8382136 21.8136104,14.8166332 L21.8136104,14.8166332 L2.2028403,13.87951 C1.737094,13.8572538 1.31918471,13.6238671 1.01514652,13.2750031 C0.695931506,12.9087247 0.5,12.4139733 0.5,11.8787092 L0.5,11.8787092 L0.5,2.29428495 C0.5,1.77114093 0.687911129,1.30387208 1.00058083,0.974986578 C1.29601848,0.664226831 1.70350491,0.480153373 2.15510862,0.501733774 L2.15510862,0.501733774 Z" stroke="#000" fill="#FFF" transform="translate(423.578887 238.392086)"/><g stroke="#198D9C"><path stroke-linecap="square" d="M3.40710559 0.55848213L3.40710559 6.14330341" transform="rotate(-180 220.4181825 124.461732)"/><path d="M0 4.177192L3.40710559 6.52842516 6.71124134 4.177192" transform="rotate(-180 220.4181825 124.461732)"/></g><text font-family="PingFangSC-Semibold, PingFang SC" font-size="8" font-weight="500" fill="#000" transform="translate(423.578887 238.392086)">
      <tspan x="4.31124134" y="9.91479587">$</tspan>
    </text><path d="M489.985057,117.700337 C491.067082,117.657426 492.047647,118.054796 492.757092,118.735106 C493.466118,119.415015 493.902923,120.376252 493.902923,121.456166 L493.902923,121.456166 L493.902923,122.564022 C493.902923,123.654907 493.458639,124.659225 492.743032,125.402203 C492.027048,126.145573 491.038378,126.628489 489.94543,126.671833 L489.94543,126.671833 L477.741812,127.155808 C476.659787,127.19872 475.679223,126.801349 474.969778,126.121039 C474.260752,125.441131 473.823946,124.479893 473.823946,123.39998 L473.823946,123.39998 L473.823946,122.292123 C473.823946,121.201238 474.26823,120.19692 474.983837,119.453942 C475.699821,118.710572 476.688492,118.227657 477.781439,118.184312 L477.781439,118.184312 Z" stroke="#000" fill="#F1783F" transform="translate(1)"/><path d="M136.49212,189.471195 L154.847211,189.471195 L172.553627,181.531098 L180.046896,157.72981 L190.726815,163.184488 L208.60292,146.756635 L227.270095,146.756635 L244.846102,113.122079 L263.4764,146.756635 L299.720375,134.01438 L311.605519,141.777678 L335.610252,103.643877" stroke="#F1783F" stroke-dasharray="4" transform="translate(1)"/><path d="M504.942412,85.3928849 L505.3782,86.1676187 L509.8782,94.1676187 L510.12333,94.6034065 L509.251755,95.0936677 L509.006624,94.65788 L505.442,88.321 L505.442412,106.246314 L504.442412,106.246314 L504.442,88.321 L500.8782,94.65788 L500.633069,95.0936677 L499.761493,94.6034065 L500.006624,94.1676187 L504.506624,86.1676187 L504.942412,85.3928849 Z" fill="#198D9C" fill-rule="nonzero" transform="translate(1)"/><path d="M504.942412,109.765733 L505.3782,110.540467 L509.8782,118.540467 L510.12333,118.976254 L509.251755,119.466516 L509.006624,119.030728 L505.442,112.694 L505.442412,130.619162 L504.442412,130.619162 L504.442,112.694 L500.8782,119.030728 L500.633069,119.466516 L499.761493,118.976254 L500.006624,118.540467 L504.506624,110.540467 L504.942412,109.765733 Z" transform="matrix(1 0 0 -1 1 241.404758)" fill="#F1783F" fill-rule="nonzero"/><g><path fill="#F1783F" d="M0 12.4461731L4.79374381 12.8214379 4.79374381 40.2107132 0 39.7094037z" transform="translate(296.065302 287.21938)"/><path fill="#1DA2B4" transform="matrix(-1 0 0 1 310.446534 287.21938)" d="M4.79374381 0L9.58748763 0 9.58748763 39.7044281 4.79374381 40.2107132z"/></g><g><path fill="#F1783F" d="M4.76363429e-14 14.360969L3.83499505 14.8789776 3.83499505 53.6142843 8.7197692e-13 53.1608274z" transform="translate(313.32278 274.773207)"/><path fill="#1DA2B4" transform="matrix(-1 0 0 1 324.827766 274.773207)" d="M3.83499505 0L7.6699901 0 7.6699901 54.1326039 3.83499505 54.5716823z"/></g><g><path fill="#F1783F" d="M0.042519655 12.4461731L3.83499505 12.8816373 3.83499505 44.9977029 0 44.7086459z" transform="translate(327.704011 285.304584)"/><path fill="#1DA2B4" transform="matrix(-1 0 0 1 343.043991 285.304584)" d="M5.79563182 0L9.58748763 0 9.58748763 44.6912706 5.75249258 44.9977029z"/></g><g><path fill="#F1783F" d="M2.73334348e-13 11.4887752L3.83499505 11.8608952 3.83499505 39.2533153 0 38.7929305z" transform="translate(344.961489 292.963768)"/><path fill="#1DA2B4" transform="matrix(-1 0 0 1 356.466475 292.963768)" d="M3.83499505 0L7.6699901 0 7.6699901 39.7865697 3.83499505 40.2107132z"/></g><g><path fill="#F1783F" d="M0 20.1053566L3.83499505 20.6966342 3.83499505 65.1027258 0 64.6339918z" transform="translate(359.34272 269.02882)"/><path fill="#1DA2B4" transform="matrix(-1 0 0 1 370.847706 269.02882)" d="M3.87866671 0L7.6699901 0 7.6699901 64.6574774 3.83499505 65.1030595z"/></g><g><path fill="#F1783F" d="M0 18.1905608L3.83499505 18.8006646 3.83499505 64.1456616 0 63.7733583z" transform="translate(374.6827 271.901013)"/><path fill="#1DA2B4" transform="matrix(-1 0 0 1 388.105182 271.901013)" d="M4.83772184 0L8.62873886 0 8.62873886 63.7637358 4.79374381 64.1456616z"/></g><g><path fill="#F1783F" d="M1.65810797e-13 24.8923463L3.83499505 25.6879353 3.83499505 86.1658141 0 85.7305748z" transform="translate(391.940178 250.838259)"/><path fill="#1DA2B4" transform="matrix(-1 0 0 1 403.445164 250.838259)" d="M3.83499505 0L7.6699901 0 7.6699901 85.7233093 3.83499505 86.1658141z"/></g><g><path fill="#F1783F" d="M0 19.1479587L3.83499505 19.8254094 3.83499505 69.889708 0 69.4492561z" transform="translate(406.32141 268.071422)"/><path fill="#1DA2B4" transform="matrix(-1 0 0 1 421.66139 268.071422)" d="M5.83748884 0L9.58748763 0 9.58748763 69.4626559 5.75249258 69.8900492z"/></g><g><path d="M15.7603433,50.019046 C15.7603433,50.019046 14.6287204,58.466265 13.0949794,67.3596371 C10.9210761,73.4148433 7.65021882,79.4145343 3.28240743,85.3587103 C16.1214308,86.8634427 25.0508588,88.1511003 30.0706912,89.2216832 C35.0905237,90.2922661 38.1709785,87.9064713 39.3120558,82.0642989 L40.6736092,62.6711479 C24.0647653,54.2364133 15.7603433,50.019046 15.7603433,50.019046 Z" stroke="#000" fill="#FFF" transform="translate(99.321479 104.481251)"/><path d="M39.8650665,23.0150148 C39.0279615,23.845353 24.8385332,25.1442192 21.7610998,23.8629615 C21.5066219,25.8692059 19.6950576,27.4024291 16.3264068,28.4626311 C14.8819863,34.357669 14.3704819,42.1306048 14.7918934,51.7814384 C14.8568365,53.2687141 14.5401742,54.4678131 14.6320399,56.0991345 C13.3043968,56.3964833 10.3894627,54.9742908 9.97902622,53.6725917 C9.70540193,52.8047923 9.59015488,49.5091985 9.63328508,43.7858103 C3.21109503,39.7299623 0,35.5106979 0,31.1280172 C0,24.5539962 1.75851869,20.7282829 4.11102705,19.216931 C4.44385782,17.5950475 4.90855335,10.2788331 17.8959042,7.00061458 C22.9026766,6.74154522 27.9484973,6.74154522 33.0333663,7.00061458 C34.6079748,6.78187528 35.2116905,5.92428051 34.8445136,4.42783028 C34.4773367,2.93138004 33.8736209,1.45543662 33.0333663,9.09494702e-13 C37.4081162,1.53240551 39.6853496,3.15736508 39.8650665,4.87487872 C40.0447834,6.59239236 40.0447834,7.79456988 39.8650665,8.48141128 C43.3060343,7.01339715 45.0265182,5.81121963 45.0265182,4.87487872 C46.3275839,8.52119449 45.091735,11.7795214 44.6767187,12.6504456 C44.4000412,13.2310618 45.8065306,14.4866937 48.8961869,16.4173414 C45.8990745,18.2837345 43.8209266,19.6407384 42.6617433,20.4883532 C40.7842953,22.1135852 40.7056132,22.1816971 39.9661083,22.9148079 C39.9337608,22.9468758 39.9001488,22.9802161 39.8650665,23.0150148 Z" fill="#000" transform="rotate(2 -2942.02262555 2964.90831395)"/><path d="M10.592772,32.6018781 C11.432391,36.4912784 12.1130495,39.2718052 12.6347475,40.9434583 C13.4394008,42.8823365 21.3157762,49.8696733 23.1759365,50.1045416 C25.0360968,50.33941 25.0478159,50.6745264 27.0958916,49.9691757 C28.4612755,49.498942 29.6920797,48.7762122 30.7883042,47.8009866 L13.9295753,32.8727079 L10.592772,32.6018781 Z" fill="#000" transform="rotate(2 -3437.58374657 3066.14509065)"/><path d="M16.5170948,1.14242072 C16.8253137,0.551984256 17.4531152,1.14242072 18.5329982,1.14242072 C19.6128813,1.14242072 30.2959242,1.93701513 34.3158515,0 C36.5048997,3.1354653 38.7120029,12.3218235 39.1840867,14.0340946 C39.6561704,15.7463656 43.031955,33.9736763 38.7100252,41.726494 C37.0399483,46.242615 32.3768482,47.8355087 29.1832752,47.8355087 C25.9897022,47.8355087 14.4217145,40.3217619 11.4270323,34.5318813 C9.28692511,30.4862959 8.08665532,28.0464623 7.82622294,27.2123803 C4.60225545,26.3132608 2.5078601,25.2549421 1.54303689,24.0374241 C0.0958020626,22.2111471 -0.342571971,19.1475529 0.266724919,17.3100608 C2.14559356,12.0456416 6.58561298,19.4681749 7.20591796,19.4681749 C7.82622294,19.4681749 10.7017732,7.65155735 11.1261134,5.33990742 C13.2006989,3.81137939 16.208876,1.73285719 16.5170948,1.14242072 Z" stroke="#000" fill="#FFF" transform="rotate(2 -3437.58374657 3066.14509065)"/><path stroke="#000" d="M7.09614761 16.4782537L17.8164485 20.8994895 39.5482092 18.6888716" transform="rotate(2 -3437.58374657 3066.14509065)"/><path stroke="#000" fill="#FFF" d="M29.1832752 15.6632386A4.79263888 5.2612855 0 1 0 29.1832752 26.1858096A4.79263888 5.2612855 0 1 0 29.1832752 15.6632386Z" transform="rotate(2 -3437.58374657 3066.14509065)"/><path stroke="#000" fill="#FFF" d="M40.8270807 14.6157322A3.73411111 5.2612855 0 1 0 40.8270807 25.1383032A3.73411111 5.2612855 0 1 0 40.8270807 14.6157322Z" transform="rotate(2 -3437.58374657 3066.14509065)"/><path fill="#000" d="M29.7125391 18.30575799A1.58779166 2.09501291 0 1 0 29.7125391 22.495783810000002A1.58779166 2.09501291 0 1 0 29.7125391 18.30575799Z" transform="rotate(2 -3437.58374657 3066.14509065)"/><path fill="#000" d="M40.2978169 17.25825149A1.58779166 2.09501291 0 1 0 40.2978169 21.44827731A1.58779166 2.09501291 0 1 0 40.2978169 17.25825149Z" transform="rotate(2 -3437.58374657 3066.14509065)"/><path d="M24.2543776,14.7352093 C25.8897404,13.4898154 27.1756417,12.7986633 28.1120817,12.661753 C29.0485217,12.5248427 30.3344231,12.8399896 31.9697858,13.6071938" stroke="#000" transform="rotate(2 -3437.58374657 3066.14509065)"/><path d="M37.2154457,13.6829319 C38.6794545,12.5475185 39.8833329,11.9798119 40.8270807,11.9798119" stroke="#000" transform="rotate(2 -3437.58374657 3066.14509065)"/><path d="M34.0772746,19.8770177 C34.0772746,19.8770177 40.8270807,27.2627933 40.8270807,28.7224039 C40.8270807,30.1820144 35.9559096,31.2106007 35.2159118,31.2106007" stroke="#000" transform="rotate(2 -3437.58374657 3066.14509065)"/><path d="M25.7019204,34.0340935 C25.7019204,34.0340935 26.9909799,36.0843011 29.7125391,36.231898 C30.4969707,36.2744397 31.9518825,35.6932436 34.0772746,34.4883098" stroke="#000" transform="rotate(2 -3437.58374657 3066.14509065)"/><path d="M27.8037141,8.61658141 C32.8555139,8.91111109 35.0553062,11.1450396 34.4030909,15.3183669" stroke="#B4B4B4" transform="rotate(2 -2942.02262555 2964.90831395)"/><path d="M41.2261968,11.4887752 C39.3086993,11.9783603 38.3499505,12.9357582 38.3499505,14.360969" stroke="#B4B4B4" transform="rotate(2 -2942.02262555 2964.90831395)"/><path d="M44.1024431,7.65918347 C43.8603088,9.64772451 43.221143,10.9242551 42.1849456,11.4887752" stroke="#B4B4B4" transform="rotate(2 -2942.02262555 2964.90831395)"/><path d="M40.267448,18.1905608 C42.7121646,16.4828862 44.6296621,15.9174296 46.0199406,16.494191" stroke="#B4B4B4" transform="rotate(2 -2942.02262555 2964.90831395)"/><g><g stroke="#000"><path d="M0.0786762838,26.3277604 C0.742698141,26.0434279 3.52961772,24.5276304 8.43943503,21.7803679 C10.7356559,15.9749325 12.702323,12.3294911 14.3394363,10.8440438 C16.7951062,8.61587278 25.5614778,3.30899774 27.049194,2.80974042 C28.5369102,2.3104831 30.8749304,2.84592769 28.5369102,5.87245378 C26.9782301,7.89013784 25.9497804,8.98017071 25.4515611,9.14255238 C37.1335565,3.86755861 43.8616203,0.883854018 45.6357525,0.191438601 C48.2969507,-0.847184526 48.4222574,2.60813729 47.1681858,4.12718694 C45.3784845,5.29069817 41.4701203,7.45056985 35.4430932,10.606802 C36.871188,10.7238371 37.7898528,10.9573162 38.1990876,11.3072393 C38.8129399,11.8321239 38.9087405,16.4571634 38.553914,17.4875535 C38.1990876,18.5179437 35.0450749,23.1025781 34.7354493,23.5659054 C34.4258236,24.0292326 32.3431959,28.418302 27.5504023,29.5592675 C22.7576087,30.700233 17.2075759,31.8199194 16.5506573,31.8199194 C16.1127116,31.8199194 14.1612499,33.3403201 10.6962722,36.3811215 C2.95385308,29.9632132 -0.585345573,26.6120929 0.0786762838,26.3277604 Z" fill="#FFF" transform="translate(218.406652 214.615775)"/><path d="M22.8659702,9.45339827 C22.475524,15.2781733 20.2373507,19.683916 16.1514503,22.6706265" transform="translate(218.406652 214.615775)"/><path d="M32.4364097,11.2546692 C26.9445601,12.7360506 23.7994012,13.6414638 23.0009328,13.970909 C21.8032302,14.4650769 21.5424466,16.3797209 23.0009328,16.6992088 C23.2863349,16.7617274 23.5842632,16.7991761 23.8947177,16.8115549 C24.2999098,16.8277111 24.9179028,16.754352 25.7486969,16.5914774 C25.8757575,16.5665676 26.0775478,16.5244918 26.3540677,16.46525 C23.7978456,17.1218962 22.5949385,17.9533867 22.7453466,18.9597217 C22.9709588,20.4692242 26.7870308,20.2620988 26.3540677,20.3787341 C25.9211047,20.4953694 22.7453466,21.2975254 22.7453466,22.4259984 C22.7453466,23.5544714 23.601043,24.1435781 24.6621416,24.1435781 C25.3695407,24.1435781 27.7979765,24.2290396 31.9474491,24.3999625" transform="translate(218.406652 214.615775)"/><path d="M28.4991185,16.353753 C28.7316244,16.353753 30.7914291,16.0408859 34.6785326,15.4151518" transform="translate(218.406652 214.615775)"/><path d="M28.4991185 20.55364L34.3383777 19.9985533" transform="translate(218.406652 214.615775)"/></g><path d="M3.51849391,4.39004023 C0.777587428,22.4179855 -0.361944601,33.4789463 0.0998978199,37.5729226 C0.561740241,41.6668989 2.16648229,48.195266 4.91412397,57.1580238 L4.91412397,104.599503 L77.4575411,98.9141743 C76.7083301,92.8014662 76.7083301,86.449381 77.4575411,79.8579185 C78.5813577,69.9707248 82.0394028,57.1989635 82.0394028,49.2879563 C82.0394028,41.3769491 83.9387298,11.7307806 80.2463959,2.41000061 C78.3871594,-1.36512722 52.8111921,-0.705114015 3.51849391,4.39004023 Z" stroke="#000" fill="#D8D8D8" transform="translate(83.917502 289.531169)"/><path d="M60.8769172,0 C61.9887066,17.6467058 62.359303,27.6333902 61.9887066,29.9600532 C61.4328119,33.4500476 61.1458441,45.7146374 58.0192672,53.7874771 C54.8926902,61.8603168 51.3745093,93.3237292 50.1645784,101.053156" stroke="#000" fill="#D8D8D8" transform="translate(83.917502 289.531169)"/><path fill="#000" d="M4.80639851 12.4578521L4.2018076 17.6307617 22.1209075 19.4392581 23.0874195 12.9485692z" transform="translate(83.917502 289.531169)"/><path fill="#000" d="M27.6071052 13.3629026L27.6071052 19.4392581 51.0707461 19.4392581 51.0707461 13.3629026z" transform="translate(83.917502 289.531169)"/><path d="M55.3138708,18.8086995 L78.2651553,14.8645683 L78.2651553,8.27236692 L55.3138708,12.4578521 C55.3138708,11.8949363 55.3138708,12.2558301 55.3138708,13.5405332 C55.3138708,14.8252363 55.3138708,16.5812918 55.3138708,18.8086995 Z" fill="#000" transform="translate(83.917502 289.531169)"/><path d="M59.0434144,53.1448572 C61.0051954,54.6404467 60.8786338,53.1448572 62.1276802,53.1448572 C63.3767267,53.1448572 69.9671374,50.5265782 72.3644389,50.5265782 C73.9626399,50.5265782 75.0867259,51.0737425 75.736697,52.1680709 C71.2052176,56.1435671 67.9401229,59.0903062 65.9414132,61.0082881 C62.9433485,63.885261 53.7927035,86.0416262 51.2863776,98.7190081 C48.7800517,111.39639 57.0816335,51.6492676 59.0434144,53.1448572 Z" fill="#B7B7B7" transform="translate(83.917502 289.531169)"/><path d="M75.736697,52.2997516 C70.2757311,51.7936549 63.7455419,54.6965004 56.1461293,61.0082881" stroke="#000" transform="translate(83.917502 289.531169)"/><g stroke="#000"><path d="M95.5105507,1.60541512 C90.9948645,5.0931984 87.5677055,6.73991384 85.2290736,6.54556144 C71.1318026,5.37400533 63.8532482,-0.497841125 59.7214002,0.0339651186 C51.9813821,1.03017552 33.7898779,3.52399594 28.7913432,6.54556144 C19.5804283,10.3017508 17.6498239,26.3371653 13.9344476,47.6844988 C10.2190713,69.0318322 -7.62703205,63.1329886 3.73197882,82.6389099 C15.0909897,102.144831 26.9787746,115.326417 40.9376132,118.885965 C37.5436685,118.885965 37.5436685,119.514451 42.0710966,123.1971 C46.5985246,126.879748 105.346952,122.580908 113.968392,118.885965 C122.589832,115.191021 123.058232,109.38697 122.824032,107.889219 C122.667898,106.890719 122.27868,103.25656 121.656376,96.9867418 C126.991683,98.1843045 131.156784,98.4836951 134.15168,97.8849138 C137.146577,97.2861325 151.457013,92.1375616 177.08299,82.4392011 C183.511232,81.0088523 187.068049,79.6103724 187.753444,78.2437614 C188.781536,76.193845 190.349244,73.9080647 185.824398,71.4699485 C181.299552,69.0318322 179.352344,65.1023541 178.217667,63.4710977 C177.08299,61.8398413 177.08299,59.4223853 177.08299,58.2586377 C177.08299,57.09489 176.176778,55.5100495 173.602009,56.8843436 C171.027239,58.2586377 145.421018,73.9080647 138.447106,71.4699485 C138.845724,68.529476 139.77679,67.9432955 138.447106,67.9432955 C137.560649,67.9432955 134.861769,69.1188465 130.350466,71.4699485 C126.27315,59.6487227 124.252017,47.5266707 124.287067,35.1037926 C122.824032,22.2685943 121.795462,15.6770551 117.881927,13.3600872 C115.272904,11.8154419 107.815778,7.89721787 95.5105507,1.60541512 Z" fill="#198D9C" transform="translate(45.831875 177.648277)"/><path d="M128.748523,77.1849846 C125.328002,83.3260646 124.157237,86.894246 125.236228,87.8895286 C126.315219,88.8848112 129.716753,86.2258058 135.440829,79.9125124" transform="translate(45.831875 177.648277)"/><path d="M78.7027856,92.2432611 C63.1195632,93.1420154 57.9251557,95.6982551 63.1195632,99.91198" transform="translate(45.831875 177.648277)"/><path d="M64.4366427,101.480047 C69.4871657,104.070297 76.0244638,105.05682 84.048537,104.439616 C92.0726101,103.822413 98.6099082,101.830206 103.660431,98.4629947" transform="translate(45.831875 177.648277)"/><path d="M44.017868,23.7147599 C46.9183225,29.023402 46.9183225,42.2116595 42.2644739,54.526432 C37.6106253,66.8412046 38.9671803,79.1333446 31.4257772,80.2834028 C37.6843156,82.9735868 32.938358,86.8999004 33.3589153,86.8999004 C36.5154909,86.8999004 39.5921677,90.6817701 44.017868,92.8791045 C46.9683349,94.3439941 49.0074411,96.5752082 50.1351865,99.572747" transform="translate(45.831875 177.648277)"/><path d="M66.2447798,0 C66.2447798,0 60.5409153,3.46284341 60.5409153,4.77265704 C60.5409153,5.64586613 64.6683941,11.3494447 72.9233519,21.8833927 C80.1981862,16.1776976 83.9151219,13.32485 84.074159,13.32485 C84.233196,13.32485 85.3780456,13.32485 87.5087078,13.32485 L98.0938352,21.8833927 L98.0938352,9.53586116 C96.8628098,5.92578731 95.4624529,4.12075038 93.8927646,4.12075038 C93.3911127,6.2494252 89.7586884,10.9416964 87.5087078,11.3736656 C85.2587272,11.8056347 83.023042,10.5073796 78.3125613,7.6400183 C73.6020806,4.77265704 66.2447798,0 66.2447798,0 Z" fill="#1DA2B4" transform="translate(45.831875 172.252309)"/><path d="M87.5087078,13.32485 L84.074159,13.32485 L79.8237035,16.5710226 L85.2206165,22.4142085 C93.8250477,91.9562865 97.5181656,128.288396 96.2999703,131.410536 C100.518599,134.678556 103.740896,137.429659 105.966861,139.663845 L113.198902,129.210944 C107.791637,74.3620365 100.225041,38.586186 90.4991147,21.8833927 C91.3987969,20.0230594 92.0956145,18.4862792 92.5895675,17.2730524 L87.5087078,13.32485 Z" fill="#7CE2DC" transform="translate(45.831875 172.252309)"/></g><path d="M11.2004639,70.3678003 C16.9105023,68.2626947 22.7374547,68.9104244 28.6813209,72.3109895" stroke="#000" transform="translate(45.831875 172.252309)"/><path d="M11.2004639,88.1141867 C16.9105023,86.009081 22.7374547,86.6568108 28.6813209,90.0573759" stroke="#000" transform="translate(45.831875 172.252309)"/><path d="M3.44542152,79.2409935 C9.15545998,77.1358879 14.9824123,77.7836176 20.9262785,81.1841827" stroke="#000" transform="translate(45.831875 172.252309)"/><g><path d="M14.9060903,12.3697308 L16.6334701,9.84108505 L17.95992,7.94178641 L18.2439409,7.55005204 C18.9282047,7.27842668 19.4245364,7.23102715 19.7329361,7.40785346 C20.427625,7.69572463 20.7341343,8.37511407 20.913388,9.16820167 C21.1778536,10.2760082 21.4468898,12.7203666 21.2697657,13.6063082 C21.0926417,14.4922499 21.4014961,15.1695819 21.5012569,15.2815262 C21.6010178,15.3934705 21.7554091,15.5709826 21.8221716,15.6271065 C21.8889341,15.6832304 22.0830957,15.9285702 22.9315298,15.6764847 C23.7799639,15.4243993 25.4897239,13.8854438 25.6278016,13.8181221 C25.7069145,13.7795494 26.476063,13.0536306 27.1897046,12.5014468 C27.7215979,12.0898916 28.2292598,11.8114457 28.3620011,11.7897687 C28.6728416,11.7390075 29.6605916,10.9653137 30.3058906,12.1217227 C30.9511896,13.2781317 31.3322863,15.451011 31.2568614,15.451011 C31.2065781,15.451011 31.3582841,15.2149133 31.7119793,14.742718 C31.6960877,15.846671 31.6755856,16.6748243 31.650473,17.2271777 C31.6253604,17.7795312 31.5824075,18.3470776 31.5216142,18.9298168 C31.5518586,18.8452614 31.5208863,19.3345243 31.4286971,20.3976056 C31.3365079,21.4606869 31.1874395,23.0475668 30.9814919,25.1582453 L14.9060903,12.3697308 Z" fill="#FFF" transform="translate(71.639585 262.411921)"/><path d="M32.7943601,18.3178935 C33.0511393,17.0565335 32.4109523,14.5462345 30.8737991,10.7869966 C28.5680693,5.1481396 18.6678441,0.267080025 18.6678441,0.267080025 C18.6678441,0.267080025 15.1598489,-0.333850031 13.4699509,0.267080025 C11.7800529,0.868010081 0.844455198,7.38302053 0.320336845,7.88654339 C-0.203781508,8.39006625 -0.606282952,12.3218513 3.55284233,11.3363395 C7.71196762,10.3508277 10.8434579,8.64948231 11.5073478,8.64948231 C12.1712377,8.64948231 10.5726887,12.8552616 11.5073478,17.121553 C12.442007,21.3878445 13.8217808,25.4440642 15.1867049,25.4440642 C16.0966543,25.4440642 16.9094268,25.3541595 17.6250225,25.1743501 C18.132576,26.7541136 18.7484467,27.6988127 19.4726345,28.0084474 C20.1968223,28.3180822 21.2472029,28.0858078 22.6237763,27.3116243 C23.8915161,28.2518334 24.992848,28.721938 25.927772,28.721938 C27.3301581,28.721938 28.5411405,27.77768 29.2422978,27.77768 C29.9434551,27.77768 32.3116887,28.3534707 33.2089137,28.3534707 C33.8070638,28.3534707 35.5985837,26.3310315 38.5834737,22.2861532 C40.1719882,20.6763869 40.6366532,19.5618562 39.9774686,18.9425611 C39.3182841,18.323266 38.26936,18.4077297 36.8306964,19.1959521 C37.233795,17.8130194 36.928323,17.014164 35.9142804,16.7993859 C34.9002379,16.5846078 33.4750486,17.3834632 31.6387125,19.1959521 C31.1230784,17.4599971 29.7932637,17.2633771 27.6492683,18.6060921 C25.5052729,19.9488071 24.5581472,20.2167875 24.8078913,19.4100333 C24.8933537,16.3248965 23.892041,15.1120888 21.803953,15.77161 C21.7594453,15.7856677 20.3664684,17.1930656 17.6250225,19.9938036 L17.3095073,16.7993859 L16.294724,16.7993859" stroke="#000" fill="#FFF" transform="translate(71.639585 262.411921)"/><path fill="#FFF" d="M17.9150899 17.3607616L18.0299677 18.7820277 19.6027556 17.1709722z" transform="translate(71.639585 262.411921)"/><path d="M36.8306964,19.1959521 C33.708269,22.9831716 31.8918972,24.9752636 31.3815811,25.1722282" stroke="#000" transform="translate(71.639585 262.411921)"/><path d="M31.6387125,19.1959521 C29.4533552,22.8904717 27.6882819,24.8825637 26.3434926,25.1722282" stroke="#000" transform="translate(71.639585 262.411921)"/><path d="M24.9661946,19.6430152 C22.476949,21.9854637 20.8661255,23.3889842 20.133724,23.8535765" stroke="#000" transform="translate(71.639585 262.411921)"/><path d="M20.133724,11.5161291 C20.886516,11.8574379 23.0694783,15.3241479 28.3646982,15.3241479" stroke="#000" transform="translate(71.639585 262.411921)"/></g></g></g><g><path fill="#F1783F" d="M8.89859259e-14 21.0627546L3.83499505 21.7653702 3.83499505 74.6767034 0 74.2415331z" transform="translate(422.620139 264.24183)"/><path fill="#1DA2B4" transform="matrix(-1 0 0 1 434.125125 264.24183)" d="M3.83499505 0L7.6699901 0 7.6699901 75.1884045 3.86539023 75.6344368z"/></g><path d="M1.36720222,477.61104 C348.64824,480.79632 522.288759,480.79632 522.288759,477.61104 C522.288759,472.833121 437.918868,399.234939 338.208996,382.959174 C271.735749,372.108664 203.004077,371.8918 132.013982,382.308581 L1.36720222,477.61104 Z" stroke="#000" fill="#1DA2B4" transform="translate(1)"/><g><path stroke="#000" fill="#FFF" d="M12.7387789 101.145504L33.120504 63.8096466 51.9797855 81.6120493 50.061764 117.558903z" transform="translate(61.827755 196.81731)"/><path d="M42.1642623,69.0577497 C41.7364046,69.0577497 41.1275112,69.0577497 40.3375821,69.0577497 C40.6845673,77.3461273 41.2934606,82.5934609 42.1642623,84.7997505 C43.4704647,88.1091849 47.3868461,96.6403852 48.1842565,98.5951398 C48.981667,100.549894 50.3171764,101.468431 50.3171764,104.073265 C50.3171764,105.809821 50.096941,107.729134 49.6564702,109.831203 C50.4617329,104.048568 51.8137508,101.065317 53.7125237,100.881449 C56.560683,100.605648 61.9460103,100.412457 63.5773012,100.412457 C65.2085921,100.412457 66.9739848,98.2549434 67.3729493,94.1757094 C67.7719138,90.0964755 42.8060487,69.0577497 42.1642623,69.0577497 Z" fill="#000" transform="translate(61.827755 196.81731)"/><path d="M45.3640406,72.2691098 C33.8355108,83.2202956 25.4607724,88.2115586 20.2398254,87.2428986 C11.990376,81.17162 -0.66240442,57.9194068 0.0270334268,50.5966458 C0.702658861,43.0669905 1.77745753,38.1448328 4.70538731,37.0644338 C4.54711363,33.0770623 5.73550346,24.7035387 9.34731061,21.2748936 C12.9591177,17.8462485 12.9591177,15.135571 33.5247874,15.1695969 C30.8532186,11.5272579 30.3886617,8.76202993 32.1311167,6.87391293 C33.6484851,5.02733728 38.1810791,5.94645708 45.7288988,9.63127232 C46.6200285,4.1238476 48.7255572,0 51.1785638,0 C53.6315704,0 55.6751165,9.63127232 56.2266987,9.63127232 C56.7782808,9.63127232 63.5523952,0.199231772 67.3729493,3.13185676 C71.1935035,6.06448176 64.4486109,10.6493133 65.0271782,11.8609593 C65.6057455,13.0726052 65.4309812,29.3095778 63.8385417,31.5830291 C62.7769155,33.0986632 56.6187484,46.6606901 45.3640406,72.2691098 Z" fill="#000" transform="translate(61.827755 196.81731)"/><path d="M31.3636182,0 C35.9561107,9.2933 38.5258581,14.9674392 39.0728604,17.0224177 C39.8933639,20.1048853 39.1349034,20.3473882 37.7251341,23.8989437 C36.3153648,27.4504992 35.5758006,28.6719217 37.7251341,31.3187404 C39.8744676,33.9655592 44.1586858,41.3314141 43.5869067,41.7248347 C43.0151277,42.1182553 38.0119911,43.1106987 37.433123,46.0785317 C36.8542548,49.0463648 35.3183918,63.1134784 34.1388069,64.3889723 C32.9592221,65.6644662 30.5623851,67.2335216 27.0836719,64.3889723 C23.6049587,61.5444229 16.7051135,54.2573341 14.8975553,52.3911281 C13.6925165,51.1469908 12.5396769,47.8394201 11.4390365,42.468416 C5.79920385,40.3019646 2.41180419,38.1810845 1.27683751,36.1057757 C-0.425612504,32.9928125 -0.425612504,29.0232702 1.27683751,27.234496 C2.72347264,25.4521803 4.07211917,24.255003 5.73499093,24.2757896 C8.47051924,24.5664879 10.2898676,26.9229577 10.2898676,26.9229577 C10.2898676,26.9229577 7.70842754,22.937284 7.70842754,21.2438868 C7.70842754,19.5504897 7.33284255,17.6604907 9.65218081,16.3885273 C11.9715191,15.1165638 15.2583274,12.5702172 14.2456256,10.2418465 C13.2329238,7.91347589 11.557366,6.42877917 13.5562454,6.01762928 C15.5551249,5.60647939 22.2257969,4.34439644 24.8690268,3.70760814 C26.63118,3.2830826 28.7960438,2.04721322 31.3636182,0 Z" stroke="#000" fill="#FFF" transform="translate(93.958872 229.425956)"/><path d="M11.3099854,27.9217653 C9.50462579,23.3362085 12.148209,33.3258939 12.148209,34.9587267 C12.148209,36.3277988 11.8113051,40.1652543 11.8456044,42.1461888 C11.8522123,42.5278288 12.2992231,43.9218977 12.2992231,44.0353701 C12.2992231,44.5591167 13.4311913,48.7991039 14.4624098,50.8718213 C15.4432762,52.8433328 17.2353774,54.1065597 17.7488591,54.6555075 C19.3314663,56.6721679 21.2290958,58.1141367 22.5718549,59.5479074 C24.9199754,62.0551823 26.6077028,63.3974522 27.3165086,63.9967234 C28.0253144,64.5959945 28.7291788,65.4456695 30.5961496,65.5200662 C32.4631204,65.5944629 33.3900111,64.4447463 33.6175803,64.238445 C34.2414905,63.6728434 34.3314627,62.4779959 34.3989593,62.1767864 C35.5926493,56.8498398 36.3335742,50.0595222 36.3335742,50.0595222 C36.3335742,50.0595222 36.6128639,48.4014981 37.1714434,45.08545 L31.157222,45.08545 C28.4260369,47.2475419 26.1485844,47.2475419 24.3248645,45.08545 C21.5892847,41.8423122 22.8183473,40.925398 21.7691761,40.1650088 C20.720005,39.4046195 13.115345,32.5073222 11.3099854,27.9217653 Z" fill="#D8D8D8" transform="translate(93.958872 229.425956)"/><path d="M35.2418326,17.9879997 C33.4625074,18.5776544 32.2843716,19.9315934 31.707425,22.0498167" stroke="#000" fill="#FFF" transform="translate(93.958872 229.425956)"/><path stroke="#000" fill="#FFF" d="M34.1568843 24.2936064L34.1568843 28.8791633" transform="translate(93.958872 229.425956)"/><path d="M31.707425,47.838336 C32.4093186,50.1068811 33.8821004,51.3936128 36.1257705,51.6985311" stroke="#000" transform="translate(93.958872 229.425956)"/><path d="M10.5636522,34.1303107 C17.1646615,26.1159763 25.6004908,23.4445315 35.8711401,26.1159763" stroke="#C4C4C4" transform="translate(61.827755 196.81731)"/><path d="M38.8847505,27.2229165 C40.3992913,27.2229165 44.4052918,28.3328773 44.4052918,22.9482183 C44.4052918,19.3584457 43.0460731,15.3868319 40.3276356,11.0333768" stroke="#C4C4C4" transform="translate(61.827755 196.81731)"/><path d="M51.3365557,14.0011516 C52.1285683,15.1390605 52.7373702,16.2964443 53.1629616,17.4733028" stroke="#C4C4C4" transform="translate(61.827755 196.81731)"/><path d="M53.1629616,19.1754403 C53.1629616,19.1754403 58.0762622,27.2229165 52.2497587,29.515695 C48.365423,31.0442139 44.8305105,32.2028942 41.6450212,32.9917357" stroke="#C4C4C4" transform="translate(61.827755 196.81731)"/></g><g><path fill="#F1783F" d="M0.0296134411 20.1053566L3.83499505 20.7750645 3.83499505 69.8900492 -1.74395384e-12 69.5185571z" transform="translate(438.918868 270.943615)"/><path fill="#1DA2B4" transform="matrix(-1 0 0 1 452.34135 270.943615)" d="M4.82290987 0L8.6139878 0 8.62873886 71.4087932 4.79374381 71.8048451z"/></g><g><path fill="#F1783F" d="M0.0288029928 26.8071422L3.78403429 27.7053887 3.83499505 94.7823955 -1.73061615e-12 94.3398276z" transform="translate(455.217597 247.966065)"/><path fill="#1DA2B4" transform="matrix(-1 0 0 1 466.722583 247.966065)" d="M3.83499505 0L7.6699901 0 7.64020876 95.3178686 3.83499505 95.7397934z"/></g><g><path fill="#F1783F" d="M1.28988346e-13 30.6367339L3.83499505 31.6477332 3.83499505 107.228542 0 106.776222z" transform="translate(470.557577 237.434688)"/><path fill="#1DA2B4" transform="matrix(-1 0 0 1 483.980059 237.434688)" d="M4.84193272 0L8.62873886 0 8.62873886 107.732134 4.79374381 108.185967z"/></g><g stroke="#000"><path fill="#FFF" d="M54.56353 0L4.79374381 8.51639102 42.9864497 15.2690883 98.857521 7.0850615z" transform="translate(182.725441 382.704147)"/><path fill="#FFF" d="M49.7697862 2.8721938L0 11.3885848 38.1927059 18.1412821 94.0637772 9.9572553z" transform="translate(182.725441 382.704147)"/><path d="M48.4918694 5.97762887L71.345733 9.7428753" transform="translate(182.725441 382.704147)"/><path d="M40.9748144 7.86025209L59.152237 11.40849" transform="translate(182.725441 382.704147)"/><path d="M29.8426557 9.63437102L50.1959186 13.6054663" transform="translate(182.725441 382.704147)"/></g><g fill="#FFF" stroke="#000"><path d="M28.2624629,3.3721938 L28.2624629,29.5941318 C28.2624629,30.0083454 28.0945697,30.3833454 27.8231231,30.654792 C27.5516764,30.9262386 27.1766764,31.0941318 26.7624629,31.0941318 L26.7624629,31.0941318 L2,31.0941318 C1.58578644,31.0941318 1.21078644,30.9262386 0.939339828,30.654792 C0.667893219,30.3833454 0.5,30.0083454 0.5,29.5941318 L0.5,29.5941318 L0.5,3.3721938 L28.2624629,3.3721938 Z" transform="translate(192.520436 396.362745)"/><path d="M14.3812314 0.4999999999999998A13.8812314 1.89349484 0 1 0 14.3812314 4.28698968A13.8812314 1.89349484 0 1 0 14.3812314 0.4999999999999998Z" transform="translate(192.520436 396.362745)"/><path d="M24.54464,8.61658141 C28.47769,8.61658141 30.8321786,8.61658141 31.6081057,8.61658141 C31.6081057,8.61658141 31.6081057,8.61658141 31.6081057,8.61658141 C36.490991,8.61658141 40.4493517,12.5749421 40.4493517,17.4578274 C40.4493517,20.5512605 38.8325643,23.4197194 36.1861336,25.0215098 C34.2193444,26.2119294 32.6014952,26.8071422 31.3325825,26.8071422 C28.3563818,26.8071422 26.306396,26.8071422 25.1826251,26.8071422 C24.3766646,26.367505 24.0797009,25.3577486 24.5193381,24.5517881 C24.6716003,24.272655 24.9007231,24.0430459 25.1795328,23.8901922 L25.1826251,23.8884969 L25.1826251,23.8884969 C26.5117165,23.8884969 28.5617024,23.8884969 31.3325825,23.8884969 C32.4026146,23.8884969 33.4701537,23.5683387 34.5351996,22.9280223 L34.5352194,22.9280553 C37.4772317,21.1592877 38.4283345,17.3404462 36.659567,14.3984339 C35.5356148,12.5289508 33.5139206,11.3854738 31.3325825,11.3854738 C31.3325825,11.3854738 31.3325825,11.3854738 31.3325825,11.3854738 C29.8612917,11.3854738 27.5986441,11.4593854 24.54464,11.6072088 L24.4422463,11.5586254 C23.6420532,11.1789528 23.301154,10.2224826 23.6808266,9.42228948 C23.8557629,9.05359597 24.1646765,8.76546177 24.54464,8.61658141 L24.54464,8.61658141 L24.54464,8.61658141 Z" transform="translate(192.520436 396.362745)"/></g><g stroke="#000"><path fill="#198D9C" transform="rotate(-42 623.23676328 -100.60656505)" d="M19.9949903 14.35082641A22.0547441 4.33246309 0 1 0 19.9949903 23.01575259A22.0547441 4.33246309 0 1 0 19.9949903 14.35082641Z"/><path d="M17.196595,15.6962439 C17.4281264,15.8832721 19.3456239,17.4789353 22.9490876,20.4832335" transform="translate(234.766264 373.007317)"/><path d="M32.5365752,4.42289691 C30.7713284,2.96257723 29.0254702,2.86597214 27.2990007,4.13308165 C24.7092964,6.03374592 13.6109058,15.2965653 12.307856,16.0527845 C10.6161317,16.8539276 10.1990081,16.8539276 8.56785617,16.0527845" transform="translate(234.766264 373.007317)"/></g><g><path d="M221.241647,131.297435 C222.698248,121.028887 223.825956,115.067987 224.62477,113.414735 C225.822991,110.934856 233.08812,102.239157 233.08812,102.239157 C233.08812,102.239157 258.573466,91.3417319 260.622128,93.0491592 C263.461275,94.5481304 246.251325,106.22073 246.251325,106.22073 C246.251325,106.22073 248.274544,107.504528 251.842368,105.433977 C255.410191,103.363427 257.241876,100.688164 257.241876,100.00562 C257.241876,99.5505905 257.966478,98.5559971 259.415682,97.0218398 C260.254911,96.7485626 260.82834,97.3815971 261.135969,98.9209432 C261.597413,101.229962 261.828575,105.010441 260.622128,106.917328 C259.415682,108.824214 258.861773,109.508921 258.861773,110.256325 C258.861773,110.754595 259.046409,111.807398 259.415682,113.414735 C261.286883,116.180141 260.827972,118.629405 258.038948,120.762525 C257.801171,121.512711 260.046383,125.335289 256.365152,127.413303 C256.322225,129.114757 257.510731,130.940167 255.826907,132.253616 C254.143084,133.567066 253.527727,135.985575 233.08812,140.646744 C227.312228,141.324302 223.363403,138.207866 221.241647,131.297435 Z" stroke="#000" fill="#FFF" transform="translate(1 292.00637)"/><path d="M0,186.930459 C2.69697794,133.38814 6.65459647,95.5997961 11.8728556,73.565426 C19.7002443,40.5138708 47.1773427,14.9773104 60.0485408,7.1349026 C60.8220195,6.60892855 62.6578178,6.48393955 65.5559356,6.75993562 C66.0403726,3.41088171 68.2750699,1.15756984 72.2600274,0 C77.6709002,0 104.295051,6.24450922 119.728017,25.73338 C120.280033,27.8263582 119.907227,31.2971159 118.609599,36.1456531 C123.798557,41.8742592 126.841972,45.6195185 127.739844,47.381431 C129.086652,50.0242997 139.812724,62.0763436 142.512243,68.4024651 C145.211762,74.7285866 168.468994,125.102266 173.193234,132.867542 C177.917474,140.632819 182.640289,139.275633 185.642863,139.275633 C188.645436,139.275633 206.157167,132.404632 209.890741,129.874045 C213.624315,127.343458 223.89649,126.235962 223.89649,126.235962 C223.89649,126.235962 238.030549,129.015196 238.030549,138.846569 C238.030549,148.677942 239.11476,146.382175 237.984726,148.612834 C236.854692,150.843493 227.421964,162.73611 196.280381,176.514956 C182.571675,181.461593 159.470417,190.167404 149.912689,180.879491 C140.354961,171.591579 131.706454,157.082107 131.706454,156.196135 C131.706454,155.605487 130.857713,165.850262 129.16023,186.930459 L0,186.930459 Z" fill="#171717" transform="translate(1 292.00637)"/><path d="M66.2138148,10.8235389 C68.3777877,10.6564048 69.7839568,10.9701507 70.4323221,11.7647766" stroke="#979797" transform="translate(1 292.00637)"/><path d="M74.5630472,12.8281633 C85.0083081,15.5985182 96.2808051,21.981794 108.380538,31.9779907" stroke="#979797" transform="translate(1 292.00637)"/><path d="M113.4729,37.0368353 C114.139946,37.0368353 116.831439,38.5641916 116.831439,39.6797873" stroke="#979797" transform="translate(1 292.00637)"/><path d="M116.831439,43.3954842 C113.293699,43.3954842 110.998135,44.226722 109.944748,45.8891976" stroke="#979797" transform="translate(1 292.00637)"/><path stroke="#979797" d="M105.999507 50.529386L104.192284 55.0759924" transform="translate(1 292.00637)"/><path d="M103.204361,58.8237042 C102.133782,76.9575925 104.380577,92.6008868 109.944748,105.753587 C115.50892,118.906288 121.368839,131.857212 127.524507,144.606361" stroke="#979797" transform="translate(1 292.00637)"/><path d="M145.53921,83.9534198 C149.223419,94.4270488 151.065524,103.668351 151.065524,111.677326" stroke="#979797" transform="translate(1 292.00637)"/><path d="M175.042972,164.573799 C176.499728,161.268221 177.228106,158.082001 177.228106,155.015139 C177.228106,150.414846 177.070395,146.066732 179.090379,147.524148 C180.437034,148.495759 181.814273,151.289615 183.222096,155.905718" stroke="#979797" transform="translate(1 292.00637)"/></g><path stroke="#FFF" d="M156.949536 60.0249045L474.08412 16.5861134" transform="translate(1)"/><path stroke="#FFF" d="M481.569008 15.6081569L494.29528 13.4763214" transform="translate(1)"/><path stroke="#FFF" d="M501.909148 12.0171137L513.240688 10.0231709" transform="translate(1)"/></g></svg>