<svg xmlns="http://www.w3.org/2000/svg" xmlns:xlink="http://www.w3.org/1999/xlink" viewBox="0,0,256,256" width="48px" height="48px" fill-rule="nonzero"><g fill="#1da2b4" fill-rule="nonzero" stroke="none" stroke-width="1" stroke-linecap="butt" stroke-linejoin="miter" stroke-miterlimit="10" stroke-dasharray="" stroke-dashoffset="0" font-family="none" font-weight="none" font-size="none" text-anchor="none" style="mix-blend-mode: normal"><g transform="scale(5.33333,5.33333)"><path d="M30.565,7.063c1.696,-1.872 2.645,-4.442 2.495,-7.063c-2.346,0 -5.066,1.372 -6.788,3.394c-1.348,1.672 -2.795,4.293 -2.271,6.913c2.421,0.3 5.042,-1.222 6.564,-3.244z"></path><path d="M36.318,25h0.002c-0.041,-0.329 -0.077,-0.663 -0.088,-1.015c0,-5.865 4.766,-8.51 4.966,-8.636c-2.596,-3.993 -6.79,-4.467 -8.362,-4.468c-3.643,0 -6.863,2.022 -8.585,2.022c-1.797,0 -4.418,-2.121 -7.363,-2.022c-3.843,0.075 -7.363,2.346 -9.334,5.691c-1.397,2.396 -1.947,5.217 -1.896,8.087c0.002,0.113 0.017,0.228 0.02,0.341c0.157,5.311 2.228,10.79 4.671,14.309c1.921,2.746 4.092,5.691 7.162,5.691c2.771,0 3.794,-1.848 7.413,-1.848c3.37,0 4.418,1.848 7.338,1.848c3.07,0 5.092,-2.795 6.913,-5.567c2.295,-3.218 3.07,-6.288 3.169,-6.414c-0.094,0 -5.287,-2.112 -6.026,-8.019z"></path></g></g></svg>