
<svg width="20" height="21" viewBox="0 0 20 21" fill="none" xmlns="http://www.w3.org/2000/svg">
<g clip-path="url(#clip0_610_15206)">
<path d="M18.1437 16.5841C17.8385 17.2829 17.4772 17.9261 17.0586 18.5174C16.4881 19.3235 16.0209 19.8815 15.6609 20.1914C15.1027 20.7 14.5048 20.9605 13.8644 20.9753C13.4047 20.9753 12.8504 20.8457 12.205 20.5828C11.5576 20.321 10.9626 20.1914 10.4186 20.1914C9.84801 20.1914 9.23608 20.321 8.58155 20.5828C7.92602 20.8457 7.39793 20.9828 6.99417 20.9963C6.38012 21.0223 5.76806 20.7544 5.15713 20.1914C4.7672 19.8544 4.27947 19.2766 3.6952 18.4581C3.06832 17.5841 2.55294 16.5705 2.14918 15.415C1.71677 14.1669 1.5 12.9583 1.5 11.7882C1.5 10.4479 1.79226 9.29187 2.37766 8.32314C2.83773 7.54501 3.44978 6.9312 4.21581 6.4806C4.98185 6.03 5.80955 5.80037 6.70091 5.78568C7.18863 5.78568 7.82822 5.93518 8.62303 6.229C9.4156 6.52381 9.92451 6.67331 10.1476 6.67331C10.3144 6.67331 10.8798 6.4985 11.8382 6.14999C12.7445 5.82679 13.5094 5.69297 14.136 5.74568C15.834 5.88148 17.1097 6.54479 17.9581 7.73982C16.4395 8.65164 15.6883 9.92877 15.7032 11.5671C15.7169 12.8432 16.1841 13.9052 17.1022 14.7484C17.5183 15.1397 17.983 15.4422 18.5 15.657C18.3879 15.9792 18.2695 16.2878 18.1437 16.5841ZM14.2494 1.39816C14.2494 2.39839 13.8806 3.3323 13.1456 4.19672C12.2586 5.22434 11.1857 5.81815 10.0223 5.72445C10.0075 5.60445 9.99888 5.47816 9.99888 5.34545C9.99888 4.38523 10.4207 3.35761 11.1698 2.51739C11.5438 2.09197 12.0194 1.73824 12.5962 1.45606C13.1718 1.17809 13.7162 1.02437 14.2282 0.998047C14.2431 1.13176 14.2494 1.26549 14.2494 1.39815V1.39816Z" fill="white"/>
</g>
<defs>
<clipPath id="clip0_610_15206">
<rect y="0.998047" width="20" height="20" rx="6" fill="white"/>
</clipPath>
</defs>
</svg>
