<svg width="1660" height="593" viewBox="0 0 1660 593" fill="none" xmlns="http://www.w3.org/2000/svg"><g style="mix-blend-mode:luminosity" opacity="1"><path fill-rule="evenodd" clip-rule="evenodd" d="M878.472 -599.404C829.886 -599.404 783.483 -582.582 750.352 -552.957L47.3763 75.599C-15.3552 131.689 -15.3553 218.677 47.3762 274.767L750.352 903.324C783.483 932.951 829.886 949.77 878.472 949.77H1297.33L604.286 330.1H1297.33L947.914 20.2657H604.286L1226.11 -535.726C1253.18 -559.932 1232.59 -599.404 1192.89 -599.404H878.472ZM1595.18 1555.56C1643.77 1555.56 1690.18 1538.74 1723.31 1509.11L2426.28 880.555C2489.01 824.469 2489.01 737.478 2426.28 681.392L1723.31 52.8333C1690.18 23.2092 1643.77 6.38672 1595.18 6.38672H1176.33L1869.37 626.054H1176.33L1525.74 935.893H1869.37L1247.55 1491.88C1220.47 1516.09 1241.06 1555.56 1280.76 1555.56H1595.18Z" fill="url(#paint0_linear_393_594)"/></g><defs><linearGradient id="paint0_linear_393_594" x1="-1359.68" y1="-446.984" x2="-189.924" y2="3384.77" gradientUnits="userSpaceOnUse"><stop stop-color="#f2f2f2" stop-opacity="1"/><stop offset="1" stop-color="#f2f2f2" stop-opacity="1"/></linearGradient></defs></svg>