<?xml version="1.0" encoding="UTF-8"?><svg width="486px" height="236px" viewBox="0 0 486 236" version="1.1" xmlns="http://www.w3.org/2000/svg" xmlns:xlink="http://www.w3.org/1999/xlink"><title>编组 37</title><defs><linearGradient x1="50%" y1="0%" x2="50%" y2="100%" id="linearGradient-1"><stop stop-color="#979797" offset="0%"/><stop stop-color="#202020" offset="100%"/></linearGradient><linearGradient x1="50%" y1="0%" x2="50%" y2="100%" id="linearGradient-2"><stop stop-color="#979797" offset="0%"/><stop stop-color="#202020" offset="100%"/></linearGradient><linearGradient x1="50%" y1="0%" x2="50%" y2="100%" id="linearGradient-3"><stop stop-color="#979797" offset="0%"/><stop stop-color="#202020" offset="100%"/></linearGradient><linearGradient x1="50%" y1="0%" x2="50%" y2="100%" id="linearGradient-4"><stop stop-color="#9C9C9C" offset="0%"/><stop stop-color="#1D1D1D" offset="100%"/></linearGradient><path d="M54.0845478,24.4059005 L44.0169511,30.277394 C43.850962,30.6568198 43.5918748,31.0208764 43.4636543,31.4612985 C40.7371037,40.8263907 42.4672388,45.3994317 42.4672388,45.3994317 L16.0713716,45.0490632 C16.0713716,45.0490632 19.5989997,39.9952562 18.7779553,34.9733882 C18.3430159,32.3140459 16.2679122,28.9229882 16.2679122,28.9229882 L2.62018517e-14,24.4059005 C2.62018517e-14,24.4059005 0.23822829,18.6673632 2.45838853,13.7156479 C4.3389225,9.5214151 7.92472455,6.17087159 11.0511934,4.45238457 C17.8687744,0.705050091 20.4705625,-0.0238353093 28.3827072,0.0001789793 C35.8305636,0.021791839 41.0405519,1.67393138 44.3627386,4.45238457 C51.2909771,10.2470324 58.3867277,24.4059005 58.3867277,24.4059005 L54.0845478,24.4059005 Z" id="path-5"/><linearGradient x1="50%" y1="0%" x2="50%" y2="100%" id="linearGradient-7"><stop stop-color="#FFFFFF" offset="0%"/><stop stop-color="#FFFFFF" offset="100%"/></linearGradient><rect id="path-8" x="0" y="-3.48466553e-14" width="363.295195" height="133.640288" rx="4"/><linearGradient x1="50%" y1="0%" x2="50%" y2="100%" id="linearGradient-10"><stop stop-color="#EFF5FF" offset="0%"/><stop stop-color="#FFFFFF" offset="100%"/></linearGradient><rect id="path-11" x="0" y="0" width="93.1211966" height="32.4905287" rx="4"/></defs><g id="意见反馈" stroke="none" stroke-width="1" fill="none" fill-rule="evenodd"><g id="Apple-TV" transform="translate(-985.000000, -108.000000)"><g id="编组-37" transform="translate(985.000000, 108.000000)"><rect id="矩形" fill="url(#linearGradient-1)" x="41" y="43" width="213" height="120" rx="4"/><rect id="矩形" fill="url(#linearGradient-2)" opacity="0.350818452" x="0" y="131" width="75" height="75" rx="4"/><rect id="矩形备份-24" fill="url(#linearGradient-3)" opacity="0.350818452" x="336" y="30" width="121" height="76" rx="4"/><path d="M29,95 L29,37.8601383 C29,34.0713886 32.0599371,31 35.8345608,31 L138,31" id="路径" stroke="#FFFFFF" stroke-linecap="round" stroke-dasharray="4"/><line x1="151" y1="31.5" x2="261.573077" y2="31" id="路径" stroke="#FFFFFF" stroke-linecap="round" stroke-dasharray="4"/><path d="M441,160 L441,129.644448 C441,127.631675 442.637896,126 444.658342,126 L496,126" id="路径备份" stroke="#FFFFFF" stroke-linecap="round" stroke-dasharray="4" transform="translate(468.500000, 143.000000) rotate(-270.000000) translate(-468.500000, -143.000000) "/><rect id="矩形备份-23" fill="url(#linearGradient-4)" x="256" y="124" width="221" height="83" rx="4"/><g id="编组-7" transform="translate(42.171091, 0.000000)"><g id="编组-5" transform="translate(307.517696, 0.000000)"><g id="编组-3" transform="translate(32.880947, 35.890091) scale(-1, 1) translate(-32.880947, -35.890091) translate(9.833554, 0.000000)"><path d="M46.094785,35.8900913 C46.094785,47.6290198 36.7141904,57.1453881 25.1427457,57.1453881 C13.5710296,57.1453881 4.190435,47.6290198 4.190435,35.8900913 C4.190435,24.1511628 13.5710296,14.6347945 25.1427457,14.6347945 C36.7141904,14.6347945 46.094785,24.1511628 46.094785,35.8900913" id="Fill-89" fill="#1DA2B4"/><path d="M0,11.4989058 C0,17.8495779 5.15939505,22.9975342 11.5238353,22.9975342 C17.8879975,22.9975342 23.0473925,17.8495779 23.0473925,11.4989058 C23.0473925,5.14823377 17.8879975,0 11.5238353,0 C5.15939505,0 0,5.14823377 0,11.4989058" id="Fill-95" fill="#1DA2B4"/><polygon id="Fill-97" fill="#1DA2B4" points="4.190435 66.9019177 46.094785 66.9019177 46.094785 37.6323287 4.190435 37.6323287"/><path d="M19.9251113,46.475486 C21.0724755,48.3200954 20.5979399,50.7480217 19.9401542,52.1657068 C19.7177926,52.6532676 18.2720316,56.7386809 18.0617043,56.9236083 C17.2447372,57.6402705 27.2285836,62.0236529 27.2285836,62.0236529 L27.9046943,53.773258 C30.8005923,53.9452898 34.2000177,53.7968541 36.0686214,52.5544933 C41.6350472,48.8523789 41.9834958,35.9870308 41.8935118,35.3436262 L37.2370457,30.102554 C37.2370457,30.102554 30.2089955,26.8342233 29.1365723,28.2167886 C27.1749761,30.7497998 22.57622,42.087988 19.2610349,40.7882833 C19.2610349,40.7882833 19.6846981,37.2614932 16.7496885,37.2614932 C14.5629956,37.2614932 13.9681167,39.0202239 13.9681167,40.0365014 C13.9681167,43.4678096 18.3838962,43.9904901 19.9251113,46.475486" id="Fill-102" fill="#FA916C"/><path d="M35.6186975,29.7157944 C35.6186975,31.0912793 35.8554265,32.4137063 36.2898906,33.6396645 C36.3476901,33.7921389 36.405213,33.9507765 36.4721387,34.1032509 C36.8913924,35.1301081 37.4503051,36.082202 38.1245403,36.9316637 C39.9439795,39.2187792 42.6110524,40.7684439 45.6332188,41.0825036 C45.7880882,41.0983138 45.9399156,41.1106403 46.094785,41.1168036 L46.094785,36.9316637 L46.0917429,36.9316637 C46.094785,36.8008948 46.094785,36.6733416 46.094785,36.5428407 C46.094785,31.3774702 44.3483556,26.6290594 41.4232592,22.8858004 C40.8795569,22.188813 40.2932654,21.5290733 39.6704691,20.9068493 C38.2550731,22.1046707 37.1342055,23.6543355 36.4325917,25.4280223 C35.9071418,26.7504494 35.6186975,28.197214 35.6186975,29.7157944" id="Fill-106" fill="#1DA2B4"/><path d="M19.5553633,29.9680278 C19.5553633,32.8381418 22.3445447,35.2574769 26.1551826,35.9992554 C26.456895,36.0597195 26.7635806,36.1080907 27.078555,36.1446265 C27.5841719,36.2081781 28.1052611,36.2385388 28.6346392,36.2385388 C33.6493635,36.2385388 37.713915,33.431719 37.713915,29.9680278 C37.713915,29.6350894 37.6768917,29.3080688 37.6028451,28.9900534 C36.9226109,25.9894913 33.1677842,23.6944292 28.6346392,23.6944292 C23.6677136,23.6944292 19.6346595,26.4497902 19.55785,29.8679404 C19.5553633,29.9013886 19.5553633,29.9348368 19.5553633,29.9680278" id="Fill-107" fill="#1DA2B4"/><path d="M20.2537692,71.7801826 C18.3913536,64.2896389 17.4601458,58.7144791 17.4601458,55.0547031 C17.4601458,51.3949272 18.3913536,49.3042422 20.2537692,48.7826484 L4.190435,48.7826484 L4.190435,63.6891329 C4.190435,68.1578366 7.69131768,71.7801826 12.0095951,71.7801826 L20.2537692,71.7801826 Z" id="Fill-113" fill="#1DA2B4"/></g><g id="Fill-100" transform="translate(0.000000, 55.829031)"><mask id="mask-6" fill="white"><use xlink:href="#path-5"/></mask><use id="蒙版" fill="#FFC000" transform="translate(29.193364, 22.699523) scale(-1, 1) translate(-29.193364, -22.699523) " xlink:href="#path-5"/><path d="M35.5656878,11.8736975 C35.4576628,11.8736975 35.3476465,11.8699742 35.2353901,11.8622615 C30.3906915,11.5292878 27.3709687,8.84049871 26.2598541,3.87062705 C25.6418215,1.10710501 25.0678451,0.133981426 25.0621203,0.124407102 L24.5670471,-0.698186842 L25.4802817,-0.698452796 C25.4805306,-0.698452796 28.2996355,-0.689942286 30.0631317,-0.689410379 C32.2368243,-0.687282752 34.8724857,-0.456701132 34.8988697,-0.454307551 L35.0362656,-0.442339647 L35.1480242,-0.356436691 C35.2219492,-0.299788611 36.9720045,1.0637546 38.3474569,4.07195379 C39.4264626,6.43175854 39.5339899,8.66018229 38.64241,10.1856911 C38.0064562,11.2742385 36.9137606,11.8736975 35.5656878,11.8736975" fill="#FA916C" mask="url(#mask-6)" transform="translate(31.904327, 5.587622) scale(-1, 1) translate(-31.904327, -5.587622) "/></g></g><g id="编组" transform="translate(27.632113, 73.316547)"><mask id="mask-9" fill="white"><use xlink:href="#path-8"/></mask><use id="矩形" fill="url(#linearGradient-7)" xlink:href="#path-8"/><rect id="矩形" fill="url(#linearGradient-10)" mask="url(#mask-9)" x="32.4698909" y="28.1993268" width="298.355413" height="89.5022111" rx="4"/><rect id="矩形" stroke="#1DA2B4" fill="#B1CBFF" opacity="0.402925037" mask="url(#mask-9)" x="58.8867277" y="39.4784173" width="118.553776" height="5.49640288" rx="2.74820144"/><ellipse id="椭圆形" fill="#1DA2B4" mask="url(#mask-9)" cx="49.1189931" cy="42.6906475" rx="6.48741419" ry="6.49640288"/><path d="M4,-3.48466553e-14 L359.295195,-3.48466553e-14 C361.504334,-3.52524675e-14 363.295195,1.790861 363.295195,4 L363.295195,19.0038941 L363.295195,19.0038941 L0,19.0038941 L0,4 C-2.705415e-16,1.790861 1.790861,-3.4440843e-14 4,-3.48466553e-14 Z" id="矩形" fill="#1DA2B4" mask="url(#mask-9)"/><ellipse id="椭圆形" fill="#FFFFFF" mask="url(#mask-9)" cx="11.1212815" cy="10.2086331" rx="3.70709382" ry="3.71223022"/><ellipse id="椭圆形备份" fill="#FFFFFF" mask="url(#mask-9)" cx="27.8032037" cy="10.2086331" rx="3.70709382" ry="3.71223022"/><ellipse id="椭圆形备份-2" fill="#FFFFFF" mask="url(#mask-9)" cx="45.4118993" cy="10.2086331" rx="3.70709382" ry="3.71223022"/><rect id="矩形" fill="#FF9B00" x="75.0686499" y="64.0359712" width="93.1211966" height="32.4905287" rx="4"/><rect id="矩形" stroke="#ABF5FF" fill="#FFFFFF" x="189.561785" y="58.9676259" width="125.967963" height="44.4748201" rx="4"/><g id="编组-33" transform="translate(195.549199, 66.820144)"><rect id="矩形备份-14" fill="#FF9B00" x="-1.05361943e-13" y="0" width="48.3985166" height="7.35634612" rx="3.67817306"/><rect id="矩形备份-16" fill="#1DA2B4" x="55.1375506" y="0" width="7.35167341" height="7.35634612" rx="3.67583671"/><path d="M1.22566829,12.8736057 L21.4419914,12.8736057 C21.7805579,12.8736057 22.0550202,13.1480681 22.0550202,13.4866345 C22.0550202,13.825201 21.7805579,14.0996634 21.4419914,14.0996634 L1.22566829,14.0996634 C0.887101813,14.0996634 0.612639451,13.825201 0.612639451,13.4866345 C0.612639451,13.1480681 0.887101813,12.8736057 1.22566829,12.8736057 Z" id="矩形备份-10" fill="#B6D0FF"/><path d="M27.5691647,12.8736057 L47.7854878,12.8736057 C48.1240543,12.8736057 48.3985166,13.1480681 48.3985166,13.4866345 C48.3985166,13.825201 48.1240543,14.0996634 47.7854878,14.0996634 L27.5691647,14.0996634 C27.2305982,14.0996634 26.9561358,13.825201 26.9561358,13.4866345 C26.9561358,13.1480681 27.2305982,12.8736057 27.5691647,12.8736057 Z" id="矩形备份-11" fill="#B6D0FF"/><path d="M63.4163869,19.616923 L109.662072,19.616923 C110.000639,19.616923 110.275101,19.8913853 110.275101,20.2299518 C110.275101,20.5685183 110.000639,20.8429807 109.662072,20.8429807 L63.4163869,20.8429807 C63.0778204,20.8429807 62.803358,20.5685183 62.803358,20.2299518 C62.803358,19.8913853 63.0778204,19.616923 63.4163869,19.616923 Z" id="矩形备份-13" fill="#B6D0FF"/><path d="M1.5398023,19.4892086 L56.6765741,19.4892086 C57.0151406,19.4892086 57.289603,19.763671 57.289603,20.1022375 C57.289603,20.440804 57.0151406,20.7152663 56.6765741,20.7152663 L1.5398023,20.7152663 C1.20123582,20.7152663 0.926773455,20.440804 0.926773455,20.1022375 C0.926773455,19.763671 1.20123582,19.4892086 1.5398023,19.4892086 Z" id="矩形备份-12" fill="#B6D0FF"/></g><rect id="矩形备份-5" fill="#1DA2B4" x="69.5080092" y="68.676259" width="93.1211966" height="32.4905287" rx="4"/><g id="矩形" transform="translate(64.327142, 74.176490)"><mask id="mask-12" fill="white"><use xlink:href="#path-11"/></mask><use id="蒙版" fill="#D6E5FF" xlink:href="#path-11"/></g><path d="M70.4275524,80.7410072 L105.959472,80.7410072 C106.467322,80.7410072 106.879016,81.1527007 106.879016,81.6605505 C106.879016,82.1684002 106.467322,82.5800937 105.959472,82.5800937 L70.4275524,82.5800937 C69.9197027,82.5800937 69.5080092,82.1684002 69.5080092,81.6605505 C69.5080092,81.1527007 69.9197027,80.7410072 70.4275524,80.7410072 Z" id="矩形备份-6" fill="#FFFFFF"/><path d="M72.2921818,87.2374101 L120.476697,87.2374101 C122.014353,87.2374101 123.26087,88.4839266 123.26087,90.0215827 C123.26087,91.5592388 122.014353,92.8057554 120.476697,92.8057554 L72.2921818,92.8057554 C70.7545257,92.8057554 69.5080092,91.5592388 69.5080092,90.0215827 C69.5080092,88.4839266 70.7545257,87.2374101 72.2921818,87.2374101 Z" id="矩形备份-6" fill="#FFFFFF"/><path d="M128.82151,87.2374101 C130.357039,87.2374101 131.601831,88.4822019 131.601831,90.0177304 L131.601831,90.025435 C131.601831,91.5609636 130.357039,92.8057554 128.82151,92.8057554 C127.285982,92.8057554 126.04119,91.5609636 126.04119,90.025435 L126.04119,90.0177304 C126.04119,88.4822019 127.285982,87.2374101 128.82151,87.2374101 Z" id="矩形备份-6" fill="#FFFFFF" transform="translate(128.821510, 90.021583) scale(-1, 1) translate(-128.821510, -90.021583) "/><path d="M70.4275524,97.4460432 L137.169702,97.4460432 C137.677551,97.4460432 138.089245,97.8577367 138.089245,98.3655864 C138.089245,98.8734362 137.677551,99.2851297 137.169702,99.2851297 L70.4275524,99.2851297 C69.9197027,99.2851297 69.5080092,98.8734362 69.5080092,98.3655864 C69.5080092,97.8577367 69.9197027,97.4460432 70.4275524,97.4460432 Z" id="矩形备份-8" fill="#FFFFFF"/></g><path d="M85.2572887,69.4340809 L163.919702,51.0315772 C166.070762,50.5283522 168.222485,51.8641865 168.72571,54.0152466 C168.727472,54.0227761 168.729211,54.0303107 168.730929,54.0378503 L175.032438,81.6961835 C175.521168,83.8412981 174.185794,85.9784257 172.04355,86.4795882 L93.3811366,104.882092 C91.2300764,105.385317 89.0783532,104.049483 88.5751282,101.898422 C88.5733667,101.890893 88.5716271,101.883358 88.5699093,101.875819 L82.2684004,74.2174856 C81.7796703,72.072371 83.1150446,69.9352434 85.2572887,69.4340809 Z" id="矩形" fill="#FF9B00"/><path d="M117.940096,69.4064606 L163.746571,58.7780187 C164.486693,58.6062888 165.226599,59.0643807 165.40283,59.8034438 C165.577681,60.5367198 165.124987,61.2729019 164.391711,61.4477525 C164.389018,61.4483947 164.386323,61.4490287 164.383626,61.4496545 L118.577151,72.0780964 C117.837029,72.2498263 117.097122,71.7917344 116.920892,71.0526713 C116.746041,70.3193953 117.198734,69.5832132 117.93201,69.4083626 C117.934704,69.4077204 117.937399,69.4070864 117.940096,69.4064606 Z" id="矩形" fill="#FFFFFF"/><path d="M100.375387,81.3773581 L166.465711,66.2091997 C167.230428,66.0336921 167.993506,66.5080445 168.174554,67.2714693 C168.353914,68.0277773 167.886206,68.7862864 167.129897,68.9656467 C167.126588,68.9664317 167.123275,68.9672047 167.119959,68.9679656 L101.029636,84.136124 C100.264918,84.3116316 99.5018409,83.8372792 99.3207928,83.0738545 C99.1414324,82.3175464 99.609141,81.5590373 100.365449,81.379677 C100.368759,81.378892 100.372072,81.3781191 100.375387,81.3773581 Z" id="矩形备份-18" fill="#FFFFFF"/><rect id="矩形备份-9" fill="#FF9B00" x="314.931884" y="188.395683" width="89.8970252" height="36.1942446" rx="4"/><rect id="矩形备份-9" fill="#FFFFFF" x="320.492525" y="193.964029" width="25.9496568" height="25.9856115" rx="4"/><rect id="矩形备份-19" fill="#FFFFFF" x="352.002822" y="195.820144" width="8.3409611" height="2.78417266" rx="1.39208633"/><rect id="矩形备份-20" fill="#FFFFFF" x="352.002822" y="202.316547" width="25.9496568" height="2.78417266" rx="1.39208633"/><rect id="矩形备份-21" fill="#FFFFFF" x="352.002822" y="209.741007" width="17.6086957" height="2.78417266" rx="1.39208633"/><rect id="矩形备份-22" fill="#FFFFFF" x="352.002822" y="216.23741" width="37.9977117" height="2.78417266" rx="1.39208633"/><g id="Man" transform="translate(92.075779, 177.634025) scale(-1, 1) rotate(22.000000) translate(-92.075779, -177.634025) translate(14.554190, 123.713422)"><path d="M148.225526,72.1586295 L138.278911,76.1301679 L130.350984,79.2956734 L124.31981,58.0758951 L127.253285,43.5220793 C135.584919,49.1281881 140.604374,53.5907079 142.311649,56.9096388 C144.018924,60.2285697 145.990216,65.3115665 148.225526,72.1586295 Z" id="Path" fill="#1DA2B4" transform="translate(136.272668, 61.408876) rotate(-27.000000) translate(-136.272668, -61.408876) "/><path d="M92.5643118,85.3030216 C92.5643118,85.3030216 70.9321884,104.995943 60.1223394,104.400988 C49.5192696,103.817413 13.5901009,92.2034778 13.5901009,92.2034778 L22.1663358,84.6018741 L58.5272499,90.6539506 L81.6987176,71.1988869 L92.5643118,85.3030216 Z" id="Path" fill="#FA916C"/><path d="M101.632398,50.7220788 C101.632398,50.7220788 89.1277353,51.9709136 86.8455941,48.8486487 C80.4265953,40.0530958 86.8455941,15.9101825 86.8455941,15.9101825 L120.115903,30.1143483 C120.115903,30.1143483 115.067717,38.8480822 116.194068,44.9065015 C116.980464,49.1363699 118.295794,53.2888912 118.267552,53.2969343 L103.480748,55.6856387 L101.632398,50.7220788 Z" id="Path" fill="#FA916C"/><path d="M64.3513615,84.7647434 L83.7925434,105.297351 L95.3651697,97.1607964 C95.3651697,97.1607964 96.8032094,100.720932 99.6792889,107.841205 L150.130065,87.4528263 C145.669047,73.9179474 141.582816,64.9606985 137.871373,60.5810795 C135.969945,58.3373358 130.051455,54.6657552 120.115903,49.5663377 C115.976717,50.0980571 111.299534,50.9379952 106.084355,52.0861521 C92.3139369,55.1263867 64.3513615,84.7647434 64.3513615,84.7647434 Z" id="Path" fill="#1DA2B4"/><path d="M119.065082,37.2721034 C123.093483,37.2659303 128.432672,22.5468311 122.069852,14.6289261 C113.481241,3.94023282 104.363654,9.28704871 104.363654,9.28704871 C104.363654,9.28704871 101.212471,-0.48432445 94.5212449,0.0187818179 C84.9883494,0.735168106 84.581542,15.2820383 84.581542,15.2820383 C84.581542,15.2820383 81.6214829,7.59624126 78.9715672,8.91295987 C76.3213366,10.2293698 77.0008183,33.5343016 97.7986894,23.0280229 C97.7986894,23.0280229 97.5061785,30.2671974 102.642594,30.0286077 C104.856735,29.9258259 105.59793,26.8420623 105.59793,26.8420623 C105.59793,26.8420623 110.542936,33.7297982 114.134617,35.7440752 C114.134617,35.7440752 115.898631,41.0020932 117.761066,40.9993164" id="Fill-152" fill="#0B096F"/><path d="M22.1663358,84.6018741 L20.520367,83.9823173 C20.520367,83.9823173 18.5517271,80.0893633 17.3705436,78.6057911 C15.4609633,76.192615 12.541495,75.3914201 12.541495,75.3914201 C12.541495,75.3914201 10.8648743,74.9760466 10.9182388,76.0469074 C10.9760495,77.2069875 12.7511421,79.8539535 12.3832324,79.6709543 C9.52195946,78.2477501 1.7274958,72.3916802 0.805738609,72.7962758 C-2.36770865,74.192579 4.65313177,88.6986347 7.66515004,89.7648339 C9.9960193,90.5881973 11.1444412,91.4906076 14.1525227,92.2342906 C15.0029749,92.444242 16.3053438,92.7085167 18.0596294,93.0271147 L22.1663358,84.6018741 Z" id="Path" fill="#FA916C"/><path d="M93.8855148,56.4683177 L92.5695566,55.9504577 C92.5695566,55.9504577 90.9503275,53.1266031 89.9787027,52.050506 C88.4079106,50.3001268 86.0061027,49.7192526 86.0061027,49.7192526 C86.0061027,49.7192526 84.6267644,49.4181217 84.670558,50.1949551 C84.7180004,51.0365108 86.1781235,52.956505 85.8754575,52.8237939 C83.5215917,51.7916858 77.7730803,48.0954824 76.2205378,49.3096649 C74.1040412,50.9648939 78.4924469,59.1057825 81.3074696,60.1940023 C83.1492066,60.9059734 84.5709727,61.2709855 87.04569,61.8101283 C87.7453482,61.9623351 88.6411145,62.0535471 89.732989,62.0837641 L93.8855148,56.4683177 Z" id="Path" fill="#F17245" transform="translate(84.774055, 55.575695) rotate(16.000000) translate(-84.774055, -55.575695) "/><path d="M116.919923,31.0973451 C115.020856,36.2667362 105.607451,38.214998 105.607451,38.214998 L105.692981,35.6489069 L106.001445,26.2810094 C106.820418,23.6339555 114.804703,20.9316482 116.902104,27.2168418 C117.390502,28.67414 117.334418,29.9625408 116.919923,31.0973451" id="Fill-186" fill="#FA916C" transform="translate(111.428601, 30.791299) rotate(-30.000000) translate(-111.428601, -30.791299) "/></g><path d="M349.726833,66.8201439 L337.974842,97.3071801 L313.638046,124.244428 L309.211785,124.622032 C307.45794,124.771653 305.77466,125.381559 304.332036,126.39012 L299.960891,129.446059 C299.715661,129.617503 299.655845,129.955285 299.82729,130.200516 C299.896197,130.299079 299.99594,130.371914 300.110803,130.407545 C300.793201,130.619227 301.525682,130.605128 302.199428,130.367341 C303.07295,130.059048 303.78077,129.818165 304.322889,129.64469 C304.322889,129.64469 304.322889,129.64469 304.322889,129.64469 C304.42698,129.611382 304.538363,129.668762 304.571671,129.772852 C304.597917,129.854871 304.568106,129.944447 304.497946,129.994383 C300.663697,132.723332 298.595837,135.032831 298.294352,136.922863 C297.936835,139.164165 299.738879,140.233165 303.700484,140.129864 C307.26799,139.83504 309.99526,139.135767 311.882294,138.032046 C314.712844,136.376463 316.829235,133.558321 317.837742,130.735258 C320.148838,128.953863 331.709256,119.404221 352.518995,102.086331 C353.872407,99.2574695 355.36935,96.2865271 357.009823,93.1735038 C358.650297,90.0604804 360.180146,86.1423053 361.599371,81.4189783 C363.632348,76.8348255 363.632348,73.439198 361.599371,71.2320958 C359.566395,69.0249936 355.608882,67.554343 349.726833,66.8201439 Z" id="路径-2" fill="#FA916C"/><path d="M347.232946,68.9838331 L339.422023,92.3204409 L365.070353,92.3204409 C366.21144,80.5412949 365.56269,72.7624257 363.124103,68.9838331 C361.109875,65.8627841 356.80827,63.728287 350.997685,65.7630981 C350.181568,66.0488944 348.926655,67.1224728 347.232946,68.9838331 Z" id="路径-3" fill="#FFC000"/><path d="M289.45396,69.6043165 L291.290814,69.6043165 C294.622402,69.6043165 297.323188,72.3051024 297.323188,75.6366906 C297.323188,78.9682789 294.622402,81.6690647 291.290814,81.6690647 L289.45396,81.6690647 C286.122372,81.6690647 283.421586,78.9682789 283.421586,75.6366906 C283.421586,72.3051024 286.122372,69.6043165 289.45396,69.6043165 Z" id="矩形" fill="#FA916C"/></g></g></g></g></svg>