<svg xmlns="http://www.w3.org/2000/svg" xmlns:xlink="http://www.w3.org/1999/xlink" viewBox="0 0 120 120" class="design-iconfont">
  <defs>
    <linearGradient x1="0%" y1="44.0648408%" x2="100%" y2="61.8742111%" id="bgdrb2vkhc">
      <stop stop-color="#A4A9AD" stop-opacity="0" offset="0%"/>
      <stop stop-color="#A4A9AD" offset="100%"/>
    </linearGradient>
    <path id="vmxgrlrwta" d="M0 0H120V120H0z"/>
  </defs>
  <g fill="none" fill-rule="evenodd">
    <mask id="53j6wemcmb" fill="#fff">
      <use xlink:href="#vmxgrlrwta"/>
    </mask>
    <g mask="url(#53j6wemcmb)">
      <path d="M31.9656225,1.65714388 C34.917143,1.24849452 38.1507399,1.62988611 41.5419597,2.88240488 C48.7000035,5.52616871 55.1529174,11.5043934 59.8390049,18.9799611 C64.5660222,26.5208228 67.5,35.6044828 67.5,44.4491987 C67.5,53.0300241 64.7372761,59.8046815 60.1341216,63.7476753 C57.8690835,65.6878733 55.1639261,66.9261248 52.1576938,67.3423493 C49.2061734,67.7509986 45.9725764,67.369607 42.5813566,66.1170883 C35.4233128,63.4733245 28.9703989,57.4950998 24.2843115,50.0195321 C19.5572941,42.4786703 16.6233163,33.3950103 16.6233163,24.5502945 C16.6233163,15.969469 19.3860402,9.1948117 23.9891947,5.25181789 C26.2542328,3.3116199 28.9593902,2.07336831 31.9656225,1.65714388 Z" stroke="#121F2C" stroke-width="3" fill="#FFF" transform="translate(25 8)"/>
      <path d="M31.5346482,4.68864229 C34.2528179,4.31230124 37.2305786,4.66459515 40.3535035,5.81802142 C46.9645754,8.25976574 52.9222992,13.783303 57.2499395,20.6870513 C61.6185097,27.6560936 64.3307833,36.0508022 64.3307833,44.2249705 C64.3307833,52.1352485 61.7897636,58.3847236 57.5450562,62.0206769 C55.4626435,63.8044407 52.9756074,64.9428834 50.2117556,65.3255493 C47.493586,65.7018903 44.5158252,65.3495964 41.3929004,64.1961702 C34.7818284,61.7544258 28.8241047,56.2308886 24.4964643,49.3271403 C20.1278942,42.358098 17.4156205,33.9633894 17.4156205,25.7892211 C17.4156205,17.8789431 19.9566402,11.629468 24.2013476,7.99351472 C26.2837603,6.20975093 28.7707965,5.0713082 31.5346482,4.68864229 Z" stroke="#A4A9AD" stroke-width="3" transform="translate(25 8)"/>
      <path d="M17.0452126,4.92333558 C20.4709264,4.44903232 24.2282923,4.86730076 28.1685313,6.32259523 C36.0385652,9.22932666 43.1818627,15.7529522 48.3425287,23.9856 C53.4759081,32.1747184 56.6441314,42.0425556 56.6441314,51.6443225 C56.6441314,61.4220164 53.3617388,69.0440212 48.1457842,73.5119305 C45.4348214,75.834101 42.1968631,77.315464 38.5989188,77.8136132 C35.173205,78.2879165 31.4158392,77.8696481 27.4756001,76.4143536 C19.6055662,73.5076221 12.4622687,66.9839966 7.30160274,58.7513488 C2.16822332,50.5622304 -1,40.6943933 -1,31.0926263 C-1,21.3149324 2.28239259,13.6929276 7.49834721,9.22501831 C10.20931,6.90284784 13.4472684,5.42148481 17.0452126,4.92333558 Z" stroke="#FFF" stroke-width="2" fill="#121F2C" transform="translate(25 8)"/>
      <path d="M28.9779525,37.4047843 C29.4695603,37.6528042 29.9391323,38.1406175 30.2743909,38.7516052 L37.3874884,51.7152596 C38.0221975,52.8720055 38.0221975,54.1695007 37.3874884,54.6858152 L30.2743909,60.4722603 C29.9391323,60.7449991 29.4695603,60.7589584 28.9779525,60.5109385 L25.7964449,58.9058432 C25.394751,58.7031856 25.186408,58.0093336 25.4603468,57.7865295 L31.7523622,52.6682203 L28.2752997,50.9140154 L24.7397112,44.508988 L31.7523622,48.0469248 L24.7397112,35.2665587 L28.9779525,37.4047843 Z M24.0152982,26.1423018 C24.4169921,26.3449634 24.6253351,27.0388089 24.3514094,27.2616423 L18.0594334,32.3799875 L21.5364828,34.1341858 L25.0720712,40.5391484 L18.0594334,37.0012183 L25.0720712,49.7816101 L20.8338168,47.6433779 C20.3421959,47.3953514 19.8726633,46.9076065 19.5374178,46.2965931 L12.4242574,33.332923 C11.7894997,32.176088 11.789501,30.8786581 12.4242587,30.3623034 L19.5374178,24.5759428 C19.8726633,24.30322 20.3421959,24.2891972 20.8338168,24.5372237 L24.0152982,26.1423018 Z" fill="#FFF" fill-rule="nonzero" transform="translate(25 8)"/>
    </g>
    <path d="M63.8635202,86 L21.3084662,89 L28.7572043,66.3233669 C38.518367,74.9216945 45.2863563,80.117438 49.0611722,81.9105974 C52.835988,83.7037567 57.7701041,85.0668909 63.8635202,86 Z" fill="url(#bgdrb2vkhc)" mask="url(#53j6wemcmb)"/>
    <g mask="url(#53j6wemcmb)">
      <path d="M16.8769553,-0.876295744 C19.148882,-1.18986004 21.6412656,-0.916282692 24.2549214,0.0460028553 C29.4216351,1.94826328 34.1173386,6.21127619 37.5064089,11.6006913 C40.8686475,16.9474375 42.9412859,23.3906916 42.9412859,29.6593105 C42.9412859,36.1038894 40.7543283,41.1153949 37.3092348,44.0570979 C35.5011368,45.6010001 33.3415643,46.5859153 30.9418816,46.9171121 C28.6699549,47.2306764 26.1775713,46.957099 23.5639155,45.9948135 C18.3972018,44.092553 13.7014983,39.8295401 10.3124279,34.440125 C6.95018942,29.0933788 4.87755102,22.6501247 4.87755102,16.3815058 C4.87755102,9.93692696 7.06450857,4.92542141 10.5096021,1.98371841 C12.3177001,0.43981625 14.4772726,-0.545098949 16.8769553,-0.876295744 Z" stroke="#FFF" stroke-width="2" fill="#121F2C" transform="translate(3.276599 53.420479)"/>
      <path d="M18.0318674,47.0155795 C27.9905928,50.682144 36.0637348,43.7886341 36.0637348,31.6184942 C36.0637348,19.4483542 27.9905928,6.6101687 18.0318674,2.9436042 C8.07314204,-0.722960313 0,6.17054959 0,18.3406895 C0,30.5108294 8.07314204,43.349015 18.0318674,47.0155795 Z" stroke="#FFF" stroke-width="2" fill="#1DA2B4" transform="translate(3.276599 53.420479)"/>
      <path d="M17.9659194,32.3213317 C19.832974,33.166038 21.283148,33.4302161 22.3164416,33.1020041 C23.3497351,32.7698622 23.8663819,31.8865952 23.8663819,30.4551506 C23.8663819,28.633312 23.0041162,27.037801 21.2795849,25.6834996 C22.4482756,25.5052687 23.0326209,24.6877777 23.0326209,23.2329237 C23.0326209,21.8356876 22.5088479,20.5409045 21.4613021,19.3568797 C20.4137562,18.1839289 19.0562223,17.2826455 17.3887003,16.6518347 L11.7234012,14.579521 L11.7234012,29.583355 L17.9659194,32.3213317 Z M14.7591464,21.8940398 L14.7591464,18.2965187 L17.0894015,19.1885861 C17.944541,19.5205942 18.6144002,19.9341503 19.0989793,20.4290068 C19.5835583,20.9260271 19.8258478,21.4592431 19.8258478,22.027032 C19.8258478,22.6090156 19.5799952,22.9734195 19.08829,23.11968 C18.5965848,23.2651888 17.9302886,23.1663928 17.0894015,22.8256641 L14.7591464,21.8940398 Z M14.7591464,28.2780801 L14.7591464,24.410225 L17.6879991,25.6189289 C18.6429049,26.0193303 19.3733365,26.5047702 19.879294,27.0748126 C20.3852516,27.6473828 20.6382303,28.2480688 20.6382303,28.8749748 C20.6382303,29.5018809 20.3852516,29.8745837 19.879294,29.9925464 C19.3733365,30.1097934 18.650031,29.9611976 17.7093776,29.5495588 L14.7591464,28.2780801 Z" fill="#FFF" fill-rule="nonzero" transform="translate(3.276599 53.420479)"/>
    </g>
    <g stroke="#121F2C" stroke-width="2" mask="url(#53j6wemcmb)">
      <path d="M4.86004345,1.13768245 L15.8110451,6.33233735 L11.2780507,8.86503921 L1.01594223,3.5709673 L4.86004345,1.13768245 Z" fill="#FFF" transform="matrix(-1 0 0 1 108.991228 82)"/>
      <path d="M18.4503809,2.31621597 L27.5525,15.9404576 L22.5320761,18.683784 L13.429957,5.05954235 L18.4503809,2.31621597 Z" fill="#FFF" transform="matrix(-1 0 0 1 108.991228 82)"/>
      <path fill="#121F2C" d="M22.710778 18.5736084L13.6765728 4.87038822 12.7221845 5.28506444 12.7221845 9.19512498 1.46893255 3.27270547 0.991228479 3.55043528 0.991228479 7.86099754 22.1923052 18.8451462z" transform="matrix(-1 0 0 1 108.991228 82)"/>
    </g>
  </g>
</svg>
