<svg xmlns="http://www.w3.org/2000/svg" xmlns:xlink="http://www.w3.org/1999/xlink" viewBox="0 0 120 120" class="design-iconfont">
  <defs>
    <linearGradient x1="-36.9854242%" y1="64.6966839%" x2="100%" y2="62.2913409%" id="qmroyox5fc">
      <stop stop-color="#A4A9AD" stop-opacity="0" offset="0%"/>
      <stop stop-color="#A4A9AD" offset="100%"/>
    </linearGradient>
    <linearGradient x1="0%" y1="43.8858081%" x2="100%" y2="62.232394%" id="1uxivvjtsd">
      <stop stop-color="#A4A9AD" stop-opacity="0" offset="0%"/>
      <stop stop-color="#A4A9AD" offset="100%"/>
    </linearGradient>
    <path id="sbq5uy46ka" d="M0 0H120V120H0z"/>
  </defs>
  <g fill="none" fill-rule="evenodd">
    <mask id="xt7mwkh09b" fill="#fff">
      <use xlink:href="#sbq5uy46ka"/>
    </mask>
    <g mask="url(#xt7mwkh09b)">
      <path d="M19.8118667,12.9197384 L72.8345752,40.5499643 L72.8345752,88.8800619 L19.845702,61.2674676 L3.90900934,68.1264522 L3.90900934,21.8714958 L19.8118667,12.9197384 Z" stroke="#121F2C" stroke-width="3" fill="#FFF" transform="translate(5.079884 2.420479)"/>
      <path fill="#121F2C" d="M21.7843079 23.2139341L65.590911 46.0416313 65.5130166 49.7140249 21.7843079 26.9269185z" transform="translate(5.079884 2.420479)"/>
      <path fill="#A4A9AD" fill-rule="nonzero" d="M18.8502298 16.6833827L20.2365947 14.0229331 71.3268993 40.8032021 71.3268993 86.4233589 68.3268993 84.8497566 68.325961 42.6214756z" transform="translate(5.079884 2.420479)"/>
      <path fill="#A4A9AD" style="mix-blend-mode:multiply" d="M2.92011634 22.545086L19.8300718 14.1679292 19.8300718 62.8809136 2.92011634 71.2580704z" transform="translate(5.079884 2.420479)"/>
      <path d="M16.8769553,-0.876295744 C19.148882,-1.18986004 21.6412656,-0.916282692 24.2549214,0.0460028553 C29.4216351,1.94826328 34.1173386,6.21127619 37.5064089,11.6006913 C40.8686475,16.9474375 42.9412859,23.3906916 42.9412859,29.6593105 C42.9412859,36.1038894 40.7543283,41.1153949 37.3092348,44.0570979 C35.5011368,45.6010001 33.3415643,46.5859153 30.9418816,46.9171121 C28.6699549,47.2306764 26.1775713,46.957099 23.5639155,45.9948135 C18.3972018,44.092553 13.7014983,39.8295401 10.3124279,34.440125 C6.95018942,29.0933788 4.87755102,22.6501247 4.87755102,16.3815058 C4.87755102,9.93692696 7.06450857,4.92542141 10.5096021,1.98371841 C12.3177001,0.43981625 14.4772726,-0.545098949 16.8769553,-0.876295744 Z" stroke="#FFF" stroke-width="2" fill="#121F2C" transform="translate(24.276599 2.420479)"/>
      <path d="M18.0318674,47.0155795 C27.9905928,50.682144 36.0637348,43.7886341 36.0637348,31.6184942 C36.0637348,19.4483542 27.9905928,6.6101687 18.0318674,2.9436042 C8.07314204,-0.722960313 0,6.17054959 0,18.3406895 C0,30.5108294 8.07314204,43.349015 18.0318674,47.0155795 Z" stroke="#FFF" stroke-width="2" fill="#1DA2B4" transform="translate(24.276599 2.420479)"/>
      <path d="M17.9659194,32.3213317 C19.832974,33.166038 21.283148,33.4302161 22.3164416,33.1020041 C23.3497351,32.7698622 23.8663819,31.8865952 23.8663819,30.4551506 C23.8663819,28.633312 23.0041162,27.037801 21.2795849,25.6834996 C22.4482756,25.5052687 23.0326209,24.6877777 23.0326209,23.2329237 C23.0326209,21.8356876 22.5088479,20.5409045 21.4613021,19.3568797 C20.4137562,18.1839289 19.0562223,17.2826455 17.3887003,16.6518347 L11.7234012,14.579521 L11.7234012,29.583355 L17.9659194,32.3213317 Z M14.7591464,21.8940398 L14.7591464,18.2965187 L17.0894015,19.1885861 C17.944541,19.5205942 18.6144002,19.9341503 19.0989793,20.4290068 C19.5835583,20.9260271 19.8258478,21.4592431 19.8258478,22.027032 C19.8258478,22.6090156 19.5799952,22.9734195 19.08829,23.11968 C18.5965848,23.2651888 17.9302886,23.1663928 17.0894015,22.8256641 L14.7591464,21.8940398 Z M14.7591464,28.2780801 L14.7591464,24.410225 L17.6879991,25.6189289 C18.6429049,26.0193303 19.3733365,26.5047702 19.879294,27.0748126 C20.3852516,27.6473828 20.6382303,28.2480688 20.6382303,28.8749748 C20.6382303,29.5018809 20.3852516,29.8745837 19.879294,29.9925464 C19.3733365,30.1097934 18.650031,29.9611976 17.7093776,29.5495588 L14.7591464,28.2780801 Z" fill="#FFF" fill-rule="nonzero" transform="translate(24.276599 2.420479)"/>
      <path d="M-0.0798836588,19.8667007 L56.3953183,50.436009 L56.3953183,104.423189 L-0.0798836588,73.8538812 L-0.0798836588,19.8667007 Z" stroke="#FFF" stroke-width="2" fill="#121F2C" transform="translate(5.079884 2.420479)"/>
      <path fill="url(#qmroyox5fc)" d="M74.3345752 91.3531579L59.4993051 91.7019275 59.4993051 83.6588893z" transform="translate(5.079884 2.420479)"/>
      <g fill="#FFF">
        <path d="M12.8015848 12.0032345L12.8015848 34 20.8245164 26.0285123 16.8513629 23.8563762 16.8513629 14.2642929z" transform="translate(22.463843 45.15004)"/>
        <path transform="rotate(180 15.2920745 33.573403)" d="M0 0L0 21.9967655 8.12030505 14.0663425 4.04977805 11.8531417 4.04977805 2.27686618z"/>
      </g>
      <path fill="url(#1uxivvjtsd)" d="M55.2421049 102.579891L0 86.7019275 0 72.7019275z" transform="translate(5.079884 2.420479)"/>
    </g>
  </g>
</svg>
