<svg width="24" height="24" viewBox="0 0 24 24" fill="none" xmlns="http://www.w3.org/2000/svg">
<rect opacity="0.01" width="24" height="24" fill="black"/>
<path d="M12.0021 0.00927734C18.6277 0.00927734 23.9975 5.37906 23.9975 12.0046C23.9975 18.6301 18.6277 23.9999 12.0021 23.9999C5.37661 23.9999 0.00683594 18.6301 0.00683594 12.0046C0.00683594 5.37906 5.37896 0.00927734 12.0021 0.00927734Z" fill="#FF7B1B"/>
<rect opacity="0.01" x="6.06055" y="1.71216" width="16.8" height="16.8" transform="rotate(15 6.06055 1.71216)" fill="black"/>
<path fill-rule="evenodd" clip-rule="evenodd" d="M16.7897 10.5252C16.6247 11.5269 16.0882 12.1244 15.1801 12.3178C15.7672 12.636 16.1624 13.0378 16.3655 13.5233C16.5687 14.0087 16.5357 14.6148 16.2663 15.3413C16.1267 15.7119 15.9498 16.0237 15.7355 16.2766C15.5213 16.5295 15.2844 16.7217 15.025 16.8533C14.7656 16.9849 14.4636 17.0722 14.1188 17.1148C13.7741 17.1575 13.4236 17.1627 13.0674 17.1304C12.7111 17.0981 12.3103 17.0338 11.8649 16.9375L11.3154 18.9882L10.0769 18.6563L10.6177 16.6378C10.1888 16.5228 9.86249 16.4325 9.63875 16.3668L9.09571 18.3934L7.85731 18.0616L8.40682 16.0108C8.31032 15.985 8.16592 15.9448 7.97361 15.8904C7.78127 15.836 7.63421 15.7951 7.53239 15.7679L5.9239 15.3369L6.56757 13.9319L7.46031 14.1712C7.72837 14.243 7.9205 14.1479 8.03664 13.886L9.52352 8.3369C9.55153 7.95361 9.36178 7.70744 8.95429 7.59825L8.06155 7.35905L8.41497 6.04008L10.1178 6.505C10.4609 6.59694 10.7217 6.66396 10.9001 6.70596L11.4431 4.67931L12.6816 5.01117L12.1494 6.99762C12.5919 7.10468 12.9204 7.18699 13.1348 7.24445L13.6628 5.27407L14.9013 5.60594L14.3583 7.63259C14.7718 7.78363 15.1309 7.9445 15.4357 8.11522C15.7405 8.28595 16.0111 8.48775 16.2476 8.72061C16.484 8.95347 16.6491 9.22184 16.743 9.52566C16.8367 9.82952 16.8523 10.1627 16.7897 10.5252ZM13.8861 14.4449C13.9379 14.2518 13.9436 14.0695 13.9034 13.8978C13.8632 13.7262 13.797 13.5762 13.705 13.4481C13.6129 13.32 13.4807 13.1969 13.3083 13.079C13.136 12.9609 12.9737 12.8643 12.8215 12.789C12.6692 12.7138 12.4773 12.6365 12.2457 12.5572C12.0141 12.4779 11.8313 12.4203 11.6973 12.3844C11.5632 12.3485 11.3896 12.3048 11.1764 12.2534C10.9632 12.202 10.8351 12.1706 10.7922 12.1592L10.0639 14.8774C10.1067 14.8889 10.2056 14.9169 10.3603 14.9612C10.5151 15.0055 10.6433 15.0414 10.7452 15.0687C10.8471 15.096 10.9902 15.13 11.1747 15.1709C11.3591 15.2117 11.5188 15.243 11.6538 15.2648C11.7887 15.2866 11.9476 15.3047 12.1305 15.3192C12.3134 15.3338 12.4723 15.3361 12.6071 15.3262C12.7418 15.3164 12.8843 15.2942 13.0343 15.2597C13.1843 15.2252 13.3117 15.1731 13.4166 15.1035C13.5214 15.0339 13.6159 14.9443 13.6998 14.8346C13.7837 14.7249 13.8459 14.595 13.8861 14.4449ZM14.3664 9.96633C14.3968 10.121 14.3883 10.2868 14.3409 10.4637C14.3006 10.6139 14.2398 10.744 14.1586 10.8544C14.0773 10.9648 13.9773 11.0486 13.8585 11.1059C13.7398 11.1631 13.6212 11.2089 13.5028 11.2432C13.3844 11.2776 13.2411 11.2924 13.0729 11.2875C12.9047 11.2827 12.7587 11.2752 12.635 11.265C12.5113 11.2549 12.3599 11.2301 12.1808 11.1908C12.0018 11.1514 11.8663 11.1209 11.7744 11.0991C11.6826 11.0773 11.5579 11.0439 11.4004 10.9989C11.2431 10.9539 11.1509 10.9277 11.1241 10.9205L11.7857 8.45158C11.8231 8.46162 11.9294 8.48862 12.1044 8.53265C12.2794 8.57659 12.4248 8.61272 12.5408 8.64095C12.6568 8.66916 12.8105 8.71753 13.0019 8.78604C13.1933 8.85455 13.3524 8.92021 13.4792 8.98292C13.6061 9.04571 13.7417 9.1294 13.886 9.23417C14.0303 9.33896 14.1389 9.44845 14.2117 9.5628C14.2844 9.67714 14.336 9.81168 14.3664 9.96633Z" fill="white"/>
</svg>
