<?xml version="1.0" encoding="UTF-8"?><svg width="290px" height="279px" viewBox="0 0 290 279" version="1.1" xmlns="http://www.w3.org/2000/svg" xmlns:xlink="http://www.w3.org/1999/xlink"><title>已完成</title><g id="投票上币" stroke="none" stroke-width="1" fill="none" fill-rule="evenodd" opacity="0.501418"><g id="首页-详情" transform="translate(-813.000000, -2419.000000)" fill="#1DA2B4" fill-rule="nonzero"><g id="已完成" transform="translate(813.678544, 2419.136030)"><path d="M231.479578,185.691445 C227.038691,194.029265 221.40305,201.66644 214.673372,208.471274 C205.692708,217.547547 195.18893,224.707181 183.495353,229.742758 C171.375963,234.944509 158.479272,237.613293 145.179427,237.7015 C131.879583,237.789707 118.96144,235.246586 106.783106,230.177098 C95.0207217,225.282355 84.4320149,218.234613 75.334228,209.240116 C68.519793,202.512356 62.7822984,194.942126 58.2243777,186.67579 L58.2243777,186.67579 L66.2018612,186.63358 C82.4179682,213.251097 111.773453,231.013209 145.161903,230.814036 C178.536675,230.636753 207.691248,212.554754 223.509317,185.722951 L223.509317,185.722951 Z M137.862669,205.362316 L144.359286,208.794434 L150.889814,205.385379 L149.634789,212.638791 L154.887231,217.771901 L147.630799,218.844303 L144.373438,225.450441 L141.119781,218.822487 L133.840671,217.747493 L139.102856,212.614372 L137.862669,205.362316 Z M182.78058,193.514008 L185.351493,200.406565 L192.485223,202.229054 L186.715544,206.756712 L187.216744,214.110873 L181.083167,210.034964 L174.247575,212.766677 L176.232898,205.6874 L171.509628,200.007368 L178.864208,199.732379 L182.78058,193.514008 Z M106.034072,193.150808 L109.953062,199.379665 L117.310641,199.702731 L112.601639,205.354526 L114.586041,212.445268 L107.752186,209.703234 L101.609783,213.785734 L102.091126,206.425055 L96.3079511,201.839227 L103.473368,200.034477 L106.034072,193.150808 Z M182.976337,185.959658 C172.293744,194.74831 159.016107,199.59475 144.98893,199.666862 C130.921481,199.730361 117.596093,195.066528 106.792801,186.402387 L106.792801,186.402387 L119.10804,186.333825 C126.789095,190.506595 135.563621,192.852967 144.914096,192.798053 C154.250988,192.751204 163.017007,190.292637 170.659707,186.042836 L170.659707,186.042836 Z M245.149223,97.3311152 C250.715663,97.3196276 255.268947,101.804936 255.309769,107.373358 L255.309769,107.373358 L255.736017,171.206337 C255.780246,176.771014 251.27717,181.304124 245.696093,181.339037 L245.696093,181.339037 L43.7991234,182.454038 C38.2434843,182.47174 33.6896719,177.987704 33.642731,172.429075 L33.642731,172.429075 L33.2202027,108.590143 C33.2001907,103.049943 37.6845454,98.4955232 43.2537906,98.4556193 L43.2537906,98.4556193 Z M245.209659,104.222966 L43.303402,105.340439 C41.5127221,105.358061 40.0916734,106.791809 40.0982912,108.575678 L40.0982912,108.575678 L40.5208196,172.41461 C40.5307969,174.193103 41.9699703,175.617295 43.7538111,175.610617 L43.7538111,175.610617 L245.6581,174.483904 C247.43025,174.447228 248.863706,173.006015 248.868348,171.26736 L248.868348,171.26736 L248.433315,107.42195 C248.43493,105.650968 246.991292,104.222385 245.209659,104.222966 L245.209659,104.222966 Z M212.986072,127.119028 C215.274072,127.119028 217.210072,127.610361 218.794072,128.593028 C220.378072,129.575695 221.375405,130.873695 221.786072,132.487028 L217.342072,134.995028 C216.462072,133.088361 214.980739,132.135028 212.898072,132.135028 C212.018072,132.135028 211.314072,132.303695 210.786072,132.641028 C210.258072,132.978361 209.994072,133.455028 209.994072,134.071028 C209.994072,134.775028 210.346072,135.310361 211.050072,135.677028 C211.754072,136.043695 212.854072,136.432361 214.350072,136.843028 C215.934072,137.283028 217.239405,137.723028 218.266072,138.163028 C219.292739,138.603028 220.172739,139.270361 220.906072,140.165028 C221.639405,141.059695 222.006072,142.240361 222.006072,143.707028 C222.006072,145.965695 221.133405,147.747695 219.388072,149.053028 C217.642739,150.358361 215.376739,151.011028 212.590072,151.011028 C210.184739,151.011028 208.109405,150.497695 206.364072,149.471028 C204.618739,148.444361 203.438072,147.021695 202.822072,145.203028 L207.266072,142.607028 C207.706072,143.692361 208.395405,144.535695 209.334072,145.137028 C210.272739,145.738361 211.372739,146.039028 212.634072,146.039028 C213.572739,146.039028 214.320739,145.863028 214.878072,145.511028 C215.435405,145.159028 215.714072,144.660361 215.714072,144.015028 C215.714072,143.281695 215.347405,142.717028 214.614072,142.321028 C213.880739,141.925028 212.736739,141.507028 211.182072,141.067028 C209.627405,140.597695 208.358739,140.143028 207.376072,139.703028 C206.393405,139.263028 205.542739,138.625028 204.824072,137.789028 C204.105405,136.953028 203.746072,135.860361 203.746072,134.511028 C203.746072,132.985695 204.164072,131.665695 205.000072,130.551028 C205.836072,129.436361 206.958072,128.585695 208.366072,127.999028 C209.774072,127.412361 211.314072,127.119028 212.986072,127.119028 Z M192.394072,127.119028 C194.682072,127.119028 196.618072,127.610361 198.202072,128.593028 C199.786072,129.575695 200.783405,130.873695 201.194072,132.487028 L196.750072,134.995028 C195.870072,133.088361 194.388739,132.135028 192.306072,132.135028 C191.426072,132.135028 190.722072,132.303695 190.194072,132.641028 C189.666072,132.978361 189.402072,133.455028 189.402072,134.071028 C189.402072,134.775028 189.754072,135.310361 190.458072,135.677028 C191.162072,136.043695 192.262072,136.432361 193.758072,136.843028 C195.342072,137.283028 196.647405,137.723028 197.674072,138.163028 C198.700739,138.603028 199.580739,139.270361 200.314072,140.165028 C201.047405,141.059695 201.414072,142.240361 201.414072,143.707028 C201.414072,145.965695 200.541405,147.747695 198.796072,149.053028 C197.050739,150.358361 194.784739,151.011028 191.998072,151.011028 C189.592739,151.011028 187.517405,150.497695 185.772072,149.471028 C184.026739,148.444361 182.846072,147.021695 182.230072,145.203028 L186.674072,142.607028 C187.114072,143.692361 187.803405,144.535695 188.742072,145.137028 C189.680739,145.738361 190.780739,146.039028 192.042072,146.039028 C192.980739,146.039028 193.728739,145.863028 194.286072,145.511028 C194.843405,145.159028 195.122072,144.660361 195.122072,144.015028 C195.122072,143.281695 194.755405,142.717028 194.022072,142.321028 C193.288739,141.925028 192.144739,141.507028 190.590072,141.067028 C189.035405,140.597695 187.766739,140.143028 186.784072,139.703028 C185.801405,139.263028 184.950739,138.625028 184.232072,137.789028 C183.513405,136.953028 183.154072,135.860361 183.154072,134.511028 C183.154072,132.985695 183.572072,131.665695 184.408072,130.551028 C185.244072,129.436361 186.366072,128.585695 187.774072,127.999028 C189.182072,127.412361 190.722072,127.119028 192.394072,127.119028 Z M126.086072,127.119028 C128.110072,127.119028 129.914072,127.559028 131.498072,128.439028 C133.082072,129.319028 134.240739,130.609695 134.974072,132.311028 L130.310072,135.039028 C129.283405,133.337695 127.875405,132.487028 126.086072,132.487028 C124.502072,132.487028 123.233405,133.081028 122.280072,134.269028 C121.326739,135.457028 120.850072,137.063028 120.850072,139.087028 C120.850072,141.081695 121.334072,142.680361 122.302072,143.883028 C123.270072,145.085695 124.531405,145.687028 126.086072,145.687028 C127.846072,145.687028 129.254072,144.821695 130.310072,143.091028 L134.974072,145.819028 C134.240739,147.520361 133.082072,148.811028 131.498072,149.691028 C129.914072,150.571028 128.110072,151.011028 126.086072,151.011028 C124.062072,151.011028 122.170072,150.549028 120.410072,149.625028 C118.650072,148.701028 117.227405,147.337028 116.142072,145.533028 C115.056739,143.729028 114.514072,141.580361 114.514072,139.087028 C114.514072,136.564361 115.056739,134.401028 116.142072,132.597028 C117.227405,130.793028 118.650072,129.429028 120.410072,128.505028 C122.170072,127.581028 124.062072,127.119028 126.086072,127.119028 Z M148.174072,127.119028 C150.198072,127.119028 152.002072,127.559028 153.586072,128.439028 C155.170072,129.319028 156.328739,130.609695 157.062072,132.311028 L152.398072,135.039028 C151.371405,133.337695 149.963405,132.487028 148.174072,132.487028 C146.590072,132.487028 145.321405,133.081028 144.368072,134.269028 C143.414739,135.457028 142.938072,137.063028 142.938072,139.087028 C142.938072,141.081695 143.422072,142.680361 144.390072,143.883028 C145.358072,145.085695 146.619405,145.687028 148.174072,145.687028 C149.934072,145.687028 151.342072,144.821695 152.398072,143.091028 L157.062072,145.819028 C156.328739,147.520361 155.170072,148.811028 153.586072,149.691028 C152.002072,150.571028 150.198072,151.011028 148.174072,151.011028 C146.150072,151.011028 144.258072,150.549028 142.498072,149.625028 C140.738072,148.701028 139.315405,147.337028 138.230072,145.533028 C137.144739,143.729028 136.602072,141.580361 136.602072,139.087028 C136.602072,136.564361 137.144739,134.401028 138.230072,132.597028 C139.315405,130.793028 140.738072,129.429028 142.498072,128.505028 C144.258072,127.581028 146.150072,127.119028 148.174072,127.119028 Z M170.130072,127.119028 C172.154072,127.119028 173.950739,127.566361 175.520072,128.461028 C177.089405,129.355695 178.306739,130.617028 179.172072,132.245028 C180.037405,133.873028 180.470072,135.743028 180.470072,137.855028 C180.470072,138.793695 180.382072,139.747028 180.206072,140.715028 L165.070072,140.715028 C165.334072,142.416361 165.950072,143.699695 166.918072,144.565028 C167.886072,145.430361 169.088739,145.863028 170.526072,145.863028 C171.552739,145.863028 172.469405,145.635695 173.276072,145.181028 C174.082739,144.726361 174.706072,144.044361 175.146072,143.135028 L179.634072,145.775028 C179.018072,147.447028 177.837405,148.737695 176.092072,149.647028 C174.346739,150.556361 172.403405,151.011028 170.262072,151.011028 C168.208739,151.011028 166.302072,150.556361 164.542072,149.647028 C162.782072,148.737695 161.366739,147.373695 160.296072,145.555028 C159.225405,143.736361 158.690072,141.551028 158.690072,138.999028 C158.690072,136.476361 159.225405,134.320361 160.296072,132.531028 C161.366739,130.741695 162.767405,129.392361 164.498072,128.483028 C166.228739,127.573695 168.106072,127.119028 170.130072,127.119028 Z M95.0220721,127.691028 L95.0220721,139.307028 C95.0220721,143.501695 96.3714055,145.599028 99.0700721,145.599028 C100.536739,145.599028 101.724739,145.027028 102.634072,143.883028 C103.543405,142.739028 103.998072,141.140361 103.998072,139.087028 L103.998072,127.691028 L110.114072,127.691028 L110.114072,150.483028 L104.702072,150.483028 C104.584739,148.723028 104.467405,147.535028 104.350072,146.919028 C103.587405,148.297695 102.590072,149.324361 101.358072,149.999028 C100.126072,150.673695 98.7180721,151.011028 97.1340721,151.011028 C94.5820721,151.011028 92.5727388,150.189695 91.1060721,148.547028 C89.6394055,146.904361 88.9060721,144.499028 88.9060721,141.331028 L88.9060721,127.691028 L95.0220721,127.691028 Z M76.5420721,127.119028 C78.8300721,127.119028 80.7660721,127.610361 82.3500721,128.593028 C83.9340721,129.575695 84.9314055,130.873695 85.3420721,132.487028 L80.8980721,134.995028 C80.0180721,133.088361 78.5367388,132.135028 76.4540721,132.135028 C75.5740721,132.135028 74.8700721,132.303695 74.3420721,132.641028 C73.8140721,132.978361 73.5500721,133.455028 73.5500721,134.071028 C73.5500721,134.775028 73.9020721,135.310361 74.6060721,135.677028 C75.3100721,136.043695 76.4100721,136.432361 77.9060721,136.843028 C79.4900721,137.283028 80.7954055,137.723028 81.8220721,138.163028 C82.8487388,138.603028 83.7287388,139.270361 84.4620721,140.165028 C85.1954055,141.059695 85.5620721,142.240361 85.5620721,143.707028 C85.5620721,145.965695 84.6894055,147.747695 82.9440721,149.053028 C81.1987388,150.358361 78.9327388,151.011028 76.1460721,151.011028 C73.7407388,151.011028 71.6654055,150.497695 69.9200721,149.471028 C68.1747388,148.444361 66.9940721,147.021695 66.3780721,145.203028 L70.8220721,142.607028 C71.2620721,143.692361 71.9514055,144.535695 72.8900721,145.137028 C73.8287388,145.738361 74.9287388,146.039028 76.1900721,146.039028 C77.1287388,146.039028 77.8767388,145.863028 78.4340721,145.511028 C78.9914055,145.159028 79.2700721,144.660361 79.2700721,144.015028 C79.2700721,143.281695 78.9034055,142.717028 78.1700721,142.321028 C77.4367388,141.925028 76.2927388,141.507028 74.7380721,141.067028 C73.1834055,140.597695 71.9147388,140.143028 70.9320721,139.703028 C69.9494055,139.263028 69.0987388,138.625028 68.3800721,137.789028 C67.6614055,136.953028 67.3020721,135.860361 67.3020721,134.511028 C67.3020721,132.985695 67.7200721,131.665695 68.5560721,130.551028 C69.3920721,129.436361 70.5140721,128.585695 71.9220721,127.999028 C73.3300721,127.412361 74.8700721,127.119028 76.5420721,127.119028 Z M169.954072,132.091028 C168.751405,132.091028 167.724739,132.472361 166.874072,133.235028 C166.023405,133.997695 165.451405,135.068361 165.158072,136.447028 L174.222072,136.447028 C174.104739,135.039028 173.657405,133.961028 172.880072,133.213028 C172.102739,132.465028 171.127405,132.091028 169.954072,132.091028 Z M143.947826,40.7048587 C157.253046,40.6200112 170.174596,43.1572517 182.352499,48.2270039 C194.107948,53.133699 204.703782,60.1696084 213.802649,69.1645133 C220.616076,75.8921773 226.351722,83.4529756 230.902563,91.7306403 L230.902563,91.7306403 L222.939504,91.7741209 C206.718213,65.1533647 177.361193,47.4052447 143.977565,47.5847367 C110.599313,47.7675881 81.4448608,65.849395 65.5985665,92.6635616 L65.5985665,92.6635616 L57.6222338,92.6915397 C62.0635528,84.3534566 67.7065862,76.7283759 74.4271207,69.9266392 C83.4167123,60.8484698 93.9242575,53.6823786 105.633845,48.6720244 C117.751026,43.4614173 130.648221,40.7926815 143.947826,40.7048587 Z M144.146603,78.7369279 C158.208868,78.6701887 171.536152,83.3429502 182.34482,92.0104504 L182.34482,92.0104504 L170.024397,92.0757729 C162.343031,87.9030745 153.562648,85.5541119 144.2193,85.5971932 C134.875953,85.6552265 126.129516,88.0939914 118.468195,92.3727386 L118.468195,92.3727386 L106.15382,92.4407725 C116.841861,83.6557909 130.116138,78.8147275 144.146603,78.7369279 Z M187.053115,66.0405148 L186.613435,73.3951883 L192.41679,77.9239421 L185.303576,79.784007 L182.786315,86.7113747 L178.814695,80.5043639 L171.44493,80.2516433 L176.111835,74.5655326 L174.071612,67.5034531 L180.951588,70.1712496 L187.053115,66.0405148 Z M102.65559,65.7251533 L108.757373,69.8519464 L115.616344,67.1823664 L113.568767,74.261722 L118.233815,79.9614406 L110.866993,80.2047511 L106.89638,86.3967042 L104.392086,79.4603399 L97.2714084,77.5904733 L103.091727,73.0714979 L102.65559,65.7251533 Z M144.197281,54.7245615 L147.517748,61.2938759 L154.80002,62.2907495 L149.584254,67.4619534 L150.87784,74.7161393 L144.344051,71.3315452 L137.85123,74.7943319 L139.049448,67.5297184 L133.733002,62.4353754 L140.993585,61.3567574 L144.197281,54.7245615 Z" id="形状结合" transform="translate(144.478238, 139.203258) rotate(-28.000000) translate(-144.478238, -139.203258) "/></g></g></g></svg>