<svg xmlns="http://www.w3.org/2000/svg" viewBox="0 0 819 130" class="design-iconfont"><defs><linearGradient x1="50%" y1="0%" x2="50.2140786%" y2="86.5446158%" id="26xwrbcvea"><stop stop-color="#00A5B7" offset="0%"/><stop stop-color="#D8D8D8" stop-opacity="0" offset="100%"/></linearGradient></defs><g fill="none" fill-rule="evenodd"><path d="M115.052281,11.6168324 L1.56235759,98.8483958 C0.577308238,99.6055325 7.86842587e-15,100.777407 0,102.019815 L0,132.373961 C4.05812251e-16,135.68767 2.6862915,138.373961 6,138.373961 L811,138.373961 C814.313708,138.373961 817,135.68767 817,132.373961 L817,101.983472 C817,100.761675 816.441597,99.6068775 815.48392,98.8481661 L705.445323,11.6710025 C704.385074,10.8310288 703.072102,10.3739611 701.719443,10.3739611 L118.708745,10.3739611 C117.386258,10.3739611 116.100822,10.8108947 115.052281,11.6168324 Z" stroke="#000" fill="#F5F4F4" transform="translate(1 -9.373961)"/><path d="M151.667761,22.1746588 L81.604323,87.1746588 C80.3896819,88.3015186 80.3185211,90.1996801 81.4453809,91.4143213 C82.0130619,92.0262241 82.8100054,92.3739611 83.6446831,92.3739611 L722.605366,92.3739611 C724.26222,92.3739611 725.605366,91.0308154 725.605366,89.3739611 C725.605366,88.5631459 725.277167,87.7868572 724.695537,87.2219429 L657.772236,22.2219429 C657.212349,21.6781459 656.46257,21.3739611 655.682065,21.3739611 L153.708121,21.3739611 C152.951355,21.3739611 152.222547,21.6599668 151.667761,22.1746588 Z" stroke="#929899" fill="#FFF" transform="translate(1 -9.373961)"/><path d="M1.56675046,98.8152707 C1.56675046,98.8152707 0.706588604,102.542924 4.97817967,102.539015 C429.167172,102.149581 810.597388,102.126589 810.597388,102.126589 C810.597388,102.126589 816.535228,101.280283 815.553189,98.8152707" stroke="#979797" transform="translate(1 -9.373961)"/><path d="M719.530344,45.8429272 C727.855314,45.3367654 736.53415,47.4592473 738.816971,50.7136855 C739.279496,51.3730709 739.406615,52.0233674 739.195649,52.6402525 C738.957261,53.3373213 738.328834,53.9710507 737.412049,54.5376549 C735.420901,55.7682516 732.096433,56.6412086 727.922272,56.8949994 C719.597302,57.4011613 710.918466,55.2786793 708.635645,52.0242411 C708.17312,51.3648558 708.046001,50.7145592 708.256967,50.0976741 C708.495355,49.4006053 709.123782,48.7668759 710.040567,48.2002717 C712.031716,46.969675 715.356183,46.0967181 719.530344,45.8429272 Z" stroke="#929899" fill="#FFF" transform="translate(1 -9.373961)"/><path d="M117.515015,28.9323408 C118.933548,28.2706962 120.312872,28.0162205 121.425058,28.785225 C121.860974,29.0866325 122.106535,29.4327065 122.174225,29.8269358 C122.255439,30.2999355 122.099093,30.8173331 121.81771,31.3609854 C120.908934,33.1168038 118.690921,35.0913905 116.847638,36.7494748 C116.673643,36.9059884 116.502784,37.0596813 116.333967,37.212311 L116.333967,37.212311 L93.9450048,57.720038 C93.6117541,58.0213044 93.2661808,58.3417995 92.9103515,58.671827 C91.1367365,60.3168338 89.1068682,62.2163284 87.0755134,63.0749825 C85.779092,63.6229801 84.4786707,63.7359014 83.2643749,62.953632 C82.7964791,62.6522058 82.4868923,62.3203656 82.3233862,61.9532358 C82.1533681,61.5714844 82.1478927,61.1589807 82.2504617,60.7295688 C82.5499021,59.4759418 83.7034052,58.1036007 84.9956326,56.8017579 C86.501489,55.3583377 87.1290059,54.7912988 87.6631637,54.3085886 L87.6631637,54.3085886 L110.758013,34.0278788 C112.690977,32.280379 115.172621,30.0249002 117.515015,28.9323408 Z" stroke="#929899" fill="#FFF" transform="translate(1 -9.373961)"/><path stroke="#CCC" stroke-width="4" stroke-linecap="round" d="M107.5 120.873961L215.5 120.873961" transform="translate(1 -9.373961)"/><path fill="url(#26xwrbcvea)" transform="rotate(-93 528.95492358 51.54254022)" d="M503.692124 -67.482363L512.591805 -67.0159505 518.867824 -83.3726637 521.361389 -90.1531691 525.109911 -90.1531691 531.453993 -115.062915 537.416778 -94.8560876 543.991697 -86.8810151 550.491658 -109.698477 563.136891 -106.428845 566.817965 -130.068697 579.153067 -144.248136 561.669482 189.358544 486.652337 257.656142z"/></g></svg>