<svg width="32" height="32" viewBox="0 0 32 32" fill="none" xmlns="http://www.w3.org/2000/svg">
<path fill-rule="evenodd" clip-rule="evenodd" d="M15 5H4V28H15V5ZM3 3C2.44772 3 2 3.44772 2 4V29C2 29.5523 2.44772 30 3 30H16C16.5523 30 17 29.5523 17 29V4C17 3.44772 16.5523 3 16 3H3Z" fill="#0D0E0E"/>
<path fill-rule="evenodd" clip-rule="evenodd" d="M28 11H17V28H28V11ZM15 9V29C15 29.5523 15.4477 30 16 30H29C29.5523 30 30 29.5523 30 29V9H15Z" fill="#0D0E0E"/>
<path fill-rule="evenodd" clip-rule="evenodd" d="M3 9L16 9L16 11L3 11L3 9Z" fill="#0D0E0E"/>
<path fill-rule="evenodd" clip-rule="evenodd" d="M3 15L16 15L16 17L3 17L3 15Z" fill="#0D0E0E"/>
<path fill-rule="evenodd" clip-rule="evenodd" d="M26 16C26 16.5523 25.5523 17 25 17H21C20.4477 17 20 16.5523 20 16C20 15.4477 20.4477 15 21 15H25C25.5523 15 26 15.4477 26 16Z" fill="url(#paint0_linear_308_1807)"/>
<path fill-rule="evenodd" clip-rule="evenodd" d="M26 22C26 22.5523 25.5523 23 25 23H21C20.4477 23 20 22.5523 20 22C20 21.4477 20.4477 21 21 21H25C25.5523 21 26 21.4477 26 22Z" fill="url(#paint1_linear_308_1807)"/>
<path fill-rule="evenodd" clip-rule="evenodd" d="M3 21L16 21L16 23L3 23L3 21Z" fill="#0D0E0E"/>
<defs>
<linearGradient id="paint0_linear_308_1807" x1="25.5373" y1="15.0801" x2="20.0433" y2="15.4552" gradientUnits="userSpaceOnUse">
<stop stop-color="#00D4EB"/>
<stop offset="0.536458" stop-color="#00EAC3"/>
<stop offset="1" stop-color="#00D4EB" stop-opacity="0"/>
</linearGradient>
<linearGradient id="paint1_linear_308_1807" x1="25.5373" y1="21.0801" x2="20.0433" y2="21.4552" gradientUnits="userSpaceOnUse">
<stop stop-color="#00D4EB"/>
<stop offset="0.536458" stop-color="#00EAC3"/>
<stop offset="1" stop-color="#00D4EB" stop-opacity="0"/>
</linearGradient>
</defs>
</svg>
