<svg width="16" height="16" viewBox="0 0 16 16" fill="none" xmlns="http://www.w3.org/2000/svg">
<path d="M2.51641 2.55557L6.54873 2.57604L6.54608 1.00899L2.34038 1C1.5688 0.998355 0.944644 1.62251 0.946292 2.39409L0.970183 13.5761C0.971831 14.3476 1.59866 14.9745 2.37024 14.9761L13.5522 15C14.3238 15.0016 14.9479 14.3775 14.9463 13.6059V9.73594H13.387L13.3795 13.4239L2.51143 13.4271L2.51641 2.55557Z" fill="#9AA3A3"/>
<path d="M12.4361 1.4398C12.7178 1.1582 13.0998 1 13.4981 1C13.8964 1 14.2784 1.1582 14.5601 1.4398C14.8418 1.72141 15 2.10334 15 2.50159C15 2.89983 14.8418 3.28176 14.5601 3.56337L7.83201 10.2901L5 11L5.708 8.16858L12.4361 1.4398Z" stroke="#9AA3A3" stroke-width="1.5" stroke-linecap="round" stroke-linejoin="round"/>
</svg>
