<svg xmlns="http://www.w3.org/2000/svg" xmlns:xlink="http://www.w3.org/1999/xlink" viewBox="0 0 80 100" class="design-iconfont">
<defs><path id="jr47u8koya" d="M0 0H92V185H0z"/></defs>
<g transform="translate(-12 -6)" fill="none" fill-rule="evenodd"><mask id="pnoctgcnwb" fill="#fff"><use xlink:href="#jr47u8koya"/></mask><g opacity=".29611933"><g opacity=".96754964" mask="url(#pnoctgcnwb)"><path stroke="#919899" stroke-width="5.05481902" d="M46.9261137 0A46.9261137 45.1486094 0 1 0 46.9261137 90.2972188A46.9261137 45.1486094 0 1 0 46.9261137 0Z" transform="rotate(13 5.1848578 117.24390075)"/><path stroke="#919899" d="M46.9261137 7.246073099999997A39.3947621 37.9025363 0 1 0 46.9261137 83.0511457A39.3947621 37.9025363 0 1 0 46.9261137 7.246073099999997Z" transform="rotate(13 5.1848578 117.24390075)"/><path d="M65.1335387,29.5885091 C60.6863377,24.9339292 54.3051235,22.0169145 47.2157811,22.0169145 C40.141961,22.0169145 33.7731717,24.9211694 29.3272631,29.55796 M28.8625683,60.7979565 C33.3233192,65.7242615 39.8916449,68.8376946 47.2157811,68.8376946 C54.5440285,68.8376946 61.1156167,65.7207652 65.5765038,60.7896589" stroke="#919899" transform="rotate(13 5.1848578 117.24390075)"/><g fill="#919899" fill-rule="nonzero"><path d="M2.01009006,0.150403426 C2.09888464,0.0544734533 2.22325408,0 2.35346817,0 L3.19611384,0 C3.30250578,0 3.35768957,0.127818523 3.28514601,0.206200408 L1.61863997,2.00660167 L2.53957882,2.00660167 L3.47600842,3.00991049 L1.61863997,3.00991049 L3.47600842,5.01651216 L2.35346817,5.01651216 C2.22325408,5.01651216 2.09888464,4.96203551 2.01009006,4.86610682 L0.126092104,2.83072654 C-0.0420309126,2.64910047 -0.0420305958,2.36741168 0.126092421,2.18578562 L2.01009006,0.150403426 Z" transform="rotate(13 -66.8295804 303.48018107)"/><path d="M4.36257955,6.53827753 C4.27378477,6.63420623 4.14941505,6.68868288 4.01921649,6.68868288 L3.17655306,6.68868288 C3.07016089,6.68868288 3.01497697,6.56086308 3.08753653,6.48247608 L4.75404637,4.68208121 L3.83310542,4.68208121 L2.89667369,3.67877239 L4.75404637,3.67877239 L2.89667369,1.67217072 L4.01921649,1.67217072 C4.14941505,1.67217072 4.27378477,1.72664736 4.36257955,1.82257606 L6.24659384,3.85795634 C6.41471153,4.0395824 6.41471153,4.32127119 6.24659384,4.50289725 L4.36257955,6.53827753 Z" transform="rotate(13 -66.8295804 303.48018107)"/></g><g fill="#919899" fill-rule="nonzero"><path d="M2.01009006,0.150403426 C2.09888464,0.0544734533 2.22325408,0 2.35346817,0 L3.19611384,0 C3.30250578,0 3.35768957,0.127818523 3.28514601,0.206200408 L1.61863997,2.00660167 L2.53957882,2.00660167 L3.47600842,3.00991049 L1.61863997,3.00991049 L3.47600842,5.01651216 L2.35346817,5.01651216 C2.22325408,5.01651216 2.09888464,4.96203551 2.01009006,4.86610682 L0.126092104,2.83072654 C-0.0420309126,2.64910047 -0.0420305958,2.36741168 0.126092421,2.18578562 L2.01009006,0.150403426 Z" transform="rotate(13 -81.24856078 343.04344292)"/><path d="M4.36257955,6.53827753 C4.27378477,6.63420623 4.14941505,6.68868288 4.01921649,6.68868288 L3.17655306,6.68868288 C3.07016089,6.68868288 3.01497697,6.56086308 3.08753653,6.48247608 L4.75404637,4.68208121 L3.83310542,4.68208121 L2.89667369,3.67877239 L4.75404637,3.67877239 L2.89667369,1.67217072 L4.01921649,1.67217072 C4.14941505,1.67217072 4.27378477,1.72664736 4.36257955,1.82257606 L6.24659384,3.85795634 C6.41471153,4.0395824 6.41471153,4.32127119 6.24659384,4.50289725 L4.36257955,6.53827753 Z" transform="rotate(13 -81.24856078 343.04344292)"/></g><g fill="#919899" fill-rule="nonzero"><path d="M2.01009006,0.150403426 C2.09888464,0.0544734533 2.22325408,0 2.35346817,0 L3.19611384,0 C3.30250578,0 3.35768957,0.127818523 3.28514601,0.206200408 L1.61863997,2.00660167 L2.53957882,2.00660167 L3.47600842,3.00991049 L1.61863997,3.00991049 L3.47600842,5.01651216 L2.35346817,5.01651216 C2.22325408,5.01651216 2.09888464,4.96203551 2.01009006,4.86610682 L0.126092104,2.83072654 C-0.0420309126,2.64910047 -0.0420305958,2.36741168 0.126092421,2.18578562 L2.01009006,0.150403426 Z" transform="rotate(13 -110.34399377 380.93453866)"/><path d="M4.36257955,6.53827753 C4.27378477,6.63420623 4.14941505,6.68868288 4.01921649,6.68868288 L3.17655306,6.68868288 C3.07016089,6.68868288 3.01497697,6.56086308 3.08753653,6.48247608 L4.75404637,4.68208121 L3.83310542,4.68208121 L2.89667369,3.67877239 L4.75404637,3.67877239 L2.89667369,1.67217072 L4.01921649,1.67217072 C4.14941505,1.67217072 4.27378477,1.72664736 4.36257955,1.82257606 L6.24659384,3.85795634 C6.41471153,4.0395824 6.41471153,4.32127119 6.24659384,4.50289725 L4.36257955,6.53827753 Z" transform="rotate(13 -110.34399377 380.93453866)"/></g><g fill="#919899" fill-rule="nonzero"><path d="M2.01009006,0.150403426 C2.09888464,0.0544734533 2.22325408,0 2.35346817,0 L3.19611384,0 C3.30250578,0 3.35768957,0.127818523 3.28514601,0.206200408 L1.61863997,2.00660167 L2.53957882,2.00660167 L3.47600842,3.00991049 L1.61863997,3.00991049 L3.47600842,5.01651216 L2.35346817,5.01651216 C2.22325408,5.01651216 2.09888464,4.96203551 2.01009006,4.86610682 L0.126092104,2.83072654 C-0.0420309126,2.64910047 -0.0420305958,2.36741168 0.126092421,2.18578562 L2.01009006,0.150403426 Z" transform="rotate(13 -71.97920528 261.68735382)"/><path d="M4.36257955,6.53827753 C4.27378477,6.63420623 4.14941505,6.68868288 4.01921649,6.68868288 L3.17655306,6.68868288 C3.07016089,6.68868288 3.01497697,6.56086308 3.08753653,6.48247608 L4.75404637,4.68208121 L3.83310542,4.68208121 L2.89667369,3.67877239 L4.75404637,3.67877239 L2.89667369,1.67217072 L4.01921649,1.67217072 C4.14941505,1.67217072 4.27378477,1.72664736 4.36257955,1.82257606 L6.24659384,3.85795634 C6.41471153,4.0395824 6.41471153,4.32127119 6.24659384,4.50289725 L4.36257955,6.53827753 Z" transform="rotate(13 -71.97920528 261.68735382)"/></g><path d="M2.01009006,0.150403426 C2.09888464,0.0544734533 2.22325408,0 2.35346817,0 L3.19611384,0 C3.30250578,0 3.35768957,0.127818523 3.28514601,0.206200408 L1.61863997,2.00660167 L2.53957882,2.00660167 L3.47600842,3.00991049 L1.61863997,3.00991049 L3.47600842,5.01651216 L2.35346817,5.01651216 C2.22325408,5.01651216 2.09888464,4.96203551 2.01009006,4.86610682 L0.126092104,2.83072654 C-0.0420309126,2.64910047 -0.0420305958,2.36741168 0.126092421,2.18578562 L2.01009006,0.150403426 Z" fill="#919899" fill-rule="nonzero" transform="rotate(13 -91.80528227 218.22235608)"/><path d="M4.36257955,6.53827753 C4.27378477,6.63420623 4.14941505,6.68868288 4.01921649,6.68868288 L3.17655306,6.68868288 C3.07016089,6.68868288 3.01497697,6.56086308 3.08753653,6.48247608 L4.75404637,4.68208121 L3.83310542,4.68208121 L2.89667369,3.67877239 L4.75404637,3.67877239 L2.89667369,1.67217072 L4.01921649,1.67217072 C4.14941505,1.67217072 4.27378477,1.72664736 4.36257955,1.82257606 L6.24659384,3.85795634 C6.41471153,4.0395824 6.41471153,4.32127119 6.24659384,4.50289725 L4.36257955,6.53827753 Z" fill="#919899" fill-rule="nonzero" transform="rotate(13 -91.80528227 218.22235608)"/><text font-family="HarmonyOS_Sans_Bold, HarmonyOS_Sans" font-size="16" font-weight="bold" letter-spacing="3.5" fill="#1E1E1E" transform="rotate(13 -91.80528227 218.22235608)">
          <tspan x=".93580043" y="31.7671897" fill="#919899">END</tspan>
        </text><g fill="#919899" fill-rule="nonzero"><path d="M2.01009006,0.150403426 C2.09888464,0.0544734533 2.22325408,0 2.35346817,0 L3.19611384,0 C3.30250578,0 3.35768957,0.127818523 3.28514601,0.206200408 L1.61863997,2.00660167 L2.53957882,2.00660167 L3.47600842,3.00991049 L1.61863997,3.00991049 L3.47600842,5.01651216 L2.35346817,5.01651216 C2.22325408,5.01651216 2.09888464,4.96203551 2.01009006,4.86610682 L0.126092104,2.83072654 C-0.0420309126,2.64910047 -0.0420305958,2.36741168 0.126092421,2.18578562 L2.01009006,0.150403426 Z" transform="rotate(-152 40.11281768 39.15510932)"/><path d="M4.36257955,6.53827753 C4.27378477,6.63420623 4.14941505,6.68868288 4.01921649,6.68868288 L3.17655306,6.68868288 C3.07016089,6.68868288 3.01497697,6.56086308 3.08753653,6.48247608 L4.75404637,4.68208121 L3.83310542,4.68208121 L2.89667369,3.67877239 L4.75404637,3.67877239 L2.89667369,1.67217072 L4.01921649,1.67217072 C4.14941505,1.67217072 4.27378477,1.72664736 4.36257955,1.82257606 L6.24659384,3.85795634 C6.41471153,4.0395824 6.41471153,4.32127119 6.24659384,4.50289725 L4.36257955,6.53827753 Z" transform="rotate(-152 40.11281768 39.15510932)"/></g><g fill="#919899" fill-rule="nonzero"><path d="M2.01009006,0.150403426 C2.09888464,0.0544734533 2.22325408,0 2.35346817,0 L3.19611384,0 C3.30250578,0 3.35768957,0.127818523 3.28514601,0.206200408 L1.61863997,2.00660167 L2.53957882,2.00660167 L3.47600842,3.00991049 L1.61863997,3.00991049 L3.47600842,5.01651216 L2.35346817,5.01651216 C2.22325408,5.01651216 2.09888464,4.96203551 2.01009006,4.86610682 L0.126092104,2.83072654 C-0.0420309126,2.64910047 -0.0420305958,2.36741168 0.126092421,2.18578562 L2.01009006,0.150403426 Z" transform="rotate(-152 35.29822447 38.17045825)"/><path d="M4.36257955,6.53827753 C4.27378477,6.63420623 4.14941505,6.68868288 4.01921649,6.68868288 L3.17655306,6.68868288 C3.07016089,6.68868288 3.01497697,6.56086308 3.08753653,6.48247608 L4.75404637,4.68208121 L3.83310542,4.68208121 L2.89667369,3.67877239 L4.75404637,3.67877239 L2.89667369,1.67217072 L4.01921649,1.67217072 C4.14941505,1.67217072 4.27378477,1.72664736 4.36257955,1.82257606 L6.24659384,3.85795634 C6.41471153,4.0395824 6.41471153,4.32127119 6.24659384,4.50289725 L4.36257955,6.53827753 Z" transform="rotate(-152 35.29822447 38.17045825)"/></g><g fill="#919899" fill-rule="nonzero"><path d="M2.01009006,0.150403426 C2.09888464,0.0544734533 2.22325408,0 2.35346817,0 L3.19611384,0 C3.30250578,0 3.35768957,0.127818523 3.28514601,0.206200408 L1.61863997,2.00660167 L2.53957882,2.00660167 L3.47600842,3.00991049 L1.61863997,3.00991049 L3.47600842,5.01651216 L2.35346817,5.01651216 C2.22325408,5.01651216 2.09888464,4.96203551 2.01009006,4.86610682 L0.126092104,2.83072654 C-0.0420309126,2.64910047 -0.0420305958,2.36741168 0.126092421,2.18578562 L2.01009006,0.150403426 Z" transform="rotate(-152 30.42230295 35.46351426)"/><path d="M4.36257955,6.53827753 C4.27378477,6.63420623 4.14941505,6.68868288 4.01921649,6.68868288 L3.17655306,6.68868288 C3.07016089,6.68868288 3.01497697,6.56086308 3.08753653,6.48247608 L4.75404637,4.68208121 L3.83310542,4.68208121 L2.89667369,3.67877239 L4.75404637,3.67877239 L2.89667369,1.67217072 L4.01921649,1.67217072 C4.14941505,1.67217072 4.27378477,1.72664736 4.36257955,1.82257606 L6.24659384,3.85795634 C6.41471153,4.0395824 6.41471153,4.32127119 6.24659384,4.50289725 L4.36257955,6.53827753 Z" transform="rotate(-152 30.42230295 35.46351426)"/></g><g fill="#919899" fill-rule="nonzero"><path d="M2.01009006,0.150403426 C2.09888464,0.0544734533 2.22325408,-3.63797881e-12 2.35346817,-3.63797881e-12 L3.19611384,-3.63797881e-12 C3.30250578,-3.63797881e-12 3.35768957,0.127818523 3.28514601,0.206200408 L1.61863997,2.00660167 L2.53957882,2.00660167 L3.47600842,3.00991049 L1.61863997,3.00991049 L3.47600842,5.01651216 L2.35346817,5.01651216 C2.22325408,5.01651216 2.09888464,4.96203551 2.01009006,4.86610682 L0.126092104,2.83072654 C-0.0420309126,2.64910047 -0.0420305958,2.36741168 0.126092421,2.18578562 L2.01009006,0.150403426 Z" transform="rotate(-152 44.8456397 37.8433727)"/><path d="M4.36257955,6.53827753 C4.27378477,6.63420623 4.14941505,6.68868288 4.01921649,6.68868288 L3.17655306,6.68868288 C3.07016089,6.68868288 3.01497697,6.56086308 3.08753653,6.48247608 L4.75404637,4.68208121 L3.83310542,4.68208121 L2.89667369,3.67877239 L4.75404637,3.67877239 L2.89667369,1.67217072 L4.01921649,1.67217072 C4.14941505,1.67217072 4.27378477,1.72664736 4.36257955,1.82257606 L6.24659384,3.85795634 C6.41471153,4.0395824 6.41471153,4.32127119 6.24659384,4.50289725 L4.36257955,6.53827753 Z" transform="rotate(-152 44.8456397 37.8433727)"/></g><g fill="#919899" fill-rule="nonzero"><path d="M2.01009006,0.150403426 C2.09888464,0.0544734533 2.22325408,-1.8189894e-12 2.35346817,-1.8189894e-12 L3.19611384,-1.8189894e-12 C3.30250578,-1.8189894e-12 3.35768957,0.127818523 3.28514601,0.206200408 L1.61863997,2.00660167 L2.53957882,2.00660167 L3.47600842,3.00991049 L1.61863997,3.00991049 L3.47600842,5.01651216 L2.35346817,5.01651216 C2.22325408,5.01651216 2.09888464,4.96203551 2.01009006,4.86610682 L0.126092104,2.83072654 C-0.0420309126,2.64910047 -0.0420305958,2.36741168 0.126092421,2.18578562 L2.01009006,0.150403426 Z" transform="rotate(-152 49.51713303 34.80934519)"/><path d="M4.36257955,6.53827753 C4.27378477,6.63420623 4.14941505,6.68868288 4.01921649,6.68868288 L3.17655306,6.68868288 C3.07016089,6.68868288 3.01497697,6.56086308 3.08753653,6.48247608 L4.75404637,4.68208121 L3.83310542,4.68208121 L2.89667369,3.67877239 L4.75404637,3.67877239 L2.89667369,1.67217072 L4.01921649,1.67217072 C4.14941505,1.67217072 4.27378477,1.72664736 4.36257955,1.82257606 L6.24659384,3.85795634 C6.41471153,4.0395824 6.41471153,4.32127119 6.24659384,4.50289725 L4.36257955,6.53827753 Z" transform="rotate(-152 49.51713303 34.80934519)"/></g></g></g></g></svg>