<svg width="170" height="149" viewBox="0 0 170 149" fill="none" xmlns="http://www.w3.org/2000/svg">
<path d="M153.358 103.543C153.358 103.543 153.389 109.888 153.389 113.542C153.389 132.731 120.923 148.289 80.8742 148.289C40.8259 148.289 8.35547 132.731 8.35547 113.542C8.35547 106.816 8.42539 104.338 8.42539 104.338" stroke="black" stroke-width="0.5" stroke-miterlimit="10"/>
<path d="M80.8744 145.077C40.4196 145.077 7.50781 129.174 7.50781 109.626C7.50781 90.0782 40.4196 74.1794 80.8744 74.1794C121.329 74.1794 154.241 90.0782 154.241 109.626C154.241 129.174 121.329 145.077 80.8744 145.077ZM80.8744 75.591C41.3549 75.591 9.20344 90.8604 9.20344 109.63C9.20344 128.4 41.3549 143.67 80.8744 143.67C120.394 143.67 152.545 128.4 152.545 109.63C152.545 90.8604 120.394 75.591 80.8744 75.591Z" fill="url(#paint0_linear_2382_14725)"/>
<path d="M80.8744 144.369C40.4196 144.369 7.50781 128.466 7.50781 108.922C7.50781 89.3789 40.4196 73.4714 80.8744 73.4714C121.329 73.4714 154.241 89.3789 154.241 108.922C154.241 128.466 121.329 144.369 80.8744 144.369ZM80.8744 74.883C41.3549 74.883 9.20344 90.1524 9.20344 108.922C9.20344 127.692 41.3549 142.962 80.8744 142.962C120.394 142.962 152.545 127.688 152.545 108.922C152.545 90.1568 120.394 74.883 80.8744 74.883Z" fill="#00DCEA" stroke="black" stroke-width="0.5" stroke-miterlimit="10"/>
<path d="M80.8742 137.425C120.204 137.425 152.086 122.287 152.086 103.613C152.086 84.9387 120.204 69.8005 80.8742 69.8005C41.5449 69.8005 9.66211 84.9387 9.66211 103.613C9.66211 122.287 41.5449 137.425 80.8742 137.425Z" stroke="black" stroke-width="0.5" stroke-miterlimit="10"/>
<path d="M95.9601 133.024C86.0994 135.793 75.6666 135.793 65.8059 133.024C64.6128 132.687 64.5516 131.826 65.6398 131.158L69.2933 128.842C69.8184 128.484 70.4525 128.321 71.085 128.383C77.4708 130.297 84.2777 130.297 90.6634 128.383C91.296 128.321 91.9303 128.483 92.4552 128.842L96.1087 131.158C97.2012 131.826 97.14 132.692 95.9426 133.024H95.9601Z" stroke="black" stroke-width="0.5" stroke-miterlimit="10"/>
<path d="M78.384 133.518C78.2884 133.518 78.194 133.495 78.1087 133.452L76.6228 132.67L75.6701 133.26C75.5859 133.311 75.4904 133.34 75.3921 133.346C75.2938 133.351 75.1956 133.332 75.1064 133.29L73.8871 132.7C73.5462 132.858 73.0917 133.068 72.9475 133.116C72.5935 133.229 72.4056 133.295 71.0727 131.604C70.1506 132.006 68.9881 132.517 68.8876 132.574C68.7716 132.629 68.6408 132.646 68.5147 132.62C68.3886 132.595 68.2741 132.53 68.1884 132.434C68.1538 132.388 68.13 132.335 68.1188 132.279C68.1075 132.223 68.1091 132.165 68.1233 132.11C68.1376 132.054 68.1643 132.003 68.2013 131.959C68.2383 131.915 68.2846 131.88 68.337 131.857C68.4375 131.805 69.8534 131.184 71.0203 130.673C71.1316 130.621 71.2567 130.607 71.3766 130.633C71.4965 130.659 71.6046 130.724 71.6845 130.817C72.0866 131.333 72.5586 131.927 72.847 132.215C73.0655 132.115 73.3758 131.975 73.6468 131.844C73.727 131.807 73.8142 131.788 73.9024 131.788C73.9906 131.788 74.0778 131.807 74.1581 131.844L75.338 132.416L76.3038 131.813C76.3927 131.764 76.4927 131.738 76.5944 131.738C76.6961 131.738 76.7962 131.764 76.8851 131.813L78.3753 132.6L81.6267 130.664C81.7108 130.616 81.805 130.59 81.9016 130.586C81.9981 130.582 82.0941 130.601 82.1817 130.642L84.6378 131.835H87.4041L88.3262 131.219C88.4189 131.164 88.5245 131.136 88.6321 131.136C88.7397 131.136 88.8453 131.164 88.938 131.219L89.7421 131.682L90.9614 130.14C91.0468 130.046 91.1603 129.983 91.2848 129.959C91.4093 129.935 91.5381 129.953 91.6519 130.008L94.2128 131.245C94.2668 131.267 94.3153 131.301 94.3546 131.344C94.3938 131.387 94.4229 131.438 94.4397 131.494C94.4565 131.55 94.4605 131.609 94.4515 131.666C94.4425 131.724 94.4207 131.778 94.3876 131.826C94.3046 131.926 94.1903 131.995 94.0632 132.021C93.9362 132.047 93.804 132.029 93.6884 131.971L91.5383 130.896L90.2797 132.464C90.1969 132.566 90.0778 132.632 89.9475 132.648C89.8142 132.671 89.677 132.648 89.5586 132.582L88.6365 132.049L87.8717 132.565C87.7757 132.624 87.6654 132.656 87.5527 132.657H84.4673C84.3783 132.656 84.2905 132.637 84.2095 132.6L81.9195 131.49L78.6594 133.43C78.5691 133.483 78.4665 133.51 78.3622 133.509L78.384 133.518Z" fill="url(#paint1_linear_2382_14725)"/>
<mask id="mask0_2382_14725" style="mask-type:luminance" maskUnits="userSpaceOnUse" x="0" y="66" width="163" height="78">
<path d="M44.3704 68.0174L58.4075 72.191L58.5735 83.7719L101.428 80.5599L101.419 71.9113L120.049 66.9817L161.439 81.3028L162.396 100.479L149.049 128.247L143.862 141.375L119.664 143.206L122.155 137.634L110.517 134.248V128.295L98.6437 120.63L97.6386 119.926L81.7267 115.041L65.9766 118.384L62.7077 120.516L50.2571 128.116L50.5499 134.274L48.5964 140.659L15.3656 124.668L0 108.673L2.78818 91.1707L10.0864 74.4591L35.0532 66.348L44.3704 68.0174Z" fill="white"/>
</mask>
<g mask="url(#mask0_2382_14725)">
<path d="M80.8746 69.8048C41.5429 69.8048 9.64062 84.9431 9.64062 103.613C9.64062 122.282 41.5211 137.425 80.8746 137.425C120.228 137.425 152.082 122.286 152.082 103.613C152.082 84.9387 120.202 69.8048 80.8746 69.8048ZM80.8746 128.562C50.1653 128.562 25.2684 116.933 25.2684 102.586C25.2684 88.2382 50.1784 76.6136 80.8746 76.6136C111.571 76.6136 136.476 88.2426 136.476 102.586C136.476 116.928 111.584 128.562 80.8746 128.562Z" fill="#A4B8F1" stroke="black" stroke-width="0.5" stroke-linecap="round" stroke-linejoin="round"/>
<path d="M136.472 95.9778C136.464 97.0944 136.31 98.2051 136.013 99.2817C135.464 97.3531 134.55 95.5477 133.321 93.9632C125.713 83.8593 105.112 76.6092 80.8792 76.6092C56.6466 76.6092 36.417 83.7238 28.66 93.6791C27.3283 95.3348 26.3403 97.2395 25.7538 99.2817C25.4579 98.205 25.3037 97.0944 25.2949 95.9778C25.2949 92.5953 26.6846 89.3614 29.2062 86.3984C37.361 76.784 57.4289 70.0015 80.9011 70.0015C104.373 70.0015 124.804 76.9326 132.814 86.6912C135.183 89.5755 136.477 92.7089 136.477 95.9778H136.472Z" fill="#A4B8F1" stroke="black" stroke-width="0.5" stroke-linecap="round" stroke-linejoin="round"/>
<path d="M136.472 95.9778C136.463 97.0944 136.309 98.2051 136.013 99.2817C135.464 97.3531 134.55 95.5477 133.321 93.9632C133.926 91.5477 133.747 89.0025 132.81 86.6956C135.183 89.5755 136.472 92.7089 136.472 95.9778Z" fill="black"/>
<path d="M28.66 93.6836C27.3252 95.3356 26.3368 97.2395 25.7538 99.2818C25.4573 98.2052 25.3031 97.0945 25.2949 95.9779C25.2949 92.5997 26.6803 89.3658 29.2062 86.4028C28.2798 88.9157 27.563 91.9573 28.66 93.6836Z" fill="black"/>
<path d="M80.8785 63.7434C41.5468 63.7434 9.64453 78.8817 9.64453 97.5555C9.64453 108.918 21.4877 118.996 39.6283 125.123C39.7512 125.169 39.8767 125.209 40.0042 125.241C45.8289 127.163 51.801 128.607 57.8607 129.558C65.4655 130.773 73.1554 131.377 80.8566 131.363C86.6415 131.366 92.4216 131.029 98.1669 130.354C111.426 128.785 123.217 125.446 132.364 120.897C132.369 120.899 132.375 120.9 132.381 120.9C132.387 120.9 132.393 120.899 132.399 120.897C144.591 114.831 152.064 106.619 152.064 97.5686C152.064 78.8904 120.188 63.7565 80.861 63.7565L80.8785 63.7434ZM103.118 119.795C99.3066 120.567 95.4549 121.126 91.581 121.469C88.1199 121.793 84.545 121.954 80.8785 121.954C76.7916 121.956 72.7074 121.747 68.642 121.329C62.0689 120.671 55.5813 119.337 49.2821 117.348C34.7818 112.663 25.2767 104.832 25.2767 95.9735C25.2767 81.6262 50.1867 69.9971 80.8828 69.9971C111.579 69.9971 136.476 81.6262 136.476 95.9735C136.476 106.624 122.758 115.775 103.123 119.787L103.118 119.795Z" fill="#EBEEFF" stroke="black" stroke-width="0.5" stroke-linecap="round" stroke-linejoin="round"/>
<path d="M68.6515 121.325L57.879 129.558C51.8194 128.607 45.8474 127.163 40.0225 125.241C50.3492 128.37 53.8934 125.564 58.1762 123.117C62.9222 120.403 59.3649 120.363 54.0639 119.096C52.4209 118.654 50.8197 118.069 49.2785 117.348C55.5818 119.337 62.0741 120.668 68.6515 121.321V121.325Z" fill="white"/>
<path d="M132.385 120.897C123.239 125.446 111.448 128.785 98.1844 130.354C95.1733 128.212 92.3677 126.198 92.3109 126.128C92.2541 126.058 91.7996 123.322 91.5811 121.469C95.6016 121.106 102.563 119.896 106.217 119.149C104.906 119.717 99.325 120.184 100.352 121.063C102.069 122.527 105.911 127.365 112.291 127.019C117.422 126.744 127.338 122.981 132.394 120.901L132.385 120.897Z" fill="white"/>
</g>
<path d="M31.5879 73.3447L43.6408 76.653" stroke="black" stroke-width="0.5" stroke-linecap="round" stroke-linejoin="round"/>
<path d="M29.4283 85.8915L16.1299 83.8245" stroke="black" stroke-width="0.5" stroke-linecap="round" stroke-linejoin="round"/>
<path d="M11.6904 111.662V105.597L26.4573 101.292" stroke="black" stroke-width="0.5" stroke-linecap="round" stroke-linejoin="round"/>
<path d="M40.2097 113.699L28.8516 120.639L28.8559 126.525" stroke="black" stroke-width="0.5" stroke-linecap="round" stroke-linejoin="round"/>
<path d="M132.901 126.7V120.669L121.386 113.751" stroke="black" stroke-width="0.5" stroke-linecap="round" stroke-linejoin="round"/>
<path d="M135.283 101.288L149.984 105.736V111.789" stroke="black" stroke-width="0.5" stroke-linecap="round" stroke-linejoin="round"/>
<path d="M145.374 83.5098L132.582 86.0707" stroke="black" stroke-width="0.5" stroke-linecap="round" stroke-linejoin="round"/>
<path d="M117.54 83.0597V76.452L129.881 73.218" stroke="black" stroke-width="0.5" stroke-linecap="round" stroke-linejoin="round"/>
<path d="M114.035 99.12C114.035 107.786 99.1766 114.813 80.8743 114.813C62.572 114.813 47.709 107.786 47.709 99.12C47.709 97.8876 47.709 94.1074 47.709 94.1074L113.992 93.6704C113.992 93.6704 114.022 96.6858 114.022 99.1113L114.035 99.12Z" fill="#A4B8F1" stroke="black" stroke-width="0.5" stroke-linecap="round" stroke-linejoin="round"/>
<path d="M80.8743 109.665C99.191 109.665 114.04 102.639 114.04 93.972C114.04 85.3048 99.191 78.2787 80.8743 78.2787C62.5576 78.2787 47.709 85.3048 47.709 93.972C47.709 102.639 62.5576 109.665 80.8743 109.665Z" fill="white" stroke="#000302" stroke-width="0.5" stroke-linecap="round" stroke-linejoin="round"/>
<path d="M80.8747 108.459C98.2332 108.459 112.305 101.885 112.305 93.7754C112.305 85.6657 98.2332 79.0916 80.8747 79.0916C63.5162 79.0916 49.4443 85.6657 49.4443 93.7754C49.4443 101.885 63.5162 108.459 80.8747 108.459Z" fill="#E2E9FF"/>
<path d="M80.8745 97.726C86.3437 97.726 90.7773 95.5933 90.7773 92.9625C90.7773 90.3317 86.3437 88.199 80.8745 88.199C75.4053 88.199 70.9717 90.3317 70.9717 92.9625C70.9717 95.5933 75.4053 97.726 80.8745 97.726Z" fill="#D3FFFF" stroke="#000302" stroke-width="0.5" stroke-linecap="round" stroke-linejoin="round"/>
<path d="M99.2644 93.3121C99.2644 96.6422 90.7426 99.3429 80.2279 99.3429C69.7133 99.3429 61.1914 96.6422 61.1914 93.3121V87.2812H99.26V93.3121H99.2644Z" fill="#FF8309" stroke="black" stroke-width="0.5" stroke-linecap="round" stroke-linejoin="round"/>
<path d="M80.2318 93.3208C90.7454 93.3208 99.2683 90.6207 99.2683 87.29C99.2683 83.9593 90.7454 81.2592 80.2318 81.2592C69.7183 81.2592 61.1953 83.9593 61.1953 87.29C61.1953 90.6207 69.7183 93.3208 80.2318 93.3208Z" fill="#FFC800" stroke="black" stroke-width="0.5" stroke-linecap="round" stroke-linejoin="round"/>
<path opacity="0.64" d="M81.4247 90.5458C89.3702 90.5458 95.8113 88.9375 95.8113 86.9535C95.8113 84.9695 89.3702 83.3612 81.4247 83.3612C73.4792 83.3612 67.0381 84.9695 67.0381 86.9535C67.0381 88.9375 73.4792 90.5458 81.4247 90.5458Z" fill="#FF8C0E"/>
<path d="M80.8438 92.8445C70.4777 92.8445 62.052 90.1831 62.052 86.9011C62.052 85.9353 62.7819 85.0263 64.0667 84.2222C62.3186 85.1268 61.3135 86.1887 61.3135 87.325C61.3135 90.607 69.7173 93.2684 80.1053 93.2684C87.4297 93.2684 93.7664 91.9574 96.8605 90.0039C93.561 91.7083 87.622 92.8489 80.8438 92.8489V92.8445Z" fill="#FFFCF8"/>
<path d="M93.3383 85.9134C93.3383 88.2121 87.4647 90.0738 80.2277 90.0738C72.9907 90.0738 67.1172 88.2121 67.1172 85.9134V82.7712H93.3383V85.9134Z" fill="#FFA70E" stroke="black" stroke-width="0.5" stroke-miterlimit="10"/>
<path d="M80.2318 83.2431C82.4233 83.2431 84.1999 82.6092 84.1999 81.8272C84.1999 81.0452 82.4233 80.4113 80.2318 80.4113C78.0403 80.4113 76.2637 81.0452 76.2637 81.8272C76.2637 82.6092 78.0403 83.2431 80.2318 83.2431Z" fill="#80F4F7" stroke="black" stroke-width="0.5" stroke-linecap="round" stroke-linejoin="round"/>
<path d="M80.2321 86.9317C87.48 86.9317 93.3557 85.069 93.3557 82.7713C93.3557 80.4735 87.48 78.6108 80.2321 78.6108C72.9841 78.6108 67.1084 80.4735 67.1084 82.7713C67.1084 85.069 72.9841 86.9317 80.2321 86.9317Z" fill="#FFEC61" stroke="black" stroke-width="0.5" stroke-linecap="round" stroke-linejoin="round"/>
<path d="M80.6383 86.3985C73.5586 86.3985 67.8249 84.5805 67.8249 82.3386C67.844 82.0665 67.9219 81.8017 68.0532 81.5625C68.1845 81.3234 68.366 81.1155 68.5853 80.9532C67.7113 81.4995 67.248 82.1113 67.248 82.7625C67.248 85.0044 72.9861 86.8224 80.0658 86.8224C85.6072 86.8224 90.327 85.708 92.1144 84.1435C90.0167 85.4807 85.664 86.3985 80.6383 86.3985Z" fill="#FFFCF8"/>
<path d="M85.1181 66.6846H75.2852V82.238C75.3332 83.0072 77.5533 83.6278 80.2278 83.6278C82.9024 83.6278 85.07 83.0072 85.1181 82.238V66.6846Z" fill="#FFA70E" stroke="black" stroke-width="0.5" stroke-miterlimit="10"/>
<path d="M86.5386 60.5051V66.6539C86.5374 67.2628 86.2947 67.8464 85.8638 68.2766C85.4328 68.7067 84.8488 68.9483 84.2399 68.9483H76.2206C75.6117 68.9483 75.0277 68.7067 74.5967 68.2766C74.1657 67.8464 73.923 67.2628 73.9219 66.6539V60.492C73.9219 60.1443 74.06 59.8108 74.3059 59.5649C74.5517 59.3191 74.8852 59.1809 75.2329 59.1809H85.2188C85.3928 59.1798 85.5653 59.2133 85.7262 59.2794C85.8872 59.3456 86.0333 59.4432 86.1562 59.5664C86.279 59.6897 86.3761 59.8362 86.4418 59.9973C86.5074 60.1585 86.5403 60.3311 86.5386 60.5051Z" fill="#FF8309" stroke="black" stroke-width="0.5" stroke-miterlimit="10"/>
<path d="M54.0809 49.6102C53.5871 49.6102 53.0889 49.6102 52.6038 49.5534C47.4254 49.184 42.5796 46.8649 39.0436 43.0637C35.5076 39.2625 33.5444 34.262 33.5498 29.0704V20.8982C33.5521 19.2588 34.2044 17.6873 35.3636 16.5281C36.5228 15.3689 38.0943 14.7167 39.7336 14.7144H120.433C122.072 14.7167 123.643 15.3691 124.802 16.5284C125.96 17.6877 126.612 19.2592 126.613 20.8982V29.0704C126.621 32.1536 125.926 35.198 124.581 37.9725C123.03 41.1686 120.681 43.9103 117.76 45.9323C114.839 47.9543 111.446 49.188 107.908 49.5141C107.292 49.5665 106.68 49.5971 106.086 49.5971L54.0809 49.6102ZM50.1784 43.4483C51.4504 43.794 52.7628 43.9689 54.0809 43.9683H106.086C107.893 43.9719 109.685 43.6446 111.374 43.0025C111.916 42.7956 112.446 42.5577 112.96 42.2902C115.38 41.0337 117.407 39.1356 118.82 36.8039C120.233 34.4722 120.977 31.7968 120.971 29.0704V22.1393C120.971 21.9046 120.925 21.6721 120.835 21.4553C120.745 21.2384 120.613 21.0414 120.447 20.8754C120.281 20.7094 120.084 20.5778 119.868 20.4879C119.651 20.3981 119.418 20.3519 119.183 20.3519H40.9573C40.7231 20.3525 40.4914 20.3992 40.2753 20.4893C40.0592 20.5794 39.8629 20.7112 39.6978 20.8772C39.5326 21.0432 39.4017 21.2401 39.3127 21.4566C39.2236 21.6732 39.178 21.9051 39.1786 22.1393V29.0704C39.1868 32.0955 40.1128 35.0468 41.8341 37.5344C43.5555 40.022 45.9911 41.9287 48.8192 43.0025C49.2485 43.1704 49.6861 43.3162 50.1303 43.4396H50.1652L50.1784 43.4483Z" fill="#FFEC61"/>
<path d="M120.434 14.8586C122.035 14.8598 123.571 15.4965 124.703 16.6289C125.835 17.7613 126.472 19.2968 126.473 20.8982V29.0705C126.476 34.1635 124.57 39.0726 121.132 42.8301C117.694 46.5876 112.973 48.9209 107.9 49.37C107.301 49.4268 106.694 49.453 106.086 49.453H54.0811C53.5873 49.453 53.0978 49.453 52.6171 49.4006C47.4754 49.0366 42.6631 46.7359 39.1512 42.9628C35.6392 39.1897 33.6891 34.2251 33.6942 29.0705V20.8982C33.6954 19.2968 34.3321 17.7613 35.4645 16.6289C36.5969 15.4965 38.1324 14.8598 39.7338 14.8586H120.434ZM54.0811 44.0908H106.086C107.911 44.0925 109.72 43.7623 111.427 43.1162C111.972 42.9046 112.506 42.6639 113.026 42.3952C115.463 41.1259 117.506 39.2125 118.931 36.8631C120.357 34.5138 121.111 31.8185 121.111 29.0705V22.1437C121.112 21.8903 121.062 21.6392 120.966 21.4049C120.869 21.1705 120.727 20.9576 120.548 20.7781C120.369 20.5987 120.156 20.4564 119.922 20.3592C119.688 20.2621 119.437 20.2121 119.184 20.2121H40.9575C40.4467 20.2144 39.9576 20.419 39.5973 20.781C39.2369 21.143 39.0346 21.6329 39.0346 22.1437V29.0705C39.0337 32.1274 39.9654 35.1119 41.7051 37.6255C43.4449 40.1391 45.91 42.0622 48.7714 43.1381C49.2084 43.2954 49.6454 43.4484 50.0824 43.5751C51.3727 43.9271 52.7043 44.1049 54.0418 44.1039M120.434 14.579H39.7338C38.057 14.5801 36.4493 15.2467 35.2636 16.4324C34.0779 17.618 33.4113 19.2258 33.4102 20.9026V29.0705C33.4028 34.2974 35.3791 39.3323 38.9401 43.1585C42.5011 46.9847 47.3813 49.3171 52.5953 49.6846C53.0804 49.7196 53.5786 49.737 54.0768 49.737H106.082C106.676 49.737 107.292 49.7065 107.917 49.654C111.479 49.3245 114.894 48.0819 117.835 46.0463C120.776 44.0107 123.141 41.2509 124.703 38.0337C126.057 35.2399 126.756 32.1747 126.748 29.0705V20.8982C126.747 19.223 126.082 17.6165 124.898 16.4311C123.714 15.2457 122.109 14.5781 120.434 14.5746V14.579ZM50.2529 43.3085L50.1829 43.2867C49.7896 43.1818 49.3701 43.0463 48.8719 42.8496C46.0707 41.7938 43.6576 39.9095 41.9541 37.4479C40.2505 34.9863 39.3373 32.0641 39.3361 29.0705V22.1437C39.3361 21.7087 39.5087 21.2914 39.8159 20.9834C40.1231 20.6753 40.5399 20.5017 40.975 20.5005H119.201C119.637 20.5005 120.056 20.6735 120.365 20.9816C120.673 21.2896 120.848 21.7075 120.849 22.1437V29.0705C120.852 31.7698 120.113 34.4179 118.712 36.7255C117.312 39.0331 115.304 40.9113 112.908 42.1548C112.397 42.4177 111.872 42.6526 111.335 42.8584C109.66 43.4964 107.883 43.8209 106.091 43.8155H54.0855C52.793 43.8152 51.506 43.6462 50.2572 43.3129L50.2529 43.3085Z" fill="black"/>
<path d="M42.0283 14.8586C39.1964 15.4093 36.0062 16.5412 35.1452 18.9142C33.8954 22.3622 33.7817 29.9401 34.5116 34.8085C33.9681 32.9443 33.693 31.0122 33.6943 29.0705V20.8982C33.6943 19.2964 34.3306 17.7602 35.4633 16.6276C36.5959 15.495 38.1321 14.8586 39.7339 14.8586H42.0283Z" fill="#FFE455"/>
<path d="M126.468 20.8982V29.0704C126.471 32.1314 125.782 35.1535 124.454 37.9113C126.704 30.4383 125.804 23.6383 124.891 19.3249C123.977 15.0115 114.105 14.8673 112.527 14.8673H120.433C122.032 14.8696 123.565 15.5056 124.696 16.636C125.828 17.7664 126.465 19.299 126.468 20.8982Z" fill="white"/>
<path opacity="0.64" d="M113.004 42.3951C115.446 41.1287 117.493 39.2166 118.922 36.867C120.352 34.5175 121.109 31.8206 121.111 29.0704V22.1393C121.112 21.886 121.062 21.6352 120.965 21.4011C120.869 21.167 120.727 20.9543 120.548 20.7752C120.369 20.5962 120.156 20.4542 119.922 20.3576C119.688 20.2609 119.437 20.2115 119.184 20.212H109.303C109.814 19.2244 110.137 18.6344 110.137 18.6344C110.137 18.6344 120.718 18.8048 121.587 19.5871C122.457 20.3694 125.197 39.2922 113.017 42.3951H113.004Z" fill="#FF8C0E"/>
<path opacity="0.64" d="M48.7842 43.1249C49.2212 43.2866 49.6582 43.4352 50.0953 43.5619C35.6256 41.1627 36.0014 21.2347 39.2135 19.8799C42.6135 18.4421 54.7539 19.6527 54.7539 19.6527C54.7539 19.6527 54.8806 19.8537 55.0947 20.2164H40.9703C40.4595 20.2187 39.9705 20.4233 39.6101 20.7853C39.2497 21.1473 39.0474 21.6373 39.0474 22.148V29.0704C39.0466 32.1273 39.9782 35.1118 41.718 37.6254C43.4577 40.139 45.9228 42.0621 48.7842 43.138V43.1249Z" fill="#FF8C0E"/>
<path d="M111.422 43.1162C110.573 45.3681 109.382 47.4758 107.891 49.3656C107.297 49.418 106.69 49.4486 106.082 49.4486H54.0769C53.5831 49.4486 53.0936 49.4486 52.6129 49.3918C51.4548 48.5178 49.8947 46.726 48.7803 43.1293C50.4726 43.77 52.2674 44.0973 54.0769 44.0951H106.082C107.905 44.0954 109.714 43.7637 111.418 43.1162H111.422Z" fill="black"/>
<path d="M111.501 20.2121L49.1997 20.4437C48.7627 18.9579 48.3256 16.2221 48.483 14.8586H112.331L111.501 20.2121Z" fill="black"/>
<path d="M86.5381 60.5051V65.2468C84.5451 66.0948 82.3927 66.5033 80.2275 66.4442C78.0643 66.4442 76.1021 66.3087 73.917 65.1332V60.5051C73.917 60.1574 74.0551 59.824 74.301 59.5781C74.5469 59.3322 74.8803 59.1941 75.228 59.1941H85.2139C85.5616 59.1941 85.8951 59.3322 86.141 59.5781C86.3868 59.824 86.525 60.1574 86.525 60.5051H86.5381Z" fill="black"/>
<path d="M80.2275 65.3997C75.7691 65.4099 71.3636 64.4339 67.3267 62.5416C66.1347 61.9875 64.9813 61.3538 63.8742 60.645C59.521 57.8995 55.9363 54.0933 53.4566 49.5834C50.9769 45.0735 49.6834 40.0076 49.6974 34.8609V10.3879C49.6974 10.3508 49.7121 10.3152 49.7383 10.289C49.7646 10.2628 49.8001 10.248 49.8372 10.248H110.618C110.655 10.248 110.69 10.2628 110.717 10.289C110.743 10.3152 110.758 10.3508 110.758 10.3879V34.8609C110.751 42.9567 107.532 50.719 101.808 56.4444C96.0846 62.1697 88.3232 65.3905 80.2275 65.3997Z" fill="#FFEC61" stroke="black" stroke-width="0.5" stroke-linecap="round" stroke-linejoin="round"/>
<path d="M110.618 10.3835V34.8565C110.616 39.965 109.326 44.9905 106.867 49.4686C104.409 53.9467 100.862 57.7328 96.5527 60.477C92.2439 63.2212 87.3128 64.835 82.2152 65.1691C77.1177 65.5032 72.0181 64.5469 67.388 62.3886C66.2033 61.8389 65.0571 61.2096 63.9574 60.5051C59.6305 57.7671 56.067 53.9786 53.5988 49.4923C51.1307 45.0061 49.8382 39.9681 49.8417 34.8478V10.3748H110.618M110.618 10.0907H49.8417C49.7663 10.0907 49.6941 10.1206 49.6408 10.1739C49.5875 10.2272 49.5576 10.2994 49.5576 10.3748V34.8478C49.5543 40.0153 50.8589 45.0997 53.35 49.6272C55.841 54.1547 59.4375 57.9781 63.8044 60.7411C64.9137 61.4563 66.0717 62.093 67.27 62.6465C71.944 64.8248 77.0919 65.7896 82.2375 65.4517C87.3832 65.1138 92.3607 63.4841 96.7097 60.7132C101.059 57.9423 104.639 54.1198 107.12 49.5988C109.6 45.0779 110.901 40.0045 110.902 34.8478V10.3748C110.902 10.2994 110.872 10.2272 110.819 10.1739C110.765 10.1206 110.693 10.0907 110.618 10.0907Z" fill="black"/>
<path d="M55.3174 36.0627C55.3174 36.0627 55.1645 40.4591 57.5375 47.8404C59.1588 52.8748 63.4547 58.3507 67.5889 59.2815C71.7231 60.2124 70.8534 57.1838 68.0827 56.0082C58.3984 51.909 55.3174 36.0627 55.3174 36.0627Z" fill="#FFFCF8"/>
<path opacity="0.41" d="M110.618 10.3835V34.8565C110.615 39.965 109.326 44.9905 106.867 49.4686C104.409 53.9467 100.861 57.7328 96.5524 60.477C92.2436 63.2212 87.3125 64.835 82.215 65.1691C77.1174 65.5032 72.0179 64.5469 67.3877 62.3886C99.6833 67.3007 103.52 40.8568 103.005 24.4074C102.861 20.408 102.487 16.4202 101.886 12.4637L102.485 10.3748L110.618 10.3835Z" fill="#FFB215"/>
<path d="M80.079 51.9527C88.3601 51.9527 95.0731 45.2396 95.0731 36.9586C95.0731 28.6776 88.3601 21.9645 80.079 21.9645C71.798 21.9645 65.085 28.6776 65.085 36.9586C65.085 45.2396 71.798 51.9527 80.079 51.9527Z" fill="#FFB215" stroke="black" stroke-width="0.5" stroke-miterlimit="10"/>
<path d="M92.7616 36.9586C92.7639 38.2315 92.5724 39.4973 92.1935 40.7125C91.5331 42.8389 90.3243 44.7537 88.6887 46.2643C87.053 47.7749 85.0483 48.828 82.8762 49.3174C81.9605 49.5289 81.0235 49.6345 80.0837 49.6321C77.5771 49.6321 75.1268 48.8888 73.0426 47.4962C70.9585 46.1036 69.3341 44.1243 68.3749 41.8085C67.4156 39.4927 67.1647 36.9445 67.6537 34.4861C68.1427 32.0277 69.3497 29.7695 71.1222 27.997C72.8946 26.2246 75.1528 25.0176 77.6112 24.5286C80.0696 24.0395 82.6178 24.2905 84.9336 25.2498C87.2494 26.209 89.2287 27.8334 90.6213 29.9175C92.0139 32.0017 92.7572 34.452 92.7572 36.9586H92.7616Z" fill="white" stroke="#000E0C" stroke-width="0.5" stroke-linecap="round" stroke-linejoin="round"/>
<path d="M112.1 10.0907C112.1 13.7923 97.7655 16.7902 80.0838 16.7902C62.402 16.7902 48.0635 13.7748 48.0635 10.0907V7.13647H112.1V10.0907Z" fill="#FFC800" stroke="black" stroke-width="0.5" stroke-linecap="round" stroke-linejoin="round"/>
<path d="M80.0794 13.836C97.7613 13.836 112.095 10.8365 112.095 7.1365C112.095 3.43647 97.7613 0.437012 80.0794 0.437012C62.3975 0.437012 48.0635 3.43647 48.0635 7.1365C48.0635 10.8365 62.3975 13.836 80.0794 13.836Z" fill="white" stroke="black" stroke-width="0.5" stroke-linecap="round" stroke-linejoin="round"/>
<path d="M80.0831 11.5547C73.0908 11.5547 66.3695 11.1177 61.2039 10.2786C57.7558 9.72798 51.9697 8.53055 51.9697 6.529C51.9697 3.71024 64.3199 1.5033 80.0831 1.5033C83.7628 1.5033 87.3376 1.62566 90.707 1.87039C95.7852 2.23312 100.112 2.84494 103.223 3.61846C106.518 4.45754 108.188 5.43209 108.188 6.50715C108.188 9.32592 95.842 11.5329 80.0787 11.5329L80.0831 11.5547Z" fill="#FFB215"/>
<path d="M80.0837 1.64321C83.8421 1.64321 87.4256 1.77432 90.6989 2.01031C100.877 2.73576 108.048 4.48383 108.048 6.52471C108.048 9.22985 95.5279 11.4106 80.0793 11.4106C73.7703 11.4627 67.4665 11.0361 61.222 10.1345C55.6238 9.26044 52.1058 7.94939 52.1058 6.52471C52.1058 3.82831 64.6307 1.63885 80.075 1.63885M80.075 1.35478C72.5888 1.35478 65.5441 1.8661 60.2475 2.79257C58.1788 3.10296 56.1486 3.63029 54.1904 4.36584C52.5953 5.02137 51.8174 5.72934 51.8174 6.52471C51.8174 8.51314 56.9043 9.73679 61.1739 10.4185C67.4335 11.3163 73.7516 11.7428 80.075 11.6946C87.5654 11.6946 94.6058 11.1833 99.9025 10.2612C101.968 9.94516 103.996 9.41947 105.955 8.69231C107.55 8.03242 108.328 7.32445 108.328 6.50722C108.328 5.36224 106.619 4.34399 103.259 3.48306C100.138 2.68769 95.7989 2.07586 90.712 1.70877C87.3426 1.46404 83.7634 1.34167 80.0793 1.34167L80.075 1.35478Z" fill="black"/>
<path d="M90.7161 2.01025C100.894 2.7357 108.066 4.48378 108.066 6.52465C108.066 9.22979 95.5452 11.4105 80.0966 11.4105C73.7876 11.4623 67.4838 11.0357 61.2393 10.1344C62.039 10.1563 62.865 10.1737 63.7215 10.1737C63.7215 10.1737 78.2655 10.4665 83.0202 10.0995C116.277 7.5429 90.7161 2.01025 90.7161 2.01025Z" fill="#FF8309"/>
<path d="M76.8058 28.7558C76.9174 28.6359 77.0528 28.5406 77.2033 28.4758C77.3538 28.4111 77.5161 28.3785 77.6799 28.3799H79.7906C79.8504 28.3799 79.9088 28.3973 79.9588 28.4301C80.0087 28.4629 80.048 28.5096 80.0717 28.5645C80.0954 28.6193 80.1025 28.6799 80.0922 28.7387C80.0818 28.7976 80.0545 28.8521 80.0135 28.8956L75.8007 33.41H78.13L80.4986 35.9229H75.8138L80.5117 40.9573H77.6711C77.507 40.9579 77.3446 40.9245 77.1942 40.859C77.0437 40.7936 76.9085 40.6976 76.7971 40.5771L72.0292 35.4771C71.8253 35.2573 71.7119 34.9685 71.7119 34.6686C71.7119 34.3687 71.8253 34.08 72.0292 33.8601L76.7971 28.7558H76.8058Z" fill="#00DCEA" stroke="black" stroke-width="0.5" stroke-miterlimit="10"/>
<path d="M83.3523 45.6072C83.2407 45.7271 83.1054 45.8224 82.9549 45.8871C82.8044 45.9518 82.6421 45.9845 82.4783 45.983H80.3457C80.2859 45.9831 80.2275 45.9656 80.1775 45.9328C80.1276 45.9 80.0883 45.8533 80.0646 45.7985C80.0409 45.7437 80.0338 45.6831 80.0441 45.6242C80.0545 45.5654 80.0818 45.5109 80.1228 45.4674L84.3356 40.953H82.0063L79.6377 38.4401H84.3356L79.6377 33.4057H82.4783C82.6425 33.4045 82.8051 33.4377 82.9556 33.5032C83.1061 33.5687 83.2413 33.665 83.3523 33.7859L88.1202 38.8859C88.3242 39.1057 88.4375 39.3945 88.4375 39.6944C88.4375 39.9942 88.3242 40.283 88.1202 40.5028L83.3523 45.6072Z" fill="#00DCEA" stroke="black" stroke-width="0.5" stroke-miterlimit="10"/>
<path d="M27.1037 31.0283C23.861 31.5745 23.4152 32.0203 22.8646 35.263C22.3183 32.0203 21.8726 31.5745 18.6299 31.0283C21.8726 30.4776 22.3183 30.0319 22.8646 26.7892C23.4152 30.0319 23.8522 30.4776 27.1037 31.0283Z" fill="#FFEC61" stroke="black" stroke-width="0.5" stroke-linecap="round" stroke-linejoin="round"/>
<path d="M145.295 59.3864C142.052 59.9327 141.607 60.3784 141.06 63.6211C140.51 60.3784 140.064 59.9327 136.821 59.3864C140.064 58.8358 140.51 58.39 141.06 55.1473C141.607 58.39 142.052 58.8358 145.295 59.3864Z" fill="#FFFCF8" stroke="black" stroke-width="0.5" stroke-linecap="round" stroke-linejoin="round"/>
<path d="M128.61 5.10004C125.363 5.65068 124.922 6.09207 124.371 9.33912C123.825 6.09207 123.379 5.65068 120.132 5.10004C123.379 4.55376 123.825 4.10801 124.371 0.860962C124.922 4.10801 125.363 4.55376 128.61 5.10004Z" fill="#FFFCF8" stroke="black" stroke-width="0.5" stroke-linecap="round" stroke-linejoin="round"/>
<path d="M37.653 105.614C41.411 105.614 44.4574 104.982 44.4574 104.203C44.4574 103.423 41.411 102.791 37.653 102.791C33.8951 102.791 30.8486 103.423 30.8486 104.203C30.8486 104.982 33.8951 105.614 37.653 105.614Z" fill="#181818"/>
<path d="M37.4871 104.329H37.0501C35.2716 104.219 33.606 103.421 32.4064 102.103C31.2069 100.785 30.5677 99.0523 30.6246 97.2713C30.6814 95.4903 31.4298 93.8015 32.7109 92.5631C33.9921 91.3246 35.7052 90.6339 37.4871 90.6375C37.6357 90.6375 37.7799 90.6375 37.9241 90.6375C39.6906 90.7632 41.3398 91.568 42.5259 92.883C43.712 94.1981 44.3429 95.9212 44.2864 97.6913C44.2299 99.4613 43.4903 101.141 42.2227 102.377C40.9551 103.614 39.258 104.312 37.4871 104.325V104.329Z" fill="#FFB215"/>
<path d="M37.4743 90.7862H37.9113C39.4368 90.8832 40.883 91.4999 42.009 92.5336C43.135 93.5674 43.8728 94.9557 44.0995 96.4674C44.172 96.943 44.1939 97.425 44.1651 97.9052C44.0574 99.6026 43.3077 101.195 42.0683 102.36C40.8289 103.525 39.1926 104.174 37.4918 104.176C37.3476 104.176 37.2077 104.176 37.0548 104.176C35.283 104.063 33.6287 103.251 32.4553 101.918C31.2819 100.586 30.6853 98.8424 30.7967 97.0705C30.8256 96.5891 30.9092 96.1126 31.0458 95.6502C31.4453 94.2544 32.2882 93.0266 33.4471 92.1523C34.6061 91.2779 36.0181 90.8045 37.4699 90.8036M37.4699 90.4846C35.9496 90.4886 34.4717 90.9857 33.2581 91.9014C32.0445 92.8171 31.1608 94.1019 30.7399 95.5628C30.4474 96.5706 30.3856 97.6313 30.559 98.6663C30.7323 99.7013 31.1364 100.684 31.7412 101.542C32.3461 102.399 33.1362 103.109 34.053 103.62C34.9698 104.131 35.9898 104.428 37.0373 104.491H37.4743C39.2534 104.487 40.9647 103.808 42.2625 102.592C43.5604 101.375 44.3481 99.7109 44.4666 97.9358C44.4973 97.4308 44.4754 96.9241 44.401 96.4237C44.1528 94.8462 43.3757 93.4 42.1973 92.3224C41.0188 91.2448 39.509 90.5998 37.9157 90.4934C37.7671 90.4934 37.6142 90.4934 37.4787 90.4934L37.4699 90.4846Z" fill="black"/>
<path d="M44.0948 96.4586C43.6746 97.9252 42.7658 99.2041 41.5191 100.083C40.2724 100.963 38.7626 101.39 37.24 101.293C35.7175 101.197 34.2736 100.583 33.1477 99.5534C32.0219 98.5239 31.2817 97.1405 31.0498 95.6326C31.47 94.166 32.3788 92.8871 33.6255 92.0078C34.8722 91.1285 36.382 90.7016 37.9046 90.798C39.4271 90.8944 40.871 91.5083 41.9969 92.5378C43.1227 93.5673 43.8629 94.9507 44.0948 96.4586Z" fill="#FFEC61"/>
<path d="M50.2568 128.116L62.7075 120.516L62.7599 127.155L50.5496 134.274L50.2568 128.116Z" fill="white" stroke="black" stroke-width="0.5" stroke-linecap="round" stroke-linejoin="round"/>
<path d="M98.5254 120.613L98.6434 127.155L110.517 134.248V128.295L98.5254 120.613Z" fill="white" stroke="black" stroke-width="0.5" stroke-linecap="round" stroke-linejoin="round"/>
<path d="M150.902 66.2694L152.406 65.3123C153.407 64.6821 154.544 64.3 155.723 64.1979C159.656 63.8221 163.851 66.2475 166.526 70.0627C167.533 71.4955 168.296 73.0862 168.781 74.7694C170.17 79.6553 168.781 84.0822 165.591 86.0969L164.004 87.102L164.175 86.9884L164.262 86.9272C164.38 86.8486 164.489 86.7655 164.598 86.6825L164.651 86.6388C164.743 86.5645 164.83 86.4946 164.913 86.4159L165.014 86.3285C165.088 86.263 165.158 86.1887 165.232 86.1187L165.315 86.0313C165.516 85.8324 165.706 85.6223 165.883 85.402C165.906 85.3682 165.93 85.336 165.958 85.3059C166.019 85.2229 166.08 85.1398 166.137 85.0524L166.211 84.9475C166.277 84.847 166.342 84.7465 166.403 84.6416C166.418 84.6243 166.429 84.6052 166.438 84.5848C166.513 84.4624 166.583 84.3357 166.652 84.2046L166.696 84.1172C166.749 84.0167 166.801 83.9162 166.845 83.8113C166.845 83.772 166.88 83.7326 166.902 83.6933L167.033 83.3743L167.072 83.2781C167.129 83.1383 167.177 82.9984 167.225 82.8411C167.227 82.8223 167.227 82.8032 167.225 82.7843C167.269 82.6619 167.308 82.5308 167.343 82.4041C167.351 82.3628 167.361 82.322 167.374 82.2817C167.404 82.1681 167.43 82.0545 167.461 81.9365C167.467 81.8981 167.476 81.8601 167.487 81.8229C167.553 81.5126 167.605 81.2023 167.645 80.8833C167.647 80.8425 167.647 80.8017 167.645 80.7609L167.684 80.3894C167.684 80.3457 167.684 80.2977 167.684 80.254C167.684 80.1141 167.684 79.9655 167.706 79.8169V79.7645C167.706 79.5955 167.706 79.4251 167.706 79.2532V79.1439C167.706 79.0085 167.706 78.873 167.706 78.7375C167.706 78.6894 167.706 78.6414 167.706 78.5889C167.706 78.4534 167.706 78.318 167.671 78.1825C167.671 78.1432 167.671 78.1038 167.671 78.0689C167.649 77.8897 167.627 77.7149 167.601 77.5357V77.4614C167.579 77.3085 167.548 77.1599 167.522 77.0244C167.522 76.972 167.5 76.9195 167.492 76.8671C167.461 76.736 167.435 76.6049 167.404 76.4738L167.365 76.3164C167.321 76.1372 167.277 75.9581 167.225 75.7789C166.697 73.9404 165.838 72.2136 164.69 70.6833C162.724 68.0612 160.027 66.1339 157.226 65.4391C156.227 65.1878 155.193 65.1066 154.167 65.1987C154.005 65.1987 153.843 65.2337 153.686 65.2599L153.533 65.2905L153.21 65.3429L153.031 65.3866L152.76 65.4565L152.572 65.5134L152.318 65.5964L152.135 65.6663L151.899 65.7799C151.838 65.7799 151.772 65.8324 151.715 65.8586L151.488 65.9678L151.313 66.0553L151.095 66.1776L150.902 66.2694Z" fill="#00B888" stroke="black" stroke-width="0.5" stroke-miterlimit="10"/>
<path d="M148.783 73.3011V73.1787C148.783 73.0476 148.818 72.9165 148.84 72.7941C148.84 72.663 148.883 72.5363 148.91 72.4095C148.922 72.3726 148.931 72.3346 148.936 72.2959C148.958 72.2041 148.984 72.1124 149.006 72.025C149.028 71.9376 149.028 71.9463 149.036 71.9026C149.045 71.8589 149.093 71.7059 149.128 71.6098C149.133 71.5859 149.141 71.5625 149.15 71.5399C149.189 71.4219 149.233 71.3039 149.277 71.1903L149.312 71.0985C149.347 71.0111 149.382 70.928 149.421 70.8406C149.46 70.7532 149.451 70.7707 149.469 70.7314L149.587 70.4867C149.587 70.4604 149.618 70.4299 149.635 70.3993C149.692 70.2944 149.749 70.1895 149.81 70.089L149.845 70.0278L150.002 69.7831L150.068 69.6869C150.116 69.617 150.164 69.5471 150.216 69.4815L150.282 69.3941C150.352 69.3023 150.426 69.2149 150.496 69.1275C150.57 69.0401 150.653 68.9571 150.732 68.8697C150.759 68.8487 150.784 68.8253 150.806 68.7998L150.99 68.625L151.073 68.5507L151.287 68.3671L151.339 68.3234L151.619 68.118L151.698 68.0656C151.839 67.9653 151.985 67.872 152.135 67.7859C149.679 69.5733 148.639 73.1699 149.757 77.1119C150.695 80.3993 152.879 83.1906 155.845 84.8908C157.332 85.7505 159.044 86.1433 160.757 86.0183C161.616 85.943 162.451 85.6915 163.209 85.2797C163.091 85.3671 162.968 85.4502 162.846 85.5244L162.706 85.6075L162.518 85.7124L162.374 85.7867L162.182 85.8784L162.029 85.944L161.828 86.027L161.675 86.0838L161.461 86.1538L161.303 86.2018L161.072 86.263L160.923 86.298L160.661 86.346L160.53 86.3723L160.128 86.4203C158.903 86.5252 157.671 86.3457 156.527 85.8959C153.219 84.6548 150.247 81.4514 149.124 77.5139C149.08 77.361 149.041 77.2124 149.006 77.0769C149.006 77.0288 148.984 76.9851 148.975 76.9414C148.949 76.8322 148.927 76.7229 148.905 76.618C148.883 76.5131 148.883 76.5219 148.875 76.4738C148.853 76.3514 148.831 76.2335 148.813 76.1111C148.811 76.0835 148.811 76.0557 148.813 76.0281C148.787 75.8838 148.77 75.7353 148.752 75.591C148.75 75.5517 148.75 75.5123 148.752 75.473C148.752 75.3681 148.73 75.2589 148.722 75.154C148.713 75.0491 148.722 75.0579 148.722 75.0142V74.6951V74.5815C148.722 74.4417 148.722 74.3018 148.722 74.1664V74.0877C148.722 73.9741 148.722 73.8648 148.722 73.7512V73.6201L148.783 73.3011Z" fill="#00B888" stroke="black" stroke-width="0.5" stroke-miterlimit="10"/>
<path d="M147.634 77.6449C149.264 83.3698 154.167 87.775 159.075 88.2164C159.611 88.2645 160.151 88.2645 160.687 88.2164C161.938 88.1089 163.14 87.6864 164.183 86.9884L164.271 86.9272C164.389 86.8485 164.498 86.7655 164.607 86.6824L164.66 86.6387C164.752 86.5645 164.839 86.4945 164.922 86.4159L165.022 86.3285C165.097 86.2629 165.167 86.1886 165.241 86.1187L165.324 86.0313C165.522 85.8321 165.709 85.622 165.883 85.402C165.906 85.3681 165.931 85.336 165.958 85.3058C166.019 85.2228 166.08 85.1398 166.137 85.0524L166.211 84.9475C166.277 84.847 166.342 84.7465 166.403 84.6416C166.418 84.6243 166.429 84.6052 166.438 84.5848C166.513 84.4624 166.583 84.3357 166.653 84.2046L166.696 84.1171C166.749 84.0166 166.801 83.9161 166.845 83.8112C166.845 83.7719 166.88 83.7326 166.902 83.6932L167.033 83.3742L167.072 83.2781C167.129 83.1382 167.177 82.9984 167.225 82.8411C167.227 82.8222 167.227 82.8031 167.225 82.7842C167.269 82.6619 167.308 82.5308 167.343 82.404C167.351 82.3628 167.361 82.3219 167.374 82.2817C167.404 82.1681 167.43 82.0544 167.461 81.9364C167.467 81.898 167.476 81.8601 167.487 81.8228C167.553 81.5125 167.605 81.2022 167.645 80.8832C167.647 80.8425 167.647 80.8016 167.645 80.7608L167.684 80.3894C167.684 80.3457 167.684 80.2976 167.684 80.2539C167.684 80.1141 167.684 79.9655 167.706 79.8169V79.7644C167.706 79.5955 167.706 79.425 167.706 79.2531V79.1439C167.706 79.0084 167.706 78.8729 167.706 78.7375C167.706 78.6894 167.706 78.6413 167.706 78.5889C167.706 78.4534 167.706 78.3179 167.671 78.1824C167.671 78.1431 167.671 78.1038 167.671 78.0688C167.649 77.8896 167.627 77.7148 167.601 77.5357V77.4614C167.579 77.3084 167.548 77.1598 167.522 77.0244C167.522 76.9719 167.5 76.9195 167.492 76.867C167.461 76.7359 167.435 76.6048 167.404 76.4737L167.365 76.3164C167.321 76.1372 167.277 75.958 167.225 75.7788C166.697 73.9403 165.838 72.2135 164.69 70.6832C162.724 68.0611 160.027 66.1339 157.226 65.439C156.227 65.1878 155.193 65.1065 154.167 65.1986C154.005 65.1986 153.844 65.2336 153.686 65.2598L153.533 65.2904L153.21 65.3429L153.031 65.3866L152.76 65.4565L152.572 65.5133L152.318 65.5963L152.135 65.6662L151.899 65.7799C151.838 65.7799 151.772 65.8323 151.715 65.8585L151.488 65.9678L151.313 66.0552L151.095 66.1776L150.924 66.2781C147.668 68.2621 146.218 72.7197 147.634 77.6449ZM148.796 73.1786C148.796 73.0475 148.831 72.9164 148.853 72.794C148.853 72.6629 148.896 72.5362 148.923 72.4094C148.935 72.3725 148.944 72.3344 148.949 72.2958C148.971 72.204 148.997 72.1123 149.019 72.0249C149.041 71.9375 149.041 71.9462 149.049 71.9025C149.058 71.8588 149.106 71.7058 149.141 71.6097C149.147 71.5858 149.154 71.5624 149.163 71.5398C149.202 71.4218 149.246 71.3038 149.29 71.1902L149.325 71.0984C149.36 71.011 149.395 70.9279 149.434 70.8405C149.473 70.7531 149.465 70.7706 149.482 70.7313L149.6 70.4866C149.6 70.4603 149.631 70.4297 149.648 70.3992C149.705 70.2943 149.762 70.1894 149.823 70.0889L149.858 70.0277L150.015 69.783L150.081 69.6868C150.129 69.6169 150.177 69.547 150.229 69.4814L150.295 69.394C150.365 69.3022 150.439 69.2148 150.509 69.1274C150.583 69.04 150.666 68.957 150.745 68.8696C150.772 68.8486 150.797 68.8252 150.819 68.7997L151.003 68.6249L151.086 68.5506L151.3 68.367L151.353 68.3233L151.632 68.1179L151.711 68.0655L151.855 67.9693L152.489 67.5673C152.375 67.6328 152.275 67.7115 152.17 67.7858C152.933 67.3657 153.775 67.1097 154.643 67.0341C157.702 66.7369 160.963 68.4719 163.218 71.2776C164.328 72.6535 165.153 74.2374 165.643 75.9362C166.766 79.8956 165.713 83.501 163.244 85.2796C163.357 85.2184 163.471 85.1529 163.58 85.083L162.947 85.485L162.881 85.5243L162.741 85.6074L162.553 85.7123L162.409 85.7866L162.217 85.8783L162.064 85.9439L161.863 86.0269L161.71 86.0837L161.496 86.1537L161.338 86.2017L161.107 86.2629L160.958 86.2979L160.696 86.3459L160.565 86.3722L160.163 86.4202C158.938 86.5251 157.706 86.3456 156.562 85.8958C153.254 84.6547 150.282 81.4513 149.159 77.5138C149.115 77.3609 149.076 77.2123 149.041 77.0768C149.041 77.0287 149.019 76.985 149.01 76.9413C148.984 76.8321 148.962 76.7228 148.94 76.6179C148.918 76.513 148.918 76.5218 148.91 76.4737C148.888 76.3513 148.866 76.2334 148.848 76.111C148.846 76.0833 148.846 76.0556 148.848 76.028C148.822 75.8837 148.805 75.7351 148.787 75.5909C148.785 75.5516 148.785 75.5122 148.787 75.4729C148.787 75.368 148.765 75.2588 148.757 75.1539C148.748 75.049 148.757 75.0578 148.757 75.0141V74.695V74.5814C148.757 74.4416 148.757 74.3017 148.757 74.1663V74.0876C148.757 73.974 148.757 73.8647 148.757 73.7511V73.62L148.783 73.3315L148.796 73.1786Z" fill="#00FFDA" stroke="black" stroke-width="0.5" stroke-miterlimit="10"/>
<path d="M152.183 67.7684C152.946 67.3483 153.788 67.0923 154.656 67.0167C157.715 66.7196 160.975 68.4545 163.23 71.2602C164.341 72.6362 165.165 74.22 165.656 75.9188C166.779 79.8782 165.726 83.4836 163.257 85.2622C162.499 85.6741 161.664 85.9255 160.805 86.0008C159.092 86.1258 157.38 85.733 155.893 84.8733C152.927 83.1732 150.743 80.3819 149.805 77.0944C148.682 73.1525 149.713 69.5558 152.183 67.7684Z" fill="#00E0B0" stroke="black" stroke-width="0.5" stroke-miterlimit="10"/>
<path d="M30.0979 52.4465L30.4912 54.3301C30.7467 55.5833 30.6987 56.8794 30.3514 58.1103C29.2282 62.2445 25.1771 65.5396 20.2999 66.7982C18.4648 67.2697 16.5643 67.4336 14.6755 67.2833C9.20405 66.8244 5.26215 63.7172 4.43619 59.7316L4.02539 57.7476C4.02539 57.8175 4.05598 57.8874 4.07346 57.9573C4.09094 58.0273 4.07346 58.036 4.10405 58.071C4.13902 58.2195 4.17835 58.3652 4.22205 58.508C4.23272 58.532 4.24149 58.5569 4.24827 58.5823C4.2876 58.7003 4.32693 58.8139 4.37501 58.9319C4.37501 58.9756 4.4056 59.0193 4.42308 59.063C4.44056 59.1067 4.50611 59.264 4.55418 59.3645L4.60663 59.4825C4.73755 59.7569 4.88344 60.0239 5.04364 60.2823C5.06946 60.317 5.09283 60.3535 5.11357 60.3915C5.17475 60.4877 5.23593 60.5794 5.30149 60.6712C5.32518 60.7108 5.35146 60.7487 5.38015 60.7848C5.45444 60.8897 5.5331 60.9946 5.61177 61.0951L5.65547 61.1563C5.75598 61.2787 5.85213 61.3967 5.96138 61.5147L6.03131 61.5933C6.11434 61.6851 6.19737 61.7769 6.28478 61.8599L6.38529 61.9604L6.65624 62.2183L6.7349 62.2925L7.10637 62.6116L7.15881 62.6509L7.49531 62.9131L7.60894 62.9918L7.92796 63.2103L8.03285 63.2802C8.31691 63.4638 8.61408 63.6386 8.90688 63.8003L9.02488 63.8614L9.38323 64.0406L9.51871 64.1018C9.65855 64.163 9.80277 64.2285 9.95572 64.2853L10.0169 64.3116C10.183 64.3815 10.3578 64.4427 10.5326 64.5082L10.6418 64.5432C10.7773 64.5956 10.9172 64.6393 11.0789 64.683L11.2318 64.7311L11.6688 64.8491L11.7912 64.8841L12.3506 65.0152H12.4336L12.9231 65.1113L13.0935 65.1375C13.2377 65.1594 13.3819 65.1856 13.5305 65.2031L13.701 65.2249L14.2997 65.2861C16.3596 65.451 18.4323 65.2423 20.4179 64.6699C23.8354 63.6823 26.7984 61.6895 28.5596 59.1154C29.1969 58.2019 29.6742 57.1867 29.9712 56.1131C30.0149 55.9427 30.0586 55.7766 30.0935 55.6062L30.1197 55.4401C30.1465 55.3277 30.1669 55.2139 30.1809 55.0992L30.2071 54.8982C30.2071 54.8021 30.2334 54.6972 30.2421 54.601C30.2508 54.5049 30.2421 54.4612 30.2421 54.3869C30.2421 54.3126 30.2421 54.199 30.2421 54.1028C30.2421 54.0067 30.2421 53.9586 30.2421 53.8887C30.2421 53.8188 30.2421 53.7008 30.2421 53.609C30.2421 53.5172 30.2421 53.4648 30.2421 53.3949V53.1239C30.2421 53.054 30.2421 52.9841 30.2159 52.9141C30.1897 52.8442 30.1897 52.7306 30.1765 52.6476C30.1634 52.5645 30.111 52.5165 30.0979 52.4465Z" fill="#00B888" stroke="black" stroke-width="0.5" stroke-miterlimit="10"/>
<path d="M23.7953 47.6175L23.9089 47.6786L24.2804 47.8797C24.4027 47.9496 24.5207 48.0239 24.6387 48.1026L24.748 48.1725C24.831 48.2249 24.914 48.2861 24.9927 48.3429C25.0309 48.3666 25.0674 48.3929 25.102 48.4216L25.3642 48.6226C25.3871 48.6387 25.409 48.6563 25.4297 48.675C25.5346 48.7581 25.6351 48.8455 25.7356 48.9329L25.8143 49.0072L26.0328 49.2126C26.0634 49.2432 26.0896 49.2738 26.1246 49.3044L26.3256 49.5185L26.3955 49.5972C26.4829 49.6977 26.566 49.7938 26.6446 49.8943C26.6606 49.9122 26.6752 49.9312 26.6883 49.9511L26.8806 50.2046L26.9505 50.3051C27.003 50.3838 27.0554 50.4581 27.1035 50.5367L27.169 50.6373L27.3526 50.9563C27.4138 51.0655 27.4662 51.1835 27.523 51.2972C27.5373 51.3315 27.5533 51.365 27.5711 51.3977L27.676 51.6511C27.6924 51.6868 27.707 51.7232 27.7197 51.7604C27.7547 51.8565 27.7896 51.9527 27.8202 52.0488L27.8464 52.1188C27.8814 52.2367 27.9163 52.3635 27.9469 52.4815C27.949 52.5135 27.949 52.5456 27.9469 52.5776C27.9906 52.7655 28.03 52.9535 28.0562 53.1501C27.1822 49.9861 23.9482 47.5563 19.53 47.1892C15.8469 46.8772 12.1883 48.0209 9.33872 50.375C7.91618 51.5618 6.88249 53.1481 6.37136 54.9288C6.12025 55.8268 6.05629 56.7669 6.18345 57.6907C6.13974 57.5378 6.10478 57.3848 6.07419 57.2319C6.07419 57.1707 6.05234 57.1139 6.0436 57.057C6.03486 57.0002 6.0436 56.9041 6.01301 56.8298C5.98242 56.7555 6.01301 56.7118 5.99116 56.6506C5.96931 56.5894 5.99116 56.4977 5.99116 56.4234C5.99116 56.3491 5.99116 56.3054 5.99116 56.2442C5.99116 56.183 5.99116 56.0869 5.99116 56.0126V55.829V55.5887C5.99116 55.5319 5.99116 55.4707 5.99116 55.4139C5.99116 55.357 5.99116 55.2434 6.02175 55.156C6.05234 55.0686 6.02175 55.0468 6.02175 54.99L6.07419 54.7059C6.07419 54.6622 6.07419 54.6141 6.10041 54.5617C6.131 54.4218 6.1616 54.282 6.20093 54.1247C6.57167 52.8503 7.22777 51.6771 8.11944 50.6941C10.6367 47.8229 15.0112 46.0398 19.4251 46.4113C19.5912 46.4113 19.7572 46.4288 19.9233 46.4637H20.0762L20.4259 46.5162L20.5832 46.5424L20.9721 46.6167H21.0639L21.5271 46.7259L21.6495 46.7565L21.986 46.8527L22.1302 46.8964L22.458 47.0056L22.5716 47.045L23.0086 47.2067L23.0829 47.2373L23.4151 47.3858L23.5462 47.4427L23.7953 47.6175Z" fill="#00B888" stroke="black" stroke-width="0.5" stroke-miterlimit="10"/>
<path d="M19.841 44.8031C13.4256 44.2656 7.09758 47.5432 4.78139 52.3373C4.53363 52.8658 4.33468 53.4158 4.18704 53.9805C3.82183 55.2817 3.79026 56.6539 4.09527 57.9705C4.09527 58.0098 4.09527 58.0491 4.12586 58.0841C4.16082 58.2327 4.20015 58.3784 4.24385 58.5211C4.25453 58.5451 4.26329 58.57 4.27008 58.5954C4.30941 58.7134 4.34874 58.827 4.39681 58.945C4.39681 58.9887 4.4274 59.0324 4.44488 59.0761C4.46236 59.1198 4.52792 59.2772 4.57599 59.3777L4.62843 59.4957C4.75935 59.77 4.90525 60.037 5.06545 60.2954C5.09127 60.3302 5.11463 60.3667 5.13537 60.4047C5.19655 60.5008 5.25774 60.5926 5.32329 60.6843C5.34698 60.7239 5.37326 60.7619 5.40195 60.798C5.47625 60.9029 5.55491 61.0077 5.63357 61.1083L5.67728 61.1694C5.77779 61.2918 5.87393 61.4098 5.98319 61.5278L6.05311 61.6065C6.13614 61.6982 6.21918 61.79 6.30658 61.873L6.4071 61.9736L6.67804 62.2314L6.75671 62.3057L7.12818 62.6247L7.18062 62.664L7.51712 62.9263L7.63074 63.0049L7.94977 63.2234L8.05465 63.2933C8.33871 63.4769 8.63589 63.6517 8.92869 63.8134L9.04668 63.8746L9.40504 64.0538L9.54051 64.1149C9.68036 64.1761 9.82457 64.2417 9.97753 64.2985L10.0387 64.3247C10.2048 64.3946 10.3796 64.4558 10.5544 64.5214L10.6636 64.5563C10.7991 64.6088 10.939 64.6525 11.1007 64.6962L11.2536 64.7442L11.6906 64.8622L11.813 64.8972L12.3724 65.0283H12.4554L12.9449 65.1245L13.1153 65.1507C13.2595 65.1725 13.4038 65.1987 13.5523 65.2162L13.7228 65.2381L14.3215 65.2993C16.3814 65.4642 18.4541 65.2554 20.4397 64.6831C23.8572 63.6954 26.8202 61.7026 28.5814 59.1286C29.2187 58.2151 29.696 57.1998 29.993 56.1263C30.0367 55.9558 30.0804 55.7897 30.1153 55.6193L30.1415 55.4532C30.1683 55.3408 30.1887 55.227 30.2027 55.1124L30.2289 54.9113C30.2289 54.8152 30.2552 54.7103 30.2639 54.6142C30.2726 54.518 30.2639 54.4743 30.2639 54.4C30.2639 54.3257 30.2639 54.2121 30.2639 54.116C30.2639 54.0198 30.2639 53.9718 30.2639 53.9018C30.2639 53.8319 30.2639 53.7139 30.2639 53.6221C30.2639 53.5304 30.2639 53.4779 30.2639 53.408V53.1371C30.2639 53.0671 30.2639 52.9972 30.2377 52.9273C30.2115 52.8574 30.2115 52.7437 30.1984 52.6607C30.1852 52.5777 30.1765 52.5209 30.1634 52.4509C29.3156 48.4129 25.3562 45.2401 19.841 44.8031ZM23.9097 47.6831L24.2811 47.8841C24.4035 47.954 24.5215 48.0283 24.6395 48.107L24.7487 48.1769C24.8318 48.2293 24.9148 48.2905 24.9935 48.3473C25.0316 48.371 25.0681 48.3973 25.1027 48.426L25.3649 48.627C25.3878 48.6432 25.4097 48.6607 25.4305 48.6795C25.5354 48.7625 25.6359 48.8499 25.7364 48.9373L25.8151 49.0116L26.0336 49.217C26.0642 49.2476 26.0904 49.2782 26.1253 49.3088L26.3264 49.5229L26.3963 49.6016C26.4837 49.7021 26.5667 49.7982 26.6454 49.8987C26.6613 49.9166 26.6759 49.9356 26.6891 49.9556L26.8814 50.209L26.9513 50.3095C27.0037 50.3882 27.0562 50.4625 27.1043 50.5412L27.1698 50.6417L27.3534 50.9607C27.4145 51.07 27.467 51.1879 27.5238 51.3016C27.538 51.3359 27.5541 51.3695 27.5719 51.4021L27.6768 51.6556C27.6932 51.6912 27.7078 51.7277 27.7205 51.7648C27.7554 51.861 27.7904 51.9571 27.821 52.0532L27.8472 52.1232C27.8822 52.2412 27.9171 52.3679 27.9477 52.4859C27.9497 52.5179 27.9497 52.55 27.9477 52.582C27.9477 52.6432 27.9783 52.7044 27.9914 52.7656L28.1575 53.561C28.1313 53.4211 28.0919 53.2856 28.057 53.1545C28.1896 54.0864 28.1286 55.0355 27.8778 55.9427C27.0038 59.1635 24.0058 61.7856 20.3086 62.9962C18.4926 63.5919 16.5763 63.8206 14.6711 63.6692C10.2397 63.2977 6.9927 60.8548 6.13614 57.6777C6.13614 57.8175 6.17548 57.9574 6.20607 58.1147L6.04437 57.3193C6.04437 57.2887 6.04437 57.2625 6.04437 57.2363C6.04437 57.2101 6.02252 57.1183 6.01378 57.0615C6.00504 57.0047 6.01378 56.9085 5.98319 56.8342C5.9526 56.7599 5.98319 56.7162 5.96134 56.655C5.93948 56.5939 5.96134 56.5021 5.96134 56.4278C5.96134 56.3535 5.96134 56.3098 5.96134 56.2486C5.96134 56.1874 5.96134 56.0913 5.96134 56.017V55.8335V55.5931C5.96134 55.5363 5.96134 55.4751 5.96134 55.4183C5.96134 55.3615 5.96133 55.2478 5.99193 55.1604C6.02252 55.073 5.99193 55.0512 5.99193 54.9944L6.04437 54.7103C6.04437 54.6666 6.04437 54.6185 6.07059 54.5661C6.10118 54.4262 6.13177 54.2864 6.17111 54.1291C6.55022 52.8504 7.21694 51.6754 8.1202 50.6941C10.6374 47.8229 15.012 46.0399 19.4259 46.4113C19.5919 46.4113 19.758 46.4288 19.9241 46.4638H20.077L20.4266 46.5162L20.584 46.5424L20.9729 46.6167H21.0647L21.5279 46.726L21.6503 46.7566L21.9868 46.8527L22.131 46.8964L22.4588 47.0057L22.5724 47.045L23.0094 47.2067L23.0837 47.2373L23.4158 47.3859L23.5469 47.4427L23.831 47.5825L23.9097 47.6831Z" fill="#00FFDA" stroke="black" stroke-width="0.5" stroke-miterlimit="10"/>
<path d="M28.0918 53.1676C28.2245 54.0995 28.1635 55.0486 27.9127 55.9558C27.0386 59.1766 24.0407 61.7987 20.3435 63.0093C18.5275 63.605 16.6112 63.8337 14.706 63.6823C10.2746 63.3108 7.02758 60.8679 6.17102 57.6908C6.04386 56.767 6.10782 55.8269 6.35894 54.9288C6.88634 53.1485 7.93698 51.568 9.37436 50.3926C12.2239 48.0384 15.8826 46.8947 19.5656 47.2067C23.9839 47.5738 27.2222 50.0036 28.0918 53.1676Z" fill="#00E0B0" stroke="black" stroke-width="0.5" stroke-miterlimit="10"/>
<path d="M115.466 68.1329L101.434 71.8476V78.1669" stroke="black" stroke-width="0.5" stroke-linecap="round" stroke-linejoin="round"/>
<path d="M45 68L58.5 72.1168V79" stroke="black" stroke-width="0.5" stroke-linecap="round" stroke-linejoin="round"/>
<defs>
<linearGradient id="paint0_linear_2382_14725" x1="7.50781" y1="109.626" x2="154.241" y2="109.626" gradientUnits="userSpaceOnUse">
<stop stop-color="#00C0FF"/>
<stop offset="1" stop-color="#7460FF"/>
</linearGradient>
<linearGradient id="paint1_linear_2382_14725" x1="68.101" y1="131.708" x2="94.4619" y2="131.708" gradientUnits="userSpaceOnUse">
<stop stop-color="#00F139"/>
<stop offset="1" stop-color="#00FDFB"/>
</linearGradient>
</defs>
</svg>
