<svg width="192" height="143" viewBox="0 0 192 143" fill="none" xmlns="http://www.w3.org/2000/svg">
<path d="M144.659 49.5863V84.997L142.862 86.0198V84.9925V49.613L144.659 49.5863Z" fill="#FFB215" stroke="black" stroke-width="0.5" stroke-linecap="round" stroke-linejoin="round"/>
<path d="M141.065 49.5863V84.997L142.862 86.0198V84.9925V49.613L141.065 49.5863Z" fill="#FFEC61" stroke="black" stroke-width="0.5" stroke-linecap="round" stroke-linejoin="round"/>
<path d="M144.659 49.5863L142.862 50.658L141.065 49.5863L142.898 48.6436L144.659 49.5863Z" fill="#FFF3A9" stroke="black" stroke-width="0.5" stroke-linecap="round" stroke-linejoin="round"/>
<path d="M150.728 22.5048V73.7108L142.857 78.1889L142.871 73.6886V22.6293L150.728 22.5048Z" fill="#FFB215" stroke="black" stroke-width="0.5" stroke-miterlimit="10"/>
<path d="M135 22.5048V73.7108L142.871 78.1889L142.858 73.6886V22.6293L135 22.5048Z" fill="#FFEC61" stroke="black" stroke-width="0.5" stroke-linecap="round" stroke-linejoin="round"/>
<path d="M150.729 22.5047L142.871 27.2007L135 22.5047L143.004 18.3914L150.729 22.5047Z" fill="#FFF3A9" stroke="black" stroke-width="0.5" stroke-linecap="round" stroke-linejoin="round"/>
<path d="M144.659 2.94275V22.9627L142.862 23.9855V22.9583V2.96943L144.659 2.94275Z" fill="#FFB215" stroke="black" stroke-width="0.5" stroke-linecap="round" stroke-linejoin="round"/>
<path d="M141.065 2.94275V22.9627L142.862 23.9855V22.9583V2.96943L141.065 2.94275Z" fill="#FFEC61" stroke="black" stroke-width="0.5" stroke-linecap="round" stroke-linejoin="round"/>
<path d="M144.659 2.94274L142.862 4.01445L141.065 2.94274L142.898 2L144.659 2.94274Z" fill="#FFF3A9" stroke="black" stroke-width="0.5" stroke-linecap="round" stroke-linejoin="round"/>
<path d="M157.797 56.1455V91.5562L155.996 92.579L156.001 91.5517V56.1722L157.797 56.1455Z" fill="#FFB215" stroke="black" stroke-width="0.5" stroke-linecap="round" stroke-linejoin="round"/>
<path d="M154.2 56.1455V91.5562L156.001 92.579L155.997 91.5517V56.1722L154.2 56.1455Z" fill="#FFEC61" stroke="black" stroke-width="0.5" stroke-linecap="round" stroke-linejoin="round"/>
<path d="M157.798 56.1455L156.001 57.2172L154.2 56.1455L156.032 55.2072L157.798 56.1455Z" fill="#FFF3A9" stroke="black" stroke-width="0.5" stroke-linecap="round" stroke-linejoin="round"/>
<path d="M163.867 37.2728V80.2699L155.996 84.748L156.005 80.2477V37.3929L163.867 37.2728Z" fill="#FFB215" stroke="black" stroke-width="0.5" stroke-miterlimit="10"/>
<path d="M148.134 37.2728V80.2699L156.005 84.748L155.996 80.2477V37.3929L148.134 37.2728Z" fill="#FFEC61" stroke="black" stroke-width="0.5" stroke-linecap="round" stroke-linejoin="round"/>
<path d="M163.867 37.2728L156.005 41.9687L148.134 37.2728L156.138 33.1594L163.867 37.2728Z" fill="#FFF3A9" stroke="black" stroke-width="0.5" stroke-linecap="round" stroke-linejoin="round"/>
<path d="M157.797 17.7064V37.7308L155.996 38.7536L156.001 37.7264V17.7331L157.797 17.7064Z" fill="#FFB215" stroke="black" stroke-width="0.5" stroke-linecap="round" stroke-linejoin="round"/>
<path d="M154.2 17.7064V37.7308L156.001 38.7536L155.997 37.7264V17.7331L154.2 17.7064Z" fill="#FFEC61" stroke="black" stroke-width="0.5" stroke-linecap="round" stroke-linejoin="round"/>
<path d="M157.798 17.7065L156.001 18.7782L154.2 17.7065L156.032 16.7682L157.798 17.7065Z" fill="#FFF3A9" stroke="black" stroke-width="0.5" stroke-linecap="round" stroke-linejoin="round"/>
<path d="M171.659 63.8386V99.2493L169.862 100.272V99.2449V63.8653L171.659 63.8386Z" fill="#FFB215" stroke="black" stroke-width="0.5" stroke-linecap="round" stroke-linejoin="round"/>
<path d="M168.065 63.8386V99.2493L169.862 100.272V99.2449V63.8653L168.065 63.8386Z" fill="#FFEC61" stroke="black" stroke-width="0.5" stroke-linecap="round" stroke-linejoin="round"/>
<path d="M171.659 63.8387L169.862 64.9104L168.065 63.8387L169.893 62.9004L171.659 63.8387Z" fill="#FFF3A9" stroke="black" stroke-width="0.5" stroke-linecap="round" stroke-linejoin="round"/>
<path d="M177.728 56.7635V87.963L169.857 92.441L169.866 87.9408V56.8836L177.728 56.7635Z" fill="#FFB215" stroke="black" stroke-width="0.5" stroke-miterlimit="10"/>
<path d="M162 56.7635V87.963L169.867 92.441L169.858 87.9408V56.8836L162 56.7635Z" fill="#FFEC61" stroke="black" stroke-width="0.5" stroke-linecap="round" stroke-linejoin="round"/>
<path d="M177.729 56.7637L169.867 61.4596L162 56.7637L170.004 52.6503L177.729 56.7637Z" fill="#FFF3A9" stroke="black" stroke-width="0.5" stroke-linecap="round" stroke-linejoin="round"/>
<path d="M171.659 37.1973V57.2217L169.862 58.2445V57.2172V37.2239L171.659 37.1973Z" fill="#FFB215" stroke="black" stroke-width="0.5" stroke-linecap="round" stroke-linejoin="round"/>
<path d="M168.065 37.1973V57.2217L169.862 58.2445V57.2172V37.2239L168.065 37.1973Z" fill="#FFEC61" stroke="black" stroke-width="0.5" stroke-linecap="round" stroke-linejoin="round"/>
<path d="M171.659 37.1972L169.862 38.2689L168.065 37.1972L169.893 36.2589L171.659 37.1972Z" fill="#FFF3A9" stroke="black" stroke-width="0.5" stroke-linecap="round" stroke-linejoin="round"/>
<path d="M184.733 86.3444V106.364L182.932 107.387L182.936 106.36V86.371L184.733 86.3444Z" fill="#FFB215" stroke="black" stroke-width="0.5" stroke-linecap="round" stroke-linejoin="round"/>
<path d="M181.135 86.3444V106.364L182.936 107.387L182.931 106.36V86.371L181.135 86.3444Z" fill="#FFEC61" stroke="black" stroke-width="0.5" stroke-linecap="round" stroke-linejoin="round"/>
<path d="M184.732 86.3444L182.936 87.4161L181.135 86.3444L182.967 85.4016L184.732 86.3444Z" fill="#FFF3A9" stroke="black" stroke-width="0.5" stroke-linecap="round" stroke-linejoin="round"/>
<path d="M190.803 79.2694V95.0781L182.932 99.5562L182.941 95.0559V79.3895L190.803 79.2694Z" fill="#FFB215" stroke="black" stroke-width="0.5" stroke-miterlimit="10"/>
<path d="M175.069 79.2694V95.0781L182.94 99.5562L182.931 95.0559V79.3895L175.069 79.2694Z" fill="#FFEC61" stroke="black" stroke-width="0.5" stroke-linecap="round" stroke-linejoin="round"/>
<path d="M190.802 79.2693L182.94 83.9608L175.069 79.2693L183.074 75.1515L190.802 79.2693Z" fill="#FFF3A9" stroke="black" stroke-width="0.5" stroke-linecap="round" stroke-linejoin="round"/>
<path d="M184.733 59.703V79.723L182.932 80.7457L182.936 79.7185V59.7297L184.733 59.703Z" fill="#FFB215" stroke="black" stroke-width="0.5" stroke-linecap="round" stroke-linejoin="round"/>
<path d="M181.135 59.703V79.723L182.936 80.7457L182.931 79.7185V59.7297L181.135 59.703Z" fill="#FFEC61" stroke="black" stroke-width="0.5" stroke-linecap="round" stroke-linejoin="round"/>
<path d="M184.732 59.703L182.936 60.7747L181.135 59.703L182.967 58.7603L184.732 59.703Z" fill="#FFF3A9" stroke="black" stroke-width="0.5" stroke-linecap="round" stroke-linejoin="round"/>
<path d="M84.9698 131.364L143.629 119.104L84.4673 107.502L36.085 118.766L84.9698 131.364Z" stroke="black" stroke-width="0.5" stroke-linecap="round" stroke-linejoin="round"/>
<path d="M84.8986 142.223L135.709 131.72L85.0631 121.985L44.0049 131.439L84.8986 142.223Z" stroke="black" stroke-width="0.5" stroke-linecap="round" stroke-linejoin="round"/>
<path d="M2.29664 39.2194C4.43281 40.4754 6.49784 41.8486 8.48228 43.3328C10.5145 44.8181 12.4845 46.4145 14.3789 48.0643C18.1919 51.3919 21.7037 55.0496 24.8736 58.9948C28.0693 62.9563 30.8026 67.2695 33.0203 71.8508L34.6123 75.3372C35.057 76.5289 35.4616 77.7429 35.8885 78.9525L36.5244 80.7713L36.9691 82.6434L37.8585 86.3966L37.2626 82.5901L36.9602 80.6734L36.4666 78.7968C36.1331 77.5473 35.8263 76.2843 35.4661 75.0392L34.132 71.3794C32.2322 66.5145 29.7839 61.8821 26.8346 57.5718C23.8831 53.2342 20.5543 49.1658 16.8869 45.414C15.0415 43.5463 13.1382 41.7275 11.1371 40.011C9.12747 38.2445 7.01921 36.5935 4.82248 35.066C4.55969 34.8838 4.26359 34.7552 3.95108 34.6874C3.63857 34.6196 3.31577 34.6141 3.00111 34.6711C2.68646 34.728 2.38611 34.8464 2.11721 35.0195C1.84832 35.1926 1.61614 35.4169 1.43394 35.6797C1.06597 36.2104 0.9239 36.8656 1.03899 37.501C1.15407 38.1365 1.51689 38.7003 2.04761 39.0682L2.20325 39.1705L2.29664 39.2194Z" fill="#FFEC61" stroke="black" stroke-width="0.5" stroke-linecap="round" stroke-linejoin="round"/>
<path d="M30.1164 86.9703C29.1114 85.8586 28.0664 84.609 26.928 83.2438L25.5939 81.674C18.7724 73.5762 10.6568 77.992 10.3144 78.1877C9.91364 78.3552 9.46548 78.3703 9.05439 78.2301C8.6433 78.09 8.29769 77.8042 8.08274 77.4268C7.86778 77.0494 7.79834 76.6064 7.88749 76.1814C7.97665 75.7563 8.21825 75.3785 8.56673 75.1193C8.67346 75.0526 19.5461 69.0093 28.2976 79.4017L29.6317 80.9803C31.6684 83.4217 33.2559 85.3205 34.7412 86.659L30.1164 86.9703Z" fill="#A593F9" stroke="black" stroke-width="0.5" stroke-miterlimit="10"/>
<path d="M28.2803 69.6095L91.7598 59.5017L150.672 74.6656L138.95 75.4839L85.3029 79.2237L36.6538 71.0236L28.2803 69.6095Z" fill="black" stroke="black" stroke-width="0.5" stroke-linecap="round" stroke-linejoin="round"/>
<path d="M74.528 110.099L60.916 116.44V111.499L74.528 110.099Z" fill="black" stroke="black" stroke-width="0.5" stroke-linecap="round" stroke-linejoin="round"/>
<path d="M97.9414 115.275L111.553 117.645V112.704L97.9414 115.275Z" fill="black" stroke="black" stroke-width="0.5" stroke-linecap="round" stroke-linejoin="round"/>
<path d="M28.2803 69.6096V107.542L85.3029 118.481V79.2238L28.2803 69.6096Z" fill="#EBEEFF" stroke="black" stroke-width="0.5" stroke-linecap="round" stroke-linejoin="round"/>
<path d="M150.672 74.6656V113.754L85.3027 118.481V79.2237L150.672 74.6656Z" fill="#EBEEFF" stroke="black" stroke-width="0.5" stroke-linecap="round" stroke-linejoin="round"/>
<path d="M50.3457 78.4412V114.692L60.916 116.44V80.3355L50.3457 78.4412Z" fill="#00DCEA" stroke="black" stroke-width="0.5" stroke-miterlimit="10"/>
<path d="M111.566 117.596V94.2498C111.566 94.2498 110.677 83.8041 123.003 83.8041C133.449 83.8041 134.192 85.7963 134.192 85.7963C134.192 85.7963 122.879 85.0492 122.879 92.7557V116.36L111.566 117.596Z" fill="#203A3A" stroke="black" stroke-width="0.5" stroke-linecap="round" stroke-linejoin="round"/>
<path d="M147.595 121.99C147.595 121.99 137.652 122.154 135.166 108.894C132.681 95.6328 133.508 85.3561 121.741 83.8663H133.303C133.303 83.8663 143.193 83.8041 143.193 97.7318C143.193 114.31 154.413 120.055 159.051 119.886L147.595 121.99Z" fill="#00DCEA" stroke="black" stroke-width="0.5" stroke-miterlimit="10"/>
<mask id="mask0_2398_14820" style="mask-type:alpha" maskUnits="userSpaceOnUse" x="20" y="0" width="131" height="79">
<path d="M28.2802 69.1472L20.5 13.5L107 0.5L150.672 30.0001V74.6659L138.95 75.4841L85.3295 78.9616L36.6537 70.5614L28.2802 69.1472Z" fill="black"/>
</mask>
<g mask="url(#mask0_2398_14820)">
<path d="M86.143 89.0603C86.6728 89.1587 87.1781 89.3605 87.6298 89.6543C88.0816 89.9481 88.471 90.328 88.7758 90.7724C89.0806 91.2168 89.2948 91.7169 89.4062 92.2442C89.5175 92.7714 89.5239 93.3155 89.4248 93.8452L93.765 94.6501C93.9643 93.5798 94.5806 92.6325 95.4784 92.0166C96.3761 91.4007 97.4818 91.1667 98.5521 91.366C99.6224 91.5653 100.57 92.1817 101.186 93.0794C101.801 93.9772 102.035 95.0828 101.836 96.1531L106.172 96.958C106.27 96.428 106.472 95.9227 106.766 95.4707C107.059 95.0187 107.439 94.629 107.884 94.3239C108.328 94.0187 108.828 93.8041 109.355 93.6922C109.883 93.5803 110.427 93.5733 110.957 93.6717C111.487 93.7701 111.992 93.972 112.444 94.2657C112.896 94.5594 113.286 94.9392 113.591 95.3836C113.896 95.8279 114.111 96.328 114.223 96.8552C114.334 97.3825 114.341 97.9266 114.243 98.4566L118.579 99.2659C118.662 98.7221 118.853 98.2004 119.142 97.732C119.43 97.2636 119.81 96.858 120.259 96.5393C120.707 96.2206 121.215 95.9953 121.752 95.8768C122.289 95.7583 122.845 95.749 123.386 95.8495C123.927 95.95 124.442 96.1582 124.901 96.4618C125.36 96.7653 125.753 97.158 126.057 97.6165C126.361 98.075 126.57 98.59 126.671 99.1308C126.772 99.6716 126.763 100.227 126.645 100.765L130.986 101.574C131.084 101.044 131.286 100.539 131.579 100.087C131.873 99.6346 132.253 99.2449 132.697 98.9398C133.142 98.6346 133.642 98.4199 134.169 98.3081C134.696 98.1962 135.24 98.1892 135.77 98.2876L146.656 39.7397C145.684 39.5593 144.81 39.033 144.195 38.2581C143.58 37.4832 143.267 36.5121 143.312 35.524L138.865 34.7014C138.54 35.6246 137.895 36.4009 137.046 36.8898C136.198 37.3787 135.203 37.5479 134.241 37.3669C133.279 37.1859 132.413 36.6665 131.8 35.9027C131.188 35.139 130.869 34.1813 130.901 33.2028L126.481 32.3801C126.181 33.3366 125.542 34.1503 124.683 34.6673C123.824 35.1842 122.806 35.3687 121.82 35.1858C120.835 35.003 119.95 34.4654 119.334 33.6748C118.718 32.8841 118.413 31.8952 118.476 30.8948L114.074 30.0899C113.774 31.0465 113.135 31.8601 112.276 32.3771C111.417 32.8941 110.399 33.0786 109.413 32.8957C108.428 32.7128 107.543 32.1753 106.927 31.3846C106.311 30.594 106.006 29.605 106.07 28.6047L101.645 27.782C101.335 28.7191 100.698 29.5133 99.8501 30.0188C99.0024 30.5244 98.0008 30.7075 97.029 30.5346C96.8416 30.4984 96.6573 30.4479 96.4776 30.3834L85.5693 88.998C85.7618 89.0056 85.9534 89.0264 86.143 89.0603Z" fill="white" stroke="black" stroke-width="0.5" stroke-miterlimit="10"/>
<path d="M138.865 61.6763L138.647 61.6318" stroke="black" stroke-width="0.5" stroke-linecap="round" stroke-linejoin="round"/>
<path d="M137.762 61.4584L97.0732 53.4006" stroke="black" stroke-width="0.5" stroke-linecap="round" stroke-linejoin="round" stroke-dasharray="1.01 2.03"/>
<path d="M96.6329 53.3117L96.415 53.2672" stroke="black" stroke-width="0.5" stroke-linecap="round" stroke-linejoin="round"/>
<path d="M141.991 44.2793L99.3926 35.8987L96.5873 50.1578L139.186 58.5385L141.991 44.2793Z" fill="#EAEAEA"/>
<path d="M41.3404 117.054C42.2158 116.92 43.1088 116.961 43.9686 117.173C44.8284 117.385 45.6379 117.764 46.3511 118.289C47.0643 118.814 47.6671 119.474 48.125 120.232C48.583 120.989 48.8872 121.83 49.0202 122.706C49.0181 122.714 49.0181 122.723 49.0202 122.732L56.1841 121.643C56.1836 121.632 56.1836 121.622 56.1841 121.612C56.051 120.736 56.0917 119.842 56.3039 118.982C56.5161 118.122 56.8957 117.312 57.4209 116.598C57.9462 115.884 58.6068 115.281 59.3651 114.823C60.1235 114.365 60.9646 114.061 61.8406 113.927C62.7166 113.794 63.6102 113.835 64.4704 114.047C65.3306 114.259 66.1407 114.639 66.8542 115.164C67.5678 115.689 68.1709 116.35 68.6291 117.108C69.0873 117.867 69.3917 118.708 69.5248 119.584C69.523 119.594 69.523 119.605 69.5248 119.615L76.6888 118.521C76.6888 118.521 76.6888 118.521 76.6888 118.494C76.4193 116.725 76.8636 114.922 77.924 113.48C78.9844 112.039 80.5739 111.077 82.343 110.808C84.1121 110.538 85.9158 110.983 87.3573 112.043C88.7988 113.103 89.76 114.693 90.0295 116.462V116.493L97.1935 115.404C97.1935 115.404 97.1935 115.382 97.1935 115.373C97.0603 114.497 97.101 113.603 97.3132 112.743C97.5254 111.883 97.905 111.073 98.4302 110.359C98.9555 109.645 99.6161 109.042 100.374 108.584C101.133 108.126 101.974 107.822 102.85 107.688C103.726 107.555 104.62 107.596 105.48 107.808C106.34 108.02 107.15 108.4 107.864 108.925C108.577 109.45 109.18 110.111 109.638 110.869C110.097 111.628 110.401 112.469 110.534 113.345V113.372L117.698 112.282C117.698 112.282 117.698 112.282 117.698 112.255C117.429 110.488 117.873 108.686 118.932 107.246C119.991 105.806 121.578 104.845 123.346 104.576L108.578 7.85541C106.972 8.09829 105.332 7.75338 103.961 6.8841C102.589 6.01483 101.577 4.6796 101.111 3.1239L93.8094 4.23563C93.8311 5.86075 93.2643 7.43889 92.2134 8.67875C91.1626 9.91861 89.6987 10.7365 88.092 10.9814C86.4853 11.2264 84.8442 10.8818 83.4717 10.0114C82.0991 9.14096 81.0878 7.80342 80.6243 6.24563L73.318 7.35735C73.3387 8.98208 72.771 10.5594 71.7198 11.7984C70.6686 13.0375 69.2048 13.8545 67.5984 14.0988C65.992 14.3432 64.3515 13.9983 62.9794 13.1279C61.6074 12.2575 60.5964 10.9203 60.133 9.36291L52.8267 10.488C52.8485 12.1131 52.2816 13.6912 51.2308 14.9311C50.1799 16.171 48.7161 16.9888 47.1093 17.2338C45.5026 17.4787 43.8616 17.1342 42.489 16.2637C41.1165 15.3933 40.1051 14.0558 39.6417 12.498L32.3354 13.6097C32.3507 14.4964 32.1897 15.3773 31.8616 16.2012C31.5335 17.0251 31.045 17.7756 30.4243 18.4091C29.8037 19.0425 29.0633 19.5463 28.2463 19.8912C27.4293 20.2361 26.5519 20.4151 25.665 20.4179L40.4243 117.249C40.7249 117.163 41.0309 117.098 41.3404 117.054Z" fill="#00DCEA" stroke="black" stroke-width="0.5" stroke-miterlimit="10"/>
<path d="M108.342 46.1033L108.124 46.1344" stroke="black" stroke-width="0.5" stroke-linecap="round" stroke-linejoin="round"/>
<path d="M107.239 46.2589L38.6104 55.8909" stroke="black" stroke-width="0.5" stroke-linecap="round" stroke-linejoin="round" stroke-dasharray="1.01 2.01"/>
<path d="M38.1696 55.9531L37.9473 55.9843" stroke="black" stroke-width="0.5" stroke-linecap="round" stroke-linejoin="round"/>
<path d="M103.813 17.399L33.2041 27.4104L36.5546 51.0406L107.163 41.0292L103.813 17.399Z" fill="#00B3C6"/>
<path d="M137.963 79.0769C138.372 76.9964 138.231 74.8451 137.553 72.8359C136.875 70.8268 135.684 69.0296 134.098 67.6221C132.512 66.2145 130.586 65.2456 128.511 64.8111C126.436 64.3766 124.283 64.4916 122.265 65.1448C119.706 65.9735 116.952 65.9813 114.389 65.1672C111.825 64.353 109.58 62.7577 107.969 60.6045C106.628 58.8148 104.82 57.4288 102.743 56.5985C100.667 55.7682 98.4015 55.5256 96.1962 55.8974C93.9909 56.2692 91.9306 57.241 90.241 58.7062C88.5515 60.1714 87.298 62.0735 86.6179 64.204C85.9378 66.3345 85.8574 68.6111 86.3855 70.7842C86.9136 72.9574 88.0299 74.9432 89.6118 76.524C91.1938 78.1047 93.1805 79.2194 95.3541 79.7458C97.5276 80.2722 99.8042 80.1901 101.934 79.5083H101.987L98.3766 110.837L102.801 112.242L116.378 84.2265C117.809 86.0773 119.744 87.4765 121.95 88.2566C124.156 89.0367 126.54 89.1646 128.816 88.6251C131.093 88.0856 133.166 86.9014 134.788 85.2144C136.409 83.5274 137.51 81.4089 137.958 79.1125L137.963 79.0769ZM96.4066 72.0241C95.555 71.7533 94.8028 71.2361 94.2452 70.5377C93.6875 69.8394 93.3495 68.9914 93.2739 68.1009C93.1983 67.2105 93.3884 66.3176 93.8203 65.5352C94.2521 64.7528 94.9063 64.1161 95.7 63.7055C96.4938 63.295 97.3915 63.129 98.2796 63.2287C99.1677 63.3283 100.006 63.6891 100.689 64.2654C101.372 64.8417 101.869 65.6076 102.117 66.4662C102.364 67.3249 102.352 68.2377 102.081 69.0892C101.716 70.23 100.914 71.1797 99.8506 71.7299C98.7868 72.2801 97.5483 72.3859 96.4066 72.0241ZM125.156 81.1581C124.304 80.8873 123.552 80.37 122.994 79.6717C122.437 78.9733 122.099 78.1253 122.023 77.2349C121.947 76.3444 122.138 75.4515 122.569 74.6692C123.001 73.8868 123.656 73.25 124.449 72.8395C125.243 72.4289 126.141 72.263 127.029 72.3626C127.917 72.4623 128.755 72.823 129.438 73.3993C130.122 73.9756 130.618 74.7415 130.866 75.6001C131.114 76.4588 131.101 77.3716 130.83 78.2231C130.467 79.3616 129.667 80.3096 128.606 80.8597C127.545 81.4097 126.309 81.517 125.169 81.1581H125.156Z" fill="url(#paint0_linear_2398_14820)" stroke="black" stroke-width="0.5" stroke-linecap="round" stroke-linejoin="round"/>
</g>
<path d="M74.0925 70.7302C75.0184 70.7302 75.769 69.9796 75.769 69.0537C75.769 68.1278 75.0184 67.3772 74.0925 67.3772C73.1666 67.3772 72.416 68.1278 72.416 69.0537C72.416 69.9796 73.1666 70.7302 74.0925 70.7302Z" fill="#FFEC61" stroke="black" stroke-width="0.5" stroke-linecap="round" stroke-linejoin="round"/>
<path d="M165.103 110.428C166.058 110.428 166.833 109.653 166.833 108.698C166.833 107.742 166.058 106.968 165.103 106.968C164.148 106.968 163.373 107.742 163.373 108.698C163.373 109.653 164.148 110.428 165.103 110.428Z" fill="#A593F9" stroke="black" stroke-width="0.5" stroke-miterlimit="10"/>
<path d="M5.52071 99.9463C7.38478 99.9463 8.89591 98.4352 8.89591 96.5711C8.89591 94.707 7.38478 93.1959 5.52071 93.1959C3.65664 93.1959 2.14551 94.707 2.14551 96.5711C2.14551 98.4352 3.65664 99.9463 5.52071 99.9463Z" fill="#00DCEA" stroke="black" stroke-width="0.5" stroke-miterlimit="10"/>
<path d="M134.205 84.4889C134.205 84.4889 138.99 87.0948 134.814 87.664C133.107 87.9009 131.37 87.5158 129.923 86.5789C129.923 86.5789 133.036 88.4956 133.303 93.9252C133.303 93.9252 132.551 89.4161 135.971 89.2071C139.39 88.9981 141.836 91.0837 142.503 97.0959C142.503 97.0959 143.023 86.2854 134.205 84.4889Z" fill="#9FFFFF"/>
<defs>
<linearGradient id="paint0_linear_2398_14820" x1="120.887" y1="58.8157" x2="90.2963" y2="105.535" gradientUnits="userSpaceOnUse">
<stop stop-color="#FFA7FF"/>
<stop offset="1" stop-color="white"/>
</linearGradient>
</defs>
</svg>
