<svg width="171" height="155" viewBox="0 0 171 155" fill="none" xmlns="http://www.w3.org/2000/svg">
<path d="M31.4476 66.8291L23.0276 52.2607L20.6621 88.7951L31.4476 66.8291Z" fill="#C588E7" stroke="black" stroke-width="0.5" stroke-miterlimit="10"/>
<path d="M44.2088 88.8988L33.3986 70.197L22.6279 92.1878L44.2088 88.8988Z" fill="#B555E6" stroke="black" stroke-width="0.5" stroke-miterlimit="10"/>
<path d="M56.6635 110.445L44.2088 88.8988L22.6279 92.1878L56.6635 110.445Z" fill="#E491E5" stroke="black" stroke-width="0.5" stroke-miterlimit="10"/>
<path d="M31.4473 66.8291L23.0273 52.2607L54.4357 65.9648L31.4473 66.8291Z" fill="#F4BCF1" stroke="black" stroke-width="0.5" stroke-miterlimit="10"/>
<path d="M44.2086 88.8988L33.3984 70.197L56.3966 69.3624L44.2086 88.8988Z" fill="#C588E7" stroke="black" stroke-width="0.5" stroke-miterlimit="10"/>
<path d="M56.6627 110.445L44.208 88.8988L56.396 69.3624L56.6627 110.445Z" fill="#F4BCF1" stroke="black" stroke-width="0.5" stroke-miterlimit="10"/>
<path d="M65.2951 41.7172C65.2951 41.7172 76.9596 25.9834 57.8232 10.1706C57.8232 10.1706 60.9838 8.27429 69.5273 10.1706C69.5273 10.1706 70.6335 8.43231 69.5273 1C69.5273 1 90.081 13.9683 80.5943 31.5194L65.2951 41.7172Z" fill="#00DCEA" stroke="black" stroke-width="0.5" stroke-miterlimit="10"/>
<path d="M129.899 37.8652C129.899 37.8652 140.932 29.5638 153.737 27.7859C166.542 26.0081 172.009 60.6363 156.942 58.2658C141.875 55.8954 129.899 37.8652 129.899 37.8652Z" fill="#00DCEA" stroke="black" stroke-width="0.5" stroke-miterlimit="10"/>
<path d="M144.631 53.9546C144.631 53.9546 152.38 48.9915 157.442 49.3322C162.706 49.6878 163.565 56.7398 158.597 56.7398C155.157 56.8873 151.736 56.1457 148.666 54.5867C143.525 51.999 144.631 53.9546 144.631 53.9546Z" fill="#203A3A" stroke="black" stroke-width="0.5" stroke-linecap="round" stroke-linejoin="round"/>
<path d="M108.077 38.8431C108.077 38.8431 117.006 17.682 101.119 6.42732C94.699 1.88398 93.2816 12.0028 83.0986 15.6029C71.8242 19.5833 80.5603 31.5688 80.5603 31.5688L108.077 38.8431Z" fill="#00DCEA" stroke="black" stroke-width="0.5" stroke-miterlimit="10"/>
<path d="M85.2121 36.8529C85.2121 36.8529 87.6813 27.9884 85.8936 23.2476C84.017 18.3091 78.0415 19.9043 78.5501 24.1118C79.3422 27.507 81.0247 30.6298 83.4244 33.159C87.4294 37.3369 85.2121 36.8529 85.2121 36.8529Z" fill="#203A3A" stroke="black" stroke-width="0.5" stroke-linecap="round" stroke-linejoin="round"/>
<path d="M97.7461 68.5279L96.793 82.2666L157.437 81.4715L157.244 80.3456L144.552 68.2909L97.7461 68.5279Z" fill="#ADB7D8" stroke="black" stroke-width="0.5" stroke-miterlimit="10"/>
<path d="M99.7361 66.3699L96.7928 82.5382L56.6484 45.7717L57.5472 45.0606L76.2786 44.547L99.7361 66.3699Z" fill="#ADB7D8" stroke="black" stroke-width="0.5" stroke-miterlimit="10"/>
<path d="M71.6221 40.2011L99.3858 68.3056H145.274L117.52 36.9121L71.6221 40.2011Z" fill="#606D91" stroke="black" stroke-width="0.5" stroke-miterlimit="10"/>
<path d="M119.213 42.1765L124.858 26.3636L164.439 66.5821L160.483 82.8147L119.213 42.1765Z" fill="#EBEEFF" stroke="black" stroke-width="0.5" stroke-linecap="round" stroke-linejoin="round"/>
<path d="M54.2188 44.5469L61.493 29.9983L124.907 26.3636L119.213 42.1765L54.2188 44.5469Z" fill="#EBEEFF" stroke="black" stroke-width="0.5" stroke-linecap="round" stroke-linejoin="round"/>
<path d="M109.988 42.4136L101.449 33.717L58.8455 35.2973L58.2578 36.4924L100.866 34.8331L108.388 42.4136H109.988Z" fill="#00ECF3" stroke="black" stroke-width="0.5" stroke-linecap="round" stroke-linejoin="round"/>
<path d="M126.759 49.6089L137.209 49.5397L162.306 75.343L162.706 73.7281L137.594 48.2656H125.14L126.759 49.6089Z" fill="#00ECF3" stroke="black" stroke-width="0.5" stroke-linecap="round" stroke-linejoin="round"/>
<path d="M119.213 42.137L54.2188 44.5469L96.057 83.6443L160.33 82.8937L119.213 42.137ZM58.2584 45.9692L118.295 43.5592L156.217 81.1208L96.8965 81.8764L58.2584 45.9692Z" fill="white" stroke="black" stroke-width="0.5" stroke-linecap="round" stroke-linejoin="round"/>
<path d="M145.545 47.3915C145.545 47.3915 150.765 50.0335 146.73 65.9253C142.695 81.8172 151.239 89.1705 151.239 89.1705C151.239 89.1705 147.204 83.7135 153.135 73.5157C159.066 63.3179 154.795 56.5572 154.795 56.5572L145.545 47.3915Z" fill="#00DCEA" stroke="black" stroke-width="0.5" stroke-miterlimit="10"/>
<path d="M170 97.393C170 97.393 152.923 93.6003 145.802 76.9973C145.802 76.9973 147.935 103.087 164.538 107.122C163.257 105.15 162.621 102.829 162.721 100.479C162.721 100.479 166.207 100.479 170 97.393Z" fill="#00DCEA" stroke="black" stroke-width="0.5" stroke-miterlimit="10"/>
<path d="M112.265 136.989L114.2 137.197L114.586 136.09L112.265 136.989Z" fill="black"/>
<path d="M22.0547 98.8004L37.7737 144.046L85.0837 153.77L66.8066 102.252L22.0547 98.8004Z" fill="#EBEEFF" stroke="black" stroke-width="0.5" stroke-linejoin="round"/>
<path d="M66.8066 102.252L135.179 69.402L148.745 116.174L84.4664 153.888L66.8066 102.252Z" fill="#EBEEFF" stroke="black" stroke-width="0.5" stroke-miterlimit="10"/>
<path d="M22.0547 98.8004L80.565 71.6391L135.179 69.402L66.8066 102.791L22.0547 98.8004Z" fill="white" stroke="black" stroke-width="0.5" stroke-linecap="round" stroke-linejoin="round"/>
<path d="M28.2529 97.6052L80.5656 73.323L128.019 71.0859L66.5454 100.45L28.2529 97.6052Z" fill="#EBEEFF" stroke="black" stroke-width="0.5" stroke-linecap="round" stroke-linejoin="round"/>
<mask id="mask0_2360_15362" style="mask-type:luminance" maskUnits="userSpaceOnUse" x="28" y="42" width="101" height="59">
<path d="M28.2373 97.4719L38.4104 46.4976L114.304 42.1222L128.003 70.9527L66.5298 100.316L28.2373 97.4719Z" fill="white"/>
</mask>
<g mask="url(#mask0_2360_15362)">
<path d="M72.046 76.4935L72.288 76.6121L73.0534 77.022C73.3102 77.1602 73.5473 77.3133 73.7991 77.4664L74.0164 77.6096C74.1893 77.7183 74.3572 77.8368 74.5102 77.9553C74.5893 78.0047 74.6584 78.0541 74.7374 78.1133C74.9201 78.2467 75.0979 78.38 75.2757 78.5232C75.3222 78.5533 75.3667 78.5863 75.409 78.622C75.6263 78.7948 75.8387 78.9726 76.0461 79.1504L76.2041 79.2936C76.3572 79.4368 76.5054 79.5702 76.6535 79.7183C76.7177 79.7726 76.777 79.8368 76.8461 79.901C76.9844 80.0443 77.1276 80.1875 77.2609 80.3356C77.3054 80.3899 77.3597 80.4443 77.4091 80.4937C77.5869 80.6961 77.7597 80.8937 77.9276 81.1011C77.9622 81.1357 77.9869 81.1752 78.0215 81.2147C78.1548 81.3875 78.2881 81.5554 78.4165 81.7332L78.5598 81.9357C78.6733 82.0888 78.777 82.2468 78.8758 82.4048L79.0092 82.6073C79.1425 82.8246 79.2709 83.0369 79.3993 83.2592C79.5178 83.4814 79.6363 83.7184 79.7548 83.9456C79.781 84.0185 79.8124 84.0895 79.8487 84.158C79.9277 84.3259 80.0018 84.4938 80.0709 84.6518C80.1055 84.7308 80.1351 84.8098 80.1647 84.8839C80.2388 85.0765 80.3129 85.2691 80.3771 85.4666C80.3771 85.516 80.4117 85.5654 80.4265 85.6098C80.5104 85.8568 80.5796 86.1037 80.6487 86.3506L80.6931 86.5482C80.7909 86.9323 80.8683 87.3213 80.9252 87.7136C79.0783 81.2542 72.4015 76.3553 63.3445 75.6836C55.527 75.1108 47.7885 77.8368 42.5488 82.4246C39.5858 85.0321 37.3931 88.2322 36.4647 91.7779C35.9732 93.6227 35.8606 95.5479 36.1338 97.4374C36.0499 97.1262 35.9709 96.8102 35.9067 96.4941C35.882 96.3756 35.8622 96.2571 35.8375 96.1336C35.8128 96.0102 35.7881 95.8274 35.7684 95.6743C35.7486 95.5212 35.7338 95.4324 35.7239 95.3089C35.7141 95.1854 35.6894 94.9978 35.6746 94.8397C35.6597 94.6817 35.6746 94.5978 35.6746 94.4793C35.6746 94.3607 35.6746 94.1583 35.6746 93.9854C35.6746 93.8126 35.6746 93.7434 35.6746 93.615C35.6746 93.4866 35.6746 93.2891 35.6746 93.1212C35.6746 92.9533 35.6746 92.8792 35.6746 92.7557C35.6746 92.6323 35.7091 92.415 35.7239 92.2323C35.7388 92.0495 35.7239 92.01 35.7634 91.8915C35.803 91.773 35.8276 91.5063 35.8622 91.3137C35.8622 91.215 35.8918 91.1211 35.9116 91.0174C35.9709 90.7261 36.0351 90.4396 36.1141 90.1433C36.8296 87.5189 38.1391 85.0942 39.9413 83.0567C45.0328 77.1306 53.9516 73.3823 62.9939 74.049C63.3445 74.0737 63.6803 74.1033 64.0211 74.1428L64.3272 74.1824L65.0532 74.2811L65.3742 74.3305L66.1693 74.4737L66.3569 74.5083C66.6779 74.5725 66.994 74.6466 67.31 74.7206L67.5619 74.7849L68.2533 74.9725L68.5496 75.0565L69.2163 75.2787L69.4533 75.3577C69.7496 75.4565 70.036 75.5651 70.3225 75.6738L70.4805 75.738L71.1669 76.0293L71.4336 76.1528L72.046 76.4935Z" fill="#FFB215" stroke="black" stroke-width="0.5" stroke-miterlimit="10"/>
<path d="M63.893 70.7996C50.7469 69.8119 37.8626 76.6812 33.2205 86.5432C32.7067 87.6201 32.295 88.7427 31.9908 89.8964C31.2717 92.5707 31.2361 95.3828 31.8871 98.0744C31.9118 98.1485 31.9217 98.2275 31.9513 98.3065C32.0205 98.6078 32.1093 98.8991 32.2032 99.1856C32.2242 99.2355 32.2424 99.2866 32.2575 99.3387C32.3414 99.5757 32.4254 99.8325 32.5192 100.055C32.5538 100.144 32.5884 100.233 32.6279 100.321C32.7069 100.529 32.8007 100.731 32.8946 100.934L33.0131 101.176C33.2792 101.735 33.576 102.279 33.902 102.805L34.0501 103.028C34.1736 103.22 34.302 103.408 34.4353 103.596L34.6032 103.828C34.7563 104.04 34.9193 104.252 35.0971 104.455C35.1239 104.498 35.1536 104.539 35.186 104.578C35.3885 104.825 35.5959 105.072 35.8131 105.304L35.9613 105.467C36.1341 105.65 36.307 105.838 36.4897 106.01L36.6922 106.213C36.8749 106.391 37.0626 106.564 37.2502 106.736L37.4181 106.885C37.6651 107.107 37.912 107.319 38.1885 107.531C38.2254 107.555 38.2601 107.581 38.2922 107.611C38.5145 107.788 38.7564 107.966 38.9886 108.134L39.2207 108.297C39.438 108.445 39.6503 108.593 39.8725 108.736L40.0948 108.88C40.6824 109.255 41.2948 109.601 41.9318 109.927C42.0059 109.971 42.0849 110.001 42.1689 110.045L42.9146 110.406L43.1862 110.529C43.4776 110.653 43.7689 110.781 44.0702 110.899L44.1936 110.949C44.5393 111.087 44.8949 111.216 45.2505 111.339L45.4776 111.413C45.7591 111.512 46.0455 111.601 46.332 111.69L46.648 111.779C46.9394 111.867 47.2308 111.941 47.5271 112.016L47.774 112.08C48.1542 112.174 48.5345 112.262 48.9246 112.342L49.0925 112.371C49.4284 112.44 49.7592 112.495 50.0802 112.554L50.4358 112.603L51.3198 112.732L51.6753 112.771C52.0803 112.816 52.4852 112.855 52.9001 112.885C57.123 113.184 61.3651 112.712 65.4189 111.492C72.3969 109.403 78.4218 105.26 81.9774 99.951C83.258 98.0667 84.2113 95.9797 84.7973 93.778C84.8911 93.4274 84.9701 93.0817 85.0393 92.736C85.064 92.6175 85.0788 92.5088 85.0936 92.3903C85.143 92.1582 85.1825 91.931 85.2121 91.6989C85.2121 91.5607 85.2467 91.4273 85.2566 91.289C85.2664 91.1508 85.306 90.8742 85.3208 90.6717C85.3356 90.4693 85.3208 90.3853 85.3455 90.2372C85.3701 90.089 85.3455 89.847 85.3455 89.6495C85.3455 89.452 85.3455 89.3581 85.3455 89.21C85.3455 89.0618 85.3455 88.8347 85.3455 88.647C85.3455 88.4593 85.3455 88.3507 85.3208 88.2075C85.2961 88.0643 85.2862 87.8371 85.2664 87.6544C85.2467 87.4717 85.2368 87.363 85.2121 87.2198C85.1874 87.0766 85.1578 86.8494 85.1282 86.6716C85.0985 86.4939 85.0738 86.3901 85.0491 86.2469C83.3651 78.0047 75.2019 71.6193 63.893 70.7996ZM72.2883 76.6121L73.0537 77.022C73.3105 77.1602 73.5476 77.3133 73.7994 77.4664L74.0167 77.6096C74.1896 77.7183 74.3575 77.8368 74.5106 77.9553C74.5896 78.0047 74.6587 78.0541 74.7377 78.1134C74.9205 78.2467 75.0982 78.38 75.276 78.5233C75.3225 78.5534 75.367 78.5863 75.4094 78.622C75.6267 78.7949 75.839 78.9726 76.0464 79.1504L76.2044 79.2936C76.3575 79.4369 76.5057 79.5702 76.6538 79.7183C76.718 79.7727 76.7773 79.8369 76.8464 79.9011C76.9847 80.0443 77.1279 80.1875 77.2613 80.3356C77.3057 80.39 77.36 80.4443 77.4094 80.4937C77.5872 80.6961 77.7601 80.8937 77.928 81.1011C77.9625 81.1357 77.9872 81.1752 78.0218 81.2147C78.1551 81.3875 78.2885 81.5554 78.4169 81.7332L78.5601 81.9357C78.6737 82.0888 78.7774 82.2468 78.8761 82.4048L79.0095 82.6073C79.1428 82.8246 79.2712 83.037 79.3996 83.2592C79.5181 83.4814 79.6366 83.7185 79.7552 83.9456C79.7814 84.0185 79.8127 84.0895 79.849 84.158C79.928 84.3259 80.0021 84.4938 80.0712 84.6518C80.1058 84.7308 80.1354 84.8098 80.1651 84.8839C80.2391 85.0765 80.3132 85.2691 80.3774 85.4667C80.3774 85.516 80.412 85.5654 80.4268 85.6099C80.5107 85.8568 80.5799 86.1037 80.649 86.3506L80.6935 86.5482C80.728 86.6716 80.7577 86.7951 80.7873 86.9235L81.1379 88.5482C81.0836 88.2618 81.0046 87.9902 80.9256 87.7136C81.2182 89.6192 81.1123 91.5648 80.6145 93.4274C78.891 100.04 72.8118 105.477 65.2708 108.03C61.5637 109.285 57.6436 109.789 53.7396 109.512C44.6529 108.84 37.9614 103.907 36.1342 97.4226C36.1835 97.704 36.228 97.9905 36.2922 98.272L35.9416 96.6472C35.9416 96.5929 35.9415 96.5336 35.907 96.4793C35.8724 96.425 35.8625 96.2423 35.8378 96.1188C35.8132 95.9954 35.7885 95.8126 35.7687 95.6595C35.749 95.5065 35.7341 95.4176 35.7243 95.2941C35.7144 95.1706 35.6897 94.983 35.6749 94.8249C35.6601 94.6669 35.6749 94.583 35.6749 94.4645C35.6749 94.3459 35.6749 94.1435 35.6749 93.9706C35.6749 93.7978 35.6749 93.7286 35.6749 93.6002C35.6749 93.4718 35.6749 93.2743 35.6749 93.1064C35.6749 92.9385 35.6749 92.8644 35.6749 92.7409C35.6749 92.6175 35.7094 92.4002 35.7243 92.2175C35.7391 92.0347 35.7243 91.9952 35.7638 91.8767C35.8033 91.7582 35.828 91.4915 35.8625 91.2989C35.8625 91.2002 35.8922 91.1063 35.9119 91.0026C35.9712 90.7113 36.0354 90.4248 36.1144 90.1285C36.8299 87.5041 38.1394 85.0794 39.9417 83.0419C45.0332 77.1158 53.952 73.3675 62.9942 74.0342C63.3448 74.0589 63.6806 74.0885 64.0214 74.1281L64.3276 74.1676L65.0535 74.2663L65.3745 74.3157L66.1696 74.4589L66.3572 74.4935C66.6782 74.5577 66.9943 74.6318 67.3104 74.7059L67.5622 74.7701L68.2536 74.9577L68.5499 75.0417L69.2166 75.2639L69.4536 75.3429C69.7499 75.4417 70.0364 75.5503 70.3228 75.659L70.4808 75.7232L71.1673 76.0145L71.4339 76.138L72.0117 76.4145L72.2883 76.6121Z" fill="#FFF3A9" stroke="black" stroke-width="0.5" stroke-linecap="round" stroke-linejoin="round"/>
<path d="M80.9603 87.763C81.2529 89.6686 81.147 91.6141 80.6491 93.4767C78.9256 100.089 72.8465 105.526 65.3055 108.08C61.5984 109.335 57.6783 109.838 53.7743 109.561C44.6876 108.889 37.9961 103.956 36.1689 97.4719C35.8957 95.5824 36.0082 93.6572 36.4997 91.8125C37.4281 88.2667 39.6011 85.0666 42.5839 82.4591C47.8235 77.8713 55.562 75.1453 63.3795 75.7182C72.4366 76.3997 79.1133 81.3035 80.9603 87.763Z" fill="#FFEC61" stroke="black" stroke-width="0.5" stroke-linecap="round" stroke-linejoin="round"/>
<path d="M103.01 99.4275C111.791 92.326 119.519 81.4764 122.023 71.8958C123.653 65.6784 122.778 61.1696 120.048 58.8782L118.457 57.5497L117.731 56.9374C117.554 56.7497 117.366 56.5621 117.168 56.3892L115.242 54.7595C115.356 54.8583 115.47 54.9669 115.583 55.0756C115.697 55.1842 115.756 55.2583 115.84 55.3472L115.865 55.3768C116.768 56.403 117.397 57.6417 117.692 58.9769C118.25 61.3227 118.122 64.3055 117.198 67.8266C113.845 80.385 101.494 95.0372 89.6072 100.563L89.2022 100.741C88.975 100.845 88.738 100.953 88.501 101.052L88.0071 101.235C87.8096 101.314 87.6071 101.403 87.4145 101.472L86.9207 101.635L86.3577 101.828L85.8984 101.966L85.3453 102.124C85.1922 102.163 85.049 102.193 84.9008 102.223C84.7527 102.252 84.5453 102.316 84.3675 102.351L83.928 102.43L83.4341 102.519C83.286 102.519 83.1477 102.549 83.0094 102.573L82.5156 102.628L82.1057 102.652C81.9526 102.652 81.7995 102.652 81.6464 102.652H81.2464C81.0983 102.652 80.9501 102.652 80.8118 102.652L80.4316 102.618C80.2933 102.618 80.155 102.618 80.0167 102.578C79.8785 102.539 79.7748 102.534 79.6513 102.514C79.5278 102.494 79.3846 102.474 79.2612 102.445L78.9105 102.361L78.5451 102.252C78.4326 102.221 78.3221 102.183 78.2142 102.139L77.8685 102.015L77.5624 101.867L77.2364 101.709C77.1327 101.655 77.0438 101.6 76.9451 101.536C76.8463 101.472 76.7376 101.418 76.6438 101.349C76.5511 101.29 76.4635 101.224 76.3821 101.151C76.2833 101.087 76.1895 101.013 76.1006 100.944L77.0586 101.744C76.8019 101.59 76.5575 101.417 76.3277 101.225L81.1822 105.289C83.9675 107.625 88.6935 107.655 94.669 104.796C97.6571 103.335 100.463 101.528 103.03 99.4127" fill="#FFB215"/>
<path d="M103.01 99.4275C111.791 92.326 119.519 81.4764 122.023 71.8958C123.653 65.6784 122.778 61.1696 120.048 58.8782L118.457 57.5497L117.731 56.9374C117.554 56.7497 117.366 56.5621 117.168 56.3892L115.242 54.7595C115.356 54.8583 115.47 54.9669 115.583 55.0756C115.697 55.1842 115.756 55.2583 115.84 55.3472L115.865 55.3768C116.768 56.403 117.397 57.6417 117.692 58.9769C118.25 61.3227 118.122 64.3055 117.198 67.8266C113.845 80.385 101.494 95.0372 89.6072 100.563L89.2022 100.741C88.975 100.845 88.738 100.953 88.501 101.052L88.0071 101.235C87.8096 101.314 87.6071 101.403 87.4145 101.472L86.9207 101.635L86.3577 101.828L85.8984 101.966L85.3453 102.124C85.1922 102.163 85.049 102.193 84.9008 102.223C84.7527 102.252 84.5453 102.316 84.3675 102.351L83.928 102.43L83.4341 102.519C83.286 102.519 83.1477 102.549 83.0094 102.573L82.5156 102.628L82.1057 102.652C81.9526 102.652 81.7995 102.652 81.6464 102.652H81.2464C81.0983 102.652 80.9501 102.652 80.8118 102.652L80.4316 102.618C80.2933 102.618 80.155 102.618 80.0167 102.578C79.8785 102.539 79.7748 102.534 79.6513 102.514C79.5278 102.494 79.3846 102.474 79.2612 102.445L78.9105 102.361L78.5451 102.252C78.4326 102.221 78.3221 102.183 78.2142 102.139L77.8685 102.015L77.5624 101.867L77.2364 101.709C77.1327 101.655 77.0438 101.6 76.9451 101.536C76.8463 101.472 76.7376 101.418 76.6438 101.349C76.5511 101.29 76.4635 101.224 76.3821 101.151C76.2833 101.087 76.1895 101.013 76.1006 100.944L77.0586 101.744C76.8019 101.59 76.5575 101.417 76.3277 101.225L81.1822 105.289C83.9675 107.625 88.6935 107.655 94.669 104.796C97.6571 103.335 100.463 101.528 103.03 99.4127" stroke="black" stroke-width="0.5" stroke-miterlimit="10"/>
<path d="M90.5407 96.9978C100.546 92.3507 110.971 79.9751 113.786 69.4118C114.256 67.7556 114.494 66.042 114.492 64.3203C114.452 62.2412 113.939 60.5572 113.01 59.3275C110.605 58.0732 107.045 58.3004 102.684 60.3152C93.0642 64.7894 83.0491 76.4145 79.7947 86.6962C79.6663 87.1012 79.5477 87.5012 79.444 87.8963C78.2391 92.4001 78.6243 95.862 80.2243 97.9855C82.6293 99.2744 86.1948 99.0176 90.5407 96.9978Z" fill="#FFEC61" stroke="black" stroke-width="0.5" stroke-linecap="round" stroke-linejoin="round"/>
<path d="M80.2243 97.9954C78.6243 95.8719 78.2489 92.4101 79.444 87.9062C79.5477 87.5112 79.6663 87.1112 79.7947 86.7062C83.0491 76.4244 93.0642 64.7994 102.684 60.3252C107.045 58.3004 110.586 58.0733 113.01 59.3375C112.747 58.9874 112.446 58.6677 112.112 58.3844C112.033 58.3251 111.959 58.2609 111.88 58.2066L111.652 58.0387L111.391 57.8807C111.317 57.8362 111.238 57.7819 111.154 57.7375C111.07 57.693 110.971 57.6486 110.882 57.6041L110.625 57.4807L110.329 57.377L110.052 57.2733C109.949 57.2387 109.845 57.2189 109.736 57.1942C109.628 57.1696 109.544 57.135 109.45 57.1152L109.114 57.051L108.813 57.0066C108.694 57.0066 108.576 56.9819 108.457 56.972C108.339 56.9621 108.25 56.9473 108.141 56.9424C108.033 56.9374 107.894 56.9424 107.766 56.9424H107.44C107.312 56.9424 107.178 56.9424 107.05 56.9424H106.699L106.294 56.9868L105.939 57.0263L105.499 57.1053C105.381 57.13 105.267 57.1449 105.144 57.1745L104.684 57.2782L104.319 57.3671C104.161 57.4017 103.998 57.456 103.825 57.5054L103.46 57.6091C103.282 57.6634 103.104 57.7325 102.931 57.7918L102.581 57.9054L101.963 58.1523L101.677 58.2659C101.371 58.3943 101.059 58.5326 100.743 58.6758C90.7481 63.3228 80.3181 75.6935 77.4983 86.2568V86.2815C77.4144 86.5976 77.3353 86.9136 77.2662 87.2247C77.2662 87.3334 77.2316 87.4371 77.202 87.5457C77.1625 87.7482 77.118 87.9606 77.0785 88.1581C77.039 88.3556 77.044 88.3951 77.0242 88.5186C77.0045 88.6421 76.965 88.8841 76.9403 89.0618C76.9156 89.2396 76.9403 89.3038 76.9007 89.4273C76.8612 89.5507 76.8662 89.7631 76.8514 89.9211C76.8365 90.0791 76.8514 90.1631 76.8267 90.2816C76.802 90.4001 76.8267 90.5977 76.802 90.7508C76.7773 90.9039 76.802 90.9878 76.802 91.1014C76.802 91.215 76.802 91.3977 76.802 91.5409C76.802 91.6841 76.802 91.773 76.8267 91.8915C76.8514 92.0101 76.8267 92.1632 76.8514 92.2965C76.8761 92.4298 76.881 92.5187 76.8909 92.6274C76.9008 92.736 76.9205 92.8842 76.9403 93.0126C76.96 93.141 76.9798 93.2249 76.9995 93.3286C77.0193 93.4323 77.0489 93.5706 77.0736 93.6842C77.0983 93.7978 77.1329 93.8916 77.1576 93.9904C77.1822 94.0891 77.2218 94.2175 77.2514 94.3262L77.3551 94.6176C77.3946 94.7213 77.4292 94.825 77.4736 94.9237C77.5181 95.0225 77.5576 95.1015 77.5971 95.1953C77.6366 95.2892 77.686 95.3929 77.7353 95.4867C77.7847 95.5805 77.8292 95.6447 77.8786 95.7336C77.9279 95.8225 77.9773 95.9114 78.0366 95.9954C78.0959 96.0793 78.1452 96.1534 78.1996 96.2275C78.2539 96.3015 78.3181 96.3954 78.3773 96.4695C78.4366 96.5435 78.5008 96.6127 78.5601 96.6818L78.7576 96.904L78.9601 97.0917C79.3384 97.4491 79.7637 97.7531 80.2243 97.9954Z" fill="#FFB215" stroke="black" stroke-width="0.5" stroke-miterlimit="10"/>
<path d="M78.9209 102.376L79.2716 102.46C79.395 102.489 79.5333 102.509 79.6617 102.529C79.7901 102.549 79.9037 102.578 80.0272 102.593C80.1506 102.608 80.3037 102.623 80.442 102.633L80.8222 102.667C80.9605 102.667 81.1087 102.667 81.2568 102.667H81.6568C81.8099 102.667 81.963 102.667 82.1161 102.667L82.526 102.642L83.0198 102.588C83.1581 102.563 83.2964 102.554 83.4445 102.534L83.9384 102.445L84.3779 102.366C84.5557 102.331 84.7384 102.287 84.9112 102.237C85.0841 102.188 85.2026 102.178 85.3557 102.139L85.9088 101.981L86.3681 101.842L86.9311 101.65L87.4249 101.487C87.6175 101.418 87.82 101.329 88.0175 101.25L88.5114 101.067C88.7484 100.968 89.0052 100.86 89.2126 100.756L89.6176 100.578C101.504 95.0521 113.855 80.3998 117.208 67.8414C118.122 64.3352 118.246 61.377 117.702 59.0461C117.362 57.4083 116.495 55.9269 115.233 54.8287L115.88 55.362C115.796 55.2732 115.712 55.1793 115.623 55.0904C112.897 52.4188 108.013 52.2212 101.761 55.125C90.5805 60.2857 79.0345 73.4712 74.8715 85.4469C74.5949 86.2518 74.3381 87.0519 74.1258 87.8519C72.4615 94.099 73.3405 98.6473 76.1011 100.963C76.19 101.033 76.2838 101.107 76.3826 101.171C76.464 101.244 76.5516 101.31 76.6443 101.368C76.7382 101.437 76.8468 101.497 76.9456 101.556C77.0443 101.615 77.1332 101.675 77.2369 101.729L77.5629 101.887L77.8691 102.035L78.2148 102.158C78.3227 102.203 78.4332 102.241 78.5456 102.272L78.9209 102.376ZM79.1629 97.2843C79.0938 97.2299 79.0395 97.1657 78.9753 97.1114L78.7728 96.9238L78.5753 96.7015C78.516 96.6324 78.4518 96.5682 78.3925 96.4892C78.3333 96.4102 78.274 96.3311 78.2148 96.2472C78.1555 96.1632 78.1061 96.099 78.0518 96.0151C77.9975 95.9311 77.9481 95.8373 77.8938 95.7533C77.8394 95.6694 77.795 95.5904 77.7505 95.5064C77.7061 95.4225 77.6567 95.3089 77.6123 95.2151C77.5678 95.1212 77.5283 95.0373 77.4888 94.9435C77.4493 94.8496 77.4098 94.741 77.3703 94.6373L77.2666 94.3459C77.237 94.2373 77.2024 94.1286 77.1728 94.0101C77.1431 93.8916 77.1135 93.8126 77.0888 93.7039C77.0641 93.5953 77.0444 93.4718 77.0147 93.3483C76.9851 93.2249 76.9703 93.136 76.9555 93.0323C76.9407 92.9286 76.9258 92.7804 76.9061 92.6471C76.8863 92.5137 76.8764 92.4298 76.8666 92.3162C76.8567 92.2026 76.8419 92.0446 76.8419 91.9113C76.8419 91.7779 76.8419 91.6841 76.8172 91.5606C76.7925 91.4372 76.8172 91.2693 76.8172 91.1211C76.8172 90.973 76.8172 90.889 76.8172 90.7705C76.8172 90.652 76.8172 90.4594 76.8419 90.3013C76.8666 90.1433 76.8419 90.0594 76.8666 89.9408C76.8913 89.8223 76.8962 89.6149 76.916 89.447C76.9357 89.2791 76.9407 89.205 76.9555 89.0815C76.9703 88.9581 77.0098 88.7211 77.0394 88.5383C77.069 88.3556 77.074 88.3013 77.0937 88.1778C77.1135 88.0544 77.1777 87.7679 77.2172 87.5655C77.2468 87.4568 77.2617 87.3531 77.2814 87.2445C77.3505 86.9334 77.4296 86.6173 77.5135 86.3012V86.2765C80.3333 75.7133 90.7633 63.3425 100.759 58.6955C101.075 58.5523 101.386 58.414 101.692 58.2856L101.978 58.172L102.596 57.9251L102.946 57.8115C103.119 57.7523 103.297 57.6831 103.475 57.6288L103.84 57.5251C103.998 57.4757 104.161 57.4214 104.334 57.3868L104.699 57.2979L105.159 57.1942C105.282 57.1646 105.396 57.1498 105.514 57.1251L105.954 57.046L106.309 57.0065L106.714 56.9621H107.065C107.193 56.9621 107.327 56.9621 107.455 56.9621H107.781C107.909 56.9621 108.033 56.9621 108.156 56.9621C108.28 56.9621 108.369 56.9621 108.472 56.9917C108.576 57.0214 108.709 56.9917 108.828 57.0263L109.129 57.0708L109.465 57.135C109.559 57.135 109.658 57.1843 109.751 57.214C109.845 57.2436 109.964 57.2584 110.068 57.293L110.344 57.3967L110.64 57.5004L110.897 57.6239C110.986 57.6683 111.08 57.7078 111.169 57.7572C111.258 57.8066 111.332 57.856 111.406 57.9004L111.668 58.0584L111.895 58.2263C111.974 58.2807 112.048 58.3449 112.127 58.4041C112.461 58.6874 112.762 59.0071 113.026 59.3572C113.954 60.5869 114.468 62.2709 114.507 64.35C114.509 66.0717 114.271 67.7853 113.801 69.4415C110.986 80.0047 100.561 92.3804 90.5559 97.0275C88.8115 97.8798 86.943 98.4499 85.0199 98.7164C83.7712 98.8741 82.5034 98.7715 81.2963 98.4152C81.0889 98.351 80.8864 98.2868 80.6889 98.2127C80.5494 98.1603 80.4126 98.101 80.279 98.0349C79.8827 97.8287 79.5087 97.5821 79.1629 97.2991V97.2843Z" fill="#FFF3A9" stroke="black" stroke-width="0.5" stroke-linecap="round" stroke-linejoin="round"/>
<path d="M53.3544 110.682C64.5201 112.658 80.5848 108.386 89.1875 101.146C90.5549 100.027 91.7628 98.7259 92.7777 97.2794C93.9679 95.5065 94.5309 93.783 94.4716 92.1977C93.1876 89.7285 90.0517 87.8174 85.1923 86.9531C74.4513 85.0518 59.1669 88.9285 50.3716 95.6793C50.0259 95.946 49.6901 96.2127 49.3839 96.4843C45.7146 99.5708 43.9961 102.707 44.0948 105.443C45.3591 107.912 48.4999 109.818 53.3544 110.682Z" fill="#FFEC61" stroke="black" stroke-width="0.5" stroke-linecap="round" stroke-linejoin="round"/>
<path d="M44.0751 105.442C43.9763 102.707 45.6949 99.5707 49.3641 96.4842C49.6851 96.2126 50.0209 95.9459 50.3518 95.6793C59.1471 88.9433 74.4315 85.0518 85.1726 86.9531C90.032 87.8173 93.1679 89.7235 94.4518 92.1977C94.4382 91.749 94.3735 91.3033 94.2592 90.8692C94.2296 90.7705 94.2 90.6717 94.1654 90.5828C94.1308 90.4939 94.1061 90.3951 94.0765 90.3063C94.0469 90.2174 93.9926 90.1137 93.9481 90.0198C93.9037 89.926 93.879 89.8421 93.8345 89.7581C93.7901 89.6741 93.7308 89.5754 93.6814 89.4865L93.5382 89.2297C93.479 89.1408 93.4148 89.0568 93.3506 88.9679C93.2864 88.8791 93.237 88.8 93.1777 88.721C93.1185 88.642 93.0345 88.5531 92.9604 88.4642C92.8864 88.3753 92.832 88.3013 92.7629 88.2321L92.5209 87.9803L92.2938 87.763C92.2049 87.679 92.1061 87.6049 92.0123 87.5259C91.9184 87.4469 91.8493 87.3827 91.7653 87.3136L91.4542 87.0864C91.3653 87.0222 91.2814 86.9531 91.1826 86.8889C91.0838 86.8247 90.9554 86.7457 90.8419 86.6765L90.5357 86.4889C90.4172 86.4197 90.2937 86.3506 90.1653 86.2864L89.8443 86.1086L89.4295 85.916L89.0887 85.7629C88.9504 85.6987 88.7924 85.6395 88.6393 85.5851C88.4862 85.5308 88.4072 85.4814 88.2838 85.437C88.1603 85.3925 87.9628 85.3234 87.7899 85.274C87.6171 85.2246 87.5479 85.1851 87.4195 85.1456C87.2911 85.1061 87.0492 85.037 86.8714 84.9925L86.5059 84.8789L85.8392 84.7209L85.5331 84.6468L84.5059 84.4444C73.35 82.469 57.2804 86.7358 48.6826 93.9706H48.6579C48.4061 94.1829 48.1641 94.4051 47.9122 94.6274C47.8283 94.7064 47.7542 94.7854 47.6702 94.8595L47.2011 95.299C47.1122 95.3928 47.0332 95.4817 46.9443 95.5706L46.5492 95.9805L46.3023 96.2669L45.9665 96.6571C45.8875 96.7509 45.8183 96.8497 45.7393 96.9435L45.4381 97.3287C45.364 97.4274 45.3047 97.5312 45.2356 97.625C45.1665 97.7188 45.0578 97.867 44.9788 97.9954C44.8998 98.1238 44.8504 98.1978 44.7911 98.3015C44.7319 98.4053 44.643 98.5386 44.5738 98.6571C44.5047 98.7756 44.4652 98.8596 44.4109 98.9633L44.2282 99.3139C44.1788 99.4127 44.1343 99.5164 44.0899 99.6152C44.0454 99.7139 43.9862 99.8522 43.9417 99.9609C43.8973 100.07 43.8726 100.168 43.8331 100.267C43.7936 100.366 43.7541 100.494 43.7146 100.603C43.6751 100.711 43.6602 100.81 43.6306 100.909C43.601 101.008 43.5713 101.126 43.5516 101.24C43.5318 101.353 43.517 101.437 43.4973 101.541C43.4775 101.645 43.4528 101.758 43.438 101.867C43.4232 101.976 43.438 102.055 43.4133 102.158C43.3886 102.262 43.4133 102.371 43.4133 102.475C43.4084 102.572 43.4084 102.669 43.4133 102.766C43.4133 102.87 43.4133 102.973 43.4133 103.072C43.4133 103.171 43.4133 103.265 43.4429 103.358C43.4726 103.452 43.4676 103.561 43.4825 103.66C43.4973 103.759 43.522 103.847 43.5368 103.936C43.6507 104.459 43.8316 104.966 44.0751 105.442Z" fill="#FFB215" stroke="black" stroke-width="0.5" stroke-miterlimit="10"/>
<path d="M40.3958 108.361C40.4847 108.455 40.5587 108.549 40.6378 108.638C40.7168 108.727 40.8304 108.835 40.9291 108.929L41.1958 109.196C41.3044 109.29 41.4131 109.383 41.5267 109.472C41.6403 109.561 41.7193 109.64 41.8279 109.724C41.9366 109.808 42.065 109.902 42.1884 109.991C42.3119 110.08 42.4008 110.149 42.5193 110.228C42.6378 110.307 42.786 110.396 42.9193 110.485L43.2798 110.707L43.7193 110.949C43.8527 111.008 43.9712 111.082 44.1095 111.151C44.2477 111.22 44.4255 111.295 44.6033 111.374L45.0181 111.566C45.186 111.64 45.3688 111.709 45.5416 111.774L45.9762 111.946C46.1589 112.016 46.3466 112.075 46.5342 112.139L47.0034 112.297L47.591 112.465L48.0849 112.613C48.2874 112.667 48.5096 112.717 48.7269 112.761C48.9442 112.806 49.0578 112.85 49.2207 112.885C49.4775 112.944 49.7393 112.993 49.9961 113.038C50.1442 113.072 50.2825 113.102 50.4405 113.127C63.7051 115.482 82.7427 110.42 92.9603 101.818C95.7949 99.4029 97.6419 96.988 98.5407 94.6916C99.2215 93.1141 99.3672 91.3571 98.9555 89.689L99.1827 90.5186C99.1827 90.3952 99.153 90.2668 99.1234 90.1384C98.4024 86.2815 94.4072 83.2246 87.4292 81.995C75.0042 79.7924 57.5222 84.0987 46.9342 91.7187C46.2231 92.2323 45.5416 92.7607 44.8897 93.3039C39.8081 97.5855 37.8673 101.936 38.8352 105.517C38.8672 105.632 38.9051 105.746 38.9488 105.857C38.9759 105.967 39.0106 106.074 39.0525 106.178C39.092 106.292 39.1464 106.406 39.1957 106.514C39.2451 106.623 39.2846 106.727 39.339 106.83C39.3933 106.934 39.4575 107.043 39.5217 107.151C39.5859 107.26 39.6353 107.359 39.6896 107.457L39.9118 107.769C39.9736 107.871 40.0429 107.968 40.1192 108.06C40.2279 108.164 40.3168 108.262 40.3958 108.361ZM43.6008 104.213C43.5761 104.129 43.5613 104.045 43.5415 103.956C43.5218 103.867 43.502 103.773 43.4872 103.68C43.4724 103.586 43.4625 103.482 43.4477 103.378C43.4329 103.275 43.423 103.191 43.4181 103.092C43.4131 102.993 43.4181 102.889 43.4181 102.786C43.4132 102.689 43.4132 102.591 43.4181 102.494C43.4181 102.391 43.4181 102.282 43.4181 102.178C43.4181 102.075 43.4181 101.986 43.4428 101.887C43.4675 101.788 43.4773 101.665 43.502 101.561C43.5267 101.457 43.5317 101.358 43.5564 101.26C43.5811 101.161 43.6057 101.042 43.6354 100.929C43.665 100.815 43.6897 100.726 43.7193 100.623C43.749 100.519 43.7934 100.4 43.8378 100.287C43.8823 100.173 43.902 100.084 43.9465 99.9806C43.9909 99.8769 44.0453 99.7535 44.0946 99.635C44.144 99.5164 44.1835 99.4325 44.2329 99.3337L44.4156 98.9831C44.47 98.8794 44.5194 98.7806 44.5786 98.6769C44.6379 98.5732 44.7169 98.4399 44.7959 98.3213C44.8749 98.2028 44.9144 98.1189 44.9836 98.0152C45.0527 97.9115 45.1515 97.7682 45.2404 97.6448C45.3293 97.5213 45.3688 97.4472 45.4428 97.3485L45.7441 96.9633C45.8231 96.8695 45.8922 96.7707 45.9712 96.6768L46.3071 96.2867L46.554 96.0003L46.9491 95.5904C47.0379 95.5015 47.117 95.4126 47.2059 95.3188L47.675 94.8793C47.759 94.8052 47.833 94.7262 47.917 94.6472C48.159 94.4249 48.4108 94.2027 48.6627 93.9903H48.6874C57.3049 86.7358 73.3696 82.4838 84.5254 84.4592L85.5526 84.6617L85.8588 84.7358L86.5255 84.8938L86.891 85.0074C87.0687 85.0518 87.2613 85.1012 87.4391 85.1605C87.6169 85.2197 87.686 85.2444 87.8095 85.2889C87.9329 85.3333 88.1404 85.3926 88.3033 85.4518C88.4663 85.5111 88.5404 85.5506 88.6589 85.6C88.7774 85.6494 88.97 85.7136 89.1083 85.7778L89.449 85.9309L89.8639 86.1235L90.1849 86.3012C90.3133 86.3654 90.4367 86.4346 90.5552 86.5037L90.8614 86.6914C90.975 86.7605 91.0935 86.8297 91.2022 86.9037C91.3108 86.9778 91.3849 87.0371 91.4738 87.1013L91.7849 87.3284C91.8689 87.3976 91.9528 87.4667 92.0318 87.5408C92.1109 87.6149 92.2244 87.6939 92.3133 87.7778L92.5405 87.9951L92.7825 88.247C92.8516 88.3161 92.9158 88.405 92.98 88.4791C93.0442 88.5532 93.1282 88.647 93.1973 88.7359C93.2664 88.8248 93.3158 88.8989 93.3701 88.9828C93.4245 89.0668 93.4985 89.1556 93.5578 89.2445L93.701 89.5013C93.7504 89.5902 93.8097 89.6791 93.8541 89.773C93.8986 89.8668 93.9331 89.9507 93.9677 90.0347C94.0023 90.1186 94.0566 90.2223 94.0961 90.3211C94.1356 90.4199 94.1554 90.4989 94.185 90.5977C94.2146 90.6964 94.2492 90.7853 94.2788 90.8841C94.3931 91.3182 94.4577 91.7639 94.4714 92.2125C94.5307 93.7978 93.9776 95.5213 92.7775 97.2942C91.7626 98.7407 90.5547 100.042 89.1873 101.161C80.5846 108.401 64.4952 112.677 53.3542 110.697C51.3822 110.386 49.472 109.764 47.6947 108.855C46.9371 108.456 46.2362 107.958 45.6107 107.373C45.2992 107.077 45.0072 106.76 44.7366 106.425C44.6033 106.252 44.47 106.075 44.3465 105.897C44.223 105.719 44.1786 105.64 44.1045 105.507C43.8957 105.093 43.727 104.659 43.6008 104.213Z" fill="#FFF3A9" stroke="black" stroke-width="0.5" stroke-linecap="round" stroke-linejoin="round"/>
</g>
<path d="M104.827 104.633C106.096 103.941 107.296 103.284 108.477 102.657C108.97 102.386 109.499 102.593 109.993 102.761C110.738 103.023 111.474 103.294 112.22 103.561L116.072 104.924C117.005 105.255 117.934 105.586 118.867 105.912C119.269 106.05 119.605 106.331 119.812 106.702C120.019 107.073 120.082 107.507 119.988 107.922C119.626 109.443 119.262 110.964 118.897 112.485C118.492 114.167 118.09 115.849 117.692 117.532C117.635 117.77 117.527 117.992 117.375 118.184C117.223 118.376 117.031 118.533 116.813 118.643C116.032 119.077 115.247 119.497 114.462 119.922C114.377 119.986 114.276 120.025 114.17 120.034C114.065 120.042 113.958 120.021 113.864 119.971C113.772 119.909 113.704 119.816 113.67 119.709C113.637 119.603 113.641 119.488 113.682 119.384C113.835 118.717 113.998 118.045 114.176 117.379C114.505 115.973 114.834 114.57 115.163 113.171C115.326 112.49 115.494 111.818 115.657 111.137C115.514 111.087 115.44 111.176 115.361 111.22C114.689 111.581 114.008 111.912 113.385 112.317C113.224 112.419 113.038 112.478 112.847 112.488C112.656 112.499 112.466 112.46 112.294 112.376L108.906 111.181L108.259 110.944L113.948 107.848L104.827 104.633Z" fill="#ADB7D8"/>
<path d="M107.602 107.23L101.943 110.312L111.094 113.537L110.442 113.892C109.538 114.386 108.635 114.88 107.741 115.374C107.481 115.522 107.189 115.605 106.89 115.617C106.591 115.629 106.293 115.57 106.022 115.443C105.336 115.161 104.625 114.949 103.923 114.697L100.032 113.324C99.0837 112.988 98.1404 112.623 97.1725 112.337C96.7237 112.207 96.3421 111.909 96.1075 111.505C95.8729 111.102 95.8033 110.623 95.9132 110.169C96.2737 108.786 96.5898 107.388 96.9009 106.001C97.2812 104.391 97.6713 102.786 98.0269 101.176C98.0779 100.786 98.2282 100.415 98.4634 100.099C98.6986 99.7837 99.0108 99.5337 99.3701 99.3732C100.08 99.0357 100.773 98.6615 101.444 98.2522C101.529 98.1892 101.632 98.1553 101.738 98.1553C101.844 98.1553 101.947 98.1892 102.032 98.2522C102.11 98.3153 102.167 98.4006 102.195 98.4967C102.223 98.5929 102.221 98.6953 102.19 98.7905C102.007 99.4967 101.854 100.213 101.696 100.924L100.708 105.067L100.279 106.845C100.279 106.914 100.195 106.998 100.279 107.057C100.363 107.117 100.427 107.057 100.491 107.003C101.212 106.613 101.933 106.223 102.649 105.818C102.755 105.751 102.875 105.71 102.999 105.698C103.124 105.687 103.25 105.706 103.365 105.754C104.723 106.247 106.096 106.697 107.459 107.166C107.499 107.146 107.523 107.176 107.602 107.23Z" fill="#ADB7D8"/>
<path d="M114.2 137.083L131.149 127.201L144.962 102.01L140.957 88.0593L114.2 137.083Z" fill="#00DCEA" stroke="black" stroke-width="0.5" stroke-linecap="round" stroke-linejoin="round"/>
<path d="M70.5252 151.469L51.2209 147.982L33.8723 133.295L27.3486 114.559L70.5252 151.469Z" fill="#00DCEA" stroke="black" stroke-width="0.5" stroke-linecap="round" stroke-linejoin="round"/>
<path d="M96.1906 8.67432C96.1906 8.67432 88.7138 17.6573 81.084 18.4524C81.084 18.4524 86.857 18.6549 87.9978 23.4303C87.9978 23.4303 89.4398 9.80028 103.307 11.9238C103.287 11.9238 101.065 8.80765 96.1906 8.67432Z" fill="#9FFFFF"/>
<path d="M150.222 30.507C167.368 31.0008 157.995 47.3914 157.995 47.3914C163.452 46.5569 163.392 51.12 163.392 51.12C163.392 51.12 167.348 28.0971 150.222 30.507Z" fill="#9FFFFF"/>
</svg>
