<?xml version="1.0" encoding="UTF-8"?><svg width="106px" height="106px" viewBox="0 0 106 106" version="1.1" xmlns="http://www.w3.org/2000/svg" xmlns:xlink="http://www.w3.org/1999/xlink"><title>设计建议</title><g id="意见反馈" stroke="none" stroke-width="1" fill="none" fill-rule="evenodd"><g id="Apple-TV" transform="translate(-382.000000, -739.000000)"><g id="编组-19" transform="translate(360.000000, 717.000000)"><g id="编组-38" transform="translate(22.000000, 22.000000)"><rect id="矩形" fill="#FFFFFF" x="0" y="0" width="106" height="106" rx="52.5"/><g id="编组-20" transform="translate(21.000000, 27.000000)" stroke-width="3"><rect id="矩形" stroke="#212833" transform="translate(50.000000, 16.000000) rotate(-45.000000) translate(-50.000000, -16.000000) " x="44" y="10" width="12" height="12" rx="2"/><path d="M9,14.4929241 L9,4.27906977 C9,1.91580479 11.0101501,0 13.4897959,0 L59.5102041,0 C61.9898499,0 64,1.91580479 64,4.27906977 L64,41.7209302 C64,44.0841952 61.9898499,46 59.5102041,46 L50.5306122,46" id="路径" stroke="#212833" stroke-linecap="round"/><g id="编组-16" transform="translate(0.000000, 18.000000)" stroke="#1DA2B4" stroke-linecap="round"><polygon id="路径-5" fill="#FFFFFF" stroke-linejoin="round" points="0 -3.02969455e-14 0 35 42 35"/><line x1="7.28180627" y1="6.48528137" x2="5" y2="9.02098852" id="路径-7"/><line x1="12.2818063" y1="11" x2="10" y2="13.5357072" id="路径-7备份"/><line x1="17.2818063" y1="15" x2="15" y2="17.5357072" id="路径-7备份-2"/><line x1="22.2818063" y1="20" x2="20" y2="22.5357072" id="路径-7备份-3"/><line x1="27.2818063" y1="24" x2="25" y2="26.5357072" id="路径-7备份-4"/><line x1="32.2818063" y1="28" x2="30" y2="30.5357072" id="路径-7备份-5"/></g><line x1="19" y1="8" x2="36.1885763" y2="8" id="路径-6" stroke="#212833" stroke-linecap="round"/><line x1="19.1885763" y1="15" x2="30.1885763" y2="15" id="路径-6备份" stroke="#212833" stroke-linecap="round"/><line x1="19" y1="21" x2="24" y2="21" id="路径-6备份-2" stroke="#212833" stroke-linecap="round"/></g></g></g></g></g></svg>