<?xml version="1.0" encoding="UTF-8"?><svg width="106px" height="106px" viewBox="0 0 106 106" version="1.1" xmlns="http://www.w3.org/2000/svg" xmlns:xlink="http://www.w3.org/1999/xlink"><title>矩形</title><g id="意见反馈" stroke="none" stroke-width="1" fill="none" fill-rule="evenodd"><g id="Apple-TV" transform="translate(-382.000000, -924.000000)"><g id="编组-39" transform="translate(382.000000, 924.000000)"><rect id="矩形" fill="#FFFFFF" x="0" y="0" width="106" height="106" rx="52.5"/><path d="M39,28 L66,28 C68.209139,28 70,29.790861 70,32 L70,59.9205892 L70,59.9205892 L52.5,68 L35,59.9205892 L35,32 C35,29.790861 36.790861,28 39,28 Z" id="矩形" stroke="#1DA2B4" stroke-width="3"/><path d="M76,50 C78.209139,50 80,51.790861 80,54 L80,75 C80,77.209139 78.209139,79 76,79 L29,79 C26.790861,79 25,77.209139 25,75 L25,54 C25,51.790861 26.790861,50 29,50" id="路径" stroke="#212833" stroke-width="3" stroke-linecap="round" stroke-linejoin="round"/><line x1="42" y1="39.5" x2="59" y2="39.5" id="路径-6" stroke="#1DA2B4" stroke-width="3" stroke-linecap="round"/><line x1="41.6885763" y1="47" x2="52.6885763" y2="47" id="路径-6备份" stroke="#212833" stroke-width="3" stroke-linecap="round"/><line x1="41.6885763" y1="47" x2="52.6885763" y2="47" id="路径-6备份" stroke="#1DA2B4" stroke-width="3" stroke-linecap="round"/></g></g></g></svg>