<?xml version="1.0" encoding="UTF-8"?><svg width="106px" height="106px" viewBox="0 0 106 106" version="1.1" xmlns="http://www.w3.org/2000/svg" xmlns:xlink="http://www.w3.org/1999/xlink"><title>功能建议</title><g id="意见反馈" stroke="none" stroke-width="1" fill="none" fill-rule="evenodd"><g id="Apple-TV" transform="translate(-1032.000000, -554.000000)"><g id="编组-15" transform="translate(1010.000000, 532.000000)"><g id="编组-14" transform="translate(22.000000, 22.000000)"><rect id="矩形" fill="#FFFFFF" x="0" y="0" width="106" height="106" rx="52.5"/><path d="M59,80 L37.2975503,80 C33.8195093,80 31,76.9893914 31,73.2756174 L31,52 M57.1771842,23 L73.8301948,23 C77.2376841,23 80,26.0053867 80,29.7127191 L80,58" id="形状" stroke="#212833" stroke-width="3" fill="#FFFFFF" stroke-linecap="round"/><circle id="椭圆形" fill="#212833" cx="55.5" cy="70.5" r="3.5"/><rect id="矩形" stroke="#1DA2B4" stroke-width="3" x="23" y="23" width="28" height="24" rx="2"/><line x1="28.101438" y1="38" x2="45.101438" y2="38" id="路径-4" stroke="#1DA2B4" stroke-width="3" stroke-linecap="round"/><line x1="28.601438" y1="31.5" x2="39.601438" y2="31.5" id="路径-4备份" stroke="#1DA2B4" stroke-width="3" stroke-linecap="round"/><polygon id="多边形备份" stroke="#1DA2B4" stroke-width="3" fill="#FFFFFF" stroke-linejoin="round" points="73 61 82.5262794 66.5 82.5262794 77.5 73 83 63.4737206 77.5 63.4737206 66.5"/></g></g></g></g></svg>