<?xml version="1.0" encoding="UTF-8"?><svg width="106px" height="106px" viewBox="0 0 106 106" version="1.1" xmlns="http://www.w3.org/2000/svg" xmlns:xlink="http://www.w3.org/1999/xlink"><title>运营建议</title><g id="意见反馈" stroke="none" stroke-width="1" fill="none" fill-rule="evenodd"><g id="Apple-TV" transform="translate(-1032.000000, -739.000000)"><g id="编组-51" transform="translate(1032.000000, 739.000000)"><rect id="矩形" fill="#FFFFFF" x="0" y="0" width="106" height="106" rx="52.5"/><rect id="矩形" stroke="#212833" stroke-width="3" x="26" y="33" width="56" height="39" rx="2"/><line x1="65" y1="72" x2="53" y2="82" id="路径-38" stroke="#212833" stroke-width="3" stroke-linecap="round" transform="translate(59.000000, 77.000000) scale(-1, 1) translate(-59.000000, -77.000000) "/><line x1="51.875" y1="72.3571429" x2="40.625" y2="81.6428571" id="路径-38" stroke="#212833" stroke-width="3" stroke-linecap="round"/><polyline id="路径-39" stroke="#1DA2B4" stroke-width="3" stroke-linecap="round" points="37 60 45.9640429 51.3253371 56.0399443 55.6626685 67 44"/><polygon id="多边形" stroke="#1DA2B4" stroke-width="3" fill="#FFFFFF" stroke-linejoin="round" points="27.5 24 35.7272413 28.75 35.7272413 38.25 27.5 43 19.2727587 38.25 19.2727587 28.75"/><rect id="矩形" stroke="#1DA2B4" stroke-width="3" fill="#FFFFFF" x="61" y="58" width="28" height="24" rx="2"/><line x1="66.101438" y1="73" x2="83.101438" y2="73" id="路径-4" stroke="#1DA2B4" stroke-width="3" stroke-linecap="round"/><line x1="66.601438" y1="66.5" x2="77.601438" y2="66.5" id="路径-4备份" stroke="#1DA2B4" stroke-width="3" stroke-linecap="round"/></g></g></g></svg>