<?xml version="1.0" encoding="UTF-8"?><svg width="106px" height="106px" viewBox="0 0 106 106" version="1.1" xmlns="http://www.w3.org/2000/svg" xmlns:xlink="http://www.w3.org/1999/xlink"><title>安全建议</title><g id="意见反馈" stroke="none" stroke-width="1" fill="none" fill-rule="evenodd"><g id="Apple-TV" transform="translate(-382.000000, -554.000000)"><g id="编组-8" transform="translate(360.000000, 532.000000)"><g id="编组-9" transform="translate(22.000000, 22.000000)"><rect id="矩形" fill="#FFFFFF" x="0" y="0" width="106" height="106" rx="52.5"/><g id="编组-21" transform="translate(22.000000, 23.000000)" stroke-width="3"><g id="编组-12" transform="translate(0.000000, -0.000000)"><path d="M50.4230822,28.21034 C50.8365302,24.6520812 51.0277551,17.9091532 50.996757,7.9815562 L25.5570175,0 L0.0954260886,7.9815562 C-0.312494808,22.6178396 0.587398492,32.7193783 2.79510599,38.2861725 C5.00281349,43.8529666 12.7706224,50.0909091 26.0985326,57" id="路径" stroke="#212833" stroke-linecap="round" stroke-linejoin="round"/><rect id="矩形" stroke="#1DA2B4" x="33.5" y="35.5" width="32" height="24" rx="2"/><polyline id="路径-47" stroke="#1DA2B4" stroke-linecap="round" points="14 26.9429728 21.6996534 34 38 19"/></g><line x1="38.601438" y1="43" x2="55.601438" y2="43" id="路径-4" stroke="#1DA2B4" stroke-linecap="round"/><line x1="38.5" y1="50.5" x2="58.5" y2="50.5" id="路径-4备份-2" stroke="#1DA2B4" stroke-linecap="round"/></g></g></g></g></g></svg>