<svg width="180" height="136" viewBox="0 0 180 136" fill="none" xmlns="http://www.w3.org/2000/svg">
<g clip-path="url(#clip0_412_9623)">
<path d="M151.243 70.8789C148.613 69.5886 143.877 70.1526 139.897 73.3726C134.919 77.4019 128.149 87.5187 128.149 87.5187" stroke="black" stroke-miterlimit="10"/>
<path d="M118.447 34.0296C121.369 33.455 123.269 30.6128 122.692 27.6814C122.116 24.75 119.28 22.8394 116.359 23.414C113.438 23.9886 111.538 26.8307 112.114 29.7622C112.691 32.6936 115.526 34.6042 118.447 34.0296Z" stroke="black" stroke-miterlimit="10"/>
<path d="M162.111 49.5132C163.381 49.2634 164.207 48.0277 163.956 46.7532C163.705 45.4786 162.473 44.6479 161.203 44.8978C159.933 45.1476 159.106 46.3833 159.357 47.6578C159.608 48.9324 160.841 49.7631 162.111 49.5132Z" stroke="black" stroke-miterlimit="10"/>
<path d="M146.787 84.2881C149.062 83.8405 150.543 81.6265 150.094 79.3429C149.645 77.0594 147.436 75.5711 145.16 76.0187C142.885 76.4663 141.404 78.6803 141.854 80.9638C142.303 83.2473 144.512 84.7357 146.787 84.2881Z" stroke="black" stroke-miterlimit="10"/>
<path d="M108.908 75.1595C108.908 75.1595 115.964 24.7324 140.53 20.0998C163.241 15.8163 169.336 36.0068 153.267 43.3625C136.332 51.1142 108.908 75.1595 108.908 75.1595Z" fill="#E0F000"/>
<path d="M123.199 43.0847C128.038 33.5354 134.789 25.3479 144.008 23.6105C153.944 21.736 160.699 24.5481 163.81 28.918" stroke="black" stroke-miterlimit="10"/>
<path d="M107.132 117.956C107.132 117.956 62.1501 53.6949 35.7127 47.3095C9.27536 40.9242 -0.126593 58.3543 10.8156 66.1896C21.7578 74.0248 107.132 117.956 107.132 117.956Z" fill="#1DA2B4"/>
<path d="M19.154 37.8684C3.87984 39.4806 -0.242316 51.7353 8.43647 57.9503C14.4416 62.2503 42.8682 77.423 67.2944 90.2404" stroke="black" stroke-miterlimit="10"/>
<path d="M98.9409 105.663C118.362 101.843 130.998 82.9462 127.164 63.4565C123.33 43.9668 104.479 31.2641 85.0579 35.0843C65.6372 38.9044 53.0014 57.8007 56.8351 77.2904C60.6687 96.7801 79.5202 109.483 98.9409 105.663Z" fill="#FF9C00"/>
<path d="M98.9409 105.663C118.362 101.843 130.998 82.9462 127.164 63.4565C123.33 43.9668 104.479 31.2641 85.0579 35.0843C65.6372 38.9044 53.0014 57.8007 56.8351 77.2904C60.6687 96.7801 79.5202 109.483 98.9409 105.663Z" stroke="black" stroke-miterlimit="10"/>
<path d="M98.1697 101.742C117.59 97.9214 130.226 79.0251 126.393 59.5354C122.559 40.0457 103.707 27.343 84.2867 31.1631C64.8659 34.9833 52.2301 53.8796 56.0638 73.3693C59.8975 92.859 78.749 105.562 98.1697 101.742Z" fill="#FFB800"/>
<path d="M87.2088 46.0191C99.9408 43.5147 112.242 50.9009 115.647 62.7157C115.576 62.0525 115.475 61.3872 115.344 60.7199C112.797 47.7754 99.8522 39.4212 86.4284 42.0617C73.0046 44.7022 64.1881 57.337 66.7343 70.2815C66.8656 70.9488 67.026 71.6024 67.2098 72.2434C65.8884 60.0208 74.4749 48.5239 87.205 46.0199L87.2088 46.0191Z" fill="#FFD500"/>
<path d="M95.6512 88.9375C82.9192 91.4419 70.6183 84.0557 67.2134 72.2409C67.2842 72.9041 67.3852 73.5694 67.5165 74.2367C70.0627 87.1812 83.0078 95.5354 96.4316 92.8949C109.855 90.2544 118.672 77.6196 116.126 64.6751C115.994 64.0078 115.834 63.3542 115.65 62.7132C116.972 74.9358 108.385 86.4327 95.655 88.9367L95.6512 88.9375Z" fill="#FF9C00"/>
<path d="M122.588 36.5791C125.509 36.0046 127.409 33.1624 126.833 30.231C126.256 27.2996 123.421 25.389 120.499 25.9635C117.578 26.5381 115.678 29.3803 116.255 32.3117C116.831 35.2431 119.667 37.1537 122.588 36.5791Z" fill="#FFB800"/>
<path d="M130.488 78.689C130.488 78.689 133.295 68.6788 138.398 61.7981C141.46 57.6703 145.6 53.8775 150.347 52.4004C155.127 50.913 160.993 52.0982 162.972 55.9376C166.805 63.3796 158.535 65.7794 154.568 63.5173C152.022 62.0666 147.262 62.3338 143.09 65.2998C137.872 69.0108 130.49 78.6886 130.49 78.6886L130.488 78.689Z" fill="#E0F000"/>
<path d="M54.8779 47.3349C54.8779 47.3349 48.2522 33.6568 40.7054 33.743C32.6959 33.8343 30.9373 41.631 37.1502 42.9198C43.3632 44.2086 54.8798 47.3346 54.8798 47.3346L54.8779 47.3349Z" fill="#7465FF"/>
<path d="M164.61 30.9619C164.61 30.9619 165.224 32.3214 165.174 33.8293" stroke="black" stroke-miterlimit="10"/>
<path d="M57.0941 41.8035C57.0941 41.8035 57.3083 25.3057 48.5083 21.7732" stroke="black" stroke-miterlimit="10"/>
<path d="M98.1697 101.742C117.59 97.9214 130.226 79.0251 126.393 59.5354C122.559 40.0457 103.707 27.343 84.2867 31.1631C64.8659 34.9833 52.2301 53.8796 56.0638 73.3693C59.8975 92.859 78.749 105.562 98.1697 101.742Z" stroke="black" stroke-miterlimit="10"/>
<path d="M106.748 47.5231C108.08 47.2612 108.946 45.9657 108.683 44.6296C108.421 43.2934 107.128 42.4226 105.797 42.6845C104.465 42.9464 103.599 44.2418 103.862 45.578C104.125 46.9141 105.417 47.7849 106.748 47.5231Z" fill="white"/>
</g>
<defs>
<clipPath id="clip0_412_9623">
<rect width="161.815" height="105.772" fill="white" transform="translate(0 31.231) rotate(-11.1282)"/>
</clipPath>
</defs>
</svg>
