<svg width="72" height="72" viewBox="0 0 72 72" fill="none" xmlns="http://www.w3.org/2000/svg">
<g clip-path="url(#clip0_1219_17067)">
<path d="M72 0H0V72H72V0Z" fill="white"/>
<path d="M25.84 43.55L56.31 60.6101L44.45 67.57L13.98 50.51L25.84 43.55Z" fill="#FDF9C3" stroke="black" stroke-width="0.5" stroke-linecap="round" stroke-linejoin="round"/>
<path d="M13.98 21.8801V50.5101L25.84 43.5501L25.93 15.2801L29.42 13.4101L19.5 5.89014L9.75 24.5101L13.98 21.8801Z" fill="#FDD943" stroke="black" stroke-width="0.5" stroke-linecap="round" stroke-linejoin="round"/>
<path d="M40.99 60.9702L46.09 63.7102L53.81 59.3502L49.06 56.4102L40.99 60.9702Z" fill="black" stroke="black" stroke-width="0.5" stroke-linecap="round" stroke-linejoin="round"/>
<path d="M47.43 59.5901L40.72 55.4001L40.71 50.9001L47.41 54.8001L47.43 59.5901Z" fill="#048DAE" stroke="black" stroke-width="0.5" stroke-linecap="round" stroke-linejoin="round"/>
<path d="M56.14 39.5301C56.14 39.5301 56.14 39.4801 56.14 39.4501C56.16 39.2401 56.18 39.0301 56.19 38.8201C56.21 37.6901 56.01 36.8801 55.29 36.4601L48.59 32.5601C49.31 32.9801 49.51 33.7901 49.49 34.9201C49.49 35.1201 49.47 35.3301 49.44 35.5501C49.44 35.6101 49.43 35.6701 49.42 35.7301C49.4 35.8401 49.39 35.9501 49.36 36.0601C49.35 36.1301 49.33 36.2101 49.32 36.2801C49.31 36.3401 49.29 36.4101 49.27 36.4701C49.24 36.5701 49.22 36.6701 49.19 36.7701C49.18 36.8201 49.16 36.8701 49.15 36.9101C49.1 37.0601 49.05 37.2101 48.99 37.3601C48.93 37.5201 48.87 37.6701 48.8 37.8201C48.79 37.8501 48.77 37.8801 48.76 37.9201C48.69 38.0701 48.61 38.2201 48.53 38.3701C48.52 38.4001 48.5 38.4201 48.49 38.4501C48.41 38.5901 48.33 38.7301 48.24 38.8701C48.23 38.8901 48.21 38.9101 48.2 38.9401C48.1 39.0901 48 39.2401 47.89 39.3901C47.86 39.4401 47.82 39.4801 47.79 39.5301C47.71 39.6401 47.63 39.7401 47.54 39.8501C47.49 39.9201 47.43 39.9801 47.38 40.0501C47.32 40.1301 47.25 40.2001 47.18 40.2801C47.06 40.4101 46.94 40.5501 46.81 40.6801C46.74 40.7501 46.68 40.8101 46.61 40.8801C46.51 40.9801 46.4 41.0801 46.29 41.1801C46.21 41.2501 46.13 41.3201 46.05 41.4001C45.93 41.5001 45.8 41.6001 45.68 41.7001C45.6 41.7701 45.52 41.8301 45.43 41.9001C45.28 42.0101 45.13 42.1201 44.97 42.2201C44.89 42.2701 44.82 42.3301 44.74 42.3801C44.5 42.5401 44.26 42.6901 44 42.8401C43.77 42.9701 43.55 43.0901 43.33 43.2001C43.26 43.2301 43.19 43.2601 43.12 43.3001C42.98 43.3601 42.85 43.4301 42.72 43.4801C42.46 43.5801 42.21 43.6701 41.97 43.7401C41.85 43.7701 41.73 43.8001 41.61 43.8201C41.54 43.8301 41.47 43.8501 41.41 43.8601C41.24 43.8901 41.08 43.9001 40.92 43.9101C40.89 43.9101 40.85 43.9101 40.82 43.9101C40.69 43.9101 40.57 43.9101 40.44 43.8901C40.41 43.8901 40.39 43.8901 40.36 43.8901C40.22 43.8701 40.09 43.8401 39.97 43.8001C39.95 43.8001 39.92 43.7801 39.9 43.7701C39.77 43.7201 39.65 43.6701 39.53 43.6001L46.23 47.5001H46.26C46.34 47.5601 46.42 47.6001 46.5 47.6301C46.54 47.6401 46.57 47.6601 46.61 47.6701C46.63 47.6701 46.66 47.6901 46.68 47.7001C46.7 47.7001 46.73 47.7201 46.75 47.7301C46.84 47.7601 46.93 47.7801 47.02 47.7901C47.04 47.7901 47.05 47.7901 47.07 47.7901C47.1 47.7901 47.12 47.7901 47.15 47.7901C47.21 47.7901 47.27 47.8101 47.33 47.8101C47.39 47.8101 47.46 47.8101 47.53 47.8101C47.56 47.8101 47.6 47.8101 47.63 47.8101C47.65 47.8101 47.66 47.8101 47.68 47.8101C47.82 47.8101 47.96 47.7901 48.1 47.7701H48.12C48.18 47.7601 48.25 47.7401 48.32 47.7201C48.43 47.7001 48.54 47.6801 48.65 47.6501H48.68C48.92 47.5701 49.17 47.4901 49.43 47.3801C49.45 47.3801 49.47 47.3701 49.49 47.3601C49.6 47.3101 49.72 47.2601 49.84 47.2001C49.91 47.1701 49.98 47.1401 50.05 47.1001C50.27 46.9901 50.49 46.8801 50.72 46.7401C50.98 46.5901 51.22 46.4401 51.46 46.2801C51.54 46.2301 51.61 46.1801 51.69 46.1201C51.85 46.0101 52 45.9101 52.15 45.8001C52.24 45.7401 52.32 45.6701 52.4 45.6001C52.53 45.5001 52.65 45.4001 52.77 45.3001C52.85 45.2301 52.93 45.1601 53.01 45.0801C53.12 44.9801 53.23 44.8801 53.33 44.7801C53.36 44.7501 53.39 44.7301 53.41 44.7001C53.45 44.6601 53.49 44.6201 53.53 44.5801C53.66 44.4501 53.78 44.3201 53.9 44.1801C53.93 44.1401 53.97 44.1101 54.01 44.0701C54.04 44.0301 54.07 43.9901 54.11 43.9501C54.17 43.8801 54.22 43.8201 54.28 43.7501C54.32 43.7001 54.36 43.6601 54.39 43.6101C54.44 43.5501 54.48 43.4901 54.52 43.4301C54.55 43.3801 54.59 43.3401 54.62 43.2901C54.64 43.2701 54.66 43.2401 54.67 43.2201C54.75 43.1001 54.83 42.9901 54.9 42.8701L54.92 42.8401C54.92 42.8401 54.95 42.8001 54.96 42.7701C55.01 42.6901 55.06 42.6201 55.1 42.5401C55.14 42.4801 55.17 42.4201 55.2 42.3501C55.22 42.3201 55.23 42.2901 55.25 42.2701C55.25 42.2501 55.27 42.2401 55.28 42.2201C55.34 42.1201 55.39 42.0101 55.44 41.9001C55.45 41.8701 55.47 41.8401 55.48 41.8201C55.5 41.7901 55.51 41.7601 55.52 41.7201C55.54 41.6801 55.56 41.6301 55.58 41.5801C55.63 41.4701 55.67 41.3701 55.71 41.2601C55.75 41.1301 55.8 41.0201 55.84 40.9001C55.85 40.8701 55.86 40.8401 55.87 40.8001C55.89 40.7501 55.9 40.7001 55.91 40.6501C55.92 40.6001 55.94 40.5601 55.95 40.5101C55.96 40.4601 55.98 40.4001 55.99 40.3501C56.01 40.2901 56.02 40.2201 56.04 40.1601C56.04 40.1301 56.06 40.1001 56.06 40.0701C56.06 40.0201 56.07 39.9801 56.08 39.9401C56.1 39.8301 56.12 39.7201 56.14 39.6101C56.14 39.5801 56.15 39.5401 56.16 39.5101L56.14 39.5301Z" fill="#A2F9F9" stroke="black" stroke-width="0.5" stroke-linecap="round" stroke-linejoin="round"/>
<path d="M38.94 54.26C38.62 53.91 38.3401 53.5 38.1101 53.04C37.8801 52.58 37.6901 52.06 37.5401 51.49C37.4001 50.92 37.3 50.3 37.25 49.63L30.55 45.73C30.76 48.41 31.7101 50.31 33.3301 51.25L40.03 55.15C39.62 54.91 39.26 54.62 38.94 54.27V54.26Z" fill="#A2F9F9" stroke="black" stroke-width="0.5" stroke-linecap="round" stroke-linejoin="round"/>
<path d="M37.25 49.6301L30.55 45.7301L38.12 41.3601L44.8301 45.2501L37.25 49.6301Z" fill="white" stroke="black" stroke-width="0.5" stroke-linecap="round" stroke-linejoin="round"/>
<path d="M50.1499 28.45C50.2499 28.43 50.3499 28.41 50.4599 28.39C50.6799 28.34 50.9099 28.29 51.1499 28.24C51.2499 28.22 51.3499 28.19 51.4599 28.17C51.8099 28.09 52.1699 28 52.5499 27.9C53.0699 27.76 53.5799 27.64 54.0599 27.54C54.2199 27.51 54.3699 27.48 54.5199 27.45C54.8299 27.39 55.1499 27.33 55.4399 27.28C55.8099 27.22 56.1699 27.17 56.5099 27.14C56.5799 27.14 56.6399 27.14 56.7099 27.13C56.9699 27.11 57.2199 27.09 57.4599 27.09C57.6999 27.09 57.9399 27.09 58.1599 27.09C58.2999 27.09 58.4399 27.09 58.5699 27.1C58.6999 27.1 58.8099 27.13 58.9299 27.14C59.1099 27.16 59.2899 27.18 59.4599 27.22C59.5499 27.24 59.6399 27.26 59.7199 27.28C59.8999 27.32 60.0799 27.37 60.2399 27.43C60.2999 27.45 60.3699 27.47 60.4299 27.5C60.6499 27.59 60.8699 27.68 61.0699 27.8L54.3699 23.9L54.3199 23.87C54.1699 23.78 54.0099 23.71 53.8399 23.64C53.8099 23.63 53.7699 23.62 53.7299 23.6C53.6699 23.58 53.5999 23.55 53.5399 23.53C53.4499 23.5 53.3699 23.47 53.2799 23.44C53.1999 23.42 53.0999 23.4 53.0099 23.38C52.9199 23.36 52.8399 23.34 52.7499 23.32C52.6999 23.32 52.6599 23.3 52.6099 23.29C52.4899 23.27 52.3599 23.26 52.2299 23.25C52.1099 23.24 51.9899 23.22 51.8699 23.21C51.8299 23.21 51.7999 23.21 51.7699 23.2C51.6699 23.2 51.5599 23.2 51.4599 23.2C51.2299 23.2 50.9999 23.19 50.7599 23.2C50.6999 23.2 50.6599 23.2 50.5999 23.2C50.4099 23.2 50.2099 23.23 50.0099 23.24C49.9399 23.24 49.8799 23.24 49.8099 23.25C49.4999 23.28 49.1799 23.32 48.8499 23.37C48.8199 23.37 48.7799 23.38 48.7399 23.39C48.4499 23.44 48.1299 23.5 47.8199 23.56C47.6599 23.59 47.5199 23.61 47.3599 23.65C46.8799 23.75 46.3799 23.87 45.8499 24.01C45.4599 24.11 45.0999 24.2 44.7599 24.28C44.6499 24.31 44.5499 24.33 44.4499 24.35C44.2099 24.41 43.9799 24.46 43.7599 24.5C43.6599 24.52 43.5499 24.54 43.4499 24.56C43.2199 24.61 42.9999 24.65 42.7999 24.68C42.7399 24.69 42.6699 24.7 42.6099 24.71C42.3499 24.75 42.1099 24.78 41.8799 24.8C41.8299 24.8 41.7799 24.8 41.7199 24.81C41.5599 24.82 41.4099 24.83 41.2599 24.84C41.1599 24.84 41.0699 24.84 40.9699 24.84C40.8499 24.84 40.7399 24.84 40.6399 24.82C40.5899 24.82 40.5399 24.82 40.4999 24.8C40.3499 24.78 40.2099 24.75 40.0899 24.72H40.0599C39.9199 24.67 39.7999 24.62 39.6899 24.55L46.3899 28.45H46.4099C46.4699 28.49 46.5299 28.52 46.5899 28.55C46.6399 28.57 46.6999 28.59 46.7599 28.61H46.7899L46.8099 28.63C46.8999 28.66 46.9899 28.68 47.0899 28.69C47.1199 28.69 47.1599 28.69 47.1999 28.7C47.2499 28.7 47.2999 28.71 47.3399 28.72C47.3899 28.72 47.4299 28.73 47.4799 28.74C47.5399 28.74 47.6099 28.74 47.6699 28.74C47.7599 28.74 47.8599 28.74 47.9599 28.74C47.9999 28.74 48.0399 28.74 48.0799 28.74C48.1899 28.74 48.2999 28.72 48.4199 28.71C48.4699 28.71 48.5199 28.71 48.5799 28.7C48.7899 28.68 49.0099 28.65 49.2499 28.62C49.2699 28.62 49.2899 28.62 49.3099 28.61C49.3699 28.61 49.4399 28.59 49.4999 28.58C49.7099 28.55 49.9299 28.51 50.1499 28.46V28.45Z" fill="white" stroke="black" stroke-width="0.5" stroke-linecap="round" stroke-linejoin="round"/>
<path d="M54.6501 11.2701C54.8601 11.2001 55.0701 11.1401 55.2701 11.0901C55.5801 11.0101 55.8801 10.9501 56.1701 10.9001C56.2301 10.8901 56.3001 10.8701 56.3601 10.8601C56.5301 10.8301 56.6901 10.8201 56.8601 10.8101C56.9901 10.8001 57.1301 10.7801 57.2501 10.7701C57.3201 10.7701 57.3701 10.7701 57.4401 10.7701C57.6401 10.7701 57.8301 10.7701 58.0201 10.7801C58.0901 10.7801 58.1601 10.8001 58.2301 10.8001C58.3901 10.8201 58.5501 10.8401 58.7101 10.8701C58.7801 10.8801 58.8501 10.9001 58.9101 10.9201C59.0601 10.9601 59.2101 11.0001 59.3501 11.0501C59.4001 11.0701 59.4501 11.0801 59.5001 11.1001C59.6901 11.1801 59.8701 11.2601 60.0501 11.3601L53.3501 7.46011L53.3001 7.43011C53.1601 7.35011 53.0101 7.28011 52.8601 7.21011C52.8401 7.21011 52.8201 7.20011 52.8001 7.19011C52.7501 7.17011 52.7001 7.16011 52.6501 7.14011C52.5601 7.11011 52.4701 7.07011 52.3801 7.05011C52.3201 7.03011 52.2601 7.02011 52.2101 7.01011C52.1401 6.99011 52.0801 6.98011 52.0101 6.96011C51.9601 6.95011 51.9101 6.93011 51.8601 6.92011C51.7601 6.90011 51.6401 6.89011 51.5401 6.88011C51.4701 6.88011 51.4001 6.86011 51.3301 6.86011C51.3001 6.86011 51.2801 6.86011 51.2601 6.86011C51.1001 6.86011 50.9301 6.86011 50.7601 6.86011C50.7001 6.86011 50.6401 6.86011 50.5701 6.86011H50.5501C50.4301 6.86011 50.3001 6.89011 50.1801 6.90011C50.0201 6.92011 49.8601 6.92011 49.6801 6.95011H49.6501C49.6001 6.96011 49.5401 6.98011 49.4801 6.99011C49.1901 7.04011 48.8901 7.10011 48.5801 7.18011C48.5401 7.19011 48.5001 7.19011 48.4601 7.21011C48.3001 7.25011 48.1301 7.31011 47.9601 7.36011C47.8501 7.39011 47.7501 7.42011 47.6301 7.46011C47.2901 7.57011 46.9401 7.70011 46.5701 7.85011L53.2701 11.7501C53.6401 11.6001 53.9901 11.4701 54.3301 11.3601C54.4401 11.3201 54.5501 11.2901 54.6601 11.2601L54.6501 11.2701Z" fill="white" stroke="black" stroke-width="0.5" stroke-linecap="round" stroke-linejoin="round"/>
<path d="M55.0501 21.0701C54.8601 20.3601 54.5201 19.4701 53.7701 19.0301L47.0701 15.1301C47.8301 15.5701 48.1601 16.4501 48.3501 17.1701L55.0501 21.0701Z" fill="black" stroke="black" stroke-width="0.5" stroke-linecap="round" stroke-linejoin="round"/>
<path d="M53.26 7.92993V11.7499C59.91 9.02993 62.29 12.2599 62.7 16.6799L55.12 21.0599C54.73 19.6199 53.77 17.4899 49.95 19.6999C46.62 21.6299 45.55 24.9099 45.56 26.3399C45.56 28.9499 46.83 29.3899 52.55 27.8899C60.53 25.7699 63.54 27.6299 63.56 33.9899C63.58 40.7199 59.67 46.7399 53.81 51.0999V55.8999L47.43 59.5899V54.7999C41.24 57.3199 37.68 55.1599 37.25 49.6299L44.82 45.2599C45.44 47.9799 47.49 48.5699 50.69 46.7299C54.64 44.4499 56.15 41.2399 56.19 38.8299C56.23 36.3099 55.17 35.3599 49.71 36.8999C40.63 39.4599 37.93 37.1799 37.92 31.5799C37.9 25.5399 41.86 19.4799 46.93 15.4899V11.6099L53.27 7.94993L53.26 7.92993Z" fill="#08D6DF" stroke="black" stroke-width="0.5" stroke-linecap="round" stroke-linejoin="round"/>
<path d="M46.91 11.6L40.21 7.70004L46.56 4.04004L53.26 7.93004L46.91 11.6Z" fill="white" stroke="black" stroke-width="0.5" stroke-linecap="round" stroke-linejoin="round"/>
<path d="M46.93 15.48L40.22 11.58L40.21 7.69995L46.91 11.6L46.93 15.48Z" fill="white" stroke="black" stroke-width="0.5" stroke-linecap="round" stroke-linejoin="round"/>
<path d="M37.92 31.5701C37.92 31.2201 37.93 30.8701 37.96 30.5201C37.96 30.4101 37.98 30.2901 37.99 30.1801C38.01 29.9601 38.04 29.7301 38.07 29.5101C38.1 29.2701 38.15 29.0301 38.19 28.8001C38.22 28.6401 38.25 28.4701 38.28 28.3101C38.31 28.1701 38.35 28.0401 38.38 27.9001C38.44 27.6801 38.49 27.4501 38.56 27.2301C38.59 27.1201 38.63 27.0101 38.66 26.9001C38.74 26.6501 38.83 26.3901 38.92 26.1401C38.95 26.0601 38.97 25.9901 39 25.9101C39.12 25.5901 39.25 25.2701 39.39 24.9501C39.42 24.8801 39.45 24.8101 39.49 24.7401C39.61 24.4801 39.73 24.2201 39.86 23.9701C39.9 23.8901 39.94 23.8101 39.98 23.7201C40.14 23.4001 40.32 23.0901 40.5 22.7801C40.52 22.7501 40.54 22.7201 40.56 22.6901C40.73 22.4101 40.9 22.1301 41.08 21.8601C41.16 21.7401 41.24 21.6301 41.31 21.5101C41.44 21.3201 41.57 21.1301 41.7 20.9401C41.82 20.7801 41.94 20.6201 42.06 20.4501C42.18 20.3001 42.29 20.1401 42.41 19.9901C42.61 19.7401 42.81 19.5001 43.01 19.2601C43.1 19.1601 43.18 19.0501 43.27 18.9501C43.66 18.5001 44.07 18.0701 44.5 17.6401C44.6 17.5401 44.7 17.4401 44.81 17.3401C45.05 17.1101 45.29 16.8901 45.53 16.6701C45.64 16.5701 45.75 16.4701 45.85 16.3801C46.2 16.0701 46.56 15.7701 46.92 15.4901L40.22 11.5901C39.86 11.8801 39.5 12.1801 39.15 12.4801C39.04 12.5801 38.93 12.6701 38.83 12.7701C38.59 12.9901 38.35 13.2101 38.11 13.4401C38.05 13.5001 37.99 13.5501 37.93 13.6101C37.89 13.6501 37.85 13.7001 37.81 13.7401C37.39 14.1601 36.98 14.6001 36.58 15.0501C36.56 15.0701 36.54 15.0901 36.52 15.1101C36.45 15.1901 36.39 15.2801 36.32 15.3601C36.12 15.6001 35.91 15.8401 35.72 16.0901C35.68 16.1401 35.63 16.2001 35.59 16.2501C35.51 16.3501 35.44 16.4501 35.37 16.5501C35.25 16.7101 35.13 16.8701 35.01 17.0301C34.96 17.1001 34.91 17.1601 34.87 17.2201C34.78 17.3401 34.7 17.4701 34.62 17.6001C34.54 17.7201 34.46 17.8301 34.39 17.9501C34.36 18.0001 34.33 18.0401 34.3 18.0901C34.15 18.3201 34.01 18.5501 33.88 18.7801C33.86 18.8101 33.84 18.8401 33.82 18.8701V18.8901C33.66 19.1401 33.52 19.4001 33.38 19.6601C33.35 19.7101 33.33 19.7701 33.3 19.8201C33.26 19.9001 33.22 19.9901 33.17 20.0701C33.11 20.1801 33.05 20.3001 33 20.4101C32.93 20.5501 32.87 20.7001 32.8 20.8401C32.77 20.9101 32.73 20.9801 32.7 21.0501C32.68 21.0801 32.67 21.1201 32.65 21.1501C32.54 21.4001 32.44 21.6601 32.34 21.9101C32.33 21.9401 32.32 21.9701 32.31 22.0101C32.28 22.0901 32.26 22.1601 32.23 22.2401C32.17 22.4001 32.11 22.5501 32.06 22.7101C32.03 22.8101 32 22.9001 31.97 23.0001C31.94 23.1101 31.9 23.2201 31.87 23.3301C31.85 23.4101 31.82 23.4901 31.8 23.5701C31.76 23.7101 31.73 23.8601 31.69 24.0001C31.66 24.1401 31.62 24.2701 31.59 24.4101C31.58 24.4601 31.57 24.5101 31.55 24.5501C31.53 24.6701 31.51 24.7801 31.49 24.9001C31.44 25.1401 31.4 25.3801 31.37 25.6101C31.37 25.6701 31.35 25.7301 31.34 25.7901C31.32 25.9601 31.31 26.1201 31.29 26.2901C31.28 26.4001 31.27 26.5201 31.26 26.6301C31.23 26.9801 31.22 27.3301 31.22 27.6801C31.22 30.4001 31.86 32.3301 33.55 33.3101L40.25 37.2101C38.56 36.2301 37.93 34.3001 37.92 31.5801V31.5701Z" fill="white" stroke="black" stroke-width="0.5" stroke-linecap="round" stroke-linejoin="round"/>
<path d="M16.71 65.1601L10.47 64.4401L14.17 59.3901L20.25 60.0001L16.71 65.1601Z" fill="#08D6DF" stroke="black" stroke-width="0.5" stroke-linecap="round" stroke-linejoin="round"/>
<path d="M20.2499 60L14.1599 59.39L11.5999 53.55L17.6799 54.16L20.2499 60Z" fill="white" stroke="black" stroke-width="0.5" stroke-linecap="round" stroke-linejoin="round"/>
<path d="M10.4699 64.4401L14.1599 59.39L11.5999 53.55L7.8999 58.6L10.4699 64.4401Z" fill="#A2F9F9" stroke="black" stroke-width="0.5" stroke-linecap="round" stroke-linejoin="round"/>
</g>
<defs>
<clipPath id="clip0_1219_17067">
<rect width="72" height="72" fill="white"/>
</clipPath>
</defs>
</svg>
