<svg xmlns="http://www.w3.org/2000/svg" xmlns:xlink="http://www.w3.org/1999/xlink" width="100px" height="83px" viewBox="0 0 100 83" version="1.1"><title>编组 22备份 3</title><g id="C啦C" stroke="none" stroke-width="1" fill="none" fill-rule="evenodd"><g id="Apple-TV备份" transform="translate(-1328.000000, -320.000000)"><g id="编组-22备份-2" transform="translate(1328.001172, 320.000000)"><rect id="矩形" fill="#E3B76D" x="5.93116556" y="43.6968943" width="85.6553326" height="38.3829404"/><rect id="矩形备份-9" fill="#33404B" opacity="0.2" x="62.3383358" y="43.6968943" width="29.2481623" height="38.3829404"/><polygon id="矩形备份-7" fill="#33404B" transform="translate(54.303956, 24.136191) rotate(18.000000) translate(-54.303956, -24.136191) " points="7.28605254 20.9669125 101.317926 21.025903 101.321859 27.30547 7.28998528 27.2464794"/><rect id="矩形备份-8" fill="#929597" x="31.001019" y="43.6968943" width="2.08915445" height="38.3829404"/><rect id="矩形备份-10" fill="#33404B" x="76.2660321" y="43.6968943" width="2.08915445" height="38.3829404"/><polygon id="矩形备份-18" fill="#33404B" transform="translate(83.057136, 33.493964) rotate(18.000000) translate(-83.057136, -33.493964) " points="66.3385264 30.3436936 99.7718127 30.3646681 99.7757454 36.644235 66.3424591 36.6232606"/><polygon id="矩形备份-19" fill="#929597" transform="translate(36.262642, 18.239434) rotate(18.000000) translate(-36.262642, -18.239434) " points="35.2158859 15.0989954 37.3054663 15.1003063 37.309399 21.3798733 35.2198186 21.3785624"/><polygon id="星形" fill="#D6AC65" transform="translate(5.582973, 30.333886) rotate(-45.000000) translate(-5.582973, -30.333886) " points="5.5799995 33.1223989 1.63521498 34.2816441 2.79446022 30.3368596 1.64362573 26.3945385 5.5859468 27.545373 9.53073132 26.3861278 8.37148607 30.3309123 9.52232056 34.2732334"/><polygon id="星形备份" fill="#40D1E5" transform="translate(87.102240, 3.928435) rotate(-15.000000) translate(-87.102240, -3.928435) " points="87.1010316 6.19619386 83.8993537 7.13723889 84.8386653 3.92964276 83.9027705 0.723047411 87.1034477 1.66067557 90.3051256 0.719630541 89.365814 3.92722667 90.3017087 7.13382202"/><path d="M56.4940632,19.2896279 C59.6904749,15.1568028 62.242513,12.1349098 64.1501774,10.2239489 C66.2384469,8.13207077 71.8110982,8.83329617 72.5098099,12.3223815 C73.0694733,15.1171161 71.8180897,19.9969708 66.2458753,19.9934769 C59.9771341,19.9895424 50.225759,19.9834248 46.0465982,19.980803 C41.8674374,19.9781812 37.6856548,15.7891814 39.7726134,11.6041143 C41.859572,7.41904726 46.0396067,8.81712839 48.1300611,10.2138986 C49.5236973,11.1450788 52.0795224,14.1701762 55.7975364,19.2891909" id="路径-15" stroke="#33404B" stroke-width="3.925807" transform="translate(55.924868, 14.404647) rotate(18.000000) translate(-55.924868, -14.404647) "/><polygon id="矩形备份-20" fill="#111F2C" transform="translate(86.573143, 34.674053) rotate(18.000000) translate(-86.573143, -34.674053) " points="84.4815968 31.532959 88.6607575 31.5355808 88.6646902 37.8151478 84.4855295 37.812526"/><path d="M50.8479863,50.3266749 C70.4627247,50.3266749 86.363612,34.3918382 86.363612,14.7352211" id="椭圆形" stroke="#40D1E5" stroke-width="5.703228"/></g></g></g></svg>