<svg width="266" height="181" viewBox="0 0 266 181" fill="none" xmlns="http://www.w3.org/2000/svg">
<path d="M228.034 111.91L198.562 94.8603C196.878 93.8895 195.528 91.2881 195.528 89.0508V82.0658C195.528 79.7905 196.886 78.797 198.562 79.7905L228.034 96.8398C229.718 97.8105 231.068 100.412 231.068 102.649V109.634C231.083 111.849 229.718 112.88 228.034 111.91Z" fill="#26BBBF" stroke="black" stroke-width="0.25" stroke-miterlimit="10"/>
<path d="M228.428 108.99L199.419 92.2134C198.726 91.7252 198.164 91.0743 197.782 90.3178C197.399 89.5613 197.209 88.7226 197.227 87.8752V82.8697C197.227 82.7749 197.252 82.6819 197.3 82.6C197.348 82.5181 197.416 82.4503 197.499 82.4034C197.581 82.3564 197.674 82.3321 197.769 82.3327C197.864 82.3333 197.957 82.359 198.038 82.407L198.137 82.4601L227.184 99.2591C228.792 100.192 229.369 101.838 229.369 103.597V108.519C229.37 108.621 229.345 108.722 229.295 108.811C229.245 108.9 229.172 108.974 229.084 109.025C228.997 109.077 228.897 109.104 228.795 109.105C228.693 109.105 228.592 109.079 228.504 109.028L228.428 108.99Z" fill="#006177"/>
<path d="M228.99 108.626H228.914L199.904 91.8494C199.211 91.3633 198.649 90.7139 198.266 89.9585C197.884 89.2031 197.694 88.3652 197.713 87.5188V82.4981C197.704 82.453 197.704 82.4066 197.713 82.3615C197.576 82.3674 197.446 82.4259 197.352 82.5249C197.257 82.6238 197.204 82.7555 197.204 82.8924V87.898C197.186 88.7453 197.377 89.5841 197.759 90.3406C198.141 91.097 198.703 91.748 199.396 92.2362L228.406 109.012H228.482C228.557 109.055 228.641 109.08 228.728 109.085C228.814 109.091 228.901 109.078 228.982 109.046C229.062 109.014 229.135 108.964 229.194 108.901C229.253 108.837 229.297 108.761 229.323 108.679C229.209 108.697 229.092 108.679 228.99 108.626Z" fill="#001A46"/>
<path d="M229.468 96.0813L199.995 79.0321C199.737 78.8572 199.443 78.7431 199.134 78.6984C198.825 78.6537 198.51 78.6797 198.213 78.7742C198.152 78.7742 196.734 79.5326 196.696 79.5326C197.005 79.4071 197.339 79.3601 197.67 79.3958C198.001 79.4316 198.318 79.5489 198.592 79.7374L228.064 96.7867C229.748 97.7574 231.098 100.359 231.098 102.596V109.581C231.098 110.984 230.567 111.91 229.756 112.175C229.851 112.169 229.943 112.138 230.021 112.084L231.591 111.242C231.926 110.947 232.185 110.576 232.349 110.161C232.512 109.745 232.575 109.297 232.532 108.853V101.868C232.516 99.6535 231.151 97.0445 229.468 96.0813Z" fill="#1DA2B4" stroke="black" stroke-width="0.25" stroke-miterlimit="10"/>
<path d="M229.346 96.0813L199.98 79.1003C199.723 78.9271 199.429 78.8139 199.122 78.7693C198.815 78.7247 198.502 78.7497 198.206 78.8425C198.145 78.8425 196.734 79.6009 196.689 79.6009C196.996 79.4753 197.329 79.4283 197.659 79.4641C197.989 79.4998 198.304 79.6172 198.577 79.8057L227.936 96.7867L229.346 96.0813Z" fill="#3ECFCD"/>
<path opacity="0.7" d="M228.186 96.7336L198.729 79.6919C198.465 79.5092 198.162 79.3925 197.844 79.3516C197.526 79.3106 197.202 79.3467 196.901 79.4568C197.414 79.4015 197.93 79.5218 198.365 79.7981L227.845 96.8473C229.521 97.8181 230.878 100.419 230.878 102.657V109.642C230.878 110.961 230.4 111.864 229.665 112.175C230.605 112.031 231.242 111.068 231.242 109.536V102.551C231.227 100.306 229.862 97.7043 228.186 96.7336Z" fill="white"/>
<path d="M221.224 99.8583C221.261 100.492 221.446 101.109 221.765 101.658C222.084 102.207 222.527 102.674 223.059 103.021C224.075 103.605 224.894 103.135 224.894 101.974C224.859 101.34 224.674 100.723 224.355 100.173C224.037 99.6235 223.592 99.157 223.059 98.8116C222.05 98.2277 221.224 98.6979 221.224 99.8583Z" fill="#001A46"/>
<path d="M216.498 97.1052C216.533 97.74 216.716 98.3578 217.034 98.9085C217.351 99.4592 217.794 99.9275 218.326 100.275C219.342 100.859 220.162 100.389 220.162 99.2288C220.127 98.594 219.943 97.9765 219.624 97.4267C219.305 96.8769 218.86 96.4107 218.326 96.0662C217.317 95.4746 216.498 95.9448 216.498 97.1052Z" fill="#001A46"/>
<path d="M211.766 94.3597C211.801 94.9942 211.986 95.6113 212.305 96.1609C212.624 96.7105 213.068 97.1769 213.602 97.5223C214.61 98.1063 215.429 97.6437 215.429 96.4757C215.394 95.8422 215.21 95.226 214.892 94.6766C214.575 94.1273 214.133 93.6602 213.602 93.3131C212.585 92.7291 211.766 93.1993 211.766 94.3597Z" fill="#001A46"/>
<path d="M207.071 91.5991C207.106 92.2335 207.291 92.8507 207.61 93.4002C207.929 93.9498 208.373 94.4163 208.907 94.7617C209.915 95.3457 210.742 94.8755 210.742 93.7151C210.705 93.0811 210.519 92.4646 210.201 91.9153C209.882 91.366 209.439 90.8992 208.907 90.5525C207.83 89.9837 207.071 90.4463 207.071 91.5991Z" fill="#001A46"/>
<path d="M202.301 88.8612C202.336 89.4967 202.521 90.1149 202.84 90.6657C203.158 91.2165 203.603 91.6843 204.136 92.0314C205.145 92.6154 205.972 92.1451 205.972 90.9848C205.935 90.3496 205.75 89.7318 205.431 89.1812C205.112 88.6306 204.669 88.1625 204.136 87.8146C203.12 87.2306 202.301 87.7008 202.301 88.8612Z" fill="#001A46"/>
<path d="M220.655 99.8962C220.692 100.53 220.877 101.147 221.196 101.696C221.515 102.245 221.958 102.712 222.49 103.059C223.507 103.643 224.326 103.173 224.326 102.012C224.29 101.378 224.106 100.761 223.787 100.211C223.468 99.6614 223.024 99.195 222.49 98.8496C221.482 98.2656 220.655 98.7358 220.655 99.8962Z" fill="#A8CFF0"/>
<path d="M215.93 97.1431C215.964 97.7789 216.148 98.3975 216.467 98.9485C216.786 99.4995 217.231 99.9672 217.765 100.313C218.774 100.897 219.593 100.427 219.593 99.2667C219.558 98.6329 219.375 98.0162 219.057 97.4667C218.74 96.9172 218.297 96.4503 217.765 96.1041C216.749 95.5125 215.93 95.9827 215.93 97.1431Z" fill="#A8CFF0"/>
<path d="M211.197 94.3976C211.232 95.0321 211.417 95.6492 211.736 96.1988C212.055 96.7484 212.499 97.2149 213.032 97.5603C214.041 98.1442 214.868 97.6816 214.868 96.5136C214.831 95.8796 214.645 95.2632 214.327 94.7139C214.008 94.1646 213.564 93.6978 213.032 93.351C212.016 92.767 211.197 93.2373 211.197 94.3976Z" fill="#A8CFF0"/>
<path d="M206.465 91.6522C206.5 92.2866 206.685 92.9037 207.004 93.4533C207.323 94.0029 207.767 94.4694 208.3 94.8148C209.309 95.3988 210.136 94.9285 210.136 93.7682C210.098 93.1341 209.913 92.5177 209.594 91.9684C209.276 91.4191 208.832 90.9523 208.3 90.6055C207.284 90.0216 206.465 90.4842 206.465 91.6522Z" fill="#A8CFF0"/>
<path d="M201.762 88.8991C201.798 89.5346 201.982 90.1528 202.301 90.7036C202.62 91.2544 203.064 91.7223 203.598 92.0693C204.614 92.6533 205.433 92.1831 205.433 91.0227C205.398 90.3872 205.213 89.769 204.894 89.2182C204.575 88.6674 204.131 88.1995 203.598 87.8525C202.521 87.2685 201.762 87.7387 201.762 88.8991Z" fill="#A8CFF0"/>
<path opacity="0.2" d="M223.43 176.041L200.147 162.64C197.72 161.245 198.023 158.803 200.822 157.187C203.62 155.572 212.873 155.564 215.3 156.96L235.937 168.874C239.661 171.066 235.975 174.077 232.903 175.655C230.082 177.3 225.85 177.444 223.43 176.041Z" fill="url(#paint0_linear_91_546)"/>
<path d="M232.501 147.896L198.835 135.345V160.312C198.802 160.765 198.91 161.217 199.145 161.605C199.38 161.994 199.73 162.3 200.147 162.481L222.899 175.67C224.871 176.807 228.314 176.663 230.59 175.351C231.796 174.653 232.433 173.766 232.471 172.924L232.501 147.896Z" fill="#36C3CE" stroke="black" stroke-width="0.5" stroke-miterlimit="10"/>
<path d="M222.915 150.581L200.162 137.4C198.19 136.262 198.44 134.275 200.716 132.963C202.991 131.644 206.442 131.499 208.414 132.637L231.166 145.826C233.138 146.964 232.895 148.951 230.613 150.263C228.307 151.582 224.887 151.727 222.915 150.581Z" fill="#CEECED" stroke="black" stroke-width="0.5" stroke-miterlimit="10"/>
<path d="M230.476 149.618C228.201 150.915 224.818 151.059 222.892 149.929L200.397 136.907C200.055 136.744 199.759 136.499 199.533 136.195C199.307 135.891 199.158 135.537 199.1 135.163C199.072 135.607 199.182 136.049 199.414 136.429C199.646 136.809 199.989 137.108 200.397 137.286L222.892 150.308C224.841 151.438 228.246 151.294 230.476 149.997C231.788 149.239 232.41 148.253 232.319 147.343C232.209 147.839 231.985 148.302 231.665 148.697C231.345 149.092 230.938 149.407 230.476 149.618Z" fill="white"/>
<path d="M217.909 117.317C216.459 116.481 214.815 116.041 213.141 116.042C211.467 116.043 209.823 116.485 208.374 117.322C206.925 118.16 205.722 119.365 204.886 120.815C204.051 122.265 203.611 123.91 203.613 125.584V135.929C203.613 136.937 205.016 137.756 206.745 137.756C208.474 137.756 209.877 136.937 209.877 135.936H209.915V126.919C209.914 126.208 210.101 125.51 210.455 124.895C210.81 124.279 211.321 123.768 211.936 123.413C212.551 123.057 213.249 122.871 213.96 122.871C214.67 122.871 215.368 123.059 215.983 123.415C217.52 124.298 218.797 125.57 219.685 127.104C220.573 128.638 221.041 130.379 221.041 132.152V145.94C221.041 146.933 222.46 147.73 224.174 147.73C225.888 147.73 227.283 146.926 227.298 145.925V133.578C227.299 130.281 226.432 127.043 224.784 124.188C223.136 121.334 220.764 118.964 217.909 117.317Z" fill="#1799A3" stroke="black" stroke-width="0.5" stroke-miterlimit="10"/>
<path d="M217.727 122.095C217.538 121.986 217.343 121.887 217.143 121.799C218.634 122.804 219.855 124.159 220.7 125.746C221.545 127.333 221.988 129.103 221.99 130.9V147.077C222.367 147.298 222.78 147.449 223.211 147.525V131.598C223.209 129.673 222.702 127.781 221.74 126.113C220.777 124.446 219.394 123.06 217.727 122.095Z" fill="#36C3CE"/>
<path d="M211.371 120.419C210.012 120.419 208.708 120.959 207.746 121.921C206.785 122.882 206.244 124.186 206.244 125.546V136.346V137.468C206.85 137.519 207.459 137.444 208.034 137.248L208.072 136.133V125.341C208.074 124.245 208.425 123.179 209.076 122.297C209.727 121.416 210.643 120.765 211.69 120.442L211.371 120.419Z" fill="#005975"/>
<path d="M214.443 118.22C216.068 118.221 217.667 118.622 219.1 119.388C218.546 118.975 217.969 118.595 217.371 118.25C216.096 117.506 214.646 117.113 213.169 117.112C210.923 117.116 208.77 118.01 207.181 119.597C205.592 121.185 204.696 123.338 204.69 125.584C205.307 123.47 206.589 121.612 208.346 120.285C210.103 118.959 212.242 118.234 214.443 118.22Z" fill="#36C3CE"/>
<path d="M224.894 135.466V147.601C225.451 147.537 225.988 147.351 226.464 147.055C226.533 146.924 226.569 146.778 226.57 146.63V134.253C226.563 128.921 224.894 130.028 224.894 135.466Z" fill="#005975"/>
<path d="M215.899 155.003C215.835 153.938 215.523 152.904 214.987 151.982C214.451 151.06 213.706 150.276 212.813 149.694C211.106 148.708 209.726 149.497 209.726 151.453C209.8 152.914 210.346 154.311 211.281 155.435V161.631L214.314 163.391V157.195C215.27 157.104 215.899 156.323 215.899 155.003Z" fill="#005975"/>
<path d="M211.819 161.374V155.177C210.878 154.059 210.329 152.663 210.257 151.203C210.223 150.842 210.278 150.478 210.418 150.143C210.559 149.808 210.779 149.513 211.061 149.284C210.257 149.459 209.726 150.217 209.726 151.431C209.8 152.891 210.346 154.288 211.281 155.412V161.609L214.314 163.368V162.83L211.819 161.374Z" fill="#001A46"/>
<g filter="url(#filter0_d_91_546)">
<path d="M47.5822 116.175C47.2666 116.333 46.9187 116.415 46.5659 116.415C46.2132 116.415 45.8652 116.333 45.5496 116.175C45.4996 116.153 45.4453 116.141 45.3904 116.141C45.3354 116.141 45.2811 116.153 45.2311 116.175L37.298 120.764L36.2362 120.149C36.1452 120.096 36.1452 120.013 36.2362 119.967L45.2311 114.772C45.2802 114.746 45.3349 114.733 45.3904 114.733C45.4459 114.733 45.5005 114.746 45.5496 114.772C45.8652 114.93 46.2132 115.012 46.5659 115.012C46.9187 115.012 47.2666 114.93 47.5822 114.772C47.695 114.719 47.7927 114.638 47.8668 114.537C47.9409 114.437 47.989 114.32 48.0069 114.196V115.584C47.9958 115.711 47.9505 115.834 47.8758 115.938C47.801 116.042 47.6996 116.124 47.5822 116.175Z" fill="#005975"/>
<path d="M50.1382 110.313C50.1556 110.589 50.2482 110.855 50.406 111.082C50.5637 111.309 50.7806 111.489 51.0331 111.602C51.3497 111.761 51.699 111.844 52.0532 111.844C52.4074 111.844 52.7567 111.761 53.0733 111.602C53.6345 111.276 53.6421 110.753 53.0733 110.427C52.9823 110.381 52.9823 110.298 53.0733 110.245L62.0681 105.049C62.1182 105.027 62.1725 105.015 62.2274 105.015C62.2823 105.015 62.3366 105.027 62.3867 105.049L67.5212 108.015C67.6122 108.068 67.6122 108.151 67.5212 108.197L66.4594 108.811L62.3715 106.452C62.3224 106.427 62.2677 106.413 62.2122 106.413C62.1567 106.413 62.102 106.427 62.053 106.452L53.5132 111.39V112.398C53.5103 112.53 53.4695 112.658 53.3954 112.767C53.3214 112.876 53.2174 112.962 53.096 113.013C52.7794 113.172 52.4301 113.254 52.076 113.254C51.7218 113.254 51.3725 113.172 51.0559 113.013C50.8314 112.905 50.6354 112.746 50.4838 112.548C50.3323 112.351 50.2295 112.12 50.1837 111.875V110.358L50.1382 110.313Z" fill="#005975"/>
<path d="M45.1858 117.942C45.5789 118.144 46.0143 118.249 46.4561 118.249C46.8979 118.249 47.3334 118.144 47.7265 117.942L59.209 111.314C59.9143 110.904 59.9219 110.245 59.209 109.843C58.8148 109.644 58.3798 109.541 57.9386 109.541C57.4975 109.541 57.0624 109.644 56.6683 109.843L45.1858 116.479C44.488 116.881 44.4805 117.541 45.1858 117.942Z" fill="#1DA2B4"/>
<path d="M50.6844 117.738C50.7754 117.783 50.7754 117.867 50.6844 117.92L50.2521 118.162V117.055C50.2383 117.201 50.2733 117.347 50.3515 117.47C50.4298 117.594 50.5469 117.688 50.6844 117.738Z" fill="#084C94"/>
<path d="M34.1888 121.325L39.3308 124.283C40.0098 124.629 40.7608 124.809 41.5227 124.809C42.2845 124.809 43.0356 124.629 43.7145 124.283L52.7169 119.088C52.9784 118.97 53.2013 118.781 53.3597 118.542C53.5181 118.303 53.6055 118.024 53.6119 117.738V119.315C53.5687 119.569 53.4648 119.808 53.3089 120.013C53.1531 120.218 52.95 120.382 52.7169 120.491L43.7145 125.694C43.035 126.037 42.2842 126.217 41.5227 126.217C40.7611 126.217 40.0103 126.037 39.3308 125.694L34.1888 122.766C33.9635 122.658 33.7666 122.499 33.6139 122.302C33.4611 122.104 33.3567 121.874 33.309 121.628V120.18C33.3545 120.427 33.4579 120.659 33.6109 120.858C33.7638 121.058 33.9619 121.217 34.1888 121.325Z" fill="#005975"/>
<path d="M45.1856 117.942C45.5787 118.144 46.0141 118.249 46.4559 118.249C46.8977 118.249 47.3332 118.144 47.7263 117.942L59.2087 111.314C59.4485 111.194 59.6312 110.984 59.7169 110.73V111.814C59.8079 112.133 59.641 112.474 59.2087 112.717L47.7263 119.353C47.3326 119.553 46.8974 119.657 46.4559 119.657C46.0144 119.657 45.5792 119.553 45.1856 119.353C44.9516 119.239 44.7719 119.037 44.685 118.792V118.754C44.6699 118.671 44.6699 118.586 44.685 118.504V117.343C44.7211 117.473 44.7844 117.594 44.8707 117.697C44.9571 117.8 45.0644 117.884 45.1856 117.942Z" fill="#005975"/>
<path d="M51.0332 111.602C51.3498 111.761 51.6991 111.844 52.0533 111.844C52.4075 111.844 52.7568 111.761 53.0734 111.602C53.6346 111.276 53.6422 110.753 53.0734 110.427C52.9824 110.381 52.9824 110.298 53.0734 110.245L62.0682 105.049C62.1183 105.027 62.1726 105.015 62.2275 105.015C62.2824 105.015 62.3367 105.027 62.3868 105.049L67.5213 108.015C67.6123 108.068 67.6123 108.151 67.5213 108.197L58.5264 113.392C58.4773 113.418 58.4227 113.431 58.3672 113.431C58.3116 113.431 58.257 113.418 58.2079 113.392C57.8923 113.234 57.5444 113.152 57.1916 113.152C56.8388 113.152 56.4909 113.234 56.1753 113.392C56.0531 113.434 55.947 113.514 55.872 113.619C55.7969 113.724 55.7566 113.85 55.7566 113.98C55.7566 114.109 55.7969 114.235 55.872 114.341C55.947 114.446 56.0531 114.525 56.1753 114.568C56.8548 114.911 57.6056 115.091 58.3672 115.091C59.1287 115.091 59.8795 114.911 60.559 114.568L69.5614 109.372C70.7749 108.667 70.7825 107.537 69.5614 106.839L64.4193 103.874C63.7404 103.528 62.9894 103.348 62.2275 103.348C61.4657 103.348 60.7146 103.528 60.0357 103.874L51.0332 109.069C49.8349 109.767 49.8274 110.904 51.0332 111.602Z" fill="#1DA2B4"/>
<path d="M56.1754 114.568C56.8549 114.911 57.6057 115.091 58.3672 115.091C59.1288 115.091 59.8796 114.911 60.5591 114.568L69.5615 109.372C69.821 109.258 70.0431 109.073 70.2027 108.838C70.3622 108.603 70.4528 108.329 70.464 108.045V109.645C70.4149 109.892 70.3092 110.124 70.1552 110.322C70.0012 110.521 69.8032 110.681 69.5767 110.791L60.5591 115.94C59.8791 116.282 59.1284 116.461 58.3672 116.461C57.606 116.461 56.8554 116.282 56.1754 115.94C56.0745 115.892 55.9854 115.822 55.9146 115.736C55.8438 115.649 55.793 115.548 55.7659 115.44V113.923C55.765 114.058 55.8032 114.191 55.8758 114.305C55.9484 114.42 56.0524 114.511 56.1754 114.568Z" fill="#005975"/>
<path d="M34.1886 121.325L39.3307 124.283C40.0096 124.629 40.7607 124.809 41.5225 124.809C42.2844 124.809 43.0354 124.629 43.7143 124.283L52.7168 119.088C53.9302 118.39 53.9302 117.252 52.7168 116.555C52.4012 116.397 52.0532 116.315 51.7005 116.315C51.3477 116.315 50.9998 116.397 50.6842 116.555C50.123 116.881 50.1154 117.404 50.6842 117.73C50.7752 117.776 50.7752 117.859 50.6842 117.912L41.6894 123.107C41.6393 123.13 41.585 123.142 41.5301 123.142C41.4752 123.142 41.4209 123.13 41.3708 123.107L36.2363 120.142C36.1453 120.089 36.1453 120.005 36.2363 119.96L45.2312 114.765C45.2803 114.739 45.3349 114.725 45.3904 114.725C45.446 114.725 45.5006 114.739 45.5497 114.765C45.8653 114.922 46.2132 115.004 46.566 115.004C46.9188 115.004 47.2667 114.922 47.5823 114.765C47.7045 114.722 47.8106 114.643 47.8856 114.538C47.9607 114.432 48.001 114.306 48.001 114.177C48.001 114.048 47.9607 113.921 47.8856 113.816C47.8106 113.711 47.7045 113.631 47.5823 113.589C46.9015 113.245 46.1494 113.066 45.3867 113.066C44.6239 113.066 43.8718 113.245 43.191 113.589L34.2038 118.792C32.9903 119.49 32.9827 120.627 34.1886 121.325Z" fill="#1DA2B4"/>
<path d="M45.1857 117.829C45.5793 118.029 46.0146 118.133 46.456 118.133C46.8975 118.133 47.3328 118.029 47.7264 117.829L59.2089 111.193C59.3286 111.136 59.4355 111.056 59.5229 110.957C59.6103 110.858 59.6764 110.742 59.717 110.616C59.7208 110.654 59.7208 110.692 59.717 110.73C59.6842 110.868 59.6208 110.997 59.5315 111.107C59.4423 111.217 59.3294 111.306 59.2013 111.367L47.7188 117.996C47.3252 118.195 46.8899 118.3 46.4485 118.3C46.007 118.3 45.5718 118.195 45.1781 117.996C45.0513 117.936 44.9396 117.848 44.8516 117.739C44.7636 117.63 44.7015 117.503 44.67 117.366C44.6662 117.328 44.6662 117.29 44.67 117.252C44.7126 117.378 44.7803 117.494 44.869 117.593C44.9576 117.692 45.0653 117.772 45.1857 117.829Z" fill="#72B5E8"/>
<path d="M67.4148 107.992L62.3713 105.095C62.3217 105.071 62.2672 105.058 62.212 105.058C62.1569 105.058 62.1024 105.071 62.0528 105.095L53.1641 110.222L53.0579 110.146L62.0528 104.951C62.1019 104.925 62.1565 104.911 62.212 104.911C62.2675 104.911 62.3222 104.925 62.3713 104.951L67.5058 107.916L67.4148 107.992Z" fill="#72B5E8"/>
<path d="M56.1752 114.423C56.8551 114.766 57.6058 114.944 58.367 114.944C59.1282 114.944 59.8788 114.766 60.5588 114.423L69.5612 109.228C69.7829 109.12 69.9777 108.964 70.1312 108.771C70.2847 108.578 70.3932 108.354 70.4486 108.113C70.4451 108.146 70.4451 108.179 70.4486 108.212C70.4066 108.467 70.3032 108.708 70.1473 108.914C69.9914 109.12 69.7876 109.285 69.5537 109.395L60.5512 114.59C59.8718 114.934 59.1209 115.113 58.3594 115.113C57.5979 115.113 56.847 114.934 56.1676 114.59C56.068 114.541 55.9805 114.471 55.911 114.385C55.8416 114.298 55.7919 114.197 55.7656 114.09C55.7619 114.06 55.7619 114.029 55.7656 113.999C55.8458 114.185 55.9915 114.336 56.1752 114.423Z" fill="#72B5E8"/>
<path d="M51.0331 111.488C51.3497 111.647 51.699 111.73 52.0532 111.73C52.4074 111.73 52.7567 111.647 53.0733 111.488C53.2535 111.398 53.3939 111.244 53.4677 111.056C53.4708 111.089 53.4708 111.122 53.4677 111.155C53.4415 111.264 53.3912 111.367 53.3203 111.455C53.2495 111.543 53.1599 111.614 53.0581 111.663C52.7415 111.822 52.3922 111.904 52.038 111.904C51.6839 111.904 51.3346 111.822 51.018 111.663C50.7862 111.554 50.5848 111.39 50.4314 111.185C50.278 110.98 50.1773 110.74 50.1382 110.487C50.1419 110.457 50.1419 110.426 50.1382 110.396C50.196 110.634 50.3064 110.855 50.4613 111.044C50.6162 111.233 50.8117 111.385 51.0331 111.488Z" fill="#72B5E8"/>
<path d="M45.2311 114.651C45.2811 114.628 45.3354 114.617 45.3904 114.617C45.4453 114.617 45.4996 114.628 45.5496 114.651C45.8652 114.809 46.2132 114.891 46.5659 114.891C46.9187 114.891 47.2666 114.809 47.5822 114.651C47.7644 114.561 47.9073 114.407 47.9842 114.219C47.9882 114.251 47.9882 114.284 47.9842 114.317C47.957 114.426 47.9062 114.527 47.8354 114.613C47.7646 114.7 47.6756 114.77 47.5746 114.818C47.259 114.975 46.9111 115.057 46.5583 115.057C46.2056 115.057 45.8577 114.975 45.542 114.818C45.493 114.792 45.4383 114.778 45.3828 114.778C45.3273 114.778 45.2726 114.792 45.2235 114.818L36.35 119.952L36.2363 119.884L45.2311 114.651Z" fill="#72B5E8"/>
<path d="M34.1888 121.249L39.3308 124.215C40.0103 124.558 40.7611 124.738 41.5227 124.738C42.2842 124.738 43.035 124.558 43.7145 124.215L52.7169 118.974C52.9392 118.867 53.1345 118.711 53.2882 118.518C53.4418 118.325 53.5499 118.1 53.6043 117.859V117.958C53.5661 118.214 53.4651 118.457 53.3103 118.665C53.1555 118.872 52.9516 119.039 52.7169 119.148L43.7145 124.336C43.0356 124.682 42.2845 124.862 41.5227 124.862C40.7608 124.862 40.0098 124.682 39.3308 124.336L34.1888 121.371C33.9556 121.266 33.7527 121.104 33.5988 120.9C33.445 120.695 33.3453 120.456 33.309 120.203C33.309 120.203 33.309 120.134 33.309 120.104C33.355 120.351 33.4587 120.583 33.6116 120.782C33.7645 120.981 33.9623 121.141 34.1888 121.249Z" fill="#72B5E8"/>
</g>
<g opacity="0.5" filter="url(#filter1_d_91_546)">
<path opacity="0.2" d="M29.9491 159.762C28.6901 159.003 28.6825 157.858 29.9491 157.13L40.3091 151.154C41.2954 150.654 42.3853 150.394 43.4907 150.394C44.5961 150.394 45.6859 150.654 46.6722 151.154C48.4318 152.17 48.4393 153.816 46.6722 154.824L37.4195 160.171C37.3107 160.228 37.1897 160.258 37.0669 160.258C36.944 160.258 36.823 160.228 36.7142 160.171C36.5246 160.057 36.517 159.875 36.7142 159.762L45.9669 154.453C47.332 153.694 47.3245 152.39 45.9669 151.601C45.1995 151.212 44.3511 151.009 43.4907 151.009C42.6302 151.009 41.7819 151.212 41.0144 151.601L30.6468 157.54C30.4577 157.605 30.2936 157.728 30.1775 157.891C30.0614 158.054 29.999 158.249 29.999 158.45C29.999 158.65 30.0614 158.845 30.1775 159.008C30.2936 159.171 30.4577 159.294 30.6468 159.36C31.1348 159.606 31.6738 159.735 32.2206 159.735C32.7673 159.735 33.3063 159.606 33.7943 159.36L43.7144 153.626C44.1088 153.406 44.1088 153.035 43.7144 152.807C43.4934 152.695 43.2492 152.637 43.0015 152.637C42.7538 152.637 42.5095 152.695 42.2886 152.807L34.0218 157.577C34.0097 157.577 33.9982 157.582 33.9896 157.591C33.9811 157.599 33.9763 157.611 33.9763 157.623C33.9763 157.635 33.9811 157.647 33.9896 157.655C33.9982 157.664 34.0097 157.668 34.0218 157.668C34.0472 157.683 34.0759 157.691 34.1052 157.691C34.1345 157.691 34.1633 157.683 34.1887 157.668L40.256 154.157C40.3648 154.1 40.4858 154.07 40.6087 154.07C40.7315 154.07 40.8526 154.1 40.9613 154.157C41.1585 154.263 41.1585 154.445 40.9613 154.559L34.894 158.07C34.6507 158.194 34.3818 158.258 34.109 158.258C33.8363 158.258 33.5674 158.194 33.3241 158.07C33.2276 158.04 33.1435 157.979 33.0838 157.897C33.0241 157.815 32.9919 157.717 32.9919 157.615C32.9919 157.514 33.0241 157.415 33.0838 157.334C33.1435 157.252 33.2276 157.191 33.3241 157.16L41.5908 152.39C42.0296 152.169 42.514 152.054 43.0053 152.054C43.4965 152.054 43.9809 152.169 44.4197 152.39C45.1781 152.845 45.1781 153.581 44.4197 154.028L34.5072 159.769C33.8005 160.127 33.0193 160.313 32.2272 160.312C31.4351 160.31 30.6546 160.122 29.9491 159.762Z" fill="#92B4D1"/>
<path d="M29.9491 159.496C28.6901 158.738 28.6825 157.593 29.9491 156.865L40.3091 150.888C41.2948 150.387 42.3849 150.126 43.4907 150.126C44.5964 150.126 45.6865 150.387 46.6722 150.888C48.4318 151.904 48.4393 153.55 46.6722 154.559L37.4195 159.868C37.3107 159.925 37.1897 159.955 37.0669 159.955C36.944 159.955 36.823 159.925 36.7142 159.868C36.6722 159.854 36.6358 159.826 36.61 159.79C36.5843 159.754 36.5704 159.711 36.5704 159.667C36.5704 159.623 36.5843 159.579 36.61 159.543C36.6358 159.507 36.6722 159.48 36.7142 159.466L45.9669 154.119C47.332 153.361 47.3245 152.056 45.9669 151.26C45.1989 150.872 44.3508 150.671 43.4907 150.671C42.6305 150.671 41.7824 150.872 41.0144 151.26L30.6468 157.274C29.7747 157.775 29.7822 158.586 30.6468 159.094C31.1353 159.339 31.6742 159.467 32.2206 159.467C32.767 159.467 33.3058 159.339 33.7943 159.094L43.7144 153.361C43.8001 153.332 43.8745 153.277 43.9272 153.203C43.9799 153.13 44.0083 153.042 44.0083 152.951C44.0083 152.861 43.9799 152.773 43.9272 152.699C43.8745 152.626 43.8001 152.571 43.7144 152.542C43.4929 152.431 43.2489 152.374 43.0015 152.374C42.7541 152.374 42.5101 152.431 42.2886 152.542L34.0218 157.32C34.0097 157.32 33.9982 157.324 33.9896 157.333C33.9811 157.341 33.9763 157.353 33.9763 157.365C33.9763 157.377 33.9811 157.389 33.9896 157.397C33.9982 157.406 34.0097 157.411 34.0218 157.411C34.0482 157.422 34.0765 157.428 34.1052 157.428C34.1339 157.428 34.1623 157.422 34.1887 157.411L40.256 153.899C40.3661 153.847 40.4866 153.819 40.6087 153.819C40.7307 153.819 40.8512 153.847 40.9613 153.899C41.0062 153.911 41.0458 153.938 41.074 153.975C41.1022 154.012 41.1174 154.057 41.1174 154.104C41.1174 154.15 41.1022 154.196 41.074 154.233C41.0458 154.27 41.0062 154.296 40.9613 154.309L34.894 157.82C34.6507 157.943 34.3818 158.008 34.109 158.008C33.8363 158.008 33.5674 157.943 33.3241 157.82C32.8842 157.562 32.8842 157.16 33.3241 156.91L41.5908 152.14C42.0291 151.917 42.5137 151.801 43.0053 151.801C43.4968 151.801 43.9814 151.917 44.4197 152.14C45.1781 152.595 45.1781 153.33 44.4197 153.778L34.5072 159.504C33.8005 159.862 33.0193 160.048 32.2272 160.046C31.4351 160.045 30.6546 159.856 29.9491 159.496Z" fill="#1DA2B4"/>
<path d="M43.7223 152.284C43.5008 152.173 43.2567 152.116 43.0093 152.116C42.7619 152.116 42.5179 152.173 42.2964 152.284L34.0297 157.062C34.0176 157.062 34.006 157.067 33.9975 157.075C33.989 157.084 33.9842 157.095 33.9842 157.107C33.9842 157.119 33.989 157.131 33.9975 157.139C34.006 157.148 34.0176 157.153 34.0297 157.153C34.056 157.164 34.0844 157.17 34.1131 157.17C34.1418 157.17 34.1701 157.164 34.1965 157.153L40.2639 153.641C40.3389 153.611 40.4183 153.593 40.499 153.588L42.2888 152.549C42.5103 152.439 42.7544 152.382 43.0018 152.382C43.2492 152.382 43.4932 152.439 43.7147 152.549C43.8304 152.608 43.9198 152.708 43.965 152.83C44.0026 152.725 43.9984 152.61 43.9531 152.508C43.9079 152.406 43.8252 152.326 43.7223 152.284Z" fill="#084C94"/>
<path d="M33.3317 157.82C33.575 157.943 33.8439 158.008 34.1167 158.008C34.3894 158.008 34.6584 157.943 34.9017 157.82L40.969 154.309C41.1283 154.218 41.151 154.081 41.0524 153.975C41.0278 154.001 40.9998 154.024 40.969 154.043L34.9017 157.555C34.6584 157.678 34.3894 157.742 34.1167 157.742C33.8439 157.742 33.575 157.678 33.3317 157.555C33.2013 157.486 33.0993 157.373 33.0435 157.236C32.9677 157.433 33.0511 157.653 33.3317 157.82Z" fill="#084C94"/>
<path d="M45.9519 151.032C45.184 150.645 44.3358 150.443 43.4757 150.443C42.6156 150.443 41.7674 150.645 40.9995 151.032L30.6471 157.009C30.4442 157.091 30.2734 157.237 30.16 157.424C30.0465 157.611 29.9966 157.83 30.0176 158.048C30.0594 157.882 30.1376 157.728 30.2465 157.597C30.3555 157.466 30.4923 157.361 30.6471 157.289L40.9995 151.305C41.7669 150.916 42.6153 150.713 43.4757 150.713C44.3362 150.713 45.1845 150.916 45.9519 151.305C46.2114 151.425 46.4384 151.606 46.6139 151.831C46.7894 152.057 46.9083 152.321 46.9606 152.602C46.9712 152.269 46.8804 151.941 46.7003 151.66C46.5202 151.38 46.2592 151.161 45.9519 151.032Z" fill="#084C94"/>
<path d="M46.6722 154.301L37.4195 159.61C37.3107 159.667 37.1897 159.697 37.0668 159.697C36.9439 159.697 36.8229 159.667 36.7141 159.61C36.6845 159.59 36.6566 159.567 36.6307 159.542C36.5321 159.648 36.5549 159.784 36.7141 159.883C36.8243 159.936 36.9448 159.963 37.0668 159.963C37.1888 159.963 37.3093 159.936 37.4195 159.883L46.6722 154.574C47.0559 154.409 47.3828 154.135 47.612 153.786C47.8412 153.436 47.9628 153.028 47.9615 152.61C47.9006 152.975 47.7513 153.321 47.5266 153.615C47.3019 153.91 47.0086 154.146 46.6722 154.301Z" fill="#084C94"/>
<path d="M44.9886 152.83C44.9518 152.977 44.8832 153.115 44.7875 153.232C44.6919 153.35 44.5715 153.446 44.435 153.512L34.5073 159.238C33.8022 159.596 33.0227 159.783 32.232 159.783C31.4414 159.783 30.6618 159.596 29.9568 159.238C29.7144 159.128 29.5015 158.962 29.3354 158.754C29.1694 158.545 29.0548 158.301 29.0011 158.04C28.9892 158.348 29.0713 158.652 29.2366 158.913C29.4019 159.173 29.6425 159.376 29.9264 159.496C30.6315 159.854 31.411 160.04 32.2017 160.04C32.9923 160.04 33.7718 159.854 34.4769 159.496L44.4046 153.77C44.5911 153.698 44.749 153.568 44.8544 153.398C44.9598 153.228 45.0069 153.029 44.9886 152.83Z" fill="#084C94"/>
<path opacity="0.2" d="M48.8415 143.122C50.1005 142.364 50.108 141.218 48.8415 140.49L38.4815 134.514C37.4965 134.015 36.4079 133.755 35.3037 133.755C34.1995 133.755 33.1109 134.015 32.1259 134.514C30.3664 135.53 30.3588 137.176 32.1259 138.185L41.3786 143.494C41.4874 143.551 41.6084 143.581 41.7313 143.581C41.8542 143.581 41.9752 143.551 42.084 143.494C42.1288 143.481 42.1684 143.455 42.1966 143.418C42.2248 143.381 42.2401 143.335 42.2401 143.289C42.2401 143.242 42.2248 143.197 42.1966 143.16C42.1684 143.123 42.1288 143.096 42.084 143.084L32.7933 137.783C31.4358 137.024 31.4434 135.72 32.7933 134.931C33.5608 134.542 34.4091 134.339 35.2696 134.339C36.13 134.339 36.9784 134.542 37.7458 134.931L48.1058 140.915C48.295 140.981 48.459 141.103 48.5751 141.267C48.6913 141.43 48.7536 141.625 48.7536 141.825C48.7536 142.025 48.6913 142.221 48.5751 142.384C48.459 142.547 48.295 142.67 48.1058 142.735C47.6165 142.982 47.0762 143.11 46.5283 143.11C45.9804 143.11 45.4401 142.982 44.9508 142.735L35.0686 136.994C34.6742 136.774 34.6818 136.402 35.0686 136.175C35.2882 136.063 35.5312 136.005 35.7777 136.005C36.0242 136.005 36.2672 136.063 36.4868 136.175L44.7612 140.968C44.7733 140.968 44.7848 140.973 44.7934 140.981C44.8019 140.99 44.8067 141.002 44.8067 141.014C44.8067 141.026 44.8019 141.037 44.7934 141.046C44.7848 141.054 44.7733 141.059 44.7612 141.059C44.7373 141.074 44.7097 141.082 44.6816 141.082C44.6534 141.082 44.6259 141.074 44.6019 141.059L38.5346 137.548C38.4258 137.49 38.3048 137.461 38.1819 137.461C38.059 137.461 37.938 137.49 37.8292 137.548C37.7873 137.562 37.7509 137.589 37.7251 137.625C37.6993 137.661 37.6855 137.704 37.6855 137.749C37.6855 137.793 37.6993 137.836 37.7251 137.872C37.7509 137.908 37.7873 137.935 37.8292 137.95L43.8966 141.461C44.1399 141.584 44.4088 141.649 44.6816 141.649C44.9543 141.649 45.2232 141.584 45.4665 141.461C45.5629 141.43 45.6471 141.369 45.7068 141.288C45.7665 141.206 45.7986 141.107 45.7986 141.006C45.7986 140.905 45.7665 140.806 45.7068 140.724C45.6471 140.643 45.5629 140.582 45.4665 140.551L37.2073 135.781C36.7672 135.56 36.2815 135.445 35.7891 135.445C35.2966 135.445 34.811 135.56 34.3709 135.781C33.6124 136.236 33.6124 136.971 34.3709 137.419L44.291 143.145C44.9978 143.499 45.7783 143.682 46.5689 143.678C47.3596 143.674 48.1382 143.483 48.8415 143.122Z" fill="#92B4D1"/>
<path d="M48.8415 142.796C50.1005 142.037 50.108 140.892 48.8415 140.164L38.4815 134.188C37.4965 133.689 36.4079 133.429 35.3037 133.429C34.1995 133.429 33.1109 133.689 32.1259 134.188C30.3664 135.204 30.3588 136.85 32.1259 137.859L41.3711 143.243C41.4798 143.3 41.6009 143.33 41.7237 143.33C41.8466 143.33 41.9676 143.3 42.0764 143.243C42.1212 143.231 42.1608 143.204 42.189 143.167C42.2172 143.13 42.2325 143.085 42.2325 143.039C42.2325 142.992 42.2172 142.947 42.189 142.91C42.1608 142.873 42.1212 142.846 42.0764 142.834L32.8237 137.525C31.4661 136.766 31.4737 135.454 32.8237 134.666C33.5906 134.275 34.4391 134.071 35.2999 134.071C36.1607 134.071 37.0092 134.275 37.7761 134.666L48.1362 140.642C48.3253 140.708 48.4894 140.83 48.6055 140.993C48.7216 141.157 48.784 141.352 48.784 141.552C48.784 141.752 48.7216 141.948 48.6055 142.111C48.4894 142.274 48.3253 142.397 48.1362 142.462C47.6469 142.709 47.1066 142.837 46.5586 142.837C46.0107 142.837 45.4704 142.709 44.9811 142.462L35.0686 136.668C34.6742 136.448 34.6818 136.076 35.0686 135.849C35.2882 135.737 35.5312 135.679 35.7777 135.679C36.0242 135.679 36.2672 135.737 36.4868 135.849L44.7536 140.619C44.7657 140.619 44.7772 140.624 44.7858 140.633C44.7943 140.641 44.7991 140.653 44.7991 140.665C44.7991 140.677 44.7943 140.688 44.7858 140.697C44.7772 140.705 44.7657 140.71 44.7536 140.71C44.7297 140.725 44.7021 140.733 44.674 140.733C44.6458 140.733 44.6183 140.725 44.5943 140.71L38.527 137.199C38.4182 137.142 38.2972 137.112 38.1743 137.112C38.0515 137.112 37.9304 137.142 37.8217 137.199C37.6321 137.313 37.6245 137.495 37.8217 137.601L43.889 141.112C44.1323 141.235 44.4012 141.3 44.674 141.3C44.9467 141.3 45.2156 141.235 45.4589 141.112C45.5554 141.081 45.6395 141.021 45.6992 140.939C45.7589 140.857 45.791 140.758 45.791 140.657C45.791 140.556 45.7589 140.457 45.6992 140.375C45.6395 140.294 45.5554 140.233 45.4589 140.202L37.1998 135.432C36.7601 135.209 36.2743 135.093 35.7815 135.093C35.2887 135.093 34.8029 135.209 34.3633 135.432C34.191 135.487 34.0408 135.596 33.9343 135.743C33.8277 135.889 33.7704 136.066 33.7704 136.247C33.7704 136.428 33.8277 136.604 33.9343 136.751C34.0408 136.897 34.191 137.006 34.3633 137.062L44.2834 142.796C44.99 143.153 45.7707 143.339 46.5624 143.339C47.3542 143.339 48.1349 143.153 48.8415 142.796Z" fill="#89C7C9"/>
<path d="M48.1511 140.339L37.7911 134.355C37.0236 133.966 36.1753 133.763 35.3148 133.763C34.4544 133.763 33.606 133.966 32.8386 134.355C32.5415 134.483 32.288 134.694 32.109 134.963C31.9299 135.233 31.8329 135.548 31.8299 135.872C31.88 135.588 31.9979 135.32 32.1735 135.092C32.3491 134.863 32.5773 134.681 32.8386 134.559C33.606 134.17 34.4544 133.968 35.3148 133.968C36.1753 133.968 37.0236 134.17 37.7911 134.559L48.1511 140.536C48.3052 140.608 48.4415 140.714 48.5503 140.845C48.6591 140.976 48.7377 141.129 48.7805 141.294C48.7817 141.091 48.7225 140.891 48.6105 140.721C48.4984 140.551 48.3386 140.418 48.1511 140.339Z" fill="#3F92D1"/>
<path d="M35.0686 135.849C35.2882 135.737 35.5312 135.679 35.7777 135.679C36.0242 135.679 36.2672 135.737 36.4868 135.849L38.3677 136.933C38.4132 136.933 38.4739 136.933 38.5118 136.933L44.5792 140.445C44.6031 140.46 44.6307 140.467 44.6588 140.467C44.6869 140.467 44.7145 140.46 44.7384 140.445C44.7505 140.445 44.7621 140.44 44.7706 140.431C44.7791 140.423 44.7839 140.411 44.7839 140.399C44.7839 140.387 44.7791 140.376 44.7706 140.367C44.7621 140.359 44.7505 140.354 44.7384 140.354L36.4717 135.576C36.2515 135.466 36.0087 135.408 35.7625 135.408C35.5164 135.408 35.2736 135.466 35.0534 135.576C34.8031 135.72 34.7273 135.917 34.7956 136.107C34.8537 135.991 34.9503 135.9 35.0686 135.849Z" fill="#3F92D1"/>
<path d="M45.4663 140.885C45.223 141.008 44.9541 141.072 44.6813 141.072C44.4086 141.072 44.1397 141.008 43.8964 140.885L37.829 137.373C37.7899 137.354 37.7561 137.325 37.7304 137.29C37.647 137.396 37.6773 137.525 37.829 137.608L43.8964 141.12C44.1397 141.243 44.4086 141.307 44.6813 141.307C44.9541 141.307 45.223 141.243 45.4663 141.12C45.5765 141.076 45.6667 140.993 45.7198 140.886C45.7729 140.78 45.7853 140.658 45.7545 140.543C45.7028 140.688 45.6004 140.809 45.4663 140.885Z" fill="#3F92D1"/>
<path d="M42.1749 142.887C42.1492 142.922 42.1154 142.951 42.0763 142.97C41.9676 143.027 41.8465 143.057 41.7237 143.057C41.6008 143.057 41.4798 143.027 41.371 142.97L32.1183 137.631C31.7814 137.473 31.4884 137.235 31.2649 136.937C31.0415 136.64 30.8944 136.292 30.8366 135.925C30.8372 136.338 30.9589 136.742 31.1867 137.087C31.4144 137.432 31.7383 137.703 32.1183 137.866L41.371 143.243C41.4798 143.3 41.6008 143.33 41.7237 143.33C41.8465 143.33 41.9676 143.3 42.0763 143.243C42.228 143.122 42.2584 142.993 42.1749 142.887Z" fill="#3F92D1"/>
<path d="M48.8414 142.561C48.1363 142.919 47.3568 143.105 46.5661 143.105C45.7755 143.105 44.996 142.919 44.2909 142.561L34.3632 136.842C34.2241 136.774 34.1018 136.677 34.0048 136.556C33.9078 136.435 33.8385 136.295 33.8019 136.145C33.7837 136.34 33.8283 136.535 33.9293 136.703C34.0303 136.871 34.1823 137.002 34.3632 137.077L44.2833 142.811C44.9889 143.167 45.7682 143.352 46.5585 143.352C47.3489 143.352 48.1282 143.167 48.8338 142.811C49.1154 142.694 49.3551 142.494 49.5215 142.238C49.6879 141.983 49.7734 141.683 49.7667 141.378C49.7156 141.633 49.6054 141.874 49.4447 142.079C49.284 142.285 49.0774 142.45 48.8414 142.561Z" fill="#3F92D1"/>
<path opacity="0.2" d="M54.2866 145.723C52.6484 145.974 50.7751 145.473 50.1229 144.601L44.6774 137.404C43.7597 136.19 44.8746 134.916 47.165 134.567C49.4555 134.218 52.0568 134.908 52.9821 136.122L57.8208 142.553C57.9194 142.69 57.8208 142.826 57.5402 142.872C57.4266 142.894 57.3094 142.89 57.1977 142.859C57.0859 142.829 56.9826 142.774 56.8956 142.697L52.0568 136.266C51.3439 135.318 49.3114 134.749 47.5063 135.052C45.7013 135.356 44.8595 136.319 45.5724 137.267L51.0178 144.464C51.4729 145.064 52.7622 145.412 53.8998 145.223C55.0374 145.033 55.5835 144.411 55.1284 143.812L49.9181 136.918C49.7424 136.763 49.5332 136.651 49.3068 136.591C49.0805 136.53 48.8432 136.523 48.6136 136.569C48.0979 136.645 47.8552 136.933 48.06 137.206L52.3981 142.948C52.418 142.966 52.4424 142.98 52.469 142.986C52.4956 142.993 52.5234 142.993 52.5498 142.985C52.6105 142.985 52.6332 142.948 52.6105 142.917L49.4782 138.693C49.3796 138.556 49.4782 138.42 49.7513 138.374C49.8649 138.352 49.9821 138.356 50.0938 138.387C50.2056 138.417 50.3089 138.472 50.3959 138.549L53.5889 142.773C53.8164 143.076 53.5433 143.387 52.9745 143.478C52.7219 143.527 52.4615 143.518 52.2131 143.451C51.9647 143.384 51.7349 143.261 51.5411 143.092L47.1954 137.35C46.7934 136.804 47.2864 136.236 48.3027 136.084C48.759 135.992 49.2303 136.007 49.6801 136.126C50.1298 136.246 50.546 136.468 50.8965 136.774L56.1068 143.668C56.7287 144.555 55.9324 145.473 54.2866 145.723Z" fill="#92B4D1"/>
<path d="M54.2866 145.397C52.6484 145.648 50.7751 145.147 50.1229 144.282L44.6774 137.085C43.7597 135.864 44.8746 134.59 47.165 134.241C49.4555 133.892 52.0568 134.582 52.9821 135.796L57.8208 142.227C57.9194 142.364 57.8208 142.5 57.5402 142.546C57.4266 142.568 57.3094 142.563 57.1977 142.533C57.0859 142.503 56.9826 142.448 56.8956 142.371L52.0341 135.94C51.3212 134.992 49.2886 134.423 47.4836 134.726C45.6785 135.03 44.8367 135.993 45.5496 136.941L50.9951 144.138C51.4501 144.737 52.7394 145.086 53.8771 144.897C55.0147 144.707 55.5607 144.085 55.1057 143.486L49.8954 136.592C49.7196 136.437 49.5104 136.325 49.2841 136.264C49.0578 136.204 48.8205 136.197 48.5909 136.243C48.0752 136.319 47.8325 136.607 48.0372 136.88L52.3754 142.621C52.3953 142.64 52.4197 142.654 52.4463 142.66C52.4728 142.667 52.5007 142.667 52.5271 142.659C52.5877 142.659 52.6105 142.621 52.5877 142.591L49.4782 138.382C49.3796 138.245 49.4782 138.109 49.7513 138.063C49.8649 138.041 49.9821 138.046 50.0938 138.076C50.2056 138.106 50.3089 138.161 50.3959 138.238L53.5509 142.485C53.7785 142.788 53.5054 143.099 52.9366 143.19C52.684 143.239 52.4236 143.23 52.1752 143.163C51.9268 143.096 51.697 142.973 51.5032 142.803L47.1575 137.062C46.7555 136.516 47.2485 135.947 48.2648 135.796C48.7211 135.704 49.1924 135.719 49.6421 135.838C50.0919 135.958 50.5081 136.18 50.8585 136.486L56.0689 143.38C56.7287 144.229 55.9324 145.147 54.2866 145.397Z" fill="#1DA2B4"/>
<path d="M49.4784 138.154C49.4584 138.164 49.4409 138.179 49.4271 138.196C49.4132 138.214 49.4034 138.234 49.3984 138.256C49.3933 138.277 49.3931 138.3 49.3978 138.322C49.4024 138.344 49.4118 138.364 49.4253 138.382L52.459 142.356C52.5005 142.372 52.5464 142.372 52.5879 142.356C52.6486 142.356 52.6714 142.318 52.6486 142.288L49.4784 138.154Z" fill="#084C94"/>
<path d="M55.1515 143.243L49.9411 136.349C49.7654 136.194 49.5562 136.082 49.3299 136.022C49.1035 135.961 48.8663 135.954 48.6367 136C48.1513 136.076 47.9162 136.334 48.0678 136.6C48.1345 136.51 48.2201 136.437 48.3184 136.384C48.4167 136.332 48.5254 136.302 48.6367 136.296C48.8663 136.25 49.1035 136.257 49.3299 136.317C49.5562 136.378 49.7654 136.49 49.9411 136.645L55.1515 143.539C55.2123 143.621 55.2562 143.713 55.2804 143.812C55.3064 143.714 55.3082 143.611 55.2858 143.512C55.2633 143.413 55.2173 143.321 55.1515 143.243Z" fill="#084C94"/>
<path d="M57.821 142.159C57.7533 142.206 57.6754 142.238 57.5935 142.25C57.4798 142.272 57.3626 142.268 57.2509 142.237C57.1391 142.207 57.0358 142.152 56.9488 142.075L52.057 135.659C51.3441 134.711 49.3115 134.142 47.5065 134.446C46.0579 134.666 45.2312 135.371 45.3526 136.129C45.4663 135.492 46.2551 134.939 47.5065 134.741C49.2888 134.468 51.2986 135.007 52.057 135.955L56.9185 142.386C57.0055 142.463 57.1088 142.518 57.2206 142.548C57.3323 142.579 57.4495 142.583 57.5631 142.561C57.821 142.515 57.9423 142.379 57.8437 142.242L57.821 142.159Z" fill="#084C94"/>
<path d="M47.1576 137.039L51.5033 142.781C51.6959 142.952 51.9256 143.076 52.1744 143.143C52.4232 143.21 52.6842 143.219 52.9367 143.167C53.4676 143.084 53.6951 142.803 53.5738 142.523C53.5004 142.625 53.4051 142.709 53.2948 142.77C53.1846 142.83 53.0622 142.865 52.9367 142.872C52.6841 142.921 52.4237 142.911 52.1753 142.844C51.9269 142.777 51.6971 142.654 51.5033 142.485L47.1576 136.744C47.1077 136.674 47.0693 136.598 47.0438 136.516C47.0209 136.606 47.0192 136.7 47.039 136.791C47.0587 136.882 47.0993 136.967 47.1576 137.039Z" fill="#084C94"/>
<path d="M54.287 145.101C52.6488 145.352 50.7755 144.851 50.1232 143.979L44.6778 136.789C44.5119 136.568 44.4097 136.306 44.382 136.031C44.36 136.214 44.3748 136.399 44.4256 136.576C44.4764 136.754 44.5621 136.919 44.6778 137.062L50.1232 144.26C50.7755 145.124 52.6488 145.625 54.287 145.374C55.6369 145.17 56.3954 144.517 56.274 143.812C56.1678 144.419 55.4398 144.927 54.287 145.101Z" fill="#084C94"/>
</g>
<path opacity="0.2" d="M187.305 148.064C178.259 161.633 141.732 164.682 124.6 164.511L150.298 123.907H175.997C183.536 126.306 196.351 134.495 187.305 148.064Z" fill="url(#paint1_linear_91_546)"/>
<path d="M170.25 76.2681C154.183 67.1724 138.472 51.6653 125.331 31.9347L125.153 31.8329C111.987 36.3871 96.2758 33.7538 80.209 24.2893L79.5347 23.9076L80.3998 53.9297C83.4529 100.464 99.3162 120.716 124.924 163.981L125.547 164.337C151.091 150.573 166.968 148.639 170.071 105.629L170.937 76.6116L170.25 76.2681Z" fill="#A8CFF0" stroke="black" stroke-width="0.5" stroke-miterlimit="10"/>
<path d="M179.306 69.3604C163.24 60.2648 147.503 44.7577 134.362 25.0016L134.184 24.8999C121.018 29.4541 105.32 26.8208 89.2531 17.3689L88.6298 17L79.725 24.0094L80.1575 24.2638C96.2243 33.7284 111.96 36.3617 125.101 31.8075L125.33 31.9347C138.497 51.6907 154.208 67.1978 170.274 76.2935L170.885 76.637L170.02 105.654C168.023 133.73 160.568 144.301 148.534 152.086C163.57 143.182 176.839 130.308 179.065 98.7464L179.93 69.7294L179.306 69.3604Z" fill="#D1EBFF" stroke="black" stroke-width="0.5" stroke-miterlimit="10"/>
<path d="M179.917 69.7039L179.307 69.3605C163.24 60.2648 147.504 44.7577 134.363 25.0016L134.185 24.8999L125.127 31.8075L125.331 31.9347C138.497 51.6907 154.208 67.1979 170.275 76.2935L170.885 76.637L179.917 69.7039Z" fill="#D1EBFF" stroke="black" stroke-width="0.25" stroke-miterlimit="10"/>
<path d="M170.86 76.6115L169.995 105.629C167.997 133.704 160.543 144.276 148.508 152.061C163.545 143.156 176.813 130.282 179.039 98.721L179.904 69.7039L170.86 76.6115Z" fill="#72B5E8" stroke="black" stroke-width="0.25" stroke-miterlimit="10"/>
<path d="M122.036 144.288C102.203 111.391 92.2554 94.841 89.8257 58.7382L89.2787 39.7837C102 45.5464 114.225 47.4164 125.216 45.1902C136.207 60.074 148.42 72.3372 161.141 81.2802L160.594 99.5987C158.189 132.928 148.216 137.953 128.384 147.939L125.216 149.542L122.036 144.288Z" fill="#006177"/>
<path style="mix-blend-mode:multiply" d="M147.781 134.39C160.882 126.731 160.746 102.124 147.478 79.427C134.21 56.7304 112.834 44.5399 99.7325 52.1987C86.6313 59.8574 86.7666 84.4653 100.035 107.162C113.303 129.858 134.679 142.049 147.781 134.39Z" fill="url(#paint2_radial_91_546)"/>
<path d="M130.012 146.515L126.844 148.13C125.763 146.336 124.707 144.568 123.664 142.851C103.832 109.954 93.8582 93.4035 91.4539 57.3771L90.9832 40.5215L89.2912 39.7837L89.8383 58.7382C92.2426 94.841 102.216 111.391 122.048 144.288L125.229 149.555L128.396 147.952C136.487 143.881 142.937 140.625 147.911 135.943C143.14 139.874 137.25 142.876 130.012 146.515Z" fill="#001A46"/>
<path d="M171.191 75.5302C155.06 66.4091 139.286 50.8384 126.069 31.006L125.891 30.8915C112.673 35.4712 96.899 32.8252 80.8067 23.3224L80.2088 23.9458C96.3139 33.4103 112.012 36.0436 125.255 31.4767L125.433 31.5785C138.65 51.4108 154.424 66.9816 170.555 76.1027L171.127 76.4589L170.249 105.603C168.596 128.997 163.164 140.281 154.45 147.914C163.558 140.281 169.232 129.01 170.924 105.018L171.801 75.8864L171.191 75.5302Z" fill="white"/>
<path d="M106.529 137.381C88.7193 127.089 74.2298 102.105 74.2298 81.6619C74.2298 71.663 77.6518 64.1957 83.8471 60.6083C90.0423 57.0209 98.3874 57.8096 107.165 62.8727C110.258 64.6925 113.156 66.8238 115.815 69.2333L114.963 70.1746C112.369 67.836 109.543 65.7686 106.529 64.0048C98.1584 59.1708 90.3349 58.3694 84.4831 61.7405C78.6314 65.1116 75.5019 72.1719 75.5019 81.6873C75.5019 101.723 89.7115 126.212 107.165 136.299L106.529 137.381Z" fill="#1DA2B4"/>
<path d="M109.01 137.953C109.01 138.996 108.246 139.454 107.407 138.971C106.958 138.663 106.593 138.248 106.344 137.764C106.095 137.28 105.971 136.742 105.982 136.198C105.982 135.155 106.745 134.697 107.585 135.18C108.035 135.487 108.4 135.901 108.649 136.386C108.898 136.87 109.022 137.409 109.01 137.953Z" fill="#1DA2B4"/>
<path d="M117.087 71.0142L112.164 69.7421C112.001 69.7028 111.86 69.6005 111.771 69.4575C111.683 69.3145 111.655 69.1424 111.694 68.9788C111.736 68.8145 111.84 68.6732 111.986 68.5852C112.131 68.4972 112.304 68.4696 112.47 68.5082L115.014 69.1569L114.098 66.6763C114.057 66.5966 114.034 66.5091 114.029 66.4197C114.024 66.3302 114.039 66.2408 114.071 66.1573C114.103 66.0738 114.153 65.998 114.217 65.935C114.28 65.872 114.356 65.8231 114.44 65.7916C114.524 65.76 114.614 65.7465 114.703 65.752C114.792 65.7574 114.88 65.7817 114.959 65.8232C115.038 65.8647 115.108 65.9224 115.163 65.9927C115.219 66.063 115.259 66.1442 115.281 66.2311L117.087 71.0142Z" fill="#1DA2B4"/>
<path d="M89.0882 87.8062C89.4317 75.085 98.7055 69.9965 110.066 76.5607C115.917 79.9445 121.209 85.7581 125.026 92.4113L129.224 91.3554C124.44 82.6923 117.698 75.0468 110.066 70.6835C95.7669 62.4656 84.1143 68.9534 83.9362 85.2111L87.2946 88.2642L89.0882 87.8062Z" fill="#F5B500"/>
<path d="M120.599 127.585C116.885 127.759 113.208 126.786 110.066 124.799C99.3036 118.566 90.4115 104.089 89.203 91.4063L84.1145 88.8621C84.1145 88.9511 82.3971 89.3073 82.4098 89.3963C83.8855 105.183 96.7085 122.968 110.104 130.702C114.976 133.513 118.271 134.989 122.176 134.518C122.342 134.518 123.766 134.086 123.932 134.073L120.599 127.585Z" fill="#F5B500"/>
<path d="M127.01 96.2531C129.533 101.411 130.921 107.051 131.081 112.791C131.081 120.423 127.977 125.41 123.155 127.051L126.399 133.412C132.378 131.364 136.207 125.143 136.207 115.691C136.001 108.553 134.266 101.543 131.119 95.1336L127.01 96.2531Z" fill="#F5B500"/>
<path d="M117.278 106.824C115.822 105.562 114.58 104.071 113.602 102.41C112.991 101.392 113.004 100.286 113.602 99.9422C114.426 99.4482 115.083 98.7166 115.484 97.8432C116.133 98.0213 116.935 97.8432 116.935 96.9018C116.933 96.0146 116.597 95.1605 115.993 94.5103C116.035 92.4008 115.506 90.3192 114.462 88.4854C113.419 86.6516 111.9 85.1335 110.065 84.0916C109.013 83.3486 107.738 82.9893 106.452 83.0739C106.249 83.0739 104.493 83.5827 104.315 83.6718C103.119 84.2697 104.226 85.5673 104.137 87.6535C103.603 87.539 103.196 88.0606 103.196 88.9257C103.347 89.9455 103.862 90.8762 104.646 91.5462C105.115 93.0316 105.746 94.4607 106.529 95.8078C107.127 96.8382 107.139 97.9704 106.529 98.3521C105.372 98.8857 104.052 98.945 102.852 98.5174C102.35 98.3672 101.815 98.3672 101.313 98.5174C101.186 98.5174 99.5956 98.9627 99.4811 99.0136C98.6542 99.4334 99.5956 100.031 99.5956 101.431V105.425C99.6234 105.851 99.7535 106.265 99.975 106.63C100.196 106.996 100.503 107.302 100.868 107.524L117.952 118.833C118.245 119.011 119.924 118.413 120.14 118.324C120.289 118.251 120.41 118.133 120.488 117.987C120.566 117.841 120.595 117.674 120.573 117.51V113.439C120.494 112.172 120.162 110.934 119.596 109.798C119.03 108.662 118.242 107.651 117.278 106.824Z" fill="#F5B500"/>
<path d="M87.9433 88.137C88.2868 75.4158 97.5478 70.3273 108.921 76.8914C114.772 80.2625 120.064 86.0889 123.881 92.7293L128.079 91.6735C123.296 83.0103 116.426 75.3776 108.921 71.0015C94.622 62.7455 82.9693 69.2841 82.7912 85.5418L87.9433 88.137Z" fill="white"/>
<path d="M119.453 127.916C115.738 128.087 112.06 127.11 108.92 125.117C98.158 118.897 89.2659 104.446 88.0574 91.7243L82.9689 89.1801C84.3428 105.031 95.4739 123.235 108.958 131.02C114.047 133.946 118.766 135.015 122.774 134.442L119.453 127.916Z" fill="white"/>
<path d="M125.865 96.5838C128.389 101.742 129.777 107.381 129.936 113.121C129.936 120.754 126.832 125.741 122.011 127.382L125.254 133.742C131.221 131.694 135.062 125.461 135.062 116.022C134.857 108.884 133.121 101.874 129.974 95.4644L125.865 96.5838Z" fill="white"/>
<path d="M116.133 107.155C114.672 105.893 113.426 104.402 112.444 102.741C111.833 101.723 111.859 100.616 112.444 100.273C113.269 99.779 113.925 99.0474 114.327 98.174C114.963 98.3521 115.764 98.174 115.764 97.2326C115.767 96.3468 115.436 95.4925 114.835 94.841C114.876 92.7334 114.347 90.654 113.303 88.8224C112.26 86.9907 110.741 85.4749 108.907 84.4351C104.468 81.8908 103.145 84.3206 102.979 87.997C102.445 87.8825 102.051 88.4041 102.051 89.2691C102.202 90.289 102.717 91.2197 103.501 91.8897C103.959 93.3792 104.591 94.8096 105.384 96.1513C105.969 97.1817 105.994 98.3139 105.384 98.6319C104.222 99.1676 102.896 99.2224 101.694 98.7846C99.8371 98.2249 98.4505 99.357 98.4505 101.647V105.718C98.4833 106.143 98.6156 106.554 98.8365 106.919C99.0575 107.283 99.361 107.591 99.7226 107.817L118.168 118.439C118.843 118.833 119.44 118.515 119.44 117.752V113.77C119.361 112.502 119.028 111.263 118.46 110.126C117.891 108.99 117.1 107.979 116.133 107.155Z" fill="white"/>
<path d="M87.282 88.3023C87.6382 75.5811 96.8992 70.4926 108.259 77.0568C114.111 80.4279 119.416 86.2542 123.219 92.8946L127.417 91.8388C122.634 83.1756 115.828 75.5429 108.259 71.1668C93.9606 62.9108 82.308 69.4367 82.079 85.7072L87.282 88.3023Z" fill="#FFD70F"/>
<path d="M118.792 128.082C115.077 128.251 111.4 127.274 108.259 125.283C97.497 119.062 88.6049 104.585 87.3964 91.9024L82.3079 89.3582C83.6436 105.171 94.8001 123.375 108.259 131.16C113.348 134.086 118.067 135.155 122.087 134.582L118.792 128.082Z" fill="#FFD70F"/>
<path d="M125.203 96.8128C127.727 101.971 129.115 107.61 129.274 113.35C129.274 120.983 126.17 125.97 121.348 127.611L124.592 133.971C130.571 131.923 134.4 125.69 134.4 116.238C134.213 109.109 132.499 102.104 129.376 95.6934L125.203 96.8128Z" fill="#FFD70F"/>
<path d="M115.472 107.321C114.022 106.052 112.781 104.562 111.796 102.906C111.185 101.889 111.211 100.782 111.796 100.438C112.621 99.9444 113.277 99.2127 113.679 98.3393C114.327 98.5174 115.129 98.3393 115.129 97.3852C115.128 96.5016 114.791 95.6514 114.187 95.0064C114.228 92.9003 113.7 90.8223 112.659 88.991C111.618 87.1597 110.102 85.643 108.272 84.6004C103.82 82.0562 102.497 84.4859 102.344 88.1624C101.81 88.0479 101.403 88.5694 101.403 89.4345C101.554 90.4543 102.069 91.385 102.853 92.0551C103.322 93.5404 103.953 94.9696 104.736 96.3167C105.333 97.3471 105.346 98.4793 104.736 98.8609C103.579 99.3972 102.256 99.4521 101.059 99.0136C99.1891 98.4538 97.8025 99.5733 97.8025 101.876V105.845C97.8333 106.27 97.9648 106.683 98.1859 107.047C98.4071 107.412 98.7116 107.72 99.0746 107.944L117.558 118.617C118.233 119.011 118.831 118.693 118.831 117.917V113.936C118.745 112.664 118.404 111.422 117.827 110.285C117.249 109.149 116.449 108.14 115.472 107.321Z" fill="#FFD70F"/>
<defs>
<filter id="filter0_d_91_546" x="32.2889" y="103.348" width="39.1855" height="24.8686" filterUnits="userSpaceOnUse" color-interpolation-filters="sRGB">
<feFlood flood-opacity="0" result="BackgroundImageFix"/>
<feColorMatrix in="SourceAlpha" type="matrix" values="0 0 0 0 0 0 0 0 0 0 0 0 0 0 0 0 0 0 127 0" result="hardAlpha"/>
<feOffset dy="1"/>
<feGaussianBlur stdDeviation="0.5"/>
<feComposite in2="hardAlpha" operator="out"/>
<feColorMatrix type="matrix" values="0 0 0 0 0 0 0 0 0 0 0 0 0 0 0 0 0 0 0.2 0"/>
<feBlend mode="normal" in2="BackgroundImageFix" result="effect1_dropShadow_91_546"/>
<feBlend mode="normal" in="SourceGraphic" in2="effect1_dropShadow_91_546" result="shape"/>
</filter>
<filter id="filter1_d_91_546" x="28" y="132.429" width="30.8779" height="28.883" filterUnits="userSpaceOnUse" color-interpolation-filters="sRGB">
<feFlood flood-opacity="0" result="BackgroundImageFix"/>
<feColorMatrix in="SourceAlpha" type="matrix" values="0 0 0 0 0 0 0 0 0 0 0 0 0 0 0 0 0 0 127 0" result="hardAlpha"/>
<feOffset/>
<feGaussianBlur stdDeviation="0.5"/>
<feComposite in2="hardAlpha" operator="out"/>
<feColorMatrix type="matrix" values="0 0 0 0 0 0 0 0 0 0 0 0 0 0 0 0 0 0 0.2 0"/>
<feBlend mode="normal" in2="BackgroundImageFix" result="effect1_dropShadow_91_546"/>
<feBlend mode="normal" in="SourceGraphic" in2="effect1_dropShadow_91_546" result="shape"/>
</filter>
<linearGradient id="paint0_linear_91_546" x1="228.937" y1="174.791" x2="239.216" y2="174.277" gradientUnits="userSpaceOnUse">
<stop/>
<stop offset="1" stop-opacity="0"/>
</linearGradient>
<linearGradient id="paint1_linear_91_546" x1="127.169" y1="165.025" x2="192.958" y2="138.812" gradientUnits="userSpaceOnUse">
<stop/>
<stop offset="1" stop-opacity="0"/>
</linearGradient>
<radialGradient id="paint2_radial_91_546" cx="0" cy="0" r="1" gradientUnits="userSpaceOnUse" gradientTransform="translate(85.4591 107.561) rotate(-150.197) scale(29.6531 25.4742)">
<stop offset="0.06" stop-color="#92A3B0"/>
<stop offset="1" stop-color="white"/>
</radialGradient>
</defs>
</svg>
