<svg width="20" height="21" viewBox="0 0 20 21" fill="none" xmlns="http://www.w3.org/2000/svg">
<g clip-path="url(#clip0_610_15204)">
<path fill-rule="evenodd" clip-rule="evenodd" d="M19.6 11.2254C19.6 10.5163 19.5364 9.83448 19.4182 9.17993H10V13.0481H15.3818C15.15 14.2981 14.4455 15.3572 13.3864 16.0663V18.5754H16.6182C18.5091 16.8345 19.6 14.2708 19.6 11.2254Z" fill="white"/>
<path fill-rule="evenodd" clip-rule="evenodd" d="M9.99984 20.9979C12.6998 20.9979 14.9635 20.1025 16.618 18.5752L13.3862 16.0661C12.4907 16.6661 11.3453 17.0207 9.99984 17.0207C7.39529 17.0207 5.19075 15.2616 4.40439 12.8979H1.06348V15.4889C2.70893 18.757 6.09075 20.9979 9.99984 20.9979Z" fill="white"/>
<path fill-rule="evenodd" clip-rule="evenodd" d="M4.40455 12.898C4.20455 12.298 4.09091 11.6571 4.09091 10.998C4.09091 10.3389 4.20455 9.69799 4.40455 9.09799V6.50708H1.06364C0.386364 7.85708 0 9.38435 0 10.998C0 12.6116 0.386364 14.1389 1.06364 15.4889L4.40455 12.898Z" fill="white"/>
<path fill-rule="evenodd" clip-rule="evenodd" d="M9.99984 4.97532C11.468 4.97532 12.7862 5.47987 13.8226 6.47077L16.6907 3.60259C14.9589 1.98896 12.6953 0.998047 9.99984 0.998047C6.09075 0.998047 2.70893 3.23896 1.06348 6.50714L4.40439 9.09805C5.19075 6.73441 7.39529 4.97532 9.99984 4.97532Z" fill="white"/>
</g>
<defs>
<clipPath id="clip0_610_15204">
<rect y="0.998047" width="20" height="20" rx="6" fill="white"/>
</clipPath>
</defs>
</svg>
