<?xml version="1.0" encoding="UTF-8"?>
<svg width="700pt" height="700pt" version="1.1" viewBox="0 0 700 700" xmlns="http://www.w3.org/2000/svg">
 <path d="m186.67 140h326.66c12.887 0 23.336 10.445 23.336 23.332s-10.449 23.336-23.336 23.336h-326.66c-12.887 0-23.336-10.449-23.336-23.336s10.449-23.332 23.336-23.332zm0 116.67h326.66c12.887 0 23.336 10.445 23.336 23.332s-10.449 23.332-23.336 23.332h-326.66c-12.887 0-23.336-10.445-23.336-23.332s10.449-23.332 23.336-23.332zm0 116.66h326.66c12.887 0 23.336 10.449 23.336 23.336s-10.449 23.332-23.336 23.332h-326.66c-12.887 0-23.336-10.445-23.336-23.332s10.449-23.336 23.336-23.336z" fill-rule="evenodd"/>
</svg>
