<?xml version="1.0" encoding="UTF-8"?>
<svg width="130px" height="130px" viewBox="0 0 130 130" version="1.1" xmlns="http://www.w3.org/2000/svg" xmlns:xlink="http://www.w3.org/1999/xlink">
<title>提交建议</title>
<g id="意见反馈" stroke="none" stroke-width="1" fill="none" fill-rule="evenodd"><g id="Apple-TV" transform="translate(-432.000000, -1833.000000)"><g id="编组-26" transform="translate(432.000000, 1833.000000)"><g id="编组-31" transform="translate(38.026279, 46.000000)"><path d="M37.4737206,51.5 L37.4737206,58 C37.4737206,58.6903559 37.1938985,59.3153559 36.7414875,59.767767 C36.2890765,60.220178 35.6640765,60.5 34.9737206,60.5 L34.9737206,60.5 L16.9737206,60.5 C16.2833646,60.5 15.6583646,60.220178 15.2059536,59.767767 C14.7535426,59.3153559 14.4737206,58.6903559 14.4737206,58 L14.4737206,58 L14.4737206,51.5 L37.4737206,51.5 Z" id="矩形" stroke="#212833" stroke-width="3"/><rect id="矩形" fill="#212833" x="15.9474411" y="63" width="20" height="3" rx="1.5"/><path d="M26.5,1.5 C33.4035594,1.5 39.6535594,4.29822031 44.1776695,8.82233047 C48.6865925,13.3312535 51.4811937,19.5544984 51.4998149,26.4310944 C50.7344073,34.3650359 45.3133478,41.6373059 41.1944902,47.2587932 C40.0671066,48.7974656 39.0277827,50.2180095 38.1818738,51.5 L38.1818738,51.5 L13.8750781,51.5 C13.2154272,50.3709509 12.3882601,49.0980126 11.4709598,47.717793 L11.4709598,47.717793 L10.9503536,46.9366489 C10.8468501,46.7816571 10.742453,46.6254422 10.6372718,46.4680539 C6.70245892,40.5801815 1.5,33.0006278 1.5,26.5 C1.5,19.5964406 4.29822031,13.3464406 8.82233047,8.82233047 C13.3464406,4.29822031 19.5964406,1.5 26.5,1.5 Z" id="椭圆形" stroke="#212833" stroke-width="3"/><line x1="19.4753393" y1="43.9816203" x2="19.4753393" y2="27" id="路径-44" stroke="#1DA2B4" stroke-width="3" stroke-linecap="round"/><circle id="椭圆形" stroke="#1DA2B4" stroke-width="3" cx="15.5" cy="27.5" r="4"/><circle id="椭圆形备份-13" stroke="#1DA2B4" stroke-width="3" cx="36.5" cy="27.5" r="4"/><rect id="矩形" fill="#1DA2B4" x="15" y="30" width="22" height="3" rx="1.5"/><line x1="32.5269251" y1="43.9816203" x2="32.5269251" y2="26.5" id="路径-44备份" stroke="#1DA2B4" stroke-width="3" stroke-linecap="round"/></g><rect id="矩形" fill="#1DA2B4" x="97.0262794" y="73" width="22" height="3" rx="1.5"/><rect id="矩形备份-44" fill="#1DA2B4" x="10" y="73" width="22" height="3" rx="1.5"/><rect id="矩形备份-39" fill="#1DA2B4" transform="translate(103.980080, 50.601312) rotate(-30.000000) translate(-103.980080, -50.601312) " x="92.9800801" y="49.1013117" width="22" height="3" rx="1.5"/><rect id="矩形备份-40" fill="#1DA2B4" transform="translate(25.026279, 50.601312) scale(-1, 1) rotate(-30.000000) translate(-25.026279, -50.601312) " x="14.0262794" y="49.1013117" width="22" height="3" rx="1.5"/><rect id="矩形备份-41" fill="#1DA2B4" transform="translate(40.955093, 34.767528) scale(-1, 1) rotate(-52.000000) translate(-40.955093, -34.767528) " x="29.9550925" y="33.2675278" width="22" height="3" rx="1.5"/><rect id="矩形备份-43" fill="#1DA2B4" transform="translate(91.026279, 35.500000) rotate(-52.000000) translate(-91.026279, -35.500000) " x="80.0262794" y="34" width="22" height="3" rx="1.5"/><rect id="矩形备份-42" fill="#1DA2B4" transform="translate(64.026279, 28.500000) scale(-1, 1) rotate(-90.000000) translate(-64.026279, -28.500000) " x="53.0262794" y="27" width="22" height="3" rx="1.5"/></g></g></g></svg>

