<?xml version="1.0" encoding="UTF-8"?><svg width="130px" height="130px" viewBox="0 0 130 130" version="1.1" xmlns="http://www.w3.org/2000/svg" xmlns:xlink="http://www.w3.org/1999/xlink"><title>团队审核</title><g id="意见反馈" stroke="none" stroke-width="1" fill="none" fill-rule="evenodd"><g id="Apple-TV" transform="translate(-895.000000, -1833.000000)" stroke-width="3"><g id="编组-40" transform="translate(895.000000, 1833.000000)"><g id="编组-30" transform="translate(24.000000, 25.000000)"><path d="M35.5,79 L8,79 C3.581722,79 0,75.2768942 0,70.6842105 L0,8.31578947 C0,3.72310576 3.581722,0 8,0 L63,0 C67.418278,0 71,3.72310576 71,8.31578947 L71,32.3195264" id="路径" stroke="#212833" stroke-linecap="round"/><circle id="椭圆形" stroke="#1DA2B4" cx="61" cy="59" r="19.5"/><line x1="52" y1="59" x2="69.9985738" y2="59" id="路径-8" stroke="#1DA2B4" stroke-linecap="round"/><line x1="61" y1="68" x2="61" y2="50" id="路径-8" stroke="#1DA2B4" stroke-linecap="round"/><polyline id="路径-9" stroke="#212833" stroke-linecap="round" points="12 19.4769078 15.2994108 22 22 16"/><polyline id="路径-9备份" stroke="#212833" stroke-linecap="round" points="12 36.4769078 15.2994108 39 22 33"/><polyline id="路径-9备份-2" stroke="#212833" stroke-linecap="round" points="12 53.4769078 15.2994108 56 22 50"/><line x1="34" y1="19.5" x2="63" y2="19.5" id="路径-10" stroke="#212833" stroke-linecap="round"/><line x1="34.5" y1="38" x2="40.5" y2="38" id="路径-10备份" stroke="#212833" stroke-linecap="round"/></g></g></g></g></svg>