<?xml version="1.0" encoding="UTF-8"?><svg width="130px" height="130px" viewBox="0 0 130 130" version="1.1" xmlns="http://www.w3.org/2000/svg" xmlns:xlink="http://www.w3.org/1999/xlink"><title>发放奖励</title><g id="意见反馈" stroke="none" stroke-width="1" fill="none" fill-rule="evenodd"><g id="Apple-TV" transform="translate(-1355.000000, -1833.000000)" stroke-width="3"><g id="编组-41" transform="translate(1355.000000, 1833.000000)"><g id="编组-32" transform="translate(17.000000, 22.000000)"><path d="M14,48.4591584 L14,25 L90,25 L90,77 C90,79.209139 88.209139,81 86,81 L39.5087128,81" id="路径" stroke="#212833" stroke-linecap="round"/><rect id="矩形" stroke="#212833" x="7" y="14" width="90" height="11" rx="4"/><g id="编组-27" transform="translate(38.000000, 0.000000)" stroke="#212833"><rect id="矩形" x="0" y="0" width="14" height="14" rx="4"/><rect id="矩形备份-26" x="14" y="0" width="14" height="14" rx="4"/></g><polyline id="路径-11" stroke="#1DA2B4" stroke-linecap="round" stroke-linejoin="round" points="38 32 38 60 52 52.6460877 66 60 66 32"/><circle id="椭圆形" stroke="#1DA2B4" cx="16.5" cy="69.5" r="15"/><path d="M12,64 L19,64 C20.6568542,64 22,65.3431458 22,67 C22,68.6568542 20.6568542,70 19,70 L12,70 L12,70 L12,64 Z" id="矩形" stroke="#1DA2B4"/><path d="M12,70 L19,70 C20.6568542,70 22,71.3431458 22,73 C22,74.6568542 20.6568542,76 19,76 L12,76 L12,76 L12,70 Z" id="矩形备份-27" stroke="#1DA2B4"/></g></g></g></g></svg>