<svg width="32" height="32" viewBox="0 0 32 32" fill="none" xmlns="http://www.w3.org/2000/svg">
<path d="M28.86 26.3801H4C3.73478 26.3801 3.48044 26.2747 3.29291 26.0872C3.10537 25.8997 3 25.6453 3 25.3801V6.6001C3 6.33488 3.10537 6.08053 3.29291 5.89299C3.48044 5.70546 3.73478 5.6001 4 5.6001H28.87C29.1352 5.6001 29.3896 5.70546 29.5771 5.89299C29.7647 6.08053 29.87 6.33488 29.87 6.6001V25.3801C29.87 25.5123 29.8438 25.6431 29.7929 25.7651C29.7421 25.8871 29.6675 25.9978 29.5736 26.0908C29.4797 26.1838 29.3682 26.2572 29.2458 26.3069C29.1233 26.3565 28.9921 26.3814 28.86 26.3801V26.3801ZM5 24.3801H27.87V7.6001H5V24.3801Z" fill="#0D0E0E"/>
<path d="M23.27 19L18 19C17.4477 19 17 19.4477 17 20C17 20.5523 17.4477 21 18 21L23.27 21C23.8223 21 24.27 20.5523 24.27 20C24.27 19.4477 23.8223 19 23.27 19Z" fill="#0D0E0E"/>
<path d="M23.27 11L18 11C17.4477 11 17 11.4477 17 12C17 12.5523 17.4477 13 18 13L23.27 13C23.8223 13 24.27 12.5523 24.27 12C24.27 11.4477 23.8223 11 23.27 11Z" fill="url(#paint0_linear_308_1848)"/>
<path d="M23.27 15L18 15C17.4477 15 17 15.4477 17 16C17 16.5523 17.4477 17 18 17L23.27 17C23.8223 17 24.27 16.5523 24.27 16C24.27 15.4477 23.8223 15 23.27 15Z" fill="#0D0E0E"/>
<path d="M12 15C13.1046 15 14 14.1046 14 13C14 11.8954 13.1046 11 12 11C10.8954 11 10 11.8954 10 13C10 14.1046 10.8954 15 12 15Z" stroke="#0D0E0E" stroke-width="2" stroke-linecap="round" stroke-linejoin="round"/>
<path d="M14 20H8V19.0923C8 16.8306 9.9107 15 12.2626 15" stroke="#0D0E0E" stroke-width="2" stroke-linejoin="round"/>
<defs>
<linearGradient id="paint0_linear_308_1848" x1="16.3685" y1="11.9456" x2="23.6567" y2="13.4884" gradientUnits="userSpaceOnUse">
<stop stop-color="#00D4EB"/>
<stop offset="0.536458" stop-color="#00EAC3"/>
<stop offset="1" stop-color="#00D4EB" stop-opacity="0"/>
</linearGradient>
</defs>
</svg>
