<?xml version="1.0" encoding="UTF-8"?><svg width="14px" height="16px" viewBox="0 0 14 16" version="1.1" xmlns="http://www.w3.org/2000/svg" xmlns:xlink="http://www.w3.org/1999/xlink"><title>lock</title><g id="页面-1" stroke="none" stroke-width="1" fill="none" fill-rule="evenodd"><g id="lock" transform="translate(0.500000, 0.000000)" fill="#1DA2B4" fill-rule="nonzero"><path d="M12.025,6 L1,6 C0.44771525,6 0,6.44771525 0,7 L0,15 C0,15.5522847 0.44771525,16 1,16 L12.025,16 C12.5674976,15.9864333 13.0001696,15.5426671 13,15 L13,7 C13.0001696,6.45733286 12.5674976,6.01356665 12.025,6 Z M7.25,11.415 L7.25,13.125 C7.25,13.5392136 6.91421356,13.875 6.5,13.875 C6.08578644,13.875 5.75,13.5392136 5.75,13.125 L5.75,11.415 C5.16204798,11.0755457 4.87539681,10.3835086 5.05111126,9.72773333 C5.22682571,9.07195806 5.82109148,8.61596189 6.5,8.61596189 C7.17890852,8.61596189 7.77317429,9.07195806 7.94888874,9.72773333 C8.12460319,10.3835086 7.83795202,11.0755457 7.25,11.415 Z M6.5,0 C4.12306984,0.00822949165 2.19822949,1.93306984 2.19,4.31 L2.19,6 L3.69,6 L3.69,4.455 C3.69,2.9086027 4.9436027,1.655 6.49,1.655 C8.0363973,1.655 9.29,2.9086027 9.29,4.455 L9.29,6 L10.79,6 L10.79,4.31 C10.7818606,1.94082048 8.86911603,0.0191586826 6.5,0 Z" id="形状"/></g></g></svg>