<svg width="40" height="40" viewBox="0 0 40 40" fill="none" xmlns="http://www.w3.org/2000/svg">
<path d="M25.3906 16.8984V13.0547C25.3906 10.0742 22.9766 7.66016 19.9961 7.66016C17.0156 7.66016 14.6016 10.0781 14.6016 13.0586V16.9023H25.3906V16.8984ZM10.4336 16.9414L10.4297 16.8203V12.5977C10.4297 10.2578 11.3594 8.01172 13.0156 6.35547C14.6719 4.69922 16.9141 3.76953 19.2578 3.76953H20.7383C25.6133 3.76953 29.5625 7.72266 29.5625 12.5937V16.9414C31.8359 17.2578 33.5273 19.2031 33.5273 21.5V31.5898C33.5273 34.1328 31.4687 36.1914 28.9258 36.1914H11.0664C8.52344 36.1914 6.46484 34.1328 6.46484 31.5898V21.5039C6.46484 19.207 8.15625 17.2617 10.4336 16.9414V16.9414ZM18.9336 27.332V30.3398C18.9336 30.9258 19.4102 31.4023 19.9961 31.4023C20.582 31.4023 21.0586 30.9258 21.0586 30.3398V27.332C22.3672 26.8203 23.1289 25.4492 22.8672 24.0703C22.6055 22.6875 21.4023 21.6875 19.9961 21.6875C18.5898 21.6875 17.3828 22.6875 17.125 24.0703C16.8633 25.4492 17.625 26.8203 18.9336 27.332V27.332Z" fill="#F0F0F0"/>
</svg>
