<?xml version="1.0" encoding="UTF-8"?><svg width="70px" height="70px" viewBox="0 0 70 70" version="1.1" xmlns="http://www.w3.org/2000/svg" xmlns:xlink="http://www.w3.org/1999/xlink"><title>无数据备份 2</title><g id="C啦C" stroke="none" stroke-width="1" fill="none" fill-rule="evenodd"><g id="CLC海报" transform="translate(-447.000000, -1096.000000)" fill-rule="nonzero"><g id="无数据备份-2" transform="translate(447.000000, 1096.000000)"><path d="M58.25,0 L11.75,0 C8.02207794,0 5,2.96905903 5,6.63157895 L5,63.3684211 C5,67.030941 8.02207794,70 11.75,70 L58.25,70 C61.9779221,70 65,67.030941 65,63.3684211 L65,6.63157895 C65,2.96905903 61.9779221,0 58.25,0 Z M11.75,4.42105263 L58.25,4.42105263 C59.4926407,4.42105263 60.5,5.41073897 60.5,6.63157895 L60.5,63.3684211 C60.5,64.589261 59.4926407,65.5789474 58.25,65.5789474 L11.75,65.5789474 C10.5073593,65.5789474 9.5,64.589261 9.5,63.3684211 L9.5,6.63157895 C9.5,5.41073897 10.5073593,4.42105263 11.75,4.42105263 Z" id="矩形备份-22" fill="#B9B9B9"/><rect id="矩形" fill="#B9B9B9" x="17.75" y="11.2105263" width="34.5" height="4.48421053" rx="2.24210526"/><rect id="矩形备份-4" fill="#B9B9B9" x="17.75" y="22.4210526" width="34.5" height="4.48421053" rx="2.24210526"/><path d="M20.7717102,44.8124967 L49.9703944,44.8638159 C51.2121301,44.8659982 52.2182121,45.8720803 52.2203979,47.1138159 C52.2225669,48.349924 51.2222643,49.3537487 49.9861562,49.3559247 C49.9835339,49.3559247 49.9809115,49.3559247 49.9782892,49.3559247 L20.779605,49.3046054 C19.5378693,49.3024231 18.5317873,48.296341 18.5296014,47.0546054 C18.5274325,45.8184972 19.5277351,44.8146725 20.7638432,44.8124967 C20.7664655,44.8124967 20.7690879,44.8124967 20.7717102,44.8124967 Z" id="矩形备份-5" fill="#B2B2B2" transform="translate(35.375000, 47.084211) rotate(-45.000000) translate(-35.375000, -47.084211) "/><path d="M20.7717108,44.8124967 L49.970395,44.8638159 C51.2121307,44.8659982 52.2182127,45.8720803 52.2203986,47.1138159 C52.2225675,48.349924 51.2222649,49.3537487 49.9861568,49.3559247 C49.9835345,49.3559247 49.9809121,49.3559247 49.9782898,49.3559247 L20.7796056,49.3046054 C19.5378699,49.3024231 18.5317879,48.296341 18.5296021,47.0546054 C18.5274331,45.8184972 19.5277357,44.8146725 20.7638438,44.8124967 C20.7664661,44.8124967 20.7690885,44.8124967 20.7717108,44.8124967 Z" id="矩形备份-5" fill="#B2B2B2" transform="translate(35.375000, 47.084211) scale(-1, 1) rotate(-45.000000) translate(-35.375000, -47.084211) "/></g></g></g></svg>