<svg xmlns="http://www.w3.org/2000/svg" xmlns:xlink="http://www.w3.org/1999/xlink" viewBox="0,0,256,256" width="30px" height="30px" fill-rule="nonzero"><g fill="#1da2b4" fill-rule="nonzero" stroke="none" stroke-width="1" stroke-linecap="butt" stroke-linejoin="miter" stroke-miterlimit="10" stroke-dasharray="" stroke-dashoffset="0" font-family="none" font-weight="none" font-size="none" text-anchor="none" style="mix-blend-mode: normal"><g transform="scale(8.53333,8.53333)"><path d="M7.62305,3.21094l10.37695,10.375l2.67773,-2.67773c-3.659,-2.22 -8.55967,-5.19811 -10.76367,-6.53711l-1.47656,-0.89453c-0.261,-0.159 -0.54045,-0.24463 -0.81445,-0.26562zM6.03906,4.45313c-0.021,0.114 -0.03906,0.22856 -0.03906,0.35156v20.50391c0,0.086 0.0173,0.16605 0.0293,0.24805l10.55664,-10.55664zM22.4375,11.97656l-3.02344,3.02344l2.9707,2.9707c1.574,-0.954 2.66416,-1.61645 2.78516,-1.68945c0.535,-0.327 0.83713,-0.82038 0.82813,-1.35937c-0.008,-0.529 -0.31022,-1.00197 -0.82422,-1.29297c-0.115,-0.066 -1.19033,-0.71534 -2.73633,-1.65234zM18,16.41406l-10.3457,10.3457c0.201,-0.035 0.40175,-0.09494 0.59375,-0.21094c0.266,-0.162 7.45195,-4.52177 12.37695,-7.50977z"></path></g></g></svg>