<svg xmlns="http://www.w3.org/2000/svg" viewBox="0 0 38 38" class="design-iconfont"><path d="M25.7391304,0 C28.2946361,0 30.4072509,1.96044925 30.5571739,4.47133334 L30.5652174,4.75000003 L30.5652174,19.0680833 L27.3478261,19.0680833 L27.3478261,4.75000003 C27.3477185,3.94728987 26.7373146,3.27166708 25.9273478,3.17774999 L25.7391304,3.16666667 L4.82608695,3.16666667 C4.01051874,3.16677256 3.32407363,3.76755295 3.22865217,4.56475003 L3.21739131,4.75000003 L3.21739131,33.25 C3.21749887,34.0527101 3.82790273,34.7283329 4.63786956,34.82225 L4.82608695,34.8333333 L24.1642174,34.8333333 L24.1642174,38 L4.82608695,38 C2.27058123,38 0.157966467,36.0395507 0.00804347512,33.5286667 L0,33.25 L0,4.75000003 C0,2.2347838 1.99185232,0.155476006 4.54295653,0.00791666357 L4.82608695,0 L25.7391304,0 Z M33.7826087,22.1666667 C35.5595248,22.1666667 37,23.5844316 37,25.3333333 L37,34.8333333 C37,36.582235 35.5595248,38 33.7826087,38 L27.3478261,38 L27.3478261,22.1666667 L33.7826087,22.1666667 Z M20.9130435,17.4166667 C21.8015015,17.4166667 22.521739,18.1255492 22.521739,19 C22.521739,19.8744508 21.8015015,20.5833333 20.9130435,20.5833333 L9.6521739,20.5833333 C8.76371583,20.5833333 8.04347826,19.8744508 8.04347826,19 C8.04347826,18.1255492 8.76371583,17.4166667 9.6521739,17.4166667 L20.9130435,17.4166667 L20.9130435,17.4166667 Z M20.9130435,9.50000002 C21.8015015,9.50000002 22.5217391,10.2088825 22.5217391,11.0833333 C22.5217391,11.9577842 21.8015015,12.6666667 20.9130435,12.6666667 L9.6521739,12.6666667 C8.76371583,12.6666667 8.04347826,11.9577842 8.04347826,11.0833333 C8.04347826,10.2088825 8.76371583,9.50000002 9.6521739,9.50000002 L20.9130435,9.50000002 Z" fill="#1E1E1E" fill-rule="nonzero"/></svg>