<svg width="129" height="144" viewBox="0 0 129 144" fill="none" xmlns="http://www.w3.org/2000/svg">
<path fill-rule="evenodd" clip-rule="evenodd" d="M129 48.7171V132C129 138.627 123.627 144 117 144H15.295C5.70488 131.311 0 115.403 0 98.1345C0 56.6389 32.9412 23 73.5763 23C95.6831 23 115.513 32.9562 129 48.7171Z" fill="#F0FEFF"/>
<path d="M83.827 70C83.827 70 89.2931 49.7547 93.033 42.9112C96.7729 36.0677 88.7177 33.7854 84.9778 38.3482C81.2379 42.911 77.2103 48.8993 77.2103 48.8993C77.2103 48.8993 60.2369 39.7746 53.3325 36.0677C46.4281 32.3609 43.5513 39.2039 48.4419 42.9112C53.3325 46.6186 56.3566 49.2573 56.3566 49.2573C56.3566 49.2573 50.9025 48.8993 49.7827 52.9691C48.6628 57.039 52.329 59.8076 52.329 59.8076C52.329 59.8076 48.7096 60.1487 48.173 64.1373C47.6364 68.1259 51.6064 70 51.6064 70" stroke="black" stroke-width="0.5" stroke-linecap="round" stroke-linejoin="round"/>
<path d="M98.7232 20C98.7223 18.7451 98.8283 17.4923 99.0401 16.2545C99.3945 15.1399 100.032 14.1306 100.893 13.3204C101.754 12.5101 102.811 11.925 103.966 11.6194C104.972 11.4959 105.987 11.4505 107 11.4836C105.976 11.449 104.957 11.3347 103.951 11.1418C102.849 10.8443 101.836 10.2919 100.998 9.53149C100.161 8.7711 99.5238 7.8251 99.1409 6.77362C98.8817 6.05728 98.752 3.80529 98.752 3C98.752 3.83806 98.5888 6.11815 98.3104 6.86257C97.9266 7.88021 97.3037 8.79604 96.4917 9.53671C95.6797 10.2774 94.7011 10.8223 93.6343 11.1278C92.433 11.3245 91.218 11.4309 90 11.4462C90.7393 11.4462 93.0966 11.5117 93.7687 11.7177C94.8471 12.0475 95.8291 12.6236 96.6332 13.398C97.4374 14.1724 98.0403 15.1228 98.392 16.1702C98.6175 17.4348 98.7283 18.7164 98.7232 20Z" fill="#FFEC61" stroke="black" stroke-width="0.5" stroke-linecap="round" stroke-linejoin="round"/>
<path d="M33.1576 53C33.1569 52.1142 33.2318 51.2298 33.3812 50.3561C33.6314 49.5693 34.0813 48.8569 34.6891 48.285C35.2969 47.713 36.0431 47.3 36.8582 47.0843C37.5684 46.9971 38.2846 46.9651 39 46.9884C38.2772 46.964 37.5576 46.8833 36.8481 46.7472C36.0697 46.5371 35.3546 46.1472 34.7635 45.6105C34.1724 45.0737 33.7227 44.406 33.4524 43.6637C33.2694 43.1581 33.1779 41.5684 33.1779 41C33.1779 41.5916 33.0627 43.201 32.8661 43.7265C32.5952 44.4449 32.1556 45.0913 31.5824 45.6141C31.0092 46.137 30.3184 46.5216 29.5654 46.7373C28.7174 46.8761 27.8598 46.9513 27 46.962C27.5219 46.962 29.1858 47.0083 29.6603 47.1537C30.4215 47.3865 31.1147 47.7931 31.6823 48.3397C32.2499 48.8864 32.6755 49.5573 32.9238 50.2966C33.0829 51.1893 33.1612 52.0939 33.1576 53Z" fill="#FFEC61" stroke="black" stroke-width="0.5" stroke-linecap="round" stroke-linejoin="round"/>
<path d="M62.2211 32.4298C70.6522 37.2975 80.0144 36.8659 83.1322 31.4659L85.4995 27.3655L54.9678 9.73804L52.6004 13.8384C49.4827 19.2385 53.79 27.5621 62.2211 32.4298Z" fill="#FFB215"/>
<path d="M82.9156 31.3409C81.4139 33.9419 78.3905 35.3764 74.6576 35.5485C70.928 35.7205 66.5266 34.6269 62.3461 32.2133C58.1657 29.7997 55.0179 26.5348 53.302 23.2188C51.5846 19.9 51.3153 16.5644 52.817 13.9634L55.0593 10.0795L85.158 27.457L82.9156 31.3409Z" stroke="black" stroke-width="0.5"/>
<path d="M85.2826 27.2388C83.7914 29.8218 80.7778 31.241 77.0511 31.4019C73.3279 31.5626 68.9303 30.462 64.7495 28.0482C60.5688 25.6345 57.4169 22.3763 55.6944 19.0716C53.9703 15.7637 53.6927 12.4443 55.1839 9.86136C56.6752 7.27844 59.6887 5.85917 63.4155 5.69833C67.1387 5.53765 71.5363 6.63823 75.717 9.05198C79.8978 11.4657 83.0497 14.7239 84.7722 18.0286C86.4962 21.3365 86.7739 24.6559 85.2826 27.2388Z" fill="#FFF3A9" stroke="black" stroke-width="0.5"/>
<path d="M82.2053 25.4617C81.1696 27.2556 78.9208 28.1805 76.0357 28.1564C73.1593 28.1324 69.7078 27.1612 66.3722 25.2353C63.0365 23.3095 60.4697 20.8061 59.0107 18.327C57.5473 15.8405 57.2238 13.4305 58.2596 11.6366C59.2953 9.84268 61.5441 8.91783 64.4292 8.94188C67.3056 8.96587 70.7571 9.93712 74.0927 11.8629C77.4284 13.7888 79.9952 16.2922 81.4542 18.7713C82.9176 21.2578 83.2411 23.6678 82.2053 25.4617Z" fill="#FFEC61" stroke="black" stroke-width="0.5"/>
<mask id="path-9-inside-1_2392_14181" fill="white">
<path fill-rule="evenodd" clip-rule="evenodd" d="M81.2966 26.8961C81.7511 26.5273 82.1304 26.0908 82.4214 25.5867C84.6224 21.7744 80.9493 15.5332 74.2173 11.6464C67.4853 7.75969 60.2436 7.69931 58.0426 11.5116C57.8897 11.7764 57.7651 12.0531 57.668 12.3398C60.6506 9.91981 66.8761 10.4113 72.7178 13.784C78.9821 17.4007 82.5977 23.0561 81.2966 26.8961Z"/>
</mask>
<path fill-rule="evenodd" clip-rule="evenodd" d="M81.2966 26.8961C81.7511 26.5273 82.1304 26.0908 82.4214 25.5867C84.6224 21.7744 80.9493 15.5332 74.2173 11.6464C67.4853 7.75969 60.2436 7.69931 58.0426 11.5116C57.8897 11.7764 57.7651 12.0531 57.668 12.3398C60.6506 9.91981 66.8761 10.4113 72.7178 13.784C78.9821 17.4007 82.5977 23.0561 81.2966 26.8961Z" fill="#FFB215"/>
<path d="M82.4214 25.5867L82.8545 25.8367L82.4214 25.5867ZM81.2966 26.8961L80.823 26.7356L80.2676 28.3748L81.6116 27.2843L81.2966 26.8961ZM74.2173 11.6464L74.4673 11.2134L74.2173 11.6464ZM58.0426 11.5116L58.4756 11.7616H58.4756L58.0426 11.5116ZM57.668 12.3398L57.1944 12.1793L56.639 13.8186L57.983 12.7281L57.668 12.3398ZM72.7178 13.784L72.9678 13.351L72.7178 13.784ZM81.9884 25.3367C81.7295 25.7852 81.3912 26.1754 80.9816 26.5078L81.6116 27.2843C82.1111 26.8791 82.5312 26.3965 82.8545 25.8367L81.9884 25.3367ZM73.9673 12.0794C77.2726 13.9877 79.805 16.4626 81.2383 18.8981C82.6804 21.3484 82.9594 23.655 81.9884 25.3367L82.8545 25.8367C84.0845 23.7061 83.6274 20.9859 82.1002 18.3909C80.5642 15.7809 77.8941 13.1919 74.4673 11.2134L73.9673 12.0794ZM58.4756 11.7616C59.4466 10.0799 61.5836 9.16815 64.4267 9.19185C67.2525 9.21541 70.6621 10.1711 73.9673 12.0794L74.4673 11.2134C71.0405 9.23496 67.4633 8.21714 64.435 8.19189C61.424 8.16678 58.8397 9.131 57.6096 11.2616L58.4756 11.7616ZM58.1415 12.5003C58.2283 12.2441 58.3394 11.9976 58.4756 11.7616L57.6096 11.2616C57.44 11.5553 57.302 11.862 57.1944 12.1793L58.1415 12.5003ZM57.983 12.7281C59.3336 11.6322 61.4844 11.1518 64.0754 11.3876C66.6536 11.6222 69.6013 12.5621 72.4678 14.217L72.9678 13.351C69.9926 11.6333 66.9066 10.641 64.166 10.3917C61.4382 10.1435 58.9849 10.6274 57.3529 11.9515L57.983 12.7281ZM72.4678 14.217C75.5424 15.9922 77.9499 18.2586 79.425 20.5287C80.9088 22.8124 81.4038 25.0217 80.823 26.7356L81.7701 27.0565C82.4905 24.9304 81.8283 22.3921 80.2635 19.9839C78.6899 17.5621 76.1575 15.1926 72.9678 13.351L72.4678 14.217Z" fill="black" mask="url(#path-9-inside-1_2392_14181)"/>
</svg>
