<svg width="175" height="147" viewBox="0 0 175 147" fill="none" xmlns="http://www.w3.org/2000/svg">
<g clip-path="url(#clip0_136_2126)">
<ellipse cx="67.4947" cy="128.462" rx="58.7877" ry="21.0474" fill="#060715"/>
<ellipse cx="87.5572" cy="119.603" rx="43.8892" ry="27.2181" fill="#060715"/>
<ellipse cx="87.5572" cy="116.201" rx="43.8892" ry="23.8159" fill="#6EE8F4"/>
<ellipse cx="87.5572" cy="107.143" rx="43.8892" ry="27.2181" fill="#060715"/>
<ellipse cx="87.5572" cy="103.741" rx="43.8892" ry="23.8159" fill="#0AC8DD"/>
<ellipse cx="87.5572" cy="94.8949" rx="43.8892" ry="27.2181" fill="#060715"/>
<ellipse cx="87.5572" cy="91.4926" rx="43.8892" ry="23.8159" fill="#6EE8F4"/>
<ellipse cx="79.3932" cy="80.9457" rx="43.8892" ry="27.2181" fill="#060715"/>
<ellipse cx="79.3932" cy="77.5434" rx="43.8892" ry="23.8159" fill="#00EBDC"/>
<ellipse cx="97.265" cy="59.3924" rx="43.8892" ry="27.2181" transform="rotate(6.77044 97.265 59.3924)" fill="#060715"/>
<ellipse cx="97.6661" cy="56.0139" rx="43.8892" ry="23.8159" transform="rotate(6.77044 97.6661 56.0139)" fill="#6EE8F4"/>
<path fill-rule="evenodd" clip-rule="evenodd" d="M93.9725 95.1656C130.589 104.977 163.622 100.432 167.753 85.0148C171.837 69.7736 146.148 49.6125 110.186 39.6745C148.716 50.3049 176.209 72.0641 171.781 88.5877C167.306 105.29 131.911 110.318 92.7242 99.8182C53.5377 89.3182 25.3989 67.2663 29.8743 50.5639C34.3039 34.0324 69.0232 28.9375 107.729 39.0157C71.5945 29.6231 39.2377 34.2359 35.1519 49.4843C31.0207 64.902 57.3556 85.3542 93.9725 95.1656Z" fill="white"/>
<path d="M73.1639 72.2935C74.0036 73.7277 74.8054 75.2892 75.4578 76.8471C83.6008 90.806 95.568 90.9897 102.599 88.6221C103.331 88.2853 104.146 87.9463 105.049 87.6056C104.327 87.9707 103.504 88.3175 102.599 88.6221C87.4128 95.6165 108.32 101.699 122.31 104.152C122.717 104.22 123.13 104.29 123.547 104.362C123.142 104.295 122.729 104.225 122.31 104.152C100.264 100.468 93.8413 103.088 114.428 115.622C92.9889 103.288 79.0452 113.849 72.6464 123.822C71.928 125.535 71.0072 127.316 69.8636 129.164C70.5311 127.504 71.4588 125.673 72.6464 123.822C81.8547 101.861 57.8191 90.9053 43.5866 88.0723C69.3684 92.0596 68.0735 88.2461 61.3587 84.1329C59.2685 83.164 56.9257 81.9605 54.3057 80.4936C56.751 81.5922 59.3076 82.8765 61.3587 84.1329C78.2696 91.9717 78.6439 84.4538 75.4578 76.8471C74.653 75.4674 73.8855 73.9532 73.1639 72.2935Z" fill="white"/>
<ellipse cx="117.496" cy="45.5619" rx="43.8892" ry="27.2181" transform="rotate(7.1909 117.496 45.5619)" fill="#060715"/>
<ellipse cx="117.922" cy="42.1864" rx="43.8892" ry="23.8159" transform="rotate(7.1909 117.922 42.1864)" fill="#0AC8DD"/>
<ellipse cx="117.924" cy="42.1864" rx="20.0734" ry="10.8873" transform="rotate(7.1909 117.924 42.1864)" fill="white"/>
<path d="M119.717 36.8202L127.199 43.2773L118.548 47.9222L121.363 42.6631L119.717 36.8202Z" fill="#0AC8DD"/>
<path d="M120.273 42.5852L118.514 36.4642L114.647 41.993L117.298 48.0178L120.273 42.5852Z" fill="#0AC8DD"/>
<path d="M108.917 41.3904L117.25 36.4077L113.46 41.8686L116.038 47.9236L108.917 41.3904Z" fill="#0AC8DD"/>
<path d="M56.6094 13.0642C61.2543 11.9029 64.5929 7.98374 64.5929 2.90332C65.3187 10.1611 71.1249 12.8222 72.5764 13.0642C67.496 13.7899 64.5929 20.3219 64.5929 23.225C63.8671 17.4188 59.0286 13.548 56.6094 13.0642Z" fill="white"/>
<path d="M0 69.674C4.64495 68.5128 7.98351 64.5936 7.98351 59.5132C8.70929 66.7709 14.5155 69.4321 15.967 69.674C10.8866 70.3998 7.98351 76.9318 7.98351 79.8349C7.25774 74.0287 2.41925 70.1579 0 69.674Z" fill="#00EBDC"/>
<path d="M143.703 82.7385C148.348 81.5772 151.687 77.6581 151.687 72.5776C152.412 79.8354 158.219 82.4965 159.67 82.7385C154.59 83.4642 151.687 89.9962 151.687 92.8993C150.961 87.0931 146.122 83.2223 143.703 82.7385Z" fill="white"/>
<path d="M148.059 10.1608C152.704 8.9996 156.042 5.08042 156.042 0C156.768 7.25774 162.574 9.91891 164.026 10.1608C158.945 10.8866 156.042 17.4186 156.042 20.3217C155.316 14.5155 150.478 10.6447 148.059 10.1608Z" fill="#00EBDC"/>
</g>
<defs>
<clipPath id="clip0_136_2126">
<rect width="175" height="147" fill="white"/>
</clipPath>
</defs>
</svg>
