<svg width="35" height="35" viewBox="0 0 35 35" fill="none" xmlns="http://www.w3.org/2000/svg">
<path d="M33.5018 25.6172V30.5403C33.5018 31.1931 33.2425 31.8192 32.7808 32.2808C32.3192 32.7425 31.6931 33.0018 31.0403 33.0018H26.1172" stroke="#1DA2B4" stroke-width="2" stroke-linecap="round" stroke-linejoin="round"/>
<path d="M26.1172 1H31.0403C31.6931 1 32.3192 1.25934 32.7808 1.72097C33.2425 2.1826 33.5018 2.8087 33.5018 3.46154V8.38462" stroke="#1DA2B4" stroke-width="2" stroke-linecap="round" stroke-linejoin="round"/>
<path d="M1.5 8.38462V3.46154C1.5 2.8087 1.75934 2.1826 2.22097 1.72097C2.6826 1.25934 3.3087 1 3.96154 1H8.88462" stroke="#1DA2B4" stroke-width="2" stroke-linecap="round" stroke-linejoin="round"/>
<path d="M8.88462 33.0018H3.96154C3.3087 33.0018 2.6826 32.7425 2.22097 32.2808C1.75934 31.8192 1.5 31.1931 1.5 30.5403V25.6172" stroke="#1DA2B4" stroke-width="2" stroke-linecap="round" stroke-linejoin="round"/>
<path d="M25.3984 10.8438L8.16767 10.8437" stroke="#1DA2B4" stroke-width="2" stroke-linecap="round" stroke-linejoin="round"/>
<path d="M25.3984 23.6484L8.16767 23.6484" stroke="#1DA2B4" stroke-width="2" stroke-linecap="round" stroke-linejoin="round"/>
<path d="M21.707 17.2461L11.8609 17.2461" stroke="#1DA2B4" stroke-width="2" stroke-linecap="round" stroke-linejoin="round"/>
</svg>
