<svg width="32" height="32" viewBox="0 0 32 32" fill="none" xmlns="http://www.w3.org/2000/svg">
<path d="M18.9544 14.4269C19.5282 13.9936 19.9929 13.4368 20.3126 12.7995C20.6324 12.1622 20.7986 11.4614 20.7985 10.7511C20.8055 9.95007 20.6042 9.16054 20.2136 8.45712C19.8229 7.75369 19.2558 7.15961 18.566 6.73101C17.8761 6.30241 17.0862 6.05347 16.2709 6.0077C15.4556 5.96193 14.6419 6.12085 13.9067 6.46944C13.1714 6.81803 12.539 7.34478 12.0691 7.99989C11.5991 8.655 11.3073 9.41684 11.2211 10.2134C11.1349 11.0099 11.2572 11.8149 11.5765 12.5522C11.8957 13.2894 12.4014 13.9347 13.0456 14.4269C11.5617 14.9974 10.287 15.9925 9.38721 17.2829C8.48739 18.5733 8.00405 20.0994 8 21.6628V23.2257C8.00096 23.3284 8.02253 23.4298 8.06346 23.5242C8.10439 23.6187 8.16388 23.7043 8.23855 23.7762C8.31321 23.8481 8.40158 23.9049 8.49861 23.9433C8.59564 23.9817 8.69943 24.0009 8.80405 24H23.1959C23.3006 24.0009 23.4044 23.9817 23.5014 23.9433C23.5984 23.9049 23.6868 23.8481 23.7615 23.7762C23.8361 23.7043 23.8956 23.6187 23.9365 23.5242C23.9775 23.4298 23.999 23.3284 24 23.2257V21.6628C23.9959 20.0994 23.5126 18.5733 22.6128 17.2829C21.713 15.9925 20.4383 14.9974 18.9544 14.4269ZM12.5293 10.7438C12.5234 10.0686 12.7222 9.40682 13.1004 8.84257C13.4786 8.27831 14.0192 7.83698 14.6535 7.57459C15.2878 7.31219 15.9873 7.24056 16.6632 7.36878C17.3391 7.49699 17.961 7.81928 18.4498 8.29474C18.9387 8.77019 19.2725 9.37739 19.409 10.0393C19.5455 10.7012 19.4784 11.3879 19.2164 12.0123C18.9543 12.6368 18.509 13.1708 17.937 13.5465C17.365 13.9223 16.6921 14.123 16.0037 14.123C15.0867 14.1249 14.2063 13.7704 13.5552 13.1371C12.904 12.5038 12.5351 11.6433 12.5293 10.7438ZM22.7976 22.7192H9.22453V21.8871C9.22453 20.1196 9.94031 18.4245 11.2144 17.1748C12.4885 15.925 14.2166 15.2228 16.0184 15.2228C17.8203 15.2228 19.5484 15.925 20.8225 17.1748C22.0966 18.4245 22.8124 20.1196 22.8124 21.8871L22.7976 22.7192Z" fill="#0D0E0E"/>
<path fill-rule="evenodd" clip-rule="evenodd" d="M1 2C1 1.44772 1.44772 1 2 1H11C11.5523 1 12 1.44772 12 2C12 2.55228 11.5523 3 11 3H3V11C3 11.5523 2.55228 12 2 12C1.44772 12 1 11.5523 1 11V2Z" fill="url(#paint0_linear_308_1838)"/>
<path fill-rule="evenodd" clip-rule="evenodd" d="M31 30C31 30.5523 30.5523 31 30 31H21C20.4477 31 20 30.5523 20 30C20 29.4477 20.4477 29 21 29H29V21C29 20.4477 29.4477 20 30 20C30.5523 20 31 20.4477 31 21V30Z" fill="url(#paint1_linear_308_1838)"/>
<defs>
<linearGradient id="paint0_linear_308_1838" x1="2.01613" y1="2.35055" x2="0.882429" y2="11.8649" gradientUnits="userSpaceOnUse">
<stop stop-color="#00D4EB"/>
<stop offset="0.5" stop-color="#00EBC1"/>
<stop offset="1" stop-color="#00D4EB" stop-opacity="0"/>
</linearGradient>
<linearGradient id="paint1_linear_308_1838" x1="29.9839" y1="29.6495" x2="31.1176" y2="20.1351" gradientUnits="userSpaceOnUse">
<stop stop-color="#00D4EB"/>
<stop offset="0.5" stop-color="#00EBC1"/>
<stop offset="1" stop-color="#00D4EB" stop-opacity="0"/>
</linearGradient>
</defs>
</svg>
