<svg width="16" height="16" viewBox="0 0 16 16" fill="none" xmlns="http://www.w3.org/2000/svg">
<path d="M7.07011 1.35078C7.40353 0.507897 8.59647 0.507894 8.92989 1.35078L10.275 4.75117C10.4147 5.10435 10.7424 5.3479 11.1209 5.37981L14.6988 5.68141C15.5713 5.75496 15.9347 6.83492 15.2841 7.42091L12.4857 9.94137C12.2167 10.1837 12.0996 10.5525 12.1797 10.9056L13.0216 14.6167C13.2197 15.4896 12.2591 16.1631 11.506 15.6794L8.54038 13.7748C8.21115 13.5633 7.78885 13.5633 7.45962 13.7748L4.49397 15.6794C3.74086 16.1631 2.78034 15.4896 2.97836 14.6167L3.82027 10.9056C3.90038 10.5525 3.78334 10.1837 3.5143 9.94137L0.715939 7.42092C0.0653275 6.83492 0.428673 5.75496 1.30119 5.68141L4.87913 5.37981C5.2576 5.3479 5.58532 5.10435 5.72503 4.75117L7.07011 1.35078Z" fill="#C8CDCD"/>
</svg>
