<svg width="402" height="231" viewBox="0 0 402 231" fill="none" xmlns="http://www.w3.org/2000/svg">
<path d="M112.942 108.971L170.978 126.85L141.947 144.596L102.606 118.849L112.942 108.971Z" fill="#141722" stroke="white" stroke-width="0.529458" stroke-miterlimit="10"/>
<path d="M182.742 222.669L193.137 162.954L164.105 180.669L169.252 227.358L182.742 222.669Z" fill="#141722" stroke="white" stroke-width="0.529458" stroke-miterlimit="10"/>
<path d="M118.702 212.567C124.065 209.097 127.857 203.674 129.271 197.454C130.684 191.233 129.606 184.708 126.266 179.27C122.927 173.832 117.59 169.91 111.395 168.342C105.199 166.774 98.6349 167.683 93.1015 170.875C85.9621 175.24 84.0441 181.604 81.0072 188.771C74.9068 203.04 64.8798 215.523 51.8692 223.997C51.8692 223.997 39.0184 232.365 43.1421 230.223C39.3593 232.918 52.663 225.295 52.6683 225.295C62.7731 219.532 74.0449 216.106 85.6531 215.268C96.7564 214.454 108.6 218.75 118.702 212.567Z" fill="#1DA2B4"/>
<path d="M114.247 205.321C116.096 204.256 117.712 202.833 119.001 201.135C120.289 199.437 121.224 197.499 121.749 195.434C122.275 193.37 122.381 191.221 122.061 189.116C121.741 187.01 121.001 184.989 119.886 183.173C118.771 181.357 117.302 179.782 115.567 178.542C113.832 177.301 111.866 176.42 109.784 175.951C107.702 175.481 105.547 175.432 103.445 175.807C101.344 176.181 99.3396 176.972 97.5498 178.133C90.0268 182.731 82.099 203.471 83.3563 205.512C84.3367 207.113 106.724 209.909 114.247 205.321Z" fill="#141722"/>
<path d="M115.366 197.899C116.557 197.224 117.6 196.317 118.433 195.232C119.266 194.147 119.872 192.906 120.215 191.582C120.557 190.259 120.63 188.88 120.428 187.528C120.226 186.176 119.754 184.879 119.039 183.713C118.325 182.546 117.382 181.535 116.268 180.74C115.154 179.944 113.892 179.38 112.555 179.081C111.218 178.783 109.835 178.755 108.487 179C107.14 179.246 105.855 179.759 104.71 180.509C99.9153 183.449 94.8272 196.714 95.6531 198.022C96.2604 199.042 110.555 200.871 115.366 197.899Z" fill="white"/>
<path d="M223.969 80.5119L267.285 49.9582C268.463 49.0712 269.728 48.307 271.062 47.6774C286.359 40.4577 341.587 25.1888 351.63 41.5476C361.678 57.9116 323.366 100.608 309.577 110.401C303.184 114.947 157.622 190.515 157.622 190.515L130.529 146.388L206.633 92.7397" fill="white"/>
<path d="M223.969 80.5119L267.285 49.9582C268.463 49.0712 269.728 48.307 271.062 47.6774C286.359 40.4577 341.587 25.1888 351.63 41.5476C361.678 57.9116 323.366 100.608 309.577 110.401C303.184 114.947 157.622 190.515 157.622 190.515L130.529 146.388L206.633 92.7397" stroke="#141722" stroke-width="0.529458" stroke-miterlimit="10"/>
<g style="mix-blend-mode:multiply">
<path d="M351.646 41.547C351.566 41.4194 351.475 41.2971 351.39 41.1695C348.998 47.8151 343.345 61.271 333.989 71.0373C321.096 84.4827 306.45 98.5128 297.653 103.776C289.129 108.896 160.381 178.371 152.736 182.507L157.653 190.514C157.653 190.514 303.194 114.946 309.593 110.4C323.382 100.607 361.694 57.911 351.646 41.547Z" fill="#1DA2B4"/>
</g>
<path d="M132.08 197.069L113.043 166.069L130.545 146.393L157.637 190.514L132.08 197.069Z" fill="#141722" stroke="white" stroke-width="0.529458" stroke-miterlimit="10"/>
<path d="M119.379 163.368L116.177 166.563" stroke="white" stroke-width="0.746536" stroke-miterlimit="10" stroke-linecap="round"/>
<path d="M130.811 151.96L121.892 160.859" stroke="white" stroke-width="0.746536" stroke-miterlimit="10" stroke-linecap="round"/>
<path d="M221.161 139.923C218.493 141.555 215.4 142.361 212.272 142.239C209.145 142.117 206.124 141.072 203.592 139.237C201.06 137.402 199.13 134.858 198.046 131.928C196.962 128.998 196.774 125.814 197.504 122.777C198.234 119.74 199.851 116.988 202.149 114.867C204.447 112.747 207.323 111.355 210.414 110.866C213.505 110.377 216.672 110.814 219.515 112.121C222.357 113.429 224.747 115.548 226.382 118.21C228.575 121.781 229.257 126.074 228.278 130.146C227.299 134.217 224.739 137.734 221.161 139.923Z" fill="#141722"/>
<path d="M219.062 136.541C217.069 137.76 214.759 138.362 212.424 138.271C210.088 138.179 207.832 137.399 205.941 136.028C204.05 134.658 202.609 132.758 201.8 130.57C200.991 128.382 200.85 126.004 201.396 123.736C201.941 121.468 203.148 119.413 204.864 117.829C206.581 116.246 208.729 115.206 211.037 114.841C213.346 114.476 215.711 114.803 217.833 115.779C219.956 116.755 221.741 118.338 222.962 120.326C223.774 121.646 224.317 123.113 224.56 124.642C224.803 126.172 224.742 127.734 224.38 129.24C224.017 130.746 223.361 132.166 222.449 133.419C221.537 134.672 220.386 135.733 219.062 136.541Z" fill="white" stroke="#141722" stroke-width="0.529458" stroke-miterlimit="10"/>
<path d="M252.995 122.139C250.326 123.773 247.232 124.579 244.103 124.458C240.975 124.336 237.952 123.291 235.419 121.455C232.886 119.62 230.955 117.075 229.87 114.145C228.786 111.214 228.597 108.028 229.328 104.99C230.058 101.952 231.675 99.198 233.974 97.077C236.272 94.956 239.15 93.5629 242.242 93.0739C245.335 92.5849 248.503 93.022 251.346 94.3299C254.19 95.6378 256.581 97.7577 258.216 100.422C260.408 103.993 261.089 108.286 260.11 112.359C259.131 116.431 256.572 119.949 252.995 122.139Z" fill="#141722"/>
<path d="M232.254 100.751C231.892 101.268 231.592 101.824 231.359 102.41" stroke="white" stroke-width="0.746536" stroke-miterlimit="10" stroke-linecap="round"/>
<path d="M234.481 98.2152C234.481 98.2152 234.097 98.5502 233.591 99.0978" stroke="white" stroke-width="0.746536" stroke-miterlimit="10" stroke-linecap="round"/>
<path d="M247.19 120.221C253.569 118.857 257.632 112.592 256.266 106.227C254.9 99.8617 248.621 95.807 242.242 97.1704C235.863 98.5338 231.8 104.799 233.166 111.164C234.532 117.529 240.811 121.584 247.19 120.221Z" fill="white" stroke="#141722" stroke-width="0.529458" stroke-miterlimit="10"/>
<path d="M284.824 104.351C282.156 105.982 279.062 106.786 275.935 106.663C272.808 106.54 269.788 105.494 267.257 103.658C264.726 101.822 262.797 99.2785 261.714 96.3488C260.631 93.419 260.443 90.2347 261.174 87.1983C261.905 84.162 263.521 81.4101 265.819 79.2904C268.117 77.1708 270.993 75.7787 274.084 75.29C277.175 74.8014 280.341 75.2382 283.183 76.5453C286.025 77.8523 288.415 79.9709 290.051 82.6331C291.137 84.4014 291.864 86.366 292.189 88.4146C292.514 90.4632 292.432 92.5557 291.946 94.5725C291.461 96.5893 290.582 98.4909 289.36 100.169C288.138 101.847 286.597 103.268 284.824 104.351Z" fill="#141722"/>
<path d="M264.525 82.4738C264.165 82.992 263.866 83.5505 263.635 84.1379" stroke="white" stroke-width="0.746536" stroke-miterlimit="10" stroke-linecap="round"/>
<path d="M266.752 79.9425C266.752 79.9425 266.374 80.2775 265.867 80.8197" stroke="white" stroke-width="0.746536" stroke-miterlimit="10" stroke-linecap="round"/>
<path d="M282.735 100.922C280.743 102.141 278.433 102.742 276.097 102.651C273.762 102.56 271.506 101.779 269.615 100.409C267.724 99.0379 266.283 97.1385 265.473 94.9504C264.664 92.7624 264.524 90.3841 265.069 88.1162C265.614 85.8484 266.822 83.7928 268.538 82.2096C270.254 80.6263 272.402 79.5865 274.711 79.2215C277.019 78.8565 279.384 79.1828 281.507 80.1592C283.629 81.1355 285.414 82.718 286.635 84.7065C287.447 86.0266 287.99 87.4933 288.233 89.0228C288.476 90.5523 288.415 92.1147 288.053 93.6205C287.691 95.1264 287.035 96.5464 286.122 97.7991C285.21 99.0519 284.059 100.113 282.735 100.922Z" fill="white" stroke="#141722" stroke-width="0.529458" stroke-miterlimit="10"/>
<path d="M309.907 36.374L337.319 81.0322C348.875 66.2152 357.965 49.7661 352.584 41.0046C347.202 32.2165 328.384 32.8279 309.907 36.374Z" fill="#141722" stroke="white" stroke-width="0.529458" stroke-miterlimit="10"/>
<path d="M320.143 38.0172C326.819 37.2729 338.258 36.6721 347.107 39.7078" stroke="white" stroke-width="0.746536" stroke-miterlimit="10" stroke-linecap="round"/>
<path d="M314.639 38.7985C314.639 38.7985 315.657 38.6018 317.383 38.3625" stroke="white" stroke-width="0.746536" stroke-miterlimit="10" stroke-linecap="round"/>
<path d="M172.231 110.672L171.41 111.246" stroke="#141722" stroke-width="0.746536" stroke-linecap="round" stroke-linejoin="round"/>
<path d="M172.023 110.815L171.41 111.246" stroke="#141722" stroke-width="0.746536" stroke-linecap="round" stroke-linejoin="round"/>
<path d="M171.671 111.065L171.41 111.246" stroke="#141722" stroke-width="0.746536" stroke-linecap="round" stroke-linejoin="round"/>
<path d="M242.308 169.307L236.73 172.178" stroke="#141722" stroke-width="0.529458" stroke-miterlimit="10"/>
<path d="M273.054 153.469L244.875 167.983" stroke="#141722" stroke-width="0.529458" stroke-miterlimit="10"/>
<path d="M211.688 212.689L206.105 215.566" stroke="#141722" stroke-width="0.529458" stroke-miterlimit="10"/>
<path d="M242.431 196.857L214.252 211.366" stroke="#141722" stroke-width="0.529458" stroke-miterlimit="10"/>
<path d="M311.384 204.657L305.805 207.533" stroke="#141722" stroke-width="0.529458" stroke-miterlimit="10"/>
<path d="M342.131 188.824L313.952 203.332" stroke="#141722" stroke-width="0.529458" stroke-miterlimit="10"/>
<path d="M38.3365 137.308L32.7529 140.179" stroke="#141722" stroke-width="0.529458" stroke-miterlimit="10"/>
<path d="M69.0778 121.47L40.8988 135.984" stroke="#141722" stroke-width="0.529458" stroke-miterlimit="10"/>
<path d="M303.584 16.252L298.005 19.1282" stroke="#141722" stroke-width="0.529458" stroke-miterlimit="10"/>
<path d="M334.33 0.419373L306.151 14.928" stroke="#141722" stroke-width="0.529458" stroke-miterlimit="10"/>
<path d="M72.9457 100.922C69.8129 97.7317 64.842 99.7679 60.5744 101.198C53.7867 103.468 50.9576 107.02 49.2953 111.347C47.6331 115.675 35.9171 119.391 33.8712 123.32C31.8253 127.249 25.4478 128.307 22.2032 133.804C18.9585 139.301 16.5237 140.051 16.5237 140.051C16.5237 140.051 86.7502 102.15 87.5227 101.719C86.5264 102.272 74.7146 102.687 72.9457 100.922Z" fill="white" stroke="#141722" stroke-width="0.529458" stroke-miterlimit="10"/>
<path d="M254.787 146.608L242.273 142.427L233.42 168.814L245.934 172.995L254.787 146.608Z" fill="white" stroke="#141722" stroke-width="0.529458" stroke-miterlimit="10"/>
<path d="M252.863 152.369L238.85 152.656L242.276 142.416L254.797 146.595L252.863 152.369Z" fill="#141722"/>
<path d="M250.164 160.402L237.649 156.222L233.423 168.82L245.937 173.001L250.164 160.402Z" fill="#141722"/>
<path d="M226.404 172.061C229.068 168.244 229.819 165.65 233.165 163.47L233.458 163.284C233.7 163.122 233.982 163.029 234.273 163.016C234.564 163.002 234.853 163.068 235.109 163.206C235.365 163.345 235.579 163.551 235.726 163.801C235.874 164.052 235.95 164.338 235.946 164.629V166.756C235.946 168.834 237.965 169.291 237.986 169.307C239.153 169.696 239.809 169.169 242.632 168.547L243.442 166.128L246.17 164.879L248.653 165.708L249.575 169.079L257.081 177.367L267.13 180.137L269.336 183.226L265.771 186.517L250.187 188.899L240.219 183.05L226.404 172.061Z" fill="#1DA2B4"/>
<path d="M250.124 189.201L250.028 189.142L240.022 183.262L225.978 172.098L226.149 171.859C226.9 170.795 227.513 169.769 228.056 168.876C229.447 166.59 230.55 164.782 232.995 163.187L233.288 162.996C233.577 162.808 233.912 162.701 234.257 162.687C234.602 162.672 234.944 162.751 235.248 162.914C235.553 163.077 235.807 163.319 235.985 163.614C236.163 163.909 236.259 164.247 236.261 164.591V166.718C236.263 167.239 236.442 167.744 236.768 168.151C237.094 168.558 237.548 168.844 238.057 168.961H238.11C238.797 169.19 239.266 169.057 240.39 168.743C240.923 168.6 241.552 168.419 242.399 168.212L243.193 165.83L246.16 164.474L248.915 165.394L249.863 168.855L257.258 177.021L267.328 179.759L269.757 183.161L265.916 186.707H265.82L250.124 189.201ZM240.395 182.757L250.236 188.547L265.618 186.197L268.91 183.156L266.928 180.381L256.901 177.654L256.837 177.59L249.282 169.243L248.387 165.963L246.192 165.25L243.699 166.388L242.873 168.85L242.697 168.892C241.786 169.089 241.099 169.28 240.566 169.424C239.41 169.748 238.776 169.923 237.902 169.631C237.264 169.473 236.697 169.108 236.29 168.593C235.883 168.078 235.659 167.443 235.654 166.787V164.66C235.655 164.427 235.593 164.198 235.474 163.997C235.355 163.797 235.183 163.633 234.977 163.522C234.773 163.408 234.54 163.353 234.306 163.362C234.072 163.371 233.845 163.445 233.65 163.576L233.357 163.767C231.029 165.282 229.964 167.037 228.61 169.254C228.104 170.088 227.545 171.019 226.847 172.029L240.395 182.757Z" fill="#141722"/>
<path d="M223.314 173.417L226.404 172.061L241.322 182.221L253.043 186.878L261.904 185.767L269.363 183.188L269.72 185.639L269.08 187.473L263.992 191.046C263.992 191.046 260.795 191.578 254.45 192.503C254.45 192.503 243.917 189.382 241.274 188.494L240.32 186.644L238.152 185.916L236.293 186.83C230.512 184.879 225.946 183.374 225.946 183.374L220.533 178.478L223.314 173.417Z" fill="#141722"/>
<path d="M248.131 172.338C248.059 172.345 247.986 172.327 247.927 172.286C247.867 172.245 247.824 172.184 247.806 172.114C247.783 172.035 247.792 171.949 247.832 171.876C247.872 171.804 247.939 171.75 248.019 171.726L251.215 170.801C251.256 170.786 251.299 170.78 251.342 170.782C251.385 170.785 251.427 170.796 251.466 170.815C251.504 170.835 251.538 170.862 251.566 170.895C251.593 170.928 251.614 170.966 251.626 171.008C251.638 171.049 251.641 171.092 251.636 171.135C251.631 171.178 251.616 171.219 251.594 171.256C251.572 171.293 251.543 171.325 251.508 171.35C251.473 171.375 251.433 171.393 251.391 171.402L248.195 172.327L248.131 172.338Z" fill="#141722"/>
<path d="M249.868 174.591C249.792 174.595 249.717 174.571 249.658 174.523C249.598 174.476 249.558 174.409 249.545 174.334C249.531 174.26 249.545 174.183 249.584 174.118C249.622 174.053 249.684 174.004 249.756 173.98L252.952 173.055C252.993 173.04 253.036 173.034 253.079 173.036C253.122 173.039 253.164 173.05 253.203 173.069C253.241 173.089 253.275 173.116 253.303 173.149C253.33 173.182 253.351 173.22 253.363 173.261C253.375 173.303 253.378 173.346 253.373 173.389C253.368 173.431 253.353 173.472 253.331 173.509C253.309 173.546 253.28 173.579 253.245 173.604C253.21 173.629 253.17 173.647 253.128 173.656L249.932 174.581L249.868 174.591Z" fill="#141722"/>
<path d="M251.605 176.84C251.533 176.848 251.461 176.83 251.402 176.789C251.342 176.748 251.299 176.687 251.28 176.617C251.257 176.538 251.267 176.452 251.307 176.379C251.347 176.307 251.414 176.253 251.494 176.229L254.69 175.304C254.731 175.289 254.774 175.283 254.817 175.285C254.86 175.288 254.902 175.299 254.94 175.318C254.979 175.338 255.013 175.365 255.041 175.398C255.068 175.431 255.089 175.469 255.101 175.51C255.113 175.552 255.116 175.595 255.111 175.638C255.105 175.68 255.091 175.721 255.069 175.758C255.047 175.795 255.018 175.828 254.983 175.853C254.948 175.878 254.908 175.896 254.866 175.905L251.669 176.83L251.605 176.84Z" fill="#141722"/>
<path d="M259.074 78.3372L178.624 71.0271L179.769 83.2922C180.638 92.5534 187.761 101.033 197.047 101.9C197.047 101.9 224.305 103.224 246.746 105.249L235.099 146.138L260.071 152.688C260.071 152.688 273.955 117.307 277.567 100.587C279.96 89.5231 270.337 79.358 259.074 78.3372Z" fill="#141722" stroke="white" stroke-width="0.529458" stroke-miterlimit="10"/>
<path d="M246.788 105.563C246.753 105.568 246.717 105.568 246.682 105.563C246.602 105.54 246.534 105.488 246.492 105.416C246.45 105.345 246.438 105.26 246.458 105.18L249.932 91.9844C249.953 91.9041 250.005 91.8354 250.077 91.7936C250.149 91.7517 250.235 91.74 250.315 91.7611C250.395 91.7835 250.463 91.836 250.504 91.9074C250.546 91.9788 250.559 92.0636 250.539 92.1439L247.065 105.339C247.048 105.401 247.012 105.455 246.962 105.495C246.912 105.535 246.852 105.558 246.788 105.563Z" fill="white"/>
<path d="M185.13 88.2096L212.334 73.6319L212.371 74.0678L187.703 95.137L185.13 88.2096Z" fill="#141722"/>
<path d="M220.059 108.316L220.783 108.662C221.019 108.778 221.282 108.83 221.544 108.811C221.807 108.792 222.059 108.704 222.276 108.556C222.493 108.408 222.667 108.204 222.779 107.967C222.891 107.73 222.938 107.467 222.914 107.205V107.014C222.893 106.757 222.805 106.51 222.658 106.299C222.511 106.087 222.311 105.917 222.078 105.807L220.677 105.132C220.91 105.211 221.158 105.232 221.401 105.191C221.644 105.15 221.872 105.05 222.066 104.899C222.26 104.748 222.414 104.551 222.513 104.327C222.611 104.102 222.652 103.856 222.632 103.611V103.42C222.609 103.163 222.52 102.916 222.374 102.704C222.227 102.491 222.028 102.321 221.796 102.208L219.505 101.113C218.65 100.703 217.701 100.529 216.755 100.607L208.231 101.315L201.747 101.846L190.809 93.7121L182.481 101.878L192.333 108.471C192.859 109.697 193.637 110.8 194.617 111.708C195.597 112.615 196.758 113.307 198.023 113.739C198.955 114.202 199.996 114.4 201.033 114.313L203.42 114.117L204.102 114.058L206.467 113.861L216.01 117.115C216.175 117.171 216.356 117.159 216.512 117.083C216.669 117.006 216.789 116.87 216.846 116.706L217.528 114.707C217.584 114.542 217.572 114.361 217.495 114.205C217.419 114.049 217.283 113.929 217.118 113.872L211.406 111.926L215.946 111.549C216.891 111.47 217.84 111.644 218.695 112.054L219.425 112.405C219.66 112.523 219.923 112.576 220.187 112.558C220.45 112.54 220.703 112.452 220.921 112.304C221.138 112.155 221.312 111.951 221.424 111.712C221.535 111.474 221.581 111.21 221.556 110.948V110.757C221.536 110.5 221.448 110.252 221.303 110.04C221.157 109.827 220.957 109.656 220.725 109.544L218.434 108.449C217.607 108.044 216.689 107.86 215.77 107.918L217.368 107.785C218.296 107.725 219.224 107.908 220.059 108.316Z" fill="white" stroke="#141722" stroke-width="0.529458" stroke-miterlimit="10"/>
<path d="M192.487 94.9993L187.974 105.845L182.476 101.879L190.777 93.7233L192.487 94.9993Z" fill="#141722"/>
<path d="M257.065 41.2813C257.349 40.8934 257.551 40.4523 257.659 39.9845C257.767 39.5167 257.779 39.0319 257.694 38.5593C257.602 38.0287 257.325 37.5475 256.913 37.1996C256.501 36.8517 255.98 36.6593 255.44 36.656C255.325 36.1511 255.041 35.7001 254.636 35.3767C254.23 35.0533 253.727 34.8764 253.208 34.875C252.872 33.3864 251.008 32.4454 249.867 33.5937L255.275 26.8365C255.44 26.6511 255.565 26.4343 255.643 26.1991C255.722 25.964 255.751 25.7155 255.73 25.4686C255.709 25.2217 255.638 24.9817 255.521 24.763C255.404 24.5444 255.244 24.3517 255.051 24.1967C254.857 24.0417 254.634 23.9275 254.395 23.8612C254.155 23.7948 253.905 23.7777 253.659 23.8108C253.413 23.8438 253.176 23.9265 252.963 24.0536C252.75 24.1808 252.565 24.3498 252.419 24.5505L242.925 36.4168L242.616 33.8968C242.472 32.6856 241.856 31.5798 240.901 30.8186L239.228 29.4735C238.873 29.1907 238.42 29.0598 237.969 29.1097C237.517 29.1595 237.104 29.3859 236.82 29.7393L236.692 29.9041C236.408 30.2583 236.277 30.7101 236.327 31.1606C236.377 31.6111 236.604 32.0234 236.958 32.3072L237.224 32.5198C238.176 33.2841 238.791 34.3883 238.94 35.598L239.563 40.6699C239.675 41.5684 239.824 42.4563 239.995 43.3282L214.906 68.5175L217.075 70.3411C218.314 71.3864 219.748 72.1771 221.294 72.6679C222.841 73.1587 224.469 73.3399 226.086 73.2011C227.703 73.0623 229.276 72.6062 230.716 71.8591C232.155 71.1119 233.433 70.0883 234.475 68.8472L248.781 51.8345L248.727 51.7813L257.124 41.292L257.065 41.2813Z" fill="white" stroke="#141722" stroke-width="0.529458" stroke-miterlimit="10"/>
<path d="M233.927 47.1826L223.969 58.0069C223.969 58.0069 214.911 50.8828 208.172 45.5398C207.011 44.0202 205.486 42.817 203.736 42.0411C201.986 41.2652 200.069 40.9417 198.161 41.1005L183.776 42.302C182.266 42.4248 180.796 42.8479 179.453 43.5464C178.109 44.2449 176.92 45.2047 175.954 46.3691L175.906 46.4276C175.794 46.5658 175.682 46.7041 175.581 46.8476L156.262 71.4681C155.299 72.2847 154.53 73.3047 154.01 74.4544C153.491 75.6042 153.234 76.8548 153.259 78.1157C153.283 79.3767 153.588 80.6165 154.152 81.7453C154.716 82.874 155.524 83.8636 156.518 84.6423L182.95 105.329L193.446 91.9471L187.75 87.4919L212.338 73.7382L212.024 69.9583L220.442 73.9828C222.605 75.0157 225.053 75.2905 227.392 74.7628C229.731 74.2351 231.823 72.9357 233.33 71.0747L245.136 56.4917L233.927 47.1826Z" fill="#1DA2B4" stroke="#141722" stroke-width="0.529458" stroke-miterlimit="10"/>
<path d="M186.642 42.483L196.408 50.3248L194.745 30.436L185.699 31.1909L186.642 42.483Z" fill="white" stroke="#141722" stroke-width="0.757125" stroke-miterlimit="10"/>
<path d="M185.987 34.6147L185.699 31.1909L194.756 30.436L195.358 38.0013C193.948 38.408 192.456 38.4464 191.027 38.1129C188.981 37.5861 187.193 36.3449 185.987 34.6147Z" fill="#141722"/>
<path d="M191.896 36.0687C195.913 35.7342 198.869 31.8671 198.498 27.4312C198.127 22.9954 194.569 19.6706 190.552 20.0051C186.535 20.3396 183.579 24.2067 183.95 28.6426C184.321 33.0784 187.878 36.4032 191.896 36.0687Z" fill="white" stroke="#141722" stroke-width="0.757125" stroke-miterlimit="10"/>
<path d="M188.358 31.8343C188.984 32.3193 189.725 32.6344 190.509 32.7489C191.294 32.8633 192.094 32.7733 192.833 32.4875C193.572 32.2017 194.225 31.7298 194.727 31.1179C195.229 30.5059 195.564 29.7747 195.699 28.9953L188.358 31.8343Z" fill="white"/>
<path d="M202.285 17.9847C202.193 16.9033 201.729 15.887 200.972 15.108C200.215 14.3289 199.211 13.8349 198.131 13.7098C197.05 13.5847 195.96 13.836 195.044 14.4213C194.128 15.0066 193.443 15.8899 193.105 16.9214L190.718 17.1181C189.342 17.2345 188.037 17.7819 186.99 18.6822C185.943 19.5825 185.208 20.7897 184.89 22.1315C184.019 22.3342 183.259 22.8607 182.764 23.6036C182.269 24.3465 182.076 25.2499 182.226 26.1295L183.041 30.9143C183.159 31.6126 183.535 32.2413 184.096 32.6755C184.656 33.1098 185.36 33.318 186.067 33.2589L188.198 33.0834L187.437 23.9391L198.22 23.0459C199.419 22.8839 200.51 22.2681 201.266 21.326C202.023 20.3839 202.388 19.1876 202.285 17.9847Z" fill="#141722" stroke="white" stroke-width="0.757125" stroke-miterlimit="10"/>
<path d="M194.879 48.7353C194.879 48.7353 202.413 60.4953 200.452 66.4816C198.491 72.4679 189.754 69.7831 189.754 69.7831L183.637 73.7492L189.727 78.9009C189.727 78.9009 208.833 78.6669 208.375 68.9378C207.916 59.2087 201.859 54.5355 196.025 48.2887L194.879 48.7353Z" fill="#141722"/>
<path d="M190.02 45.0566L195.716 44.5568L196.174 50.0753L190.02 45.0566Z" fill="#141722"/>
<path d="M181.293 63.0313C181.293 63.0313 172.449 74.0044 173.514 75.4027C174.58 76.8009 186.919 87.067 186.919 87.067" stroke="#141722" stroke-width="0.529458" stroke-miterlimit="10"/>
<path d="M360.032 143.985C360.032 143.985 343.515 155.926 334.868 161.274C326.221 166.622 323.759 173.225 315.07 176.904C306.38 180.583 371.993 153.023 371.993 153.023L360.032 143.985Z" fill="#141722" stroke="white" stroke-width="0.529458" stroke-miterlimit="10"/>
<path d="M386.301 147.969C394.971 140.849 396.213 128.061 389.075 119.404C381.936 110.748 369.121 109.502 360.45 116.621C351.78 123.741 350.538 136.529 357.676 145.186C364.815 153.842 377.63 155.088 386.301 147.969Z" fill="#EEF558" stroke="#141722" stroke-width="0.529458" stroke-miterlimit="10"/>
<path d="M381.762 147.15C390.437 140.037 391.688 127.249 384.556 118.587C377.424 109.926 364.609 108.671 355.933 115.784C347.258 122.898 346.007 135.686 353.139 144.347C360.272 153.009 373.086 154.264 381.762 147.15Z" fill="white" stroke="#141722" stroke-width="0.529458" stroke-miterlimit="10"/>
<path d="M375.376 141.858L373.778 139.53C372.345 140.522 370.706 141.176 368.983 141.444L367.709 138.057C369.405 137.854 371.021 137.227 372.409 136.234C373.762 135.239 374.316 134.022 373.639 133.044C372.963 132.065 371.828 132.081 369.644 132.762C366.484 133.751 363.9 133.799 362.254 131.422C360.762 129.264 361.066 126.494 363.255 124.112L361.657 121.783L363.991 120.072L365.482 122.225C366.68 121.373 368.046 120.786 369.489 120.502L370.72 123.777C369.272 124.023 367.901 124.6 366.713 125.462C365.168 126.595 365.115 127.647 365.616 128.333C366.175 129.141 367.369 129.046 369.931 128.333C373.474 127.27 375.552 127.802 377.076 130.003C378.6 132.204 378.376 135.144 375.978 137.642L377.71 140.141L375.376 141.858Z" fill="#0D0E0E"/>
<path d="M13.002 142.39L2 149.12C2 149.12 9.56023 141.438 11.2119 141.438C12.8635 141.438 13.002 142.39 13.002 142.39Z" fill="white" stroke="#141722" stroke-width="0.529458" stroke-miterlimit="10"/>
</svg>
