<svg width="340" height="301" viewBox="0 0 340 301" fill="none" xmlns="http://www.w3.org/2000/svg">
<path d="M93.3267 68.2948C96.3805 64.9548 122.791 62.3257 154.917 62.3257C186.471 62.3257 212.509 64.8498 216.321 68.1183C216.456 68.2128 216.569 68.3357 216.651 68.4783C216.734 68.6208 216.784 68.7797 216.799 68.9437C216.799 72.6035 189.091 75.5666 154.912 75.5666C120.734 75.5666 93.0261 72.6035 93.0261 68.9437C93.0384 68.6966 93.1462 68.464 93.3267 68.2948Z" fill="#1DA2B4"/>
<path d="M198.653 72.6706H206.287V40.7923C206.287 39.7799 205.885 38.809 205.169 38.0931C204.453 37.3773 203.483 36.9751 202.47 36.9751C201.458 36.9751 200.487 37.3773 199.771 38.0931C199.055 38.809 198.653 39.7799 198.653 40.7923V72.6706Z" fill="#1DA2B4"/>
<path d="M185.245 72.6705H192.88V54.1285C192.88 53.1161 192.477 52.1452 191.762 51.4293C191.046 50.7135 190.075 50.3113 189.062 50.3113C188.05 50.3113 187.079 50.7135 186.363 51.4293C185.647 52.1452 185.245 53.1161 185.245 54.1285V72.6705Z" fill="#1DA2B4"/>
<path d="M188.379 44.0846C189.391 44.0846 190.362 43.6824 191.078 42.9666C191.794 42.2507 192.196 41.2798 192.196 40.2674V39.0745C192.196 38.0621 191.794 37.0912 191.078 36.3754C190.362 35.6595 189.391 35.2573 188.379 35.2573C187.367 35.2573 186.396 35.6595 185.68 36.3754C184.964 37.0912 184.562 38.0621 184.562 39.0745V40.2674C184.562 41.2798 184.964 42.2507 185.68 42.9666C186.396 43.6824 187.367 44.0846 188.379 44.0846Z" fill="#1DA2B4"/>
<path d="M122.138 41.3885C123.15 41.3885 124.121 40.9864 124.837 40.2705C125.553 39.5546 125.955 38.5837 125.955 37.5713V36.3785C125.955 35.3661 125.553 34.3952 124.837 33.6793C124.121 32.9634 123.15 32.5613 122.138 32.5613C121.125 32.5613 120.154 32.9634 119.438 33.6793C118.723 34.3952 118.32 35.3661 118.32 36.3785V37.5713C118.32 38.5837 118.723 39.5546 119.438 40.2705C120.154 40.9864 121.125 41.3885 122.138 41.3885Z" fill="#1DA2B4"/>
<path d="M188.032 23.2617C189.044 23.2617 190.015 22.8595 190.731 22.1437C191.447 21.4278 191.849 20.4569 191.849 19.4445V11.8101C191.849 10.7977 191.447 9.82681 190.731 9.11095C190.015 8.39508 189.044 7.99292 188.032 7.99292C187.02 7.99292 186.049 8.39508 185.333 9.11095C184.617 9.82681 184.215 10.7977 184.215 11.8101V19.4445C184.215 20.4569 184.617 21.4278 185.333 22.1437C186.049 22.8595 187.02 23.2617 188.032 23.2617Z" fill="#1DA2B4"/>
<path d="M161.602 44.0844C162.615 44.0844 163.586 43.6823 164.301 42.9664C165.017 42.2505 165.419 41.2796 165.419 40.2672V28.1334C165.419 27.121 165.017 26.1501 164.301 25.4342C163.586 24.7183 162.615 24.3162 161.602 24.3162C160.59 24.3162 159.619 24.7183 158.903 25.4342C158.187 26.1501 157.785 27.121 157.785 28.1334V40.2672C157.785 41.2796 158.187 42.2505 158.903 42.9664C159.619 43.6823 160.59 44.0844 161.602 44.0844Z" fill="#1DA2B4"/>
<path d="M121.436 24.3165C122.448 24.3165 123.419 23.9143 124.135 23.1984C124.851 22.4826 125.253 21.5117 125.253 20.4993V8.37017C125.253 7.35779 124.851 6.38687 124.135 5.671C123.419 4.95514 122.448 4.55298 121.436 4.55298C120.423 4.55298 119.452 4.95514 118.737 5.671C118.021 6.38687 117.619 7.35779 117.619 8.37017V20.5041C117.62 21.5156 118.023 22.4853 118.738 23.2001C119.454 23.915 120.424 24.3165 121.436 24.3165Z" fill="#1DA2B4"/>
<path d="M118.32 72.6705H125.955V54.1285C125.955 53.1161 125.553 52.1452 124.837 51.4293C124.121 50.7135 123.15 50.3113 122.138 50.3113C121.125 50.3113 120.154 50.7135 119.438 51.4293C118.723 52.1452 118.32 53.1161 118.32 54.1285V72.6705Z" fill="#1DA2B4"/>
<path d="M158.487 72.6705H166.121V54.1285C166.121 53.1161 165.719 52.1452 165.003 51.4293C164.287 50.7135 163.316 50.3113 162.304 50.3113C161.292 50.3113 160.321 50.7135 159.605 51.4293C158.889 52.1452 158.487 53.1161 158.487 54.1285V72.6705Z" fill="#1DA2B4"/>
<path d="M161.602 8.87067C162.615 8.87067 163.586 8.4685 164.301 7.75264C165.017 7.03678 165.419 6.06586 165.419 5.05348V4.52862C165.419 3.51623 165.017 2.54532 164.301 1.82946C163.586 1.11359 162.615 0.711426 161.602 0.711426C160.59 0.711426 159.619 1.11359 158.903 1.82946C158.187 2.54532 157.785 3.51623 157.785 4.52862V5.05348C157.785 6.06586 158.187 7.03678 158.903 7.75264C159.619 8.4685 160.59 8.87067 161.602 8.87067Z" fill="#1DA2B4"/>
<path d="M174.814 32.986C175.827 32.986 176.798 32.5838 177.514 31.868C178.229 31.1521 178.632 30.1812 178.632 29.1688V19.4493C178.632 18.4369 178.229 17.466 177.514 16.7501C176.798 16.0342 175.827 15.6321 174.814 15.6321C173.802 15.6321 172.831 16.0342 172.115 16.7501C171.399 17.466 170.997 18.4369 170.997 19.4493V29.1688C170.997 30.1812 171.399 31.1521 172.115 31.868C172.831 32.5838 173.802 32.986 174.814 32.986Z" fill="#1DA2B4"/>
<path d="M134.825 30.4568C135.837 30.4568 136.808 30.0546 137.524 29.3387C138.24 28.6229 138.642 27.652 138.642 26.6396V14.1717C138.642 13.1593 138.24 12.1884 137.524 11.4725C136.808 10.7567 135.837 10.3545 134.825 10.3545C133.812 10.3545 132.841 10.7567 132.126 11.4725C131.41 12.1884 131.007 13.1593 131.007 14.1717V26.6444C131.009 27.6559 131.411 28.6256 132.127 29.3404C132.843 30.0553 133.813 30.4568 134.825 30.4568Z" fill="#1DA2B4"/>
<path d="M108.748 47.0284C109.761 47.0284 110.732 46.6263 111.448 45.9104C112.164 45.1945 112.566 44.2236 112.566 43.2112V30.7386C112.566 29.7262 112.164 28.7553 111.448 28.0394C110.732 27.3236 109.761 26.9214 108.748 26.9214C107.736 26.9214 106.765 27.3236 106.049 28.0394C105.333 28.7553 104.931 29.7262 104.931 30.7386V43.2112C104.931 44.2236 105.333 45.1945 106.049 45.9104C106.765 46.6263 107.736 47.0284 108.748 47.0284Z" fill="#1DA2B4"/>
<path d="M148.915 43.259C149.927 43.259 150.898 42.8568 151.614 42.1409C152.33 41.4251 152.732 40.4542 152.732 39.4418V38.9217C152.732 37.9093 152.33 36.9384 151.614 36.2225C150.898 35.5067 149.927 35.1045 148.915 35.1045C147.902 35.1045 146.931 35.5067 146.216 36.2225C145.5 36.9384 145.098 37.9093 145.098 38.9217V39.4418C145.098 40.4542 145.5 41.4251 146.216 42.1409C146.931 42.8568 147.902 43.259 148.915 43.259Z" fill="#1DA2B4"/>
<path d="M145.098 72.6705H152.732V57.5831C152.732 56.5707 152.33 55.5998 151.614 54.8839C150.898 54.168 149.927 53.7659 148.915 53.7659C147.902 53.7659 146.931 54.168 146.216 54.8839C145.5 55.5998 145.098 56.5707 145.098 57.5831V72.6705Z" fill="#1DA2B4"/>
<path d="M148.213 33.768C149.225 33.768 150.196 33.3659 150.912 32.65C151.628 31.9342 152.03 30.9632 152.03 29.9509V6.26519C152.03 5.25281 151.628 4.28189 150.912 3.56603C150.196 2.85017 149.225 2.448 148.213 2.448C147.201 2.448 146.23 2.85017 145.514 3.56603C144.798 4.28189 144.396 5.25281 144.396 6.26519V29.9652C144.4 30.9751 144.804 31.9423 145.519 32.6551C146.234 33.3679 147.203 33.7681 148.213 33.768Z" fill="#1DA2B4"/>
<path d="M104.931 72.6705H112.566V57.5831C112.566 56.5707 112.164 55.5998 111.448 54.8839C110.732 54.168 109.761 53.7659 108.748 53.7659C107.736 53.7659 106.765 54.168 106.049 54.8839C105.333 55.5998 104.931 56.5707 104.931 57.5831V72.6705Z" fill="#1DA2B4"/>
<path d="M171.885 72.6705H179.52V43.9605C179.52 42.9481 179.117 41.9772 178.402 41.2613C177.686 40.5455 176.715 40.1433 175.702 40.1433C174.69 40.1433 173.719 40.5455 173.003 41.2613C172.287 41.9772 171.885 42.9481 171.885 43.9605V72.6705Z" fill="#1DA2B4"/>
<path d="M131.708 72.6705H139.343V43.9605C139.343 42.9481 138.941 41.9772 138.225 41.2613C137.509 40.5455 136.538 40.1433 135.526 40.1433C134.513 40.1433 133.542 40.5455 132.826 41.2613C132.111 41.9772 131.708 42.9481 131.708 43.9605V72.6705Z" fill="#1DA2B4"/>
<path d="M186.299 246.549C155.208 246.549 145.135 231.28 145.135 231.28V220.243C145.135 220.243 183.422 211.44 209.613 185.808C208.463 209.412 216.813 225.821 186.299 246.549Z" fill="white" stroke="#141722" stroke-width="0.464585" stroke-miterlimit="10"/>
<path d="M143.399 287.373V264.341L227.463 262.972V288.738C227.463 295.418 208.582 300.829 185.292 300.829C162.003 300.829 143.117 295.418 143.117 288.738C143.123 288.269 143.219 287.806 143.399 287.373Z" fill="#1DA2B4"/>
<path d="M185.292 275.044C162.002 275.044 143.122 269.63 143.122 262.953C143.122 256.275 162.002 250.862 185.292 250.862C208.583 250.862 227.463 256.275 227.463 262.953C227.463 269.63 208.583 275.044 185.292 275.044Z" fill="#141722" stroke="white" stroke-width="0.494239" stroke-miterlimit="10"/>
<path d="M79.2086 148.241C79.8718 146.461 81.1172 144.329 83.0257 141.766C94.3246 126.798 94.1719 109.797 87.5539 101.466C80.9358 93.1353 83.5315 76.4065 83.5315 76.4065H83.5697L85.6119 73.367C86.4993 72.054 87.638 70.9298 88.9623 70.0592C90.2866 69.1887 91.7701 68.589 93.3274 68.295C93.1486 68.4649 93.0426 68.6975 93.0315 68.9439C93.0315 72.6036 120.74 75.5667 154.918 75.5667C189.096 75.5667 216.804 72.6036 216.804 68.9439C216.789 68.7798 216.739 68.621 216.657 68.4784C216.574 68.3358 216.462 68.213 216.327 68.1184C219.353 68.3356 222.185 69.6912 224.253 71.9125C226.32 74.1338 227.469 77.0557 227.468 80.0901V143.494C227.468 143.494 180.541 213.73 120.668 210.008C120.668 210.008 110.209 210.104 117.118 204.344C123.736 198.833 91.9771 195.956 98.8146 185.258C99.5923 184.6 100.089 184.099 99.9407 183.803C99.3633 182.653 95.0451 184.667 90.1544 180.635C86.1654 177.352 93.8379 164.512 93.2319 159.559C100.351 157.417 103.109 153.003 103.109 153.003C79.2181 156.878 79.2086 148.241 79.2086 148.241Z" fill="white" stroke="#141722" stroke-width="0.464585" stroke-miterlimit="10"/>
<path d="M185.292 270.563C205.237 270.563 215.935 266.679 218.735 265.491C219.234 265.281 219.659 264.928 219.958 264.477C220.258 264.026 220.417 263.497 220.417 262.955C220.417 262.414 220.258 261.885 219.958 261.434C219.659 260.983 219.234 260.63 218.735 260.419C215.935 259.226 205.237 255.347 185.292 255.347C165.347 255.347 154.65 259.226 151.844 260.419C151.345 260.63 150.92 260.983 150.621 261.434C150.322 261.885 150.162 262.414 150.162 262.955C150.162 263.497 150.322 264.026 150.621 264.477C150.92 264.928 151.345 265.281 151.844 265.491C154.65 266.679 165.342 270.563 185.292 270.563ZM185.292 256.726C204.97 256.726 215.448 260.543 218.187 261.688C218.434 261.791 218.645 261.964 218.793 262.186C218.942 262.408 219.021 262.669 219.021 262.936C219.021 263.203 218.942 263.465 218.793 263.687C218.645 263.909 218.434 264.082 218.187 264.184C215.448 265.358 204.97 269.175 185.292 269.175C165.614 269.175 155.131 265.358 152.369 264.217C152.124 264.114 151.915 263.94 151.768 263.718C151.621 263.496 151.542 263.236 151.542 262.97C151.542 262.703 151.621 262.443 151.768 262.221C151.915 261.999 152.124 261.826 152.369 261.722C155.131 260.543 165.61 256.769 185.292 256.769V256.726Z" stroke="#1DA2B4" stroke-width="0.494239" stroke-miterlimit="10"/>
<path d="M91.304 157.598C85.8168 157.121 75.9827 156.839 79.2083 148.241C79.2083 148.241 79.2083 156.877 103.109 153.012C103.109 153.012 100.351 157.426 93.2317 159.568C93.0933 158.423 92.5303 157.703 91.304 157.598Z" fill="#141722"/>
<path d="M193.519 115.533C196.701 108.418 201.406 103.265 206.984 103.265C207.912 103.33 208.83 103.503 209.718 103.78L209.808 103.833L231.829 114.33V144.639C231.829 144.639 196.806 174.284 193.519 115.533Z" stroke="#141722" stroke-width="0.494239" stroke-miterlimit="10" stroke-linecap="round"/>
<path d="M113.262 122.461C125.1 122.461 141.953 121.712 164.184 119.011L163.706 115.008C115.61 120.858 92.3488 117.394 92.1341 117.346L91.8001 121.392C92.2915 121.473 99.1911 122.461 113.262 122.461Z" fill="#141722"/>
<path d="M227.186 203.581C227.076 203.676 215.887 213.157 199.989 215.104C198.605 215.281 197.333 215.957 196.412 217.005C195.491 218.053 194.985 219.401 194.988 220.796V245.794" stroke="#141722" stroke-width="0.494239" stroke-miterlimit="10"/>
<path d="M195.208 231.871C195.036 231.871 178.03 232.911 168.917 229.962C168.535 229.837 168.128 229.805 167.732 229.869C167.335 229.933 166.959 230.091 166.636 230.33C166.302 230.569 166.031 230.884 165.844 231.249C165.657 231.614 165.561 232.019 165.562 232.429V243.719" stroke="#141722" stroke-width="0.494239" stroke-miterlimit="10"/>
<path d="M215.481 106.319C215.352 106.405 202.355 114.726 202.355 134.132C202.355 151.429 212.041 160.027 214.226 161.744C212.795 162.556 208.105 164.903 204.173 163.596L203.996 163.539L199.75 166.678C198.951 167.257 198.362 168.079 198.069 169.021C197.777 169.963 197.797 170.974 198.127 171.903C199.912 176.975 204.116 188.918 204.612 190.216L205.285 189.968C204.807 188.675 200.589 176.741 198.805 171.669C198.524 170.883 198.505 170.026 198.751 169.228C198.997 168.43 199.495 167.733 200.17 167.241L204.13 164.316C209.097 165.838 214.804 162.231 215.047 162.074L215.496 161.787L215.057 161.492" stroke="white" stroke-width="0.494239" stroke-miterlimit="10"/>
<path d="M191.94 148.575L203.897 145.173" stroke="white" stroke-width="0.494239" stroke-miterlimit="10"/>
<path d="M176.069 208.768L176.699 208.462C176.594 208.247 166.201 186.833 164.713 160.967C164.616 159.302 165.026 157.647 165.89 156.221C166.754 154.795 168.031 153.664 169.551 152.979C177.105 149.48 184.105 144.89 190.326 139.357L190.445 139.242V139.075" stroke="white" stroke-width="0.494239" stroke-miterlimit="10"/>
<path d="M207.294 115.447C207.294 115.447 201.449 112.784 196.071 110.375" stroke="white" stroke-width="0.494239" stroke-miterlimit="10"/>
<path d="M143.461 220.677L140.226 207.317C139.764 205.434 140.03 203.446 140.971 201.75C141.913 200.055 143.46 198.778 145.303 198.175C153.768 195.275 161.575 190.726 168.272 184.791" stroke="white" stroke-width="0.494239" stroke-miterlimit="10"/>
<path d="M188.971 300.8H189.672V292.555C189.67 290.756 190.369 289.027 191.621 287.734C192.872 286.442 194.578 285.687 196.376 285.632C216.698 284.902 227.558 277.42 227.663 277.348L227.262 276.771C227.157 276.847 216.445 284.21 196.352 284.935C194.372 285.001 192.494 285.834 191.117 287.259C189.739 288.683 188.97 290.588 188.971 292.569V300.8Z" fill="#141722"/>
<path d="M118.239 119.407V116.64C118.236 115.944 118.371 115.255 118.636 114.612C118.901 113.969 119.292 113.385 119.785 112.894L123.846 108.852C124.405 108.298 124.848 107.638 125.15 106.911C125.451 106.183 125.605 105.403 125.602 104.615V87.1613C125.6 85.8886 125.1 84.6672 124.208 83.7597C123.315 82.8522 122.103 82.3312 120.83 82.3087C92.2679 82.0463 83.8367 76.1964 83.7555 76.1392" stroke="white" stroke-width="0.494239" stroke-miterlimit="10"/>
<path d="M163.931 125.066C159.44 125.066 155.8 121.426 155.8 116.936C155.8 112.445 159.44 108.805 163.931 108.805C168.421 108.805 172.061 112.445 172.061 116.936C172.061 121.426 168.421 125.066 163.931 125.066Z" fill="#141722"/>
<path d="M163.93 122.761C165.083 122.762 166.21 122.421 167.169 121.782C168.127 121.142 168.875 120.233 169.316 119.168C169.758 118.104 169.874 116.932 169.65 115.802C169.426 114.671 168.871 113.633 168.057 112.817C167.242 112.002 166.204 111.447 165.074 111.222C163.943 110.996 162.772 111.112 161.707 111.552C160.642 111.993 159.732 112.74 159.091 113.698C158.451 114.656 158.109 115.783 158.109 116.935C158.112 118.479 158.726 119.959 159.817 121.05C160.908 122.142 162.387 122.758 163.93 122.761ZM163.93 112.512C164.805 112.512 165.66 112.772 166.388 113.258C167.115 113.744 167.682 114.434 168.017 115.243C168.352 116.051 168.439 116.94 168.269 117.798C168.098 118.656 167.677 119.444 167.058 120.063C166.44 120.682 165.651 121.103 164.793 121.274C163.935 121.444 163.046 121.357 162.238 121.022C161.43 120.687 160.739 120.12 160.253 119.393C159.767 118.665 159.507 117.81 159.507 116.935C159.509 115.763 159.975 114.638 160.804 113.809C161.633 112.98 162.758 112.513 163.93 112.512Z" fill="#1DA2B4"/>
<path d="M158.806 116.234H169.055V117.637H158.806V116.234Z" fill="#1DA2B4"/>
<path d="M232.368 177.357C291.248 184.514 334.626 179.476 338.691 162.513C344.226 139.414 274.753 102.965 183.546 81.1066C92.3389 59.2484 13.8909 60.2552 8.35594 83.354C4.63418 98.8947 34.8425 120.471 82.7912 139.581" stroke="#141722" stroke-width="0.494239" stroke-miterlimit="10"/>
<path d="M8.20815 96.0219C4.14728 96.0219 0.8553 92.7299 0.8553 88.669C0.8553 84.6082 4.14728 81.3162 8.20815 81.3162C12.269 81.3162 15.561 84.6082 15.561 88.669C15.561 92.7299 12.269 96.0219 8.20815 96.0219Z" fill="#1DA2B4"/>
<path d="M110.017 224.38C100.517 219.775 108.863 208.262 106.563 203.657C104.263 199.053 95.3356 198.476 93.3172 193.866C91.819 190.44 96.538 187.186 98.814 185.249C91.9764 195.937 123.735 198.814 117.117 204.335C110.208 210.094 120.667 209.999 120.667 209.999C180.54 213.73 227.463 115.533 227.463 115.533V231.289C227.463 231.289 217.385 246.558 186.299 246.558C216.837 225.83 208.463 209.421 209.613 185.817C183.422 211.435 145.136 220.253 145.136 220.253C127.51 224.876 113.195 225.931 110.017 224.38Z" fill="#141722"/>
<path d="M213.492 162.408C212.371 163.178 211.127 163.751 209.813 164.102C208.974 164.323 208.109 164.435 207.241 164.436C197.641 164.436 189.854 150.87 189.854 134.132C189.854 127.118 191.223 120.667 193.523 115.523C196.811 174.279 231.833 144.629 231.833 144.629V153.948L213.492 162.408Z" fill="#141722"/>
<path d="M231.829 153.957C225.544 153.957 220.449 145.081 220.449 134.132C220.449 123.183 225.544 114.306 231.829 114.306C238.114 114.306 243.209 123.183 243.209 134.132C243.209 145.081 238.114 153.957 231.829 153.957Z" fill="#141722"/>
<path d="M231.829 151.204C235.909 151.204 240.456 144.195 240.456 134.132C240.456 124.069 235.909 117.059 231.829 117.059C227.749 117.059 223.207 124.069 223.207 134.132C223.207 144.195 227.749 151.204 231.829 151.204ZM231.829 118.457C235.169 118.457 239.053 125.304 239.053 134.132C239.053 142.959 235.169 149.806 231.829 149.806C228.489 149.806 224.605 142.959 224.605 134.132C224.605 125.304 228.489 118.457 231.829 118.457Z" stroke="#1DA2B4" stroke-width="0.494239" stroke-miterlimit="10"/>
<path d="M227.377 82.5569L179.538 85.4198C179.538 85.4198 171.689 85.143 169.938 92.9015C168.187 100.66 167.628 108.046 165.782 109.707" stroke="white" stroke-width="0.494239" stroke-miterlimit="10"/>
</svg>
