<svg width="300" height="300" viewBox="0 0 300 300" fill="none" xmlns="http://www.w3.org/2000/svg">
<mask id="mask0_1474_3267" style="mask-type:alpha" maskUnits="userSpaceOnUse" x="0" y="0" width="300" height="300">
<rect width="300" height="300" fill="#D9D9D9"/>
</mask>
<g mask="url(#mask0_1474_3267)">
<path fill-rule="evenodd" clip-rule="evenodd" d="M36.489 71.1143C37.1414 74.1874 38.5803 76.9491 40.5705 79.1356C42.8115 81.5976 45.7515 83.3302 49.0553 83.9582C45.7395 84.6453 42.7906 86.3883 40.5697 88.8643C38.5992 91.0612 37.2018 93.8352 36.6298 96.9198C35.8701 93.5217 34.2389 90.5017 31.944 88.2144C29.7884 86.0659 27.0471 84.5636 24 84.0008C27.0476 83.4094 29.7885 81.9072 31.9438 79.7591C34.2255 77.4851 35.8509 74.4871 36.489 71.1143Z" fill="#58C8D2" stroke="#131313" stroke-width="1.16162"/>
<path fill-rule="evenodd" clip-rule="evenodd" d="M52.6398 62.501C52.8655 63.2417 53.2408 63.9117 53.7281 64.4706C54.3049 65.1322 55.0386 65.6381 55.8668 65.9222C55.1096 66.2341 54.4325 66.6787 53.8832 67.2576C53.3378 67.8325 52.9181 68.54 52.6715 69.3301C52.3488 68.4626 51.8699 67.6954 51.2457 67.0939C50.7101 66.5779 50.0675 66.1834 49.3574 65.9515C50.1412 65.6887 50.8423 65.2349 51.4081 64.6386C51.9685 64.0479 52.3962 63.3173 52.6398 62.501Z" fill="#58C8D2" stroke="#131313" stroke-width="1.16162"/>
<path fill-rule="evenodd" clip-rule="evenodd" d="M242.279 304.872V140.709C242.279 96.8301 207.928 61.2588 165.554 61.2588H165.553C123.179 61.2588 88.8281 96.8301 88.8281 140.709V304.872H242.279Z" fill="#2A3832"/>
<path fill-rule="evenodd" clip-rule="evenodd" d="M242.279 304.872V140.709C242.279 96.8301 207.928 61.2588 165.554 61.2588H165.553C123.179 61.2588 88.8281 96.8301 88.8281 140.709V304.872H242.279Z" stroke="#231815" stroke-width="0.575"/>
<path fill-rule="evenodd" clip-rule="evenodd" d="M226.228 304.872V140.709C226.228 96.8301 191.877 61.2588 149.503 61.2588H149.502C107.128 61.2588 72.7773 96.8301 72.7773 140.709V304.872H226.228Z" fill="#FDF3F3"/>
<path fill-rule="evenodd" clip-rule="evenodd" d="M226.228 304.872V140.709C226.228 96.8301 191.877 61.2588 149.503 61.2588H149.502C107.128 61.2588 72.7773 96.8301 72.7773 140.709V304.872H226.228Z" stroke="#231815" stroke-width="0.575"/>
<mask id="mask1_1474_3267" style="mask-type:luminance" maskUnits="userSpaceOnUse" x="80" y="71" width="138" height="234">
<path d="M149.408 71.2334C111.571 71.2334 80.8975 105.348 80.8975 147.431V304.871H217.919V147.431C217.919 105.348 187.246 71.2334 149.409 71.2334H149.408Z" fill="#1B1616"/>
</mask>
<g mask="url(#mask1_1474_3267)">
<path fill-rule="evenodd" clip-rule="evenodd" d="M217.1 304.871V145.454C217.1 102.842 186.45 68.2998 148.64 68.2998C110.83 68.2998 80.1787 102.842 80.1787 145.454V304.871H217.1Z" fill="#1B1616"/>
</g>
<mask id="mask2_1474_3267" style="mask-type:luminance" maskUnits="userSpaceOnUse" x="80" y="70" width="139" height="236">
<path d="M149.408 71.2334C111.571 71.2334 80.8975 105.348 80.8975 147.431V304.871H217.919V147.431C217.919 105.348 187.246 71.2334 149.409 71.2334H149.408Z" stroke="#231815" stroke-width="0.575"/>
</mask>
<g mask="url(#mask2_1474_3267)">
<path fill-rule="evenodd" clip-rule="evenodd" d="M217.1 304.871V145.454C217.1 102.842 186.45 68.2998 148.64 68.2998C110.83 68.2998 80.1787 102.842 80.1787 145.454V304.871H217.1Z" stroke="#231815" stroke-width="0.575"/>
</g>
<path fill-rule="evenodd" clip-rule="evenodd" d="M217.919 306.338V133.745C217.919 98.4104 192.637 69.7671 161.45 69.7671C130.263 69.7671 98.957 98.4104 98.957 133.745V306.338H217.919Z" fill="#00A5B7"/>
<mask id="mask3_1474_3267" style="mask-type:luminance" maskUnits="userSpaceOnUse" x="80" y="70" width="139" height="236">
<path d="M149.408 71.2334C111.571 71.2334 80.8975 105.348 80.8975 147.431V304.871H217.919V147.431C217.919 105.348 187.246 71.2334 149.409 71.2334H149.408Z" stroke="#231815" stroke-width="0.575"/>
</mask>
<g mask="url(#mask3_1474_3267)">
<path fill-rule="evenodd" clip-rule="evenodd" d="M217.919 306.338V133.745C217.919 98.4104 192.637 69.7671 161.45 69.7671C130.263 69.7671 98.957 98.4104 98.957 133.745V306.338H217.919Z" stroke="#231815" stroke-width="0.575"/>
</g>
<path fill-rule="evenodd" clip-rule="evenodd" d="M217.919 304.872V147.432C217.919 105.349 187.246 71.2344 149.408 71.2344C111.571 71.2344 80.8975 105.349 80.8975 147.432V304.872H217.919Z" stroke="#1B1616" stroke-width="0.575"/>
<path d="M99.58 245.441C105.734 231.741 100.623 214.933 84.1963 206.473C67.7697 198.013 50.3059 204.266 44.1516 217.967C37.9972 231.667 45.3863 248.766 60.6556 256.157C75.9249 263.548 93.4256 259.142 99.58 245.441Z" fill="#0D0E0E"/>
<path d="M101.58 241.29C107.734 227.589 102.623 210.782 86.1963 202.321C69.7697 193.861 52.3059 200.115 46.1516 213.815C39.9972 227.516 47.3863 244.614 62.6556 252.005C77.9249 259.396 95.4256 254.99 101.58 241.29Z" fill="#FF9D27"/>
<mask id="mask4_1474_3267" style="mask-type:luminance" maskUnits="userSpaceOnUse" x="43" y="198" width="62" height="58">
<g opacity="0.530122">
<path d="M101.58 241.289C107.734 227.589 102.623 210.781 86.1963 202.321C69.7697 193.86 52.3059 200.114 46.1516 213.815C39.9972 227.515 47.3863 244.613 62.6556 252.004C77.9249 259.396 95.4256 254.99 101.58 241.289Z" fill="#FFE0BB"/>
</g>
</mask>
<g mask="url(#mask4_1474_3267)">
<path opacity="0.530122" fill-rule="evenodd" clip-rule="evenodd" d="M43.5078 208.823L79.0185 258.306L103.616 248.915L106.166 240.756L71.0361 196.575L53.6626 195.355L43.5078 208.823Z" fill="#FFE0BB"/>
</g>
<mask id="mask5_1474_3267" style="mask-type:luminance" maskUnits="userSpaceOnUse" x="43" y="198" width="62" height="58">
<g opacity="0.306771">
<path d="M101.58 241.289C107.734 227.589 102.623 210.781 86.1963 202.321C69.7697 193.86 52.3059 200.114 46.1516 213.815C39.9972 227.515 47.3863 244.613 62.6556 252.004C77.9249 259.396 95.4256 254.99 101.58 241.289Z" fill="#FB8E0C"/>
</g>
</mask>
<g mask="url(#mask5_1474_3267)">
<path opacity="0.306771" fill-rule="evenodd" clip-rule="evenodd" d="M68.4661 193.533L106.43 241.024L130.519 230.313L132.653 222.027L95.3374 179.81L77.926 179.533L68.4661 193.533Z" fill="#FB8E0C"/>
</g>
<mask id="mask6_1474_3267" style="mask-type:luminance" maskUnits="userSpaceOnUse" x="43" y="198" width="62" height="58">
<path d="M101.58 241.289C107.734 227.589 102.623 210.781 86.1963 202.321C69.7697 193.86 52.3059 200.114 46.1516 213.815C39.9972 227.515 47.3863 244.613 62.6556 252.004C77.9249 259.396 95.4256 254.99 101.58 241.289Z" fill="#111F2C"/>
</mask>
<g mask="url(#mask6_1474_3267)">
<path fill-rule="evenodd" clip-rule="evenodd" d="M50.1719 205.732C66.2626 196.993 80.2267 197.82 92.0643 208.213C103.902 218.606 105.593 232.244 97.1389 249.127L106.643 234.578L108.791 210.79L95.1652 203.975L78.0874 195.355L67.0529 196.575L50.1719 205.732Z" fill="#111F2C"/>
</g>
<path fill-rule="evenodd" clip-rule="evenodd" d="M62.9943 201.129C69.6598 199.133 77.4153 199.582 84.9109 203.39C92.3772 207.184 97.3337 212.933 99.8136 219.299C102.475 226.133 102.284 233.676 99.2811 240.269C96.4076 246.579 90.9077 250.767 84.3405 252.55C77.6522 254.366 69.8569 253.689 62.5967 250.223C55.4 246.787 50.0599 241.094 47.2445 234.668C44.4311 228.246 44.1392 221.091 47.0381 214.726C50.0299 208.156 55.8936 203.255 62.9943 201.129Z" stroke="white" stroke-width="0.5"/>
<path opacity="0.463988" fill-rule="evenodd" clip-rule="evenodd" d="M144.597 145.796L173.714 176.446L131.171 220.592L101.643 188.853L144.597 145.796Z" fill="url(#paint0_linear_1474_3267)"/>
<path opacity="0.463988" fill-rule="evenodd" clip-rule="evenodd" d="M149.011 253.63L173.256 274.961L133.053 316.81L111.258 293.383L149.011 253.63Z" fill="url(#paint1_linear_1474_3267)"/>
<path d="M138.835 96.8461C142.559 88.7093 139.466 78.7273 129.526 73.7026C119.585 68.6779 109.017 72.3921 105.293 80.5289C101.569 88.6656 106.04 98.8203 115.28 103.21C124.52 107.6 135.111 104.983 138.835 96.8461Z" fill="#0D0E0E"/>
<path d="M140.835 94.7699C144.559 86.6331 141.466 76.6511 131.526 71.6264C121.585 66.6017 111.017 70.3159 107.293 78.4527C103.569 86.5894 108.04 96.7441 117.28 101.134C126.52 105.523 137.111 102.907 140.835 94.7699Z" fill="#FF9D27"/>
<mask id="mask7_1474_3267" style="mask-type:luminance" maskUnits="userSpaceOnUse" x="105" y="69" width="38" height="35">
<g opacity="0.530122">
<path d="M140.836 94.7704C144.56 86.6336 141.467 76.6516 131.527 71.6269C121.586 66.6022 111.018 70.3164 107.294 78.4532C103.57 86.5899 108.041 96.7446 117.281 101.134C126.521 105.524 137.112 102.907 140.836 94.7704Z" fill="#FFE0BB"/>
</g>
</mask>
<g mask="url(#mask7_1474_3267)">
<path opacity="0.530122" fill-rule="evenodd" clip-rule="evenodd" d="M105.694 75.4889L127.183 104.877L142.068 99.2996L143.611 94.4539L122.353 68.2147L111.839 67.4902L105.694 75.4889Z" fill="#FFE0BB"/>
</g>
<mask id="mask8_1474_3267" style="mask-type:luminance" maskUnits="userSpaceOnUse" x="105" y="69" width="38" height="35">
<g opacity="0.306771">
<path d="M140.836 94.7704C144.56 86.6336 141.467 76.6516 131.527 71.6269C121.586 66.6022 111.018 70.3164 107.294 78.4532C103.57 86.5899 108.041 96.7446 117.281 101.134C126.521 105.524 137.112 102.907 140.836 94.7704Z" fill="#FB8E0C"/>
</g>
</mask>
<g mask="url(#mask8_1474_3267)">
<path opacity="0.306771" fill-rule="evenodd" clip-rule="evenodd" d="M120.797 66.4075L143.771 94.6129L158.348 88.2517L159.639 83.3305L137.058 58.2575L126.522 58.0929L120.797 66.4075Z" fill="#FB8E0C"/>
</g>
<mask id="mask9_1474_3267" style="mask-type:luminance" maskUnits="userSpaceOnUse" x="105" y="69" width="38" height="35">
<path d="M140.836 94.7704C144.56 86.6336 141.467 76.6516 131.527 71.6269C121.586 66.6022 111.018 70.3164 107.294 78.4532C103.57 86.5899 108.041 96.7446 117.281 101.134C126.521 105.524 137.112 102.907 140.836 94.7704Z" fill="#111F2C"/>
</mask>
<g mask="url(#mask9_1474_3267)">
<path fill-rule="evenodd" clip-rule="evenodd" d="M109.727 73.6533C119.464 68.4629 127.914 68.954 135.077 75.1266C142.241 81.2993 143.264 89.3989 138.148 99.4255L143.9 90.785L145.199 76.6572L136.954 72.6098L126.619 67.4902L119.942 68.2148L109.727 73.6533Z" fill="#111F2C"/>
</g>
<path fill-rule="evenodd" clip-rule="evenodd" d="M117.489 70.928C121.52 69.7432 126.211 70.0099 130.745 72.2705C135.261 74.5221 138.258 77.9347 139.758 81.7136C141.368 85.769 141.252 90.2458 139.436 94.1589C137.699 97.9038 134.373 100.389 130.401 101.447C126.356 102.525 121.641 102.123 117.249 100.065C112.896 98.0257 109.667 94.6469 107.964 90.8323C106.263 87.0214 106.086 82.7755 107.839 78.9978C109.648 75.0985 113.194 72.1899 117.489 70.928Z" stroke="white" stroke-width="0.5"/>
<mask id="mask10_1474_3267" style="mask-type:luminance" maskUnits="userSpaceOnUse" x="106" y="69" width="36" height="34">
<g opacity="0.572287">
<path d="M139.476 94.1793C142.993 86.5989 140.151 76.9098 130.763 72.2287C121.375 67.5476 111.315 71.3974 107.797 78.9778C104.28 86.5582 108.503 96.0186 117.23 100.108C125.956 104.198 135.958 101.76 139.476 94.1793Z" stroke="white" stroke-width="0.5"/>
</g>
</mask>
<g mask="url(#mask10_1474_3267)">
<path opacity="0.572287" d="M118.238 98.2258C121.318 99.7294 124.578 100.269 127.577 99.9281C129.999 99.6525 132.251 98.8023 134.1 97.4208M137.901 92.7882C138.484 91.5435 138.871 90.2344 139.061 88.9014C139.274 87.4098 139.24 85.8881 138.958 84.3929C138.443 81.6564 137.098 79.0085 134.913 76.7958C133.616 75.4829 132.024 74.3232 130.135 73.3891M123.337 71.6654C119.813 71.5163 116.506 72.6035 113.948 74.5664C112.266 75.8566 110.908 77.525 110.024 79.4694" stroke="white" stroke-width="0.5"/>
</g>
<mask id="mask11_1474_3267" style="mask-type:alpha" maskUnits="userSpaceOnUse" x="197" y="218" width="21" height="35">
<rect x="197" y="218" width="21" height="35" fill="#D9D9D9"/>
</mask>
<g mask="url(#mask11_1474_3267)">
<path d="M229.113 241.133C231.262 236.438 229.477 230.678 223.741 227.778C218.005 224.879 211.907 227.022 209.757 231.717C207.608 236.413 210.189 242.272 215.521 244.806C220.853 247.339 226.964 245.829 229.113 241.133Z" fill="#0D0E0E"/>
<path d="M230.267 239.936C232.416 235.24 230.631 229.48 224.895 226.581C219.159 223.681 213.061 225.824 210.912 230.52C208.763 235.215 211.343 241.075 216.675 243.608C222.007 246.141 228.118 244.631 230.267 239.936Z" fill="#FF9D27"/>
<mask id="mask12_1474_3267" style="mask-type:luminance" maskUnits="userSpaceOnUse" x="210" y="225" width="22" height="20">
<g opacity="0.530122">
<path d="M230.268 239.936C232.417 235.24 230.632 229.48 224.896 226.581C219.16 223.681 213.062 225.824 210.913 230.52C208.764 235.215 211.344 241.075 216.676 243.608C222.008 246.141 228.119 244.631 230.268 239.936Z" fill="#FFE0BB"/>
</g>
</mask>
<g mask="url(#mask12_1474_3267)">
<path opacity="0.530122" fill-rule="evenodd" clip-rule="evenodd" d="M209.989 228.809L222.389 245.768L230.979 242.549L231.869 239.753L219.602 224.612L213.535 224.194L209.989 228.809Z" fill="#FFE0BB"/>
</g>
<mask id="mask13_1474_3267" style="mask-type:luminance" maskUnits="userSpaceOnUse" x="210" y="225" width="22" height="20">
<path d="M230.268 239.936C232.417 235.24 230.632 229.48 224.896 226.581C219.16 223.681 213.062 225.824 210.913 230.52C208.764 235.215 211.344 241.075 216.676 243.608C222.008 246.141 228.119 244.631 230.268 239.936Z" fill="#111F2C"/>
</mask>
<g mask="url(#mask13_1474_3267)">
<path fill-rule="evenodd" clip-rule="evenodd" d="M212.316 227.75C217.935 224.755 222.811 225.039 226.945 228.6C231.079 232.162 231.669 236.836 228.717 242.622L232.036 237.636L232.786 229.484L228.028 227.148L222.064 224.194L218.211 224.612L212.316 227.75Z" fill="#111F2C"/>
</g>
<path fill-rule="evenodd" clip-rule="evenodd" d="M216.795 226.178C219.121 225.494 221.828 225.648 224.444 226.952C227.05 228.252 228.78 230.221 229.646 232.402C230.574 234.742 230.508 237.325 229.46 239.583C228.457 241.744 226.538 243.178 224.246 243.789C221.912 244.411 219.191 244.179 216.657 242.991C214.145 241.814 212.281 239.865 211.299 237.663C210.317 235.464 210.215 233.014 211.226 230.834C212.271 228.584 214.317 226.906 216.795 226.178Z" stroke="white" stroke-width="0.5"/>
<mask id="mask14_1474_3267" style="mask-type:luminance" maskUnits="userSpaceOnUse" x="210" y="225" width="21" height="20">
<g opacity="0.572287">
<path d="M229.483 239.595C231.512 235.221 229.873 229.629 224.455 226.928C219.038 224.227 213.232 226.449 211.203 230.823C209.173 235.197 211.61 240.656 216.646 243.016C221.681 245.376 227.453 243.969 229.483 239.595Z" stroke="white" stroke-width="0.5"/>
</g>
</mask>
<g mask="url(#mask14_1474_3267)">
<path opacity="0.572287" d="M217.227 241.93C219.004 242.797 220.885 243.109 222.616 242.912C224.014 242.753 225.313 242.262 226.38 241.465M228.574 238.792C228.91 238.074 229.133 237.318 229.243 236.549C229.365 235.688 229.346 234.81 229.184 233.947C228.886 232.368 228.11 230.84 226.849 229.564C226.101 228.806 225.182 228.137 224.092 227.598M220.169 226.603C218.136 226.517 216.227 227.144 214.751 228.277C213.781 229.022 212.997 229.984 212.487 231.106" stroke="white" stroke-width="0.5"/>
</g>
</g>
<path fill-rule="evenodd" clip-rule="evenodd" d="M152.369 169.109C161.029 176.926 170.595 180.221 173.735 176.47C173.934 176.232 174.92 175.171 175.058 174.89C177.109 170.736 171.853 162.846 163.742 155.525C155.701 148.267 147.432 144.025 143.698 146.584C143.41 146.781 142.599 147.896 142.375 148.164C139.234 151.915 143.709 161.293 152.369 169.109Z" fill="#1E1E1E"/>
<path d="M154.029 167.127C162.689 174.943 172.255 178.239 175.396 174.487C178.536 170.736 174.062 161.359 165.402 153.542C156.742 145.726 147.176 142.43 144.035 146.181C140.895 149.933 145.369 159.31 154.029 167.127Z" fill="#00A5B7"/>
<path d="M154.1 167.041C162.714 174.816 172.211 178.116 175.312 174.413C178.412 170.709 173.943 161.404 165.329 153.629C156.715 145.854 147.219 142.554 144.118 146.257C141.017 149.961 145.487 159.266 154.1 167.041Z" fill="#00A5B7" stroke="#1E1E1E" stroke-width="0.575"/>
<path fill-rule="evenodd" clip-rule="evenodd" d="M155.855 270.466C162.496 276.46 169.805 279.021 172.18 276.184C172.33 276.005 173.076 275.203 173.18 274.99C174.722 271.841 170.675 265.809 164.454 260.195C158.287 254.629 151.962 251.355 149.129 253.281C148.911 253.429 148.298 254.273 148.129 254.476C145.754 257.312 149.213 264.471 155.855 270.466Z" fill="#1E1E1E"/>
<path d="M157.117 269.413C163.665 275.323 170.898 277.815 173.272 274.979C175.647 272.142 172.264 265.052 165.716 259.142C159.168 253.232 151.935 250.74 149.561 253.577C147.186 256.413 150.569 263.503 157.117 269.413Z" fill="#00A5B7"/>
<path d="M157.19 269.327C163.691 275.195 170.855 277.692 173.189 274.903C175.524 272.114 172.146 265.096 165.644 259.228C159.143 253.359 151.979 250.863 149.645 253.652C147.31 256.44 150.688 263.458 157.19 269.327Z" fill="#00A5B7" stroke="#1E1E1E" stroke-width="0.575"/>
<path d="M195.685 152.017C198.12 152.017 200.095 149.967 200.095 147.439C200.095 144.911 198.12 142.861 195.685 142.861C193.249 142.861 191.274 144.911 191.274 147.439C191.274 149.967 193.249 152.017 195.685 152.017Z" fill="white"/>
<path d="M189.549 284.571C191.137 284.571 192.425 285.907 192.425 287.556C192.425 289.205 191.137 290.542 189.549 290.542C187.961 290.542 186.673 289.205 186.673 287.556C186.673 285.907 187.961 284.571 189.549 284.571Z" fill="white"/>
</g>
<defs>
<linearGradient id="paint0_linear_1474_3267" x1="159.672" y1="161.354" x2="114.852" y2="203.051" gradientUnits="userSpaceOnUse">
<stop stop-color="white"/>
<stop offset="1" stop-color="white" stop-opacity="0"/>
</linearGradient>
<linearGradient id="paint1_linear_1474_3267" x1="162.645" y1="263.555" x2="120.224" y2="303.021" gradientUnits="userSpaceOnUse">
<stop stop-color="white"/>
<stop offset="1" stop-color="white" stop-opacity="0"/>
</linearGradient>
</defs>
</svg>
