<svg xmlns="http://www.w3.org/2000/svg" viewBox="0 0 43 32" class="design-iconfont"><g fill="none" fill-rule="evenodd"><path fill="#F99C2C" d="M4.88853402e-12 0L12.3023662 19.30061 21.5 7.88589066 15.1296296 32 4.88853402e-12 32z" transform="translate(21.5)"/><path fill="#E74C14" d="M8.86019231 13.9003435L12.3023662 19.30061 21.5 7.88589066z" transform="translate(21.5)"/><path fill="#E65054" d="M0 13.5932503L4.59883976 20.4178962 0 27.2745945z" transform="translate(21.5)"/><path fill="#E38700" d="M12.0284695 32L4.59883976 20.4178962 0 27.1134381 5.46991462e-12 32z" transform="translate(21.5)"/><path fill="#AB0D01" d="M4.59883976 20.4178962L0 27.2745945 0 20.4367931z" transform="translate(21.5)"/><path fill="#E33534" d="M2.26725539 16.9239495L4.62167806 20.4178962 2.29941988 23.8802964 0.0228383038 20.4348903z" transform="translate(21.5)"/><path fill="#B70F03" d="M4.62167806 20.4178962L2.29941988 23.8802964 0.0228383038 20.4348903z" transform="translate(21.5)"/><g><path fill="#FFBA00" d="M3.63797881e-12 0L12.3023662 19.30061 21.5 7.88589066 15.1296296 32 3.63797881e-12 32z" transform="matrix(-1 0 0 1 21.5 0)"/><path fill="#FC8000" d="M8.86019231 13.9003435L12.3023662 19.30061 21.5 7.88589066z" transform="matrix(-1 0 0 1 21.5 0)"/><path fill="#FD8F88" d="M0 13.5932503L4.59883976 20.4178962 0 27.2745945z" transform="matrix(-1 0 0 1 21.5 0)"/><path fill="#DE504B" d="M4.59883976 20.4178962L1.09139364e-11 27.2745945 1.09139364e-11 20.4367931z" transform="matrix(-1 0 0 1 21.5 0)"/><path fill="#F67F79" d="M2.24441708 16.9239495L4.59883976 20.4178962 2.27658157 23.8802964 1.09139364e-11 20.4348903z" transform="matrix(-1 0 0 1 21.5 0)"/><path fill="#F0545F" d="M4.59883976 20.4178962L2.27658157 23.8802964 1.09139364e-11 20.4348903z" transform="matrix(-1 0 0 1 21.5 0)"/></g><path d="M19.1504793,14.991428 C19.2824411,16.192431 20.2206568,17.1905297 21.3949675,17.3883434 L21.3961371,17.4291757 C20.2217391,17.6273744 19.2820175,18.5903217 19.1496964,19.7914062 L19.1168953,19.7914062 C18.9739717,18.4903205 17.9110564,17.4680272 16.5962002,17.3958888 C17.911057,17.3151334 18.9742876,16.2925313 19.1176624,14.991428 L19.1504793,14.991428 Z" fill="#FFF" fill-rule="nonzero" transform="rotate(-2 18.996169 17.391417)"/></g></svg>