<svg width="24" height="24" viewBox="0 0 24 24" fill="none" xmlns="http://www.w3.org/2000/svg"><circle cx="12" cy="12" r="12" fill="#35A9E4"/><path d="M16.9359 9.48521C16.9626 9.54438 16.9626 9.66272 16.9626 9.81065C16.9626 10.9645 16.7222 12.0888 16.2147 13.1538C15.6805 14.2781 14.9594 15.1953 14.0246 15.8757C13.0096 16.6154 11.8077 17 10.4989 17C9.21688 17 8.06837 16.6154 7 15.8757C7.16026 15.9053 7.34722 15.9053 7.53419 15.9053C8.60256 15.9053 9.5374 15.5503 10.3654 14.8106C9.85791 14.8106 9.40385 14.6331 9.02991 14.3077C8.65597 13.9822 8.38888 13.568 8.22863 13.0651C8.36218 13.0947 8.52244 13.0947 8.62927 13.0947C8.84295 13.0947 9.02991 13.0651 9.24359 13.0355C8.73611 12.9172 8.28205 12.6213 7.93483 12.1479C7.58762 11.6746 7.42735 11.142 7.42735 10.5503V10.4911C7.74786 10.6982 8.09509 10.8166 8.44231 10.8166C8.1485 10.5799 7.88141 10.284 7.69445 9.89941C7.50747 9.54438 7.40064 9.13018 7.40064 8.68639C7.40064 8.2426 7.50747 7.8284 7.72115 7.41421C8.28205 8.21302 8.9765 8.83432 9.80449 9.27811C10.6325 9.7219 11.4872 9.98817 12.422 10.0473C12.3953 9.86982 12.3686 9.66272 12.3686 9.48521C12.3686 9.04142 12.4754 8.62721 12.6624 8.21302C12.8494 7.79883 13.1432 7.50296 13.4904 7.29585C13.8643 7.11834 14.2382 7 14.6656 7C14.9861 7 15.3066 7.05918 15.6004 7.2071C15.8942 7.35503 16.1346 7.53254 16.3483 7.79882C16.8825 7.68048 17.3632 7.47337 17.7906 7.2071C17.6303 7.79882 17.2831 8.27218 16.8023 8.59763C17.2297 8.53846 17.657 8.39054 18.1111 8.18343C17.7639 8.68639 17.39 9.13018 16.9359 9.48521Z" fill="white"/></svg>