<svg width="24" height="24" viewBox="0 0 24 24" fill="none" xmlns="http://www.w3.org/2000/svg">
<path d="M12 24C18.65 24 24 18.65 24 12C24 5.34996 18.65 0 12 0C5.34996 0 0 5.34996 0 12C0 18.65 5.34996 24 12 24Z" fill="#2775CA"/>
<path d="M15.2996 13.8999C15.2996 12.1499 14.2496 11.5499 12.1496 11.2999C10.6496 11.0999 10.3496 10.6999 10.3496 9.99985C10.3496 9.29977 10.8496 8.84989 11.8496 8.84989C12.7496 8.84989 13.2496 9.14989 13.4996 9.89989C13.5496 10.0499 13.6996 10.1499 13.8496 10.1499H14.6495C14.8496 10.1499 14.9996 9.99985 14.9996 9.79993V9.74989C14.7995 8.64985 13.8995 7.79989 12.7496 7.69993V6.49993C12.7496 6.29989 12.5996 6.14989 12.3496 6.09985H11.5996C11.3996 6.09985 11.2496 6.24985 11.1995 6.49993V7.64989C9.69953 7.84993 8.74961 8.84989 8.74961 10.0999C8.74961 11.7499 9.74957 12.3999 11.8496 12.6499C13.2496 12.8999 13.6996 13.1999 13.6996 13.9999C13.6996 14.8 12.9995 15.3499 12.0496 15.3499C10.7495 15.3499 10.2995 14.7999 10.1495 14.0499C10.0996 13.8499 9.94961 13.7499 9.79961 13.7499H8.94953C8.74961 13.7499 8.59961 13.8999 8.59961 14.0999V14.1499C8.79953 15.3999 9.59957 16.2999 11.2496 16.5499V17.7499C11.2496 17.9499 11.3996 18.0999 11.6495 18.1499H12.3995C12.5996 18.1499 12.7496 17.9999 12.7996 17.7499V16.5499C14.2996 16.2999 15.2996 15.2499 15.2996 13.8999V13.8999Z" fill="white"/>
<path fill-rule="evenodd" clip-rule="evenodd" d="M5.00004 9.54992C3.54996 13.4 5.55 17.75 9.45 19.1499C9.6 19.25 9.75 19.4499 9.75 19.5999V20.3C9.75 20.4 9.75 20.45 9.69996 20.4999C9.65004 20.7 9.45 20.7999 9.24996 20.7C6.45 19.8 4.29996 17.6499 3.39996 14.85C1.89996 10.1 4.5 5.04992 9.24996 3.54992C9.3 3.5 9.39996 3.5 9.45 3.5C9.65004 3.54992 9.75 3.69992 9.75 3.89996V4.59992C9.75 4.85 9.65004 5 9.45 5.09996C7.40004 5.84996 5.75004 7.44992 5.00004 9.54992ZM14.3 3.74996C14.35 3.54992 14.55 3.44996 14.75 3.54992C17.5 4.44992 19.7 6.59996 20.6 9.44996C22.1 14.1999 19.5 19.25 14.75 20.75C14.7 20.7999 14.6 20.7999 14.55 20.7999C14.35 20.75 14.25 20.6 14.25 20.4V19.7C14.25 19.4499 14.35 19.2999 14.55 19.2C16.6 18.45 18.25 16.85 19 14.75C20.45 10.8999 18.45 6.54992 14.55 5.15C14.4 5.04992 14.25 4.85 14.25 4.64996V3.95C14.25 3.84992 14.25 3.8 14.3 3.74996Z" fill="white"/>
</svg>
