<svg width="24" height="24" viewBox="0 0 24 24" fill="none" xmlns="http://www.w3.org/2000/svg">
<rect opacity="0.01" width="24" height="24" fill="black"/>
<path d="M23.9783 11.996C23.9783 18.5906 18.6326 23.9363 12.038 23.9363C5.44357 23.9363 0.0976563 18.5906 0.0976562 11.996C0.0976562 5.40145 5.44357 0.0556641 12.038 0.0556641C18.6326 0.0556641 23.9783 5.40145 23.9783 11.996Z" fill="#1BA27A"/>
<path d="M17.6422 6.07617H6.33594V8.80572H10.6243V12.8177H13.3538V8.80572H17.6422V6.07617Z" fill="white"/>
<path fill-rule="evenodd" clip-rule="evenodd" d="M12.0154 10.5833C15.9988 10.5833 19.2279 11.3072 19.2279 12.2003C19.2279 12.9909 16.6978 13.6489 13.3541 13.7896V19.5466H10.6248V13.7873C7.30673 13.6421 4.80273 12.9868 4.80273 12.2003C4.80273 11.3072 8.03211 10.5833 12.0154 10.5833ZM5.59229 11.9907C5.59229 12.6833 8.46835 13.2448 12.0158 13.2448C15.5633 13.2448 18.4392 12.6833 18.4392 11.9907C18.4392 11.2981 15.5633 10.7366 12.0158 10.7366C8.46823 10.7366 5.59229 11.2981 5.59229 11.9907Z" fill="white"/>
</svg>
