<svg width="103" height="118" viewBox="0 0 103 118" fill="none" xmlns="http://www.w3.org/2000/svg">
<mask id="mask0_1280_793" style="mask-type:alpha" maskUnits="userSpaceOnUse" x="0" y="0" width="103" height="118">
<path d="M52.9453 0.451529L100.835 28.1008C101.878 28.7028 102.52 29.8154 102.52 31.0195V86.318C102.52 87.5221 101.878 88.6347 100.835 89.2367L52.9453 116.886C51.9025 117.488 50.6178 117.488 49.575 116.886L1.68513 89.2367C0.642367 88.6347 0 87.5221 0 86.318V31.0195C0 29.8154 0.642367 28.7028 1.68513 28.1008L49.575 0.451529C50.6178 -0.15051 51.9025 -0.15051 52.9453 0.451529Z" fill="white"/>
</mask>
<g mask="url(#mask0_1280_793)">
<path d="M52.9453 0.451529L100.835 28.1008C101.878 28.7028 102.52 29.8154 102.52 31.0195V86.318C102.52 87.5221 101.878 88.6347 100.835 89.2367L52.9453 116.886C51.9025 117.488 50.6178 117.488 49.575 116.886L1.68513 89.2367C0.642367 88.6347 0 87.5221 0 86.318V31.0195C0 29.8154 0.642367 28.7028 1.68513 28.1008L49.575 0.451529C50.6178 -0.15051 51.9025 -0.15051 52.9453 0.451529Z" fill="#B0B0B0"/>
<path fill-rule="evenodd" clip-rule="evenodd" d="M52.9453 2.55797L99.011 29.154C100.054 29.7561 100.696 30.8687 100.696 32.0728V85.2648C100.696 86.4689 100.054 87.5815 99.011 88.1836L52.9453 114.78C51.9025 115.382 50.6178 115.382 49.5751 114.78L3.50935 88.1836C2.46659 87.5815 1.82422 86.4689 1.82422 85.2648V32.0728C1.82422 30.8687 2.46659 29.7561 3.50935 29.154L49.5751 2.55797C50.6178 1.95594 51.9025 1.95594 52.9453 2.55797Z" fill="#B0B0B0"/>
<mask id="mask1_1280_793" style="mask-type:alpha" maskUnits="userSpaceOnUse" x="1" y="2" width="100" height="114">
<path fill-rule="evenodd" clip-rule="evenodd" d="M52.9453 2.55797L99.011 29.154C100.054 29.7561 100.696 30.8687 100.696 32.0728V85.2648C100.696 86.4689 100.054 87.5815 99.011 88.1836L52.9453 114.78C51.9025 115.382 50.6178 115.382 49.5751 114.78L3.50935 88.1836C2.46659 87.5815 1.82422 86.4689 1.82422 85.2648V32.0728C1.82422 30.8687 2.46659 29.7561 3.50935 29.154L49.5751 2.55797C50.6178 1.95594 51.9025 1.95594 52.9453 2.55797Z" fill="#D6D6D6"/>
</mask>
<g mask="url(#mask1_1280_793)">
<path opacity="0.4" d="M77.5426 3.4292L69.9595 -9.70508L-10.6704 36.8466L-3.08732 49.9809L77.5426 3.4292Z" fill="white"/>
<path opacity="0.4" d="M102.906 26.0742L95.3225 12.9399L-12.6704 75.2897L-5.08737 88.424L102.906 26.0742Z" fill="white"/>
<path opacity="0.4" d="M130.289 75.7856L122.706 62.6514L14.7126 125.001L22.2957 138.135L130.289 75.7856Z" fill="white"/>
</g>
</g>
<mask id="mask2_1280_793" style="mask-type:alpha" maskUnits="userSpaceOnUse" x="7" y="8" width="89" height="101">
<path d="M52.9453 8.87731L93.5384 32.3137C94.5812 32.9158 95.2236 34.0284 95.2236 35.2325V82.1053C95.2236 83.3094 94.5812 84.422 93.5384 85.0241L52.9453 108.46C51.9026 109.063 50.6179 109.063 49.5751 108.46L8.982 85.0241C7.93924 84.422 7.29688 83.3094 7.29688 82.1053V35.2325C7.29688 34.0284 7.93924 32.9158 8.982 32.3137L49.5751 8.87731C50.6179 8.27527 51.9026 8.27527 52.9453 8.87731Z" fill="white"/>
</mask>
<g mask="url(#mask2_1280_793)">
<path fill-rule="evenodd" clip-rule="evenodd" d="M51.2602 9.26855C51.6966 9.26855 52.133 9.38144 52.524 9.6072L93.1171 33.0436C93.5082 33.2694 93.8241 33.5909 94.0423 33.9688C94.2605 34.3468 94.381 34.7812 94.381 35.2327V82.1055C94.381 83.0086 93.8992 83.8431 93.1171 84.2946L52.524 107.731C52.133 107.957 51.6966 108.07 51.2602 108.07C50.8238 108.07 50.3874 107.957 49.9963 107.731L9.40325 84.2946C9.01222 84.0688 8.69625 83.7473 8.47805 83.3694C8.25985 82.9914 8.1394 82.5571 8.1394 82.1055V35.2327C8.1394 34.3296 8.62118 33.4952 9.40325 33.0436L49.9963 9.6072C50.3874 9.38144 50.8238 9.26855 51.2602 9.26855Z" fill="url(#paint0_linear_1280_793)" stroke="white" stroke-width="1.68513"/>
<path fill-rule="evenodd" clip-rule="evenodd" d="M30.8281 38.2368H72.1138L77.5904 50.454L51.2603 84.9991L24.9302 50.454L30.8281 38.2368Z" fill="#ECECEC"/>
<path fill-rule="evenodd" clip-rule="evenodd" d="M51.2602 84.9992L71.2088 105.337L110.713 79.297L72.1137 38.2369L51.2602 84.9992Z" fill="url(#paint1_linear_1280_793)"/>
<path fill-rule="evenodd" clip-rule="evenodd" d="M30.8281 38.2368L40.5176 50.454H24.9302L30.8281 38.2368Z" fill="#C6C8CC"/>
<path fill-rule="evenodd" clip-rule="evenodd" d="M72.1137 38.2368L62.0029 50.454H77.5903L72.1137 38.2368Z" fill="#C5C5C7"/>
<path fill-rule="evenodd" clip-rule="evenodd" d="M51.2603 84.999V50.4539H24.9302L51.2603 84.999Z" fill="#F4F4F4"/>
<path fill-rule="evenodd" clip-rule="evenodd" d="M51.2603 84.999L40.5176 50.4539H24.9302L51.2603 84.999Z" fill="#D5D7DC"/>
<path fill-rule="evenodd" clip-rule="evenodd" d="M51.2602 84.999L62.0029 50.4539H77.5903L51.2602 84.999Z" fill="#C5C5C7"/>
<path fill-rule="evenodd" clip-rule="evenodd" d="M51.2603 84.999L34.0647 50.4539H24.9302L51.2603 84.999Z" fill="#E6E6E6"/>
<path fill-rule="evenodd" clip-rule="evenodd" d="M67.5105 51.3761L65.3776 49.3397L68.2429 48.6426L70.2793 46.5098L70.9765 49.375L73.1093 51.4114L70.244 52.1086L68.2076 54.2414L67.5105 51.3761Z" fill="white"/>
<path fill-rule="evenodd" clip-rule="evenodd" d="M51.0496 38.2368L62.0029 50.454H51.0496V38.2368Z" fill="#F4F4F4"/>
</g>
<defs>
<linearGradient id="paint0_linear_1280_793" x1="51.2602" y1="9.26855" x2="51.2602" y2="108.07" gradientUnits="userSpaceOnUse">
<stop stop-color="#8B8B8B"/>
<stop offset="1" stop-color="#C7C7C7"/>
</linearGradient>
<linearGradient id="paint1_linear_1280_793" x1="54.5" y1="66.0002" x2="79.5" y2="84.5002" gradientUnits="userSpaceOnUse">
<stop stop-color="#575757"/>
<stop offset="1" stop-color="#5E5E5E" stop-opacity="0"/>
</linearGradient>
</defs>
</svg>
